<svg width="161" height="46" viewBox="0 0 161 46" fill="none" xmlns="http://www.w3.org/2000/svg">
    <path d="M65.9027 25.1209H60.6206L59.5598 28.4331C59.4299 28.4908 59.2928 28.5341 59.1485 28.563C59.0042 28.5918 58.831 28.6063 58.629 28.6063C58.2682 28.6063 57.9723 28.5269 57.7414 28.3681C57.5105 28.2094 57.395 27.9713 57.395 27.6538C57.395 27.495 57.4167 27.3435 57.46 27.1991C57.5033 27.0404 57.561 26.8672 57.6331 26.6796C57.8208 26.0734 58.0805 25.2941 58.4125 24.3416C58.7588 23.3747 59.1196 22.3572 59.4949 21.2892C59.8845 20.2213 60.2742 19.1749 60.6639 18.1503C61.0535 17.1111 61.3927 16.2236 61.6813 15.4875C61.8257 15.4009 62.0494 15.3216 62.3524 15.2494C62.6555 15.1628 62.9658 15.1195 63.2833 15.1195C63.7018 15.1195 64.0771 15.1773 64.409 15.2927C64.7409 15.4082 64.9646 15.6102 65.0801 15.8989C65.3976 16.7215 65.744 17.6596 66.1192 18.7131C66.4944 19.7522 66.8697 20.8274 67.2449 21.9387C67.6201 23.0499 67.9809 24.1396 68.3273 25.2075C68.6737 26.2755 68.984 27.2424 69.2582 28.1084C69.1283 28.2527 68.9551 28.3681 68.7386 28.4547C68.5366 28.5558 68.2912 28.6063 68.0026 28.6063C67.6129 28.6063 67.3315 28.5341 67.1583 28.3898C66.9851 28.231 66.8408 27.9713 66.7253 27.6105L65.9027 25.1209ZM63.2616 17.1328C63.1173 17.5225 62.9586 17.9626 62.7854 18.4533C62.6122 18.944 62.4318 19.4636 62.2442 20.012C62.0566 20.546 61.869 21.0944 61.6813 21.6572C61.4937 22.2057 61.3133 22.7396 61.1401 23.2592H65.4048C65.2172 22.6819 65.0224 22.1046 64.8203 21.5274C64.6327 20.9356 64.4451 20.3728 64.2575 19.8388C64.0843 19.3048 63.9183 18.8069 63.7596 18.3451C63.6008 17.8688 63.4709 17.4647 63.3699 17.1328H63.2616Z" fill="#010101"/>
    <path d="M72.6907 28.5413C72.2722 28.5413 71.9619 28.462 71.7599 28.3032C71.5578 28.1444 71.4568 27.8775 71.4568 27.5022V14.3618C71.5578 14.333 71.7021 14.2969 71.8898 14.2536C72.0774 14.2103 72.2794 14.1887 72.4959 14.1887C72.9144 14.1887 73.2247 14.268 73.4268 14.4268C73.6288 14.5855 73.7298 14.8525 73.7298 15.2278V28.3681C73.6144 28.4114 73.4629 28.4475 73.2752 28.4764C73.102 28.5197 72.9072 28.5413 72.6907 28.5413Z" fill="#010101"/>
    <path d="M81.4335 28.7145C80.9717 28.7145 80.5387 28.664 80.1346 28.563C79.7305 28.4764 79.3842 28.3609 79.0955 28.2166V32.2864C78.9945 32.3297 78.8502 32.3658 78.6626 32.3947C78.4894 32.438 78.2945 32.4596 78.0781 32.4596C77.6595 32.4596 77.3492 32.3803 77.1472 32.2215C76.9451 32.0627 76.8441 31.7885 76.8441 31.3989V20.2068C76.8441 19.8893 76.9018 19.6368 77.0173 19.4491C77.1328 19.2471 77.3492 19.0523 77.6667 18.8646C78.0708 18.6337 78.5615 18.4317 79.1388 18.2585C79.7305 18.0709 80.3944 17.9771 81.1304 17.9771C81.8809 17.9771 82.5809 18.0853 83.2303 18.3018C83.8797 18.5038 84.4426 18.8213 84.9189 19.2543C85.3951 19.6873 85.7703 20.2429 86.0446 20.9212C86.3188 21.5851 86.4559 22.3788 86.4559 23.3025C86.4559 24.2117 86.326 25.0055 86.0662 25.6838C85.8209 26.3477 85.4745 26.9105 85.0271 27.3723C84.5941 27.8197 84.0674 28.1589 83.4468 28.3898C82.8406 28.6063 82.1695 28.7145 81.4335 28.7145ZM81.0871 26.8744C82.0252 26.8744 82.7685 26.593 83.3169 26.0302C83.8653 25.4529 84.1395 24.5437 84.1395 23.3025C84.1395 22.6675 84.0601 22.1263 83.9014 21.6789C83.7426 21.2315 83.5262 20.8707 83.252 20.5965C82.9922 20.3078 82.6747 20.1058 82.2994 19.9903C81.9386 19.8604 81.549 19.7955 81.1304 19.7955C80.6686 19.7955 80.2717 19.8532 79.9398 19.9687C79.6223 20.0697 79.3409 20.1924 79.0955 20.3367V26.2899C79.3409 26.4631 79.6295 26.6074 79.9614 26.7229C80.2934 26.8239 80.6686 26.8744 81.0871 26.8744Z" fill="#010101"/>
    <path d="M92.7467 26.961C93.2518 26.961 93.692 26.9105 94.0672 26.8095C94.4424 26.7085 94.7094 26.6002 94.8682 26.4848V23.7355L92.5085 23.9736C91.8447 24.0457 91.3468 24.1973 91.0148 24.4282C90.6829 24.6447 90.5169 24.9838 90.5169 25.4457C90.5169 25.9219 90.6973 26.2971 91.0581 26.5714C91.4189 26.8311 91.9818 26.961 92.7467 26.961ZM92.7034 17.9771C94.0455 17.9771 95.1135 18.2729 95.9073 18.8646C96.701 19.4419 97.0979 20.3584 97.0979 21.6139V26.6579C97.0979 26.9899 97.0185 27.2497 96.8598 27.4373C96.7155 27.6105 96.5134 27.7764 96.2537 27.9352C95.8784 28.1517 95.3949 28.3393 94.8032 28.498C94.2115 28.6568 93.526 28.7362 92.7467 28.7362C91.3468 28.7362 90.2499 28.462 89.4562 27.9135C88.6768 27.3651 88.2872 26.5569 88.2872 25.4889C88.2872 24.5364 88.5902 23.8076 89.1964 23.3025C89.817 22.7974 90.7045 22.4871 91.8591 22.3716L94.8682 22.0686V21.5923C94.8682 20.9573 94.6589 20.4955 94.2404 20.2068C93.8363 19.9182 93.2662 19.7739 92.5302 19.7739C91.9529 19.7739 91.3973 19.8532 90.8633 20.012C90.3293 20.1707 89.853 20.3511 89.4345 20.5532C89.2902 20.4377 89.1675 20.3006 89.0665 20.1419C88.9655 19.9687 88.915 19.7811 88.915 19.579C88.915 19.3337 88.9727 19.1316 89.0881 18.9729C89.218 18.8141 89.4129 18.677 89.6726 18.5616C90.0767 18.3595 90.5386 18.2152 91.0581 18.1286C91.5777 18.0276 92.1261 17.9771 92.7034 17.9771Z" fill="#010101"/>
    <path d="M104.972 19.8172C104.51 19.8172 104.085 19.8965 103.695 20.0553C103.305 20.1996 102.966 20.4233 102.678 20.7264C102.403 21.0294 102.18 21.4047 102.006 21.8521C101.848 22.285 101.768 22.7902 101.768 23.3674C101.768 24.5076 102.064 25.3807 102.656 25.9869C103.248 26.5786 104.02 26.8744 104.972 26.8744C105.521 26.8744 105.99 26.8023 106.379 26.6579C106.769 26.5136 107.108 26.3404 107.397 26.1384C107.584 26.2538 107.736 26.391 107.851 26.5497C107.967 26.7085 108.025 26.9033 108.025 27.1342C108.025 27.5816 107.729 27.9568 107.137 28.2599C106.56 28.563 105.795 28.7145 104.842 28.7145C104.049 28.7145 103.32 28.6063 102.656 28.3898C102.006 28.1733 101.444 27.8414 100.967 27.394C100.491 26.9466 100.116 26.391 99.8416 25.7271C99.5819 25.0488 99.452 24.2622 99.452 23.3674C99.452 22.4726 99.5891 21.6861 99.8633 21.0078C100.152 20.3295 100.534 19.7666 101.011 19.3192C101.501 18.8719 102.071 18.5399 102.721 18.3234C103.37 18.0925 104.056 17.9771 104.777 17.9771C105.254 17.9771 105.679 18.0204 106.055 18.107C106.444 18.1935 106.776 18.3162 107.05 18.475C107.325 18.6193 107.534 18.7925 107.678 18.9945C107.837 19.1821 107.916 19.3842 107.916 19.6007C107.916 19.8027 107.859 19.9903 107.743 20.1635C107.642 20.3223 107.512 20.4449 107.354 20.5315C107.05 20.3439 106.711 20.178 106.336 20.0336C105.975 19.8893 105.521 19.8172 104.972 19.8172Z" fill="#010101"/>
    <path d="M114.289 26.961C114.794 26.961 115.234 26.9105 115.61 26.8095C115.985 26.7085 116.252 26.6002 116.411 26.4848V23.7355L114.051 23.9736C113.387 24.0457 112.889 24.1973 112.557 24.4282C112.225 24.6447 112.059 24.9838 112.059 25.4457C112.059 25.9219 112.24 26.2971 112.6 26.5714C112.961 26.8311 113.524 26.961 114.289 26.961ZM114.246 17.9771C115.588 17.9771 116.656 18.2729 117.45 18.8646C118.243 19.4419 118.64 20.3584 118.64 21.6139V26.6579C118.64 26.9899 118.561 27.2497 118.402 27.4373C118.258 27.6105 118.056 27.7764 117.796 27.9352C117.421 28.1517 116.937 28.3393 116.346 28.498C115.754 28.6568 115.068 28.7362 114.289 28.7362C112.889 28.7362 111.792 28.462 110.999 27.9135C110.219 27.3651 109.83 26.5569 109.83 25.4889C109.83 24.5364 110.133 23.8076 110.739 23.3025C111.359 22.7974 112.247 22.4871 113.401 22.3716L116.411 22.0686V21.5923C116.411 20.9573 116.201 20.4955 115.783 20.2068C115.379 19.9182 114.809 19.7739 114.073 19.7739C113.495 19.7739 112.94 19.8532 112.406 20.012C111.872 20.1707 111.395 20.3511 110.977 20.5532C110.833 20.4377 110.71 20.3006 110.609 20.1419C110.508 19.9687 110.457 19.7811 110.457 19.579C110.457 19.3337 110.515 19.1316 110.631 18.9729C110.76 18.8141 110.955 18.677 111.215 18.5616C111.619 18.3595 112.081 18.2152 112.6 18.1286C113.12 18.0276 113.668 17.9771 114.246 17.9771Z" fill="#010101"/>
    <path d="M135.957 16.8297C135.957 17.0751 135.885 17.2915 135.741 17.4792C135.611 17.6668 135.452 17.8039 135.265 17.8905C134.889 17.6451 134.456 17.4142 133.966 17.1977C133.49 16.9813 132.883 16.873 132.147 16.873C131.512 16.873 130.928 16.9813 130.394 17.1977C129.874 17.4142 129.42 17.7317 129.03 18.1503C128.655 18.5688 128.359 19.0883 128.142 19.7089C127.926 20.3295 127.818 21.0439 127.818 21.8521C127.818 23.4829 128.222 24.7168 129.03 25.5539C129.838 26.391 130.906 26.8095 132.234 26.8095C132.941 26.8095 133.554 26.7085 134.074 26.5064C134.594 26.3044 135.041 26.0734 135.416 25.8137C135.575 25.9147 135.719 26.059 135.849 26.2466C135.993 26.4342 136.066 26.6507 136.066 26.8961C136.066 27.0981 136.008 27.2857 135.892 27.4589C135.791 27.6321 135.618 27.7909 135.373 27.9352C135.055 28.1372 134.622 28.3176 134.074 28.4764C133.526 28.6351 132.833 28.7145 131.996 28.7145C131.072 28.7145 130.213 28.5774 129.42 28.3032C128.626 28.0146 127.933 27.5888 127.341 27.026C126.75 26.4487 126.281 25.7343 125.934 24.8828C125.602 24.0169 125.436 23.0066 125.436 21.8521C125.436 20.7264 125.61 19.7306 125.956 18.8646C126.302 17.9987 126.764 17.2771 127.341 16.6998C127.933 16.1225 128.619 15.6896 129.398 15.4009C130.177 15.0979 131.007 14.9463 131.888 14.9463C132.508 14.9463 133.064 15.0041 133.554 15.1195C134.06 15.2205 134.485 15.3577 134.832 15.5308C135.193 15.704 135.467 15.9061 135.654 16.137C135.856 16.3679 135.957 16.5988 135.957 16.8297Z" fill="#010101"/>
    <path d="M140.85 28.3681C140.749 28.4114 140.605 28.4475 140.417 28.4764C140.244 28.5197 140.042 28.5413 139.811 28.5413C139.392 28.5413 139.082 28.462 138.88 28.3032C138.678 28.1444 138.577 27.8775 138.577 27.5022V18.3451C138.692 18.3162 138.837 18.2801 139.01 18.2368C139.198 18.1935 139.407 18.1719 139.638 18.1719C140.056 18.1719 140.359 18.2513 140.547 18.41C140.749 18.5688 140.85 18.843 140.85 19.2327V28.3681ZM138.339 15.1628C138.339 14.7876 138.469 14.4773 138.729 14.232C138.988 13.9722 139.32 13.8423 139.724 13.8423C140.128 13.8423 140.453 13.9722 140.699 14.232C140.944 14.4773 141.067 14.7876 141.067 15.1628C141.067 15.5381 140.944 15.8556 140.699 16.1153C140.453 16.3607 140.128 16.4834 139.724 16.4834C139.32 16.4834 138.988 16.3607 138.729 16.1153C138.469 15.8556 138.339 15.5381 138.339 15.1628Z" fill="#010101"/>
    <path d="M146.218 25.4457C146.218 25.9652 146.369 26.3332 146.672 26.5497C146.975 26.7662 147.401 26.8744 147.95 26.8744C148.195 26.8744 148.455 26.8383 148.729 26.7662C149.003 26.694 149.241 26.6074 149.443 26.5064C149.544 26.6219 149.631 26.7518 149.703 26.8961C149.79 27.0404 149.833 27.2136 149.833 27.4156C149.833 27.7909 149.638 28.1011 149.248 28.3465C148.873 28.5918 148.296 28.7145 147.517 28.7145C146.434 28.7145 145.568 28.4764 144.919 28.0001C144.284 27.5094 143.966 26.7085 143.966 25.5972V15.4875C144.067 15.4587 144.212 15.4226 144.399 15.3793C144.587 15.336 144.789 15.3144 145.005 15.3144C145.424 15.3144 145.727 15.3937 145.915 15.5525C146.117 15.7112 146.218 15.9782 146.218 16.3535V18.4966H149.573C149.631 18.5832 149.681 18.7059 149.725 18.8646C149.782 19.0234 149.811 19.1894 149.811 19.3625C149.811 19.9831 149.544 20.2934 149.01 20.2934H146.218V25.4457Z" fill="#010101"/>
    <path d="M154.137 26.0518C153.777 25.3446 153.336 24.3416 152.817 23.0427C152.297 21.7438 151.792 20.2718 151.301 18.6265C151.431 18.4678 151.605 18.3379 151.821 18.2368C152.038 18.1214 152.268 18.0637 152.514 18.0637C152.831 18.0637 153.091 18.143 153.293 18.3018C153.495 18.4461 153.661 18.7059 153.791 19.0811C154.181 20.2501 154.585 21.4047 155.003 22.5448C155.422 23.6705 155.884 24.8395 156.389 26.0518H156.475C156.692 25.59 156.908 25.0488 157.125 24.4282C157.356 23.8076 157.579 23.151 157.796 22.4582C158.012 21.7655 158.214 21.0655 158.402 20.3584C158.59 19.6368 158.756 18.9512 158.9 18.3018C159.044 18.2296 159.189 18.1719 159.333 18.1286C159.492 18.0853 159.672 18.0637 159.874 18.0637C160.192 18.0637 160.459 18.143 160.675 18.3018C160.892 18.4461 161 18.677 161 18.9945C161 19.3698 160.899 19.947 160.697 20.7264C160.509 21.4913 160.257 22.3428 159.939 23.2808C159.622 24.2045 159.261 25.1426 158.857 26.0951C158.453 27.0476 158.048 27.8919 157.644 28.6279C156.923 29.8979 156.266 30.8649 155.674 31.5288C155.097 32.1926 154.549 32.5246 154.029 32.5246C153.625 32.5246 153.3 32.4091 153.055 32.1782C152.824 31.9617 152.68 31.6875 152.622 31.3556C152.853 31.1535 153.105 30.9082 153.38 30.6195C153.654 30.3309 153.928 30.0206 154.202 29.6887C154.477 29.3567 154.736 29.0104 154.982 28.6496C155.227 28.3032 155.436 27.964 155.609 27.6321C155.364 27.5599 155.126 27.4228 154.895 27.2208C154.664 27.0043 154.412 26.6146 154.137 26.0518Z" fill="#010101"/>
    <g clipPath="url(#clip0)">
        <path d="M23.033 45.5501C35.487 45.5501 45.5831 35.4541 45.5831 23C45.5831 10.546 35.487 0.449951 23.033 0.449951C10.5789 0.449951 0.48291 10.546 0.48291 23C0.48291 35.4541 10.5789 45.5501 23.033 45.5501Z" fill="url(#paint0_linear)"/>
        <mask id="mask0" mask-type="alpha" maskUnits="userSpaceOnUse" x="0" y="0" width="46" height="46">
            <path d="M23.033 45.5501C35.487 45.5501 45.5831 35.4541 45.5831 23C45.5831 10.546 35.487 0.449951 23.033 0.449951C10.5789 0.449951 0.48291 10.546 0.48291 23C0.48291 35.4541 10.5789 45.5501 23.033 45.5501Z" fill="#E5E5E5"/>
        </mask>
        <g mask="url(#mask0)">
            <path d="M44.9172 54.5862C44.9172 54.5753 44.9172 54.5753 44.9172 54.5862C44.9172 54.5753 44.9172 54.5753 44.9172 54.5862C44.0096 52.5194 41.8771 51.1634 38.7715 50.6495C36.2564 50.2339 33.1617 50.4307 30.4826 51.1634C28.9188 47.2376 28.7439 43.0166 28.5798 38.9378C28.5689 38.566 28.547 38.1942 28.5361 37.8224C28.5251 36.9803 28.7657 35.8868 29.9358 35.4822C30.5153 35.2526 31.1059 35.001 31.6745 34.6839C31.8604 34.5855 32.0463 34.4761 32.2322 34.3559C33.5007 33.5466 34.627 32.3765 35.2613 30.5285C35.2722 30.5176 35.2722 30.5066 35.2722 30.4957L35.2831 30.4519V30.441C35.6549 29.0959 35.6769 27.6853 35.3706 26.3293L34.2115 21.2991C34.0366 20.5445 33.7632 19.8337 33.3914 19.1776C33.6319 18.9479 36.3657 16.1922 36.0596 11.9712C35.994 11.1729 35.6003 10.9215 35.2722 10.8449C34.1568 10.5824 32.1447 12.0369 30.6466 13.4803C30.6028 13.4256 30.5482 13.36 30.5044 13.3054C30.0342 12.7804 29.4109 12.4305 28.722 12.2993C28.0768 12.19 27.4097 12.2555 26.8083 12.518C26.8192 12.3539 26.8411 12.19 26.8739 12.0259C26.9286 11.7416 27.027 11.4792 27.1692 11.2276C27.3113 10.987 27.4863 10.7683 27.705 10.5824C27.7269 10.5606 27.7487 10.5388 27.7597 10.5168C27.7706 10.495 27.7706 10.4622 27.7706 10.4293C27.7706 10.4075 27.7596 10.3856 27.7487 10.3638C27.7378 10.3418 27.7269 10.32 27.705 10.3091C27.6831 10.2981 27.6612 10.2763 27.6394 10.2763C27.6175 10.2654 27.5956 10.2654 27.5628 10.2654C27.366 10.2763 27.1801 10.3091 26.9942 10.3747C26.8192 10.4403 26.6443 10.5168 26.4802 10.6152C26.2287 10.7574 26.01 10.9433 25.8132 11.162C25.7585 10.998 25.6819 10.834 25.6054 10.6809C25.4851 10.4293 25.3321 10.1997 25.1461 9.99196C25.1242 9.95912 25.0914 9.94821 25.0587 9.9373C25.0258 9.92629 24.9821 9.92629 24.9492 9.9373C24.9055 9.94821 24.8618 9.98104 24.8399 10.0248C24.8181 10.0684 24.8071 10.1232 24.829 10.1669C24.9055 10.4184 24.9492 10.6699 24.9712 10.9324C24.993 11.1949 24.993 11.4573 24.9492 11.7088C24.9274 11.8837 24.8946 12.0696 24.8399 12.2446C24.4572 12.0259 24.0198 11.9056 23.5823 11.9056C23.145 11.9056 22.7075 12.0369 22.3358 12.2664C22.3139 12.1243 22.3029 11.9931 22.292 11.851C22.2483 11.4354 22.2701 11.0308 22.3467 10.6152C22.4232 10.2216 22.6091 9.86072 22.8825 9.5764C22.9044 9.55449 22.9262 9.52174 22.9371 9.48891C22.9481 9.45611 22.9481 9.42331 22.9371 9.3905C22.9262 9.36863 22.9153 9.34675 22.9044 9.32489C22.8934 9.30302 22.8716 9.29208 22.8497 9.28114C22.8278 9.27021 22.806 9.25928 22.7841 9.25928C22.7622 9.25928 22.7403 9.25928 22.7075 9.27021C22.128 9.43424 21.5922 9.70765 21.1329 10.0904C20.9032 10.2872 20.7064 10.5168 20.5314 10.7574C20.4111 10.9324 20.2908 11.1292 20.2034 11.326C19.8425 10.987 19.3942 10.7356 18.9129 10.6043C18.4318 10.4731 17.9179 10.4622 17.4367 10.5824C17.4039 10.5934 17.3711 10.6043 17.3492 10.6262C17.3273 10.6481 17.3164 10.6809 17.3055 10.7136C17.3055 10.7465 17.3055 10.7793 17.3164 10.8121C17.3273 10.8449 17.3492 10.8668 17.3821 10.8886C17.6882 11.0745 17.9398 11.326 18.1147 11.6432C17.9507 11.6432 17.7757 11.6541 17.6117 11.676C16.9446 11.7744 16.3104 12.0696 15.8183 12.5289C15.3262 12.9882 14.9872 13.6006 14.845 14.2567C14.8013 14.4644 14.7794 14.6832 14.7794 14.9019C14.7028 14.9019 14.6154 14.9019 14.5389 14.9128C12.9314 13.4256 10.5365 11.7635 9.3227 12.1134C9.00558 12.2118 8.62284 12.4852 8.60097 13.2835C8.51349 17.6357 11.5644 20.2712 11.6519 20.3477C11.8706 20.5336 12.0894 20.6866 12.308 20.7961C12.1112 21.3538 11.98 21.9333 11.9035 22.5238L11.302 27.6306C11.138 29.0304 11.3239 30.4519 11.8487 31.7641C13.1282 34.498 15.4137 35.4385 17.6554 36.1711C18.8583 36.5539 18.5849 38.0192 17.7866 42.3605C17.393 44.4929 16.8571 47.4017 16.3213 51.1853C16.2995 51.3275 15.8292 54.8049 15.9386 56.2921C15.9604 57.5715 16.1463 58.84 16.4853 60.0758C16.4963 60.1194 16.8024 61.0818 16.9119 61.3443C16.9337 61.388 18.7161 65.7512 22.6201 67.2384C22.7622 67.5665 23.4293 69.1739 22.6201 70.0815C22.4888 70.1909 21.7671 70.8142 21.7343 71.3391C21.7233 71.4157 21.7343 71.4812 21.7561 71.5578C21.7781 71.6234 21.8218 71.6891 21.8655 71.7437C21.964 71.8421 22.0951 71.9187 22.2264 71.9625C22.3576 72.0062 22.4998 72.028 22.6419 72.0171C22.9262 72.0062 23.1996 71.9625 23.4621 71.864C24.1947 71.7655 24.9712 71.5578 25.2117 70.7376C25.2446 70.6174 25.2664 70.4861 25.2555 70.3549V67.6976C25.4195 67.7961 25.5835 67.8835 25.7475 67.9601C25.8788 68.2881 26.4911 69.9613 25.6491 70.9126C25.518 71.022 24.7743 71.6671 24.7306 72.203C24.7197 72.2795 24.7306 72.3561 24.7633 72.4218C24.7853 72.4873 24.829 72.5529 24.8727 72.6077C25.0805 72.8263 25.3758 72.892 25.671 72.892C25.9553 72.881 26.2506 72.8372 26.524 72.7388C27.2785 72.6404 28.0768 72.4218 28.3283 71.5797C28.3611 71.4485 28.383 71.3173 28.3721 71.186V67.9273C28.6564 67.7742 29.5202 67.2274 30.4607 65.9808C30.581 65.8167 30.7012 65.6528 30.8106 65.4887H30.8216C31.7839 65.4997 32.7462 65.4449 33.6975 65.3247C33.7085 65.3356 33.7303 65.3465 33.7412 65.3574C34.299 65.5981 34.7911 65.9699 35.1738 66.451C35.2613 66.626 35.8628 67.9929 35.1956 68.7474C35.0863 68.8349 34.4959 69.3489 34.463 69.7863C34.463 69.8519 34.463 69.9175 34.4849 69.9722C34.5068 70.0268 34.5395 70.0815 34.5833 70.1363C34.6708 70.2237 34.7692 70.2784 34.8895 70.3222C34.9988 70.3659 35.1191 70.3768 35.2394 70.3768C35.469 70.3768 35.6987 70.3331 35.9174 70.2565C36.5189 70.18 37.1641 70.005 37.3609 69.327C37.3936 69.2286 37.4046 69.1192 37.4046 69.0099V66.4291C37.5795 66.2214 37.7217 65.9917 37.8311 65.7512C38.4106 66.2323 39.0449 66.6479 39.7229 66.9868C39.8432 67.2602 40.4337 68.6709 39.7338 69.4691C39.6136 69.5676 38.9793 70.1143 38.9465 70.5846C38.9355 70.6502 38.9465 70.7158 38.9684 70.7814C38.9903 70.847 39.023 70.9017 39.0668 70.9454C39.1543 71.0329 39.2746 71.0985 39.3839 71.1423C39.5042 71.186 39.6354 71.2079 39.7557 71.1969C40.0072 71.1969 40.2478 71.1423 40.4884 71.0657C41.1445 70.9783 41.8334 70.7924 42.0412 70.0597C42.074 69.9504 42.085 69.83 42.085 69.7207V66.9322C43.0472 65.8824 43.8346 64.6904 44.436 63.4001C45.4311 61.3661 46.2731 58.1839 44.9172 54.5862ZM28.0878 67.8288C28.0768 67.8288 28.0658 67.8288 28.0549 67.8179C28.0658 67.8179 28.0768 67.807 28.0878 67.807C28.0987 67.8179 28.0878 67.8179 28.0878 67.8288Z" fill="#FFFEFB"/>
        </g>
    </g>
    <defs>
        <linearGradient id="paint0_linear" x1="0.48291" y1="23" x2="45.5831" y2="23" gradientUnits="userSpaceOnUse">
            <stop stopColor="#FF874F"/>
            <stop offset="1" stopColor="#FF6F5F"/>
        </linearGradient>
        <clipPath id="clip0">
            <rect width="45.1002" height="45.1002" fill="white" transform="translate(0.48291 0.449951)"/>
        </clipPath>
    </defs>
</svg>
