
<svg width="40" height="62" viewBox="0 0 40 62" fill="none" xmlns="http://www.w3.org/2000/svg">
    <path fill-rule="evenodd" clip-rule="evenodd" d="M0.00070904 2.599C0.00070904 1.16361 1.16862 0 2.60931 0H15.9868C17.4275 0 18.5954 1.16361 18.5954 2.599C18.5954 4.03439 17.4275 5.198 15.9868 5.198H2.60931C1.16862 5.198 0.00070904 4.03439 0.00070904 2.599ZM39.8385 7.03179C40.3365 8.37868 39.6444 9.87282 38.2925 10.369L3.51112 23.1361C2.15926 23.6323 0.659602 22.9427 0.161547 21.5958C-0.336508 20.2489 0.355641 18.7548 1.7075 18.2585L36.4889 5.49153C37.8407 4.99531 39.3404 5.68491 39.8385 7.03179ZM39.8385 39.5807C40.3365 40.9276 39.6444 42.4217 38.2925 42.9179L3.51112 55.6849C2.15926 56.1812 0.659602 55.4916 0.161547 54.1447C-0.336508 52.7978 0.355641 51.3036 1.7075 50.8074L36.4889 38.0404C37.8407 37.5442 39.3404 38.2338 39.8385 39.5807ZM21.4046 58.5775C21.4046 57.1421 22.5725 55.9785 24.0132 55.9785H37.3907C38.8314 55.9785 39.9993 57.1421 39.9993 58.5775C39.9993 60.0129 38.8314 61.1765 37.3907 61.1765H24.0132C22.5725 61.1765 21.4046 60.0129 21.4046 58.5775Z" fill="white"/>
    <path fill-rule="evenodd" clip-rule="evenodd" d="M39.8254 22.8701C40.3426 24.2312 39.6718 25.759 38.3271 26.2825L3.54574 39.8236C2.20108 40.3471 0.691756 39.6681 0.174578 38.307C-0.3426 36.9458 0.328209 35.4181 1.67287 34.8946L36.4543 21.3535C37.7989 20.83 39.3082 21.509 39.8254 22.8701Z" fill="white"/>
</svg>
