<svg width="67" height="100" viewBox="0 0 67 100" fill="none" xmlns="http://www.w3.org/2000/svg">
<path fill-rule="evenodd" clip-rule="evenodd" d="M0.0016988 6.25C0.0016988 2.79822 2.79992 0 6.2517 0H27.085C30.5368 0 33.335 2.79822 33.335 6.25C33.335 9.70178 30.5368 12.5 27.085 12.5H6.2517C2.79992 12.5 0.0016988 9.70178 0.0016988 6.25ZM66.283 12.4227C67.4763 15.6616 65.818 19.2547 62.579 20.448L8.41236 40.4041C5.1734 41.5974 1.58035 39.9391 0.387054 36.7001C-0.806245 33.4612 0.852087 29.8681 4.09104 28.6748L58.2577 8.71869C61.4967 7.52539 65.0897 9.18372 66.283 12.4227ZM66.283 63.2999C67.4763 66.5388 65.818 70.1319 62.579 71.3252L8.41236 91.2813C5.1734 92.4746 1.58035 90.8163 0.387054 87.5773C-0.806245 84.3384 0.852087 80.7453 4.09104 79.552L58.2577 59.5959C61.4967 58.4026 65.0897 60.0609 66.283 63.2999ZM33.335 93.75C33.335 90.2982 36.1333 87.5 39.585 87.5H60.4184C63.8701 87.5 66.6684 90.2982 66.6684 93.75C66.6684 97.2018 63.8701 100 60.4184 100H39.585C36.1333 100 33.335 97.2018 33.335 93.75Z" fill="white"/>
<path fill-rule="evenodd" clip-rule="evenodd" d="M66.2518 37.3333C67.4909 40.555 65.8837 44.1712 62.662 45.4103L8.4953 66.2436C5.2736 67.4827 1.65739 65.8755 0.418274 62.6538C-0.820842 59.4321 0.786362 55.8159 4.00807 54.5768L58.1747 33.7435C61.3964 32.5044 65.0126 34.1116 66.2518 37.3333Z" fill="white"/>
</svg>
