<svg width="18" height="18" viewBox="0 0 18 18" fill="none" xmlns="http://www.w3.org/2000/svg">
    <path d="M18 0H0V18H18V0Z" fill="#252A2F"/>
    <path d="M4.29549 6.0199C4.31051 5.87146 4.25391 5.72474 4.14306 5.62484L3.014 4.2647V4.06152H6.51975L9.22951 10.0044L11.6118 4.06152H14.9539V4.2647L13.9885 5.19027C13.9053 5.25371 13.864 5.35797 13.8813 5.46117V12.2619C13.864 12.3651 13.9053 12.4693 13.9885 12.5328L14.9313 13.4583V13.6615H10.1892V13.4583L11.1659 12.5102C11.2618 12.4143 11.2618 12.386 11.2618 12.2393V6.7423L8.54643 13.6389H8.17948L5.01809 6.7423V11.3645C4.99173 11.5589 5.05627 11.7545 5.1931 11.895L6.4633 13.4358V13.6389H2.86157V13.4358L4.13177 11.895C4.2676 11.7543 4.32838 11.5573 4.29549 11.3645V6.0199Z" fill="white"/>
</svg>
