<svg width="431" height="236" viewBox="0 0 431 236" fill="none" xmlns="http://www.w3.org/2000/svg">
<path d="M366.729 122.426C373.685 113.821 376.025 98.3503 371.834 88.2073C367.955 78.8222 352.685 75.1217 346.109 82.8571C343.166 86.3124 352.418 100.245 349.297 107.49C344.838 117.834 335.453 124.566 337.772 130.652C337.772 130.652 339.087 133.104 342.944 132.614C344.571 132.413 346.332 132.391 346.599 131.744C347.357 129.849 349.074 126.661 352.195 126.305C356.497 129.381 362.048 128.2 366.729 122.426Z" fill="#070707"/>
<path d="M341.939 133.482C338.417 133.482 337.102 131.119 337.057 131.03C335.452 126.884 338.462 122.715 341.961 117.9C344.213 114.779 346.799 111.235 348.538 107.155C350.098 103.544 348.27 97.8817 346.643 92.9105C345.082 88.0731 343.834 84.2611 345.484 82.3217C348.471 78.7995 353.509 77.2168 358.97 78.0862C365.19 79.067 370.518 82.9013 372.569 87.8948C376.871 98.3275 374.53 114.044 367.352 122.938C362.626 128.779 356.763 130.384 351.993 127.174C349.452 127.709 348.003 130.428 347.356 132.056C346.977 133.014 345.707 133.148 344.079 133.304C343.745 133.349 343.388 133.371 343.054 133.416C342.675 133.46 342.296 133.482 341.939 133.482ZM338.528 130.339C338.551 130.339 339.665 132.189 342.831 131.788C343.188 131.744 343.544 131.699 343.901 131.677C344.614 131.61 345.684 131.498 345.907 131.32C346.643 129.381 348.56 125.903 352.082 125.502L352.439 125.413L352.639 125.658C356.697 128.556 361.824 127.129 366.059 121.913C372.792 113.575 375.088 98.283 371.053 88.519C369.203 84.0605 364.365 80.6052 358.703 79.7135C353.799 78.9333 349.318 80.3154 346.71 83.3917C345.64 84.6401 346.933 88.5858 348.181 92.4201C349.897 97.6811 351.837 103.633 350.031 107.824C348.203 112.06 345.573 115.671 343.277 118.881C339.933 123.473 337.302 127.129 338.528 130.339Z" fill="white"/>
<path d="M358.859 121.2C365.814 112.595 368.155 97.1243 363.964 86.9813C360.286 78.1089 351.28 76.6822 345.06 83.9941C338.306 91.9525 335.675 106.309 338.841 116.585C339.13 117.544 339.108 118.547 338.707 119.439C337.726 121.557 336.21 125.948 337.771 130.652C337.971 131.232 338.484 131.165 338.729 130.54C339.487 128.646 341.204 125.458 344.324 125.101C348.627 128.155 354.178 126.974 358.859 121.2Z" fill="#070707"/>
<path d="M338.194 131.849C338.172 131.849 338.172 131.849 338.149 131.849C337.637 131.827 337.191 131.47 336.99 130.891C335.363 125.964 336.901 121.372 337.971 119.076C338.283 118.385 338.328 117.604 338.082 116.802C334.806 106.168 337.592 91.5224 344.458 83.4526C347.601 79.7521 351.681 77.9687 355.626 78.5929C359.572 79.2171 362.894 82.1597 364.744 86.6627C369.046 97.0955 366.706 112.834 359.528 121.729C354.802 127.569 348.939 129.174 344.168 125.964C341.627 126.499 340.178 129.219 339.531 130.846C339.242 131.448 338.751 131.849 338.194 131.849ZM354.044 80.1088C351.079 80.1088 348.092 81.6693 345.684 84.5227C339.152 92.2135 336.5 106.191 339.643 116.334C340.022 117.538 339.955 118.719 339.465 119.767C338.573 121.706 337.302 125.429 338.305 129.486C339.286 127.368 341.136 124.627 344.257 124.27L344.614 124.181L344.815 124.426C348.872 127.324 354.021 125.897 358.235 120.681C364.967 112.343 367.263 97.0509 363.228 87.2869C361.601 83.3189 358.725 80.7553 355.359 80.2203C354.913 80.1311 354.489 80.1088 354.044 80.1088Z" fill="white"/>
<path d="M349.211 96.8657C348.119 98.2256 346.714 98.0027 346.09 96.3752C345.466 94.7477 345.845 92.3399 346.937 90.98C348.03 89.62 349.434 89.843 350.059 91.4705C350.683 93.0979 350.304 95.5057 349.211 96.8657Z" fill="#070707"/>
<path d="M347.673 98.5871C347.561 98.5871 347.45 98.5871 347.338 98.5648C346.469 98.4311 345.733 97.7399 345.31 96.6921C344.574 94.7971 345.02 92.0548 346.29 90.4719C347.004 89.6024 347.896 89.1565 348.787 89.3126C349.657 89.4464 350.393 90.1375 350.794 91.1853C351.53 93.0804 351.106 95.8003 349.813 97.3832C349.233 98.1635 348.453 98.5871 347.673 98.5871ZM348.475 90.9178C348.208 90.9178 347.873 91.1408 347.584 91.4975C346.669 92.6345 346.335 94.7302 346.848 96.0901C347.026 96.5806 347.316 96.8927 347.606 96.9373C347.896 96.9819 348.252 96.759 348.587 96.3577C349.501 95.2206 349.835 93.125 349.323 91.765C349.144 91.2745 348.854 90.9624 348.565 90.9178C348.542 90.9178 348.498 90.9178 348.475 90.9178Z" fill="white"/>
<path d="M352.733 106.001C351.641 107.361 350.236 107.138 349.612 105.51C348.987 103.883 349.366 101.475 350.459 100.115C351.551 98.755 352.956 98.978 353.58 100.605C354.204 102.233 353.825 104.641 352.733 106.001Z" fill="#070707"/>
<path d="M351.197 107.693C351.086 107.693 350.974 107.693 350.863 107.671C349.993 107.537 349.257 106.846 348.856 105.798C348.12 103.904 348.544 101.184 349.837 99.5785C350.55 98.709 351.465 98.2631 352.334 98.4192C353.204 98.5529 353.939 99.2441 354.341 100.292C355.076 102.187 354.653 104.907 353.36 106.49C352.735 107.27 351.955 107.693 351.197 107.693ZM352 100.024C351.732 100.024 351.398 100.247 351.108 100.604C350.194 101.741 349.859 103.837 350.394 105.197C350.573 105.687 350.863 105.999 351.152 106.044C351.42 106.088 351.799 105.865 352.133 105.464C353.047 104.327 353.382 102.231 352.847 100.872C352.668 100.381 352.379 100.069 352.089 100.024C352.044 100.024 352.022 100.024 352 100.024Z" fill="white"/>
<path d="M356.229 115.125C355.137 116.485 353.732 116.262 353.108 114.634C352.484 113.007 352.863 110.599 353.955 109.239C355.048 107.879 356.452 108.102 357.077 109.729C357.723 111.335 357.344 113.765 356.229 115.125Z" fill="#070707"/>
<path d="M354.715 116.818C354.603 116.818 354.492 116.818 354.38 116.795C353.511 116.662 352.775 115.97 352.351 114.923C351.616 113.028 352.039 110.285 353.332 108.703C354.046 107.833 354.96 107.387 355.829 107.543C356.699 107.677 357.435 108.368 357.858 109.416C358.594 111.311 358.17 114.031 356.877 115.614C356.253 116.394 355.473 116.818 354.715 116.818ZM355.517 109.148C355.25 109.148 354.915 109.371 354.625 109.728C353.711 110.865 353.377 112.961 353.912 114.321C354.09 114.811 354.38 115.123 354.67 115.168C354.96 115.212 355.317 114.99 355.651 114.588C356.565 113.451 356.899 111.356 356.387 109.996C356.208 109.505 355.919 109.193 355.629 109.148C355.562 109.148 355.54 109.148 355.517 109.148Z" fill="white"/>
<path d="M213.955 150.354C224.633 166.873 217.366 181.073 197.704 182.054C178.042 183.034 153.454 170.439 142.776 153.898C132.098 137.358 139.365 123.18 159.027 122.199C178.689 121.218 203.277 133.813 213.955 150.354Z" fill="white"/>
<path d="M195.545 182.925C176.062 182.925 152.499 170.464 142.088 154.347C136.76 146.099 135.601 138.096 138.811 131.854C142.021 125.59 149.177 121.867 159.008 121.376C178.893 120.373 203.86 133.169 214.65 149.888C219.978 158.136 221.137 166.139 217.927 172.381C214.717 178.645 207.538 182.368 197.73 182.859C197.017 182.925 196.281 182.925 195.545 182.925ZM161.215 122.959C160.502 122.959 159.788 122.982 159.075 123.004C149.868 123.472 143.181 126.86 140.26 132.589C137.34 138.319 138.477 145.72 143.47 153.455C153.992 169.751 178.313 182.168 197.663 181.231C206.87 180.763 213.557 177.375 216.478 171.646C219.398 165.916 218.261 158.515 213.268 150.78C203.125 135.109 180.186 122.959 161.215 122.959Z" fill="white"/>
<path d="M215.43 147.47C226.108 163.989 218.84 178.189 199.178 179.17C179.517 180.151 154.928 167.555 144.25 151.015C133.572 134.496 140.84 120.296 160.501 119.315C180.163 118.334 204.752 130.952 215.43 147.47Z" fill="#070707"/>
<path d="M197.016 180.066C177.532 180.066 153.969 167.604 143.559 151.487C138.231 143.239 137.072 135.236 140.282 128.994C143.492 122.73 150.648 119.029 160.479 118.516C180.341 117.513 205.331 130.309 216.12 147.028C221.448 155.276 222.607 163.279 219.397 169.521C216.187 175.785 209.031 179.486 199.2 179.999C198.487 180.043 197.751 180.066 197.016 180.066ZM162.686 120.099C161.972 120.099 161.259 120.121 160.546 120.144C151.339 120.612 144.651 124 141.731 129.729C138.811 135.459 139.947 142.86 144.941 150.595C155.463 166.891 179.739 179.33 199.133 178.371C208.34 177.903 215.028 174.515 217.948 168.786C220.868 163.056 219.732 155.655 214.738 147.92C204.595 132.226 181.656 120.099 162.686 120.099Z" fill="white"/>
<path d="M219.847 138.864C230.525 155.383 223.257 169.583 203.595 170.564C183.934 171.545 159.345 158.95 148.667 142.409C137.989 125.868 145.257 111.69 164.918 110.709C184.558 109.728 209.169 122.323 219.847 138.864Z" fill="white"/>
<path d="M201.434 171.437C181.95 171.437 158.387 158.976 147.977 142.859C142.649 134.61 141.49 126.608 144.677 120.366C147.888 114.102 155.066 110.379 164.874 109.888C184.759 108.908 209.726 121.681 220.516 138.4C225.844 146.648 227.003 154.629 223.793 160.893C220.583 167.157 213.405 170.88 203.596 171.37C202.905 171.415 202.169 171.437 201.434 171.437ZM167.104 111.471C166.39 111.471 165.677 111.493 164.963 111.516C155.757 111.984 149.069 115.372 146.149 121.101C143.228 126.83 144.365 134.231 149.359 141.967C159.881 158.262 184.179 170.679 203.551 169.743C212.758 169.275 219.446 165.886 222.366 160.157C225.309 154.428 224.149 147.027 219.156 139.292C209.013 123.62 186.074 111.471 167.104 111.471Z" fill="white"/>
<path d="M221.294 135.965C231.972 152.483 224.705 166.683 205.043 167.664C185.381 168.645 160.793 156.05 150.115 139.509C139.437 122.991 146.704 108.79 166.366 107.81C186.028 106.829 210.616 119.446 221.294 135.965Z" fill="#070707"/>
<path d="M202.881 168.558C183.398 168.558 159.835 156.097 149.425 139.979C144.097 131.731 142.937 123.728 146.148 117.486C149.358 111.222 156.513 107.499 166.344 107.009C186.229 106.028 211.196 118.802 221.986 135.521C227.314 143.769 228.473 151.772 225.263 158.014C222.053 164.256 214.875 168.001 205.066 168.491C204.375 168.536 203.639 168.558 202.881 168.558ZM168.551 108.592C167.838 108.592 167.125 108.614 166.411 108.636C157.205 109.104 150.517 112.493 147.597 118.222C144.676 123.951 145.813 131.352 150.807 139.088C161.329 155.383 185.649 167.822 204.999 166.864C214.206 166.396 220.894 163.007 223.814 157.278C226.734 151.549 225.597 144.148 220.604 136.412C210.483 120.719 187.544 108.592 168.551 108.592Z" fill="white"/>
<path d="M179.653 119.607C181.303 122.148 180.188 124.355 177.157 124.489C174.125 124.645 170.335 122.705 168.686 120.142C167.036 117.6 168.151 115.393 171.182 115.26C174.214 115.126 178.026 117.065 179.653 119.607Z" fill="#070707"/>
<path d="M176.826 125.334C173.571 125.334 169.759 123.306 168.02 120.608C167.062 119.115 166.861 117.643 167.485 116.44C168.087 115.236 169.402 114.545 171.186 114.456C174.463 114.277 178.564 116.35 180.392 119.159C181.351 120.653 181.552 122.124 180.927 123.328C180.326 124.532 179.01 125.223 177.227 125.312C177.071 125.312 176.937 125.334 176.826 125.334ZM171.52 116.083C171.431 116.083 171.319 116.083 171.23 116.083C170.071 116.15 169.246 116.529 168.912 117.197C168.577 117.844 168.734 118.758 169.38 119.717C170.851 122.013 174.373 123.863 177.115 123.685C178.275 123.618 179.099 123.239 179.434 122.57C179.768 121.923 179.612 121.009 178.966 120.051C177.561 117.844 174.195 116.083 171.52 116.083Z" fill="white"/>
<path d="M178.134 122.576C176.484 120.034 172.694 118.072 169.662 118.228C169.06 118.25 168.547 118.384 168.102 118.563C168.213 119.031 168.414 119.521 168.748 120.056C170.398 122.598 174.188 124.56 177.22 124.404C177.822 124.381 178.335 124.248 178.78 124.069C178.669 123.579 178.468 123.088 178.134 122.576Z" fill="#070707"/>
<path d="M176.865 125.224C173.61 125.224 169.799 123.195 168.06 120.498C167.703 119.963 167.458 119.383 167.324 118.759L167.146 118.068L167.792 117.8C168.372 117.555 168.974 117.422 169.62 117.399C173.009 117.243 176.999 119.294 178.827 122.103C179.183 122.66 179.429 123.218 179.562 123.842L179.718 124.533L179.072 124.8C178.492 125.046 177.891 125.179 177.244 125.202C177.133 125.224 176.999 125.224 176.865 125.224ZM169.152 119.116C169.241 119.294 169.33 119.45 169.42 119.606C170.891 121.902 174.435 123.708 177.155 123.574C177.333 123.574 177.534 123.552 177.712 123.507C177.623 123.329 177.534 123.173 177.445 123.017C175.973 120.721 172.429 118.893 169.709 119.049C169.509 119.049 169.33 119.071 169.152 119.116Z" fill="white"/>
<path d="M203.663 131.768C201.858 133.173 198.023 132.593 195.081 130.453C192.138 128.313 191.224 125.46 193.008 124.055C194.813 122.651 198.647 123.231 201.59 125.371C204.555 127.488 205.469 130.364 203.663 131.768Z" fill="#070707"/>
<path d="M200.989 133.364C198.983 133.364 196.62 132.584 194.613 131.135C192.562 129.642 191.314 127.747 191.292 126.03C191.27 124.983 191.715 124.069 192.518 123.422C194.613 121.773 198.827 122.352 202.081 124.715C204.132 126.209 205.381 128.104 205.403 129.82C205.425 130.868 204.979 131.782 204.177 132.428C203.374 133.052 202.237 133.364 200.989 133.364ZM195.683 124.113C194.814 124.113 194.056 124.314 193.521 124.715C193.097 125.049 192.897 125.451 192.919 126.008C192.941 127.19 193.945 128.661 195.572 129.82C198.202 131.715 201.68 132.317 203.174 131.158C203.597 130.823 203.798 130.4 203.775 129.865C203.753 128.683 202.75 127.212 201.123 126.053C199.428 124.804 197.333 124.113 195.683 124.113Z" fill="white"/>
<path d="M209.722 149.926C206.267 148.789 203.547 146.003 203.637 143.729C203.726 141.455 206.602 140.519 210.035 141.656C213.49 142.793 216.209 145.579 216.12 147.853C216.031 150.149 213.178 151.063 209.722 149.926Z" fill="#070707"/>
<path d="M212.532 151.226C211.574 151.226 210.526 151.048 209.478 150.691C205.644 149.421 202.724 146.344 202.835 143.669C202.88 142.644 203.37 141.752 204.217 141.15C205.622 140.169 207.895 140.058 210.303 140.86C214.137 142.131 217.058 145.207 216.946 147.882C216.902 148.908 216.411 149.8 215.564 150.401C214.762 150.959 213.714 151.226 212.532 151.226ZM209.991 149.153C211.886 149.777 213.647 149.755 214.628 149.064C215.074 148.752 215.297 148.351 215.319 147.816C215.386 145.898 212.867 143.424 209.79 142.421C207.895 141.797 206.134 141.819 205.154 142.51C204.708 142.822 204.485 143.223 204.462 143.758C204.373 145.675 206.915 148.15 209.991 149.153Z" fill="white"/>
<path d="M191.774 155.927C190.124 153.386 191.239 151.179 194.271 151.045C197.302 150.889 201.092 152.829 202.742 155.392C204.391 157.934 203.277 160.14 200.245 160.274C197.213 160.408 193.401 158.469 191.774 155.927Z" fill="#070707"/>
<path d="M199.889 161.1C196.634 161.1 192.822 159.072 191.084 156.374C190.125 154.881 189.924 153.41 190.549 152.206C191.151 151.002 192.466 150.311 194.249 150.222C197.571 150.066 201.628 152.117 203.456 154.925C204.414 156.419 204.615 157.89 203.991 159.094C203.389 160.298 202.074 160.989 200.29 161.078C200.157 161.078 200.023 161.1 199.889 161.1ZM192.443 155.483C193.915 157.779 197.459 159.562 200.179 159.451C201.338 159.384 202.163 159.005 202.497 158.336C202.832 157.69 202.676 156.776 202.029 155.817C200.558 153.521 197.013 151.693 194.294 151.849C193.135 151.916 192.31 152.295 191.975 152.941C191.663 153.61 191.819 154.502 192.443 155.483Z" fill="white"/>
<path d="M167.775 143.765C169.58 142.361 173.415 142.94 176.357 145.081C179.3 147.221 180.214 150.074 178.43 151.478C176.625 152.883 172.79 152.303 169.848 150.163C166.883 148.045 165.969 145.17 167.775 143.765Z" fill="#070707"/>
<path d="M175.732 153.058C173.725 153.058 171.362 152.277 169.356 150.828C167.305 149.335 166.057 147.44 166.034 145.723C166.012 144.676 166.458 143.762 167.261 143.115C169.356 141.465 173.569 142.045 176.824 144.408C178.875 145.902 180.123 147.797 180.145 149.513C180.168 150.561 179.722 151.475 178.919 152.121C178.117 152.745 177.002 153.058 175.732 153.058ZM170.426 143.806C169.557 143.806 168.799 144.007 168.264 144.408C167.84 144.742 167.64 145.166 167.662 145.701C167.684 146.883 168.687 148.354 170.315 149.513C172.923 151.408 176.423 152.032 177.916 150.851C178.34 150.516 178.54 150.093 178.518 149.558C178.496 148.376 177.493 146.905 175.865 145.746C174.171 144.497 172.076 143.806 170.426 143.806Z" fill="white"/>
<path d="M161.702 125.616C165.158 126.753 167.877 129.54 167.788 131.814C167.699 134.087 164.823 135.024 161.39 133.887C157.935 132.75 155.215 129.963 155.304 127.69C155.394 125.393 158.247 124.479 161.702 125.616Z" fill="#070707"/>
<path d="M164.177 135.195C163.218 135.195 162.193 135.017 161.123 134.66C157.288 133.389 154.368 130.313 154.479 127.638C154.524 126.613 155.014 125.721 155.862 125.119C157.266 124.138 159.54 124.027 161.947 124.829C165.782 126.1 168.702 129.176 168.59 131.851C168.546 132.877 168.055 133.768 167.208 134.37C166.428 134.905 165.38 135.195 164.177 135.195ZM158.893 125.944C158.046 125.944 157.311 126.122 156.82 126.479C156.374 126.791 156.151 127.192 156.129 127.727C156.062 129.644 158.581 132.096 161.658 133.122C163.552 133.746 165.336 133.724 166.294 133.033C166.74 132.721 166.963 132.319 166.985 131.784C167.052 129.867 164.533 127.415 161.457 126.39C160.543 126.078 159.651 125.944 158.893 125.944Z" fill="white"/>
<path d="M185.81 135.675C187.526 136.255 188.886 137.637 188.842 138.774C188.797 139.911 187.37 140.379 185.631 139.799C183.915 139.22 182.555 137.837 182.599 136.7C182.644 135.563 184.071 135.118 185.81 135.675Z" fill="#070707"/>
<path d="M187.035 140.866C186.522 140.866 185.942 140.777 185.363 140.576C183.245 139.885 181.706 138.191 181.773 136.675C181.796 136.028 182.108 135.471 182.643 135.092C183.468 134.512 184.716 134.445 186.054 134.891C188.172 135.582 189.71 137.277 189.643 138.793C189.621 139.439 189.309 139.997 188.774 140.376C188.328 140.71 187.726 140.866 187.035 140.866ZM184.404 136.251C184.025 136.251 183.758 136.318 183.601 136.452C183.49 136.541 183.445 136.608 183.423 136.764C183.401 137.455 184.449 138.57 185.898 139.06C186.812 139.372 187.548 139.283 187.86 139.082C187.971 138.993 188.016 138.926 188.038 138.77C188.06 138.079 187.012 136.965 185.563 136.474C185.117 136.318 184.716 136.251 184.404 136.251Z" fill="white"/>
<path d="M177.049 150.302C175.4 147.761 171.61 145.799 168.578 145.955C167.976 145.977 167.463 146.111 167.017 146.289C167.129 146.758 167.329 147.248 167.664 147.783C169.313 150.325 173.103 152.287 176.135 152.13C176.737 152.108 177.25 151.974 177.696 151.796C177.584 151.306 177.384 150.815 177.049 150.302Z" fill="#070707"/>
<path d="M175.776 152.958C172.521 152.958 168.709 150.929 166.97 148.232C166.613 147.697 166.368 147.117 166.234 146.493L166.056 145.802L166.703 145.535C167.282 145.289 167.884 145.156 168.531 145.133C171.941 144.955 175.909 147.028 177.737 149.837C178.094 150.394 178.339 150.952 178.473 151.576L178.629 152.267L177.983 152.534C177.403 152.78 176.801 152.913 176.155 152.936C176.043 152.958 175.909 152.958 175.776 152.958ZM168.062 146.85C168.152 147.028 168.241 147.184 168.33 147.34C169.801 149.636 173.346 151.442 176.065 151.308C176.244 151.308 176.444 151.286 176.623 151.241C176.534 151.063 176.444 150.907 176.355 150.751C174.884 148.455 171.317 146.649 168.62 146.783C168.441 146.783 168.241 146.805 168.062 146.85Z" fill="white"/>
<path d="M165.567 132.35C163.917 129.808 160.127 127.846 157.095 128.002C156.493 128.025 155.98 128.158 155.534 128.337C155.646 128.805 155.846 129.295 156.181 129.83C157.83 132.372 161.62 134.334 164.652 134.178C165.254 134.156 165.767 134.022 166.213 133.843C166.102 133.375 165.901 132.885 165.567 132.35Z" fill="#070707"/>
<path d="M164.293 134.998C161.039 134.998 157.227 132.969 155.488 130.272C155.131 129.737 154.886 129.157 154.752 128.533L154.574 127.842L155.22 127.575C155.8 127.329 156.402 127.196 157.048 127.173C160.37 126.995 164.427 129.068 166.255 131.877C166.612 132.434 166.857 132.992 166.991 133.616L167.147 134.307L166.5 134.574C165.921 134.82 165.319 134.953 164.672 134.976C164.561 134.998 164.427 134.998 164.293 134.998ZM156.58 128.89C156.669 129.068 156.759 129.224 156.848 129.403C158.319 131.699 161.864 133.504 164.583 133.371C164.762 133.371 164.962 133.348 165.141 133.304C165.051 133.125 164.962 132.969 164.873 132.813C163.402 130.517 159.835 128.734 157.138 128.845C156.937 128.845 156.759 128.868 156.58 128.89Z" fill="white"/>
<path d="M202.264 130.703C200.615 128.161 196.825 126.2 193.793 126.356C193.191 126.378 192.678 126.512 192.232 126.69C192.343 127.158 192.544 127.649 192.878 128.184C194.528 130.725 198.318 132.687 201.35 132.531C201.952 132.509 202.465 132.375 202.911 132.197C202.777 131.729 202.599 131.216 202.264 130.703Z" fill="#070707"/>
<path d="M200.989 133.356C197.734 133.356 193.922 131.327 192.161 128.63C191.805 128.073 191.559 127.515 191.426 126.891L191.27 126.2L191.916 125.933C192.496 125.687 193.097 125.554 193.744 125.531C197.066 125.375 201.123 127.426 202.951 130.235C203.307 130.77 203.553 131.35 203.686 131.974L203.865 132.665L203.218 132.932C202.639 133.178 202.037 133.311 201.39 133.334C201.256 133.356 201.123 133.356 200.989 133.356ZM193.276 127.248C193.365 127.426 193.454 127.582 193.543 127.738C195.015 130.034 198.581 131.818 201.279 131.706C201.457 131.706 201.658 131.684 201.836 131.639C201.747 131.461 201.658 131.305 201.569 131.149C200.097 128.853 196.597 127.025 193.833 127.181C193.632 127.203 193.454 127.225 193.276 127.248Z" fill="white"/>
<path d="M213.868 148.399C212.219 145.858 208.429 143.896 205.397 144.052C204.795 144.074 204.282 144.208 203.836 144.387C203.947 144.855 204.148 145.345 204.482 145.858C206.132 148.399 209.922 150.361 212.954 150.205C213.556 150.183 214.069 150.049 214.515 149.871C214.403 149.403 214.203 148.912 213.868 148.399Z" fill="#070707"/>
<path d="M212.622 151.028C209.367 151.028 205.555 149 203.794 146.302C203.437 145.767 203.192 145.188 203.058 144.563L202.88 143.872L203.527 143.605C204.106 143.36 204.708 143.226 205.355 143.204C208.676 143.048 212.733 145.099 214.561 147.907C214.918 148.465 215.163 149.022 215.297 149.646L215.453 150.337L214.807 150.605C214.227 150.85 213.625 150.984 212.979 151.006C212.867 151.028 212.733 151.028 212.622 151.028ZM204.886 144.92C204.976 145.098 205.065 145.255 205.154 145.411C206.625 147.707 210.192 149.512 212.889 149.379C213.068 149.379 213.268 149.356 213.447 149.312C213.358 149.133 213.268 148.977 213.179 148.821C211.708 146.525 208.163 144.72 205.444 144.853C205.265 144.876 205.065 144.898 204.886 144.92Z" fill="white"/>
<path d="M201.168 158.43C199.518 155.889 195.728 153.927 192.696 154.083C192.094 154.105 191.582 154.239 191.136 154.417C191.247 154.885 191.448 155.376 191.782 155.911C193.432 158.452 197.222 160.414 200.254 160.258C200.856 160.236 201.369 160.102 201.815 159.924C201.703 159.433 201.503 158.943 201.168 158.43Z" fill="#070707"/>
<path d="M199.897 161.086C196.642 161.086 192.83 159.058 191.091 156.361C190.734 155.803 190.489 155.246 190.356 154.622L190.199 153.931L190.846 153.663C191.426 153.418 192.027 153.284 192.674 153.262C196.04 153.106 200.053 155.157 201.858 157.966C202.215 158.523 202.46 159.08 202.594 159.704L202.772 160.395L202.126 160.663C201.546 160.908 200.944 161.042 200.298 161.064C200.164 161.086 200.03 161.086 199.897 161.086ZM192.183 154.978C192.273 155.157 192.362 155.313 192.451 155.469C193.922 157.765 197.422 159.593 200.186 159.437C200.365 159.437 200.565 159.415 200.744 159.37C200.654 159.192 200.565 159.036 200.476 158.857C199.005 156.561 195.46 154.733 192.741 154.889C192.562 154.912 192.362 154.934 192.183 154.978Z" fill="white"/>
<path d="M155.336 163.156C155.336 163.156 133.601 143.605 111.755 146.303L116.637 136.762C116.637 136.762 140.021 135.602 159.75 154.551L155.336 163.156Z" fill="#070707"/>
<path d="M154.777 163.757C154.554 163.556 133.065 144.474 111.842 147.104L110.304 147.283L116.1 135.958L116.568 135.936C116.814 135.936 140.533 134.977 160.284 153.948L159.147 155.13C141.424 138.076 120.492 137.541 117.103 137.541L113.135 145.299C134.536 143.605 154.978 161.728 155.87 162.508L154.777 163.757Z" fill="white"/>
<path d="M122.089 136.713L117.531 145.625L118.979 146.366L123.538 137.454L122.089 136.713Z" fill="white"/>
<path d="M159.13 153.886L154.571 162.797L156.019 163.539L160.579 154.628L159.13 153.886Z" fill="white"/>
<path d="M207.962 169.511L203.402 178.422L204.851 179.163L209.41 170.252L207.962 169.511Z" fill="white"/>
<path d="M193.55 170.09L188.99 179.001L190.439 179.742L194.998 170.831L193.55 170.09Z" fill="white"/>
<path d="M302.124 134.481L235.158 112.345C230.611 111.297 225.64 106.282 224.034 101.132L207.627 66.2223C206.646 63.0123 212.487 56.7927 215.318 57.4392L291.58 74.8495C294.411 75.4959 297.51 78.6168 298.491 81.8269L310.551 120.905C312.156 126.032 306.672 135.529 302.124 134.481Z" fill="#070707"/>
<path d="M302.816 135.387C302.526 135.387 302.214 135.364 301.925 135.297L301.858 135.275L234.892 113.139C230.166 112.069 224.927 106.786 223.255 101.391L206.893 66.5705C206.202 64.3413 207.829 61.5547 209.59 59.6822C211.217 57.9211 213.625 56.2269 215.52 56.6281L291.782 74.0384C294.925 74.7517 298.224 78.051 299.294 81.5732L311.354 120.651C312.513 124.419 310.284 129.925 307.542 132.868C306.004 134.517 304.354 135.387 302.816 135.387ZM302.348 133.715C303.953 134.049 305.536 132.645 306.338 131.775C308.768 129.145 310.752 124.263 309.794 121.142L297.734 82.0636C296.842 79.1656 293.944 76.223 291.425 75.6434L215.163 58.2332C214.204 57.988 212.376 59.1026 210.794 60.7968C209.033 62.6916 208.074 64.8317 208.431 65.9909L224.793 100.811C226.354 105.805 231.057 110.598 235.338 111.579L302.348 133.715Z" fill="white"/>
<path d="M301.118 134.343L231.075 118.36C226.528 117.312 221.557 112.296 219.952 107.147L207.891 68.0685C206.911 64.8584 208.404 62.7852 211.235 63.4317L287.497 80.8419C290.328 81.4884 293.427 84.6093 294.408 87.8194L306.468 126.898C308.073 132.047 305.688 135.369 301.118 134.343Z" fill="#070707"/>
<path d="M302.705 135.336C302.148 135.336 301.546 135.269 300.944 135.135L230.902 119.129C226.109 118.037 220.848 112.753 219.176 107.359L207.116 68.2803C206.514 66.3186 206.737 64.5575 207.718 63.5098C208.587 62.5958 209.902 62.2614 211.418 62.6181L287.68 80.0284C290.823 80.7417 294.123 84.041 295.193 87.5632L307.253 126.642C308.167 129.629 307.855 132.259 306.406 133.842C305.514 134.823 304.221 135.336 302.705 135.336ZM301.323 133.53C302.995 133.909 304.399 133.641 305.224 132.727C306.294 131.59 306.473 129.54 305.715 127.132L293.655 88.0536C292.763 85.1556 289.865 82.213 287.346 81.6334L211.084 64.2231C210.415 64.0671 209.501 64.0225 208.944 64.6244C208.364 65.2486 208.275 66.4301 208.699 67.8122L220.759 106.891C222.275 111.795 226.978 116.565 231.281 117.546L301.323 133.53Z" fill="white"/>
<path d="M293.586 115.404L226.642 100.111C225.059 99.7546 223.343 98.0158 222.808 96.2324L216.098 74.4974C215.541 72.714 216.388 71.5548 217.948 71.9115L284.892 87.204C286.475 87.5607 288.191 89.2995 288.726 91.0829L295.436 112.818C295.994 114.624 295.169 115.76 293.586 115.404Z" fill="#070707"/>
<path d="M294.143 116.296C293.92 116.296 293.652 116.273 293.407 116.206L226.463 100.914C224.613 100.49 222.651 98.5509 222.027 96.4777L215.34 74.7428C214.961 73.5167 215.117 72.4244 215.763 71.7333C216.32 71.1314 217.19 70.9085 218.171 71.1314L285.114 86.4239C286.965 86.8475 288.926 88.7869 289.551 90.8601L296.238 112.595C296.617 113.821 296.461 114.913 295.815 115.604C295.391 116.05 294.812 116.296 294.143 116.296ZM217.413 72.6919C217.234 72.6919 217.056 72.7365 216.945 72.8479C216.766 73.0486 216.655 73.5167 216.9 74.2746L223.588 96.0096C224.056 97.5032 225.549 99.0413 226.842 99.3311L293.786 114.624C294.009 114.668 294.41 114.735 294.633 114.512C294.812 114.312 294.923 113.843 294.678 113.085L287.968 91.3505C287.5 89.8569 286.006 88.3188 284.713 88.029L217.769 72.7365C217.68 72.7142 217.547 72.6919 217.413 72.6919Z" fill="white"/>
<path d="M297.312 126.635L229.789 111.208C228.362 110.874 226.869 109.492 226.445 108.11C226.021 106.728 226.824 105.858 228.228 106.193L295.752 121.619C297.178 121.953 298.672 123.335 299.096 124.718C299.541 126.1 298.739 126.969 297.312 126.635Z" fill="white"/>
<path d="M229.775 95.6683L227.798 100.23L229.291 100.877L231.268 96.3154L229.775 95.6683Z" fill="white"/>
<path d="M236.247 97.1458L234.271 101.708L235.764 102.355L237.741 97.7927L236.247 97.1458Z" fill="white"/>
<path d="M242.735 98.6152L240.758 103.177L242.252 103.824L244.228 99.2623L242.735 98.6152Z" fill="white"/>
<path d="M281.571 107.491L279.594 112.053L281.087 112.7L283.064 108.138L281.571 107.491Z" fill="white"/>
<path d="M288.038 108.976L286.061 113.538L287.554 114.185L289.531 109.623L288.038 108.976Z" fill="white"/>
<path d="M249.197 100.104L247.22 104.666L248.714 105.313L250.69 100.752L249.197 100.104Z" fill="white"/>
<path d="M255.666 101.574L253.689 106.136L255.183 106.783L257.159 102.221L255.666 101.574Z" fill="white"/>
<path d="M262.149 103.059L260.172 107.621L261.665 108.268L263.642 103.706L262.149 103.059Z" fill="white"/>
<path d="M268.613 104.536L266.636 109.098L268.129 109.745L270.106 105.184L268.613 104.536Z" fill="white"/>
<path d="M275.083 105.998L273.106 110.56L274.6 111.207L276.577 106.645L275.083 105.998Z" fill="white"/>
<path d="M290.621 110.576L226.13 95.8411L226.486 94.2583L290.978 108.971L290.621 110.576Z" fill="white"/>
<path d="M262.577 98.723C262.354 98.723 262.108 98.7007 261.863 98.6338C260.28 98.2771 258.697 96.8057 258.229 95.312C257.962 94.4425 258.095 93.6399 258.586 93.1048C259.099 92.5475 259.924 92.3691 260.838 92.5698C262.421 92.9265 264.003 94.3979 264.472 95.8916C264.739 96.7611 264.605 97.5637 264.115 98.0988C263.736 98.5 263.201 98.723 262.577 98.723ZM260.147 94.1081C259.968 94.1081 259.857 94.1527 259.812 94.1973C259.745 94.2641 259.701 94.4648 259.812 94.7992C260.102 95.7579 261.239 96.7834 262.242 97.0063C262.599 97.0955 262.844 97.0509 262.933 96.9617C263 96.8949 263.045 96.6942 262.933 96.3598C262.643 95.4012 261.506 94.3756 260.503 94.1527C260.347 94.1304 260.236 94.1081 260.147 94.1081Z" fill="white"/>
<path d="M260.593 92.2907C260.37 92.2907 260.125 92.2684 259.88 92.2015C258.297 91.8448 256.714 90.3734 256.246 88.8796C255.978 88.0101 256.112 87.2075 256.602 86.6725C257.115 86.1151 257.94 85.9368 258.854 86.1374C260.437 86.4941 262.02 87.9656 262.488 89.4593C262.755 90.3288 262.622 91.1314 262.131 91.6664C261.752 92.09 261.217 92.2907 260.593 92.2907ZM258.163 87.698C257.985 87.698 257.873 87.7426 257.828 87.7872C257.762 87.8541 257.717 88.0547 257.828 88.3892C258.118 89.3478 259.255 90.3734 260.259 90.5963C260.638 90.6855 260.86 90.6409 260.95 90.5517C261.017 90.4848 261.061 90.2842 260.95 89.9498C260.66 88.9911 259.523 87.9656 258.52 87.7426C258.364 87.7203 258.252 87.698 258.163 87.698Z" fill="white"/>
<path d="M257.337 89.0971L248.598 93.5044L249.331 94.9576L258.07 90.5503L257.337 89.0971Z" fill="white"/>
<path d="M246.562 84.2331L245.608 85.5518L258.216 94.6714L259.17 93.3528L246.562 84.2331Z" fill="white"/>
<path d="M288.55 80.138L207.584 28.3976C205.4 27.1938 203.772 24.8086 203.951 23.0698L200.852 20.7291C201.03 18.9903 206.849 13.1943 209.033 14.3758L291.203 59.5176C293.387 60.7214 295.015 63.1067 294.836 64.8455L294.034 72.5586C293.856 74.2751 290.735 81.3195 288.55 80.138Z" fill="#070707"/>
<path d="M289.085 81.0773C288.706 81.0773 288.394 80.9659 288.171 80.8321L288.126 80.8098L207.161 29.0695C204.909 27.8435 203.215 25.4359 203.148 23.4519L200.005 21.0889L200.049 20.6208C200.228 18.8597 203.795 15.2929 206.224 14.0223C207.54 13.3312 208.632 13.2198 209.435 13.6433L291.582 58.8074C294.056 60.1672 295.839 62.8646 295.639 64.9155L294.836 72.6286C294.68 74.0776 292.518 79.5615 290.133 80.8098C289.731 81.0105 289.375 81.0773 289.085 81.0773ZM288.951 79.4277C289.018 79.45 289.107 79.4946 289.352 79.3608C290.98 78.5137 293.053 73.7878 293.187 72.4725L293.989 64.7594C294.123 63.511 292.852 61.3933 290.779 60.2341L208.632 15.1146C208.521 15.0477 208.075 14.914 206.96 15.4936C204.798 16.6305 202.39 19.261 201.788 20.4424L204.798 22.7163L204.753 23.1844C204.619 24.4328 205.89 26.5505 207.963 27.7097L288.951 79.4277Z" fill="white"/>
<path d="M285.671 79.5156L203.501 34.3738C201.317 33.17 199.69 30.7847 199.868 29.0459L200.67 21.3328C200.849 19.594 202.766 19.1705 204.95 20.3519L287.12 65.4938C289.305 66.6976 290.932 69.0828 290.754 70.8216L289.951 78.5348C289.773 80.2736 287.856 80.7194 285.671 79.5156Z" fill="#070707"/>
<path d="M287.969 81.0063C287.144 81.0063 286.208 80.7388 285.272 80.226L203.102 35.0842C200.628 33.7243 198.845 31.027 199.045 28.9761L199.848 21.2629C199.937 20.349 200.427 19.6133 201.185 19.212C202.278 18.6547 203.793 18.8108 205.332 19.6579L287.501 64.7998C289.998 66.1596 291.759 68.857 291.558 70.9079L290.756 78.621C290.667 79.535 290.198 80.2706 289.418 80.6719C288.995 80.8948 288.504 81.0063 287.969 81.0063ZM286.074 78.7993C287.3 79.4681 288.237 79.4681 288.683 79.2229C288.95 79.0891 289.106 78.8216 289.151 78.4426L289.953 70.7295C290.087 69.4812 288.816 67.3634 286.743 66.2042L204.551 21.1069C203.325 20.4381 202.389 20.4381 201.943 20.6833C201.676 20.8171 201.52 21.0846 201.475 21.4636L200.673 29.1767C200.539 30.4251 201.809 32.5428 203.883 33.702L286.074 78.7993Z" fill="white"/>
<path d="M205.755 20.8186L215.385 40.904L232.282 50.1775L221.961 29.7355L205.755 20.8186Z" fill="white"/>
<path d="M232.037 35.276L241.667 55.3613L258.587 64.6349L248.266 44.1929L232.037 35.276Z" fill="white"/>
<path d="M258.344 49.72L267.975 69.8053L284.872 79.0788L274.551 58.6369L258.344 49.72Z" fill="white"/>
<path d="M268.4 201.995L262.158 199.231L259.327 191.741L260.642 188.843L253.665 184.362L239.888 185.566L232.665 180.305C232.576 180.238 232.442 180.283 232.398 180.372L228.675 188.754C228.653 188.776 228.653 188.798 228.653 188.821L228.63 188.865L225.13 186.636C225.13 186.636 225.13 186.636 225.108 186.636L221.341 195.129C221.341 195.129 221.207 195.464 221.207 195.664L221.252 198.518C221.274 199.565 222.589 200.769 224.194 201.215L226.513 201.839C226.892 202.731 227.404 203.623 228.073 204.537C228.586 205.25 229.188 205.919 229.834 206.588L229.009 208.416L228.965 208.527C228.541 209.24 229.121 210.244 230.347 211.046L234.181 213.52C235.586 214.434 237.369 214.591 238.149 213.899L239.286 212.896C241.76 213.944 244.369 214.657 246.888 214.969L248.047 216.575C248.872 217.689 250.655 218.492 252.037 218.358L255.827 217.957C256.518 217.89 256.897 217.711 257.098 217.31L257.164 217.176L259.929 210.912L261.712 211.403C263.161 211.804 264.342 211.425 264.565 210.578L268.4 201.995C268.422 201.995 268.4 201.995 268.4 201.995Z" fill="#070707"/>
<path d="M251.745 219.143C250.162 219.143 248.334 218.251 247.42 217.003L246.461 215.688C244.165 215.376 241.802 214.729 239.462 213.793L238.704 214.462C237.611 215.398 235.494 215.264 233.755 214.15L229.921 211.675C228.249 210.605 227.602 209.178 228.271 208.064L228.873 206.704C228.293 206.08 227.825 205.523 227.424 204.965C226.844 204.163 226.332 203.316 225.93 202.468L223.991 201.933C221.985 201.398 220.469 199.905 220.446 198.456L220.402 195.602C220.402 195.268 220.536 194.889 220.58 194.755L224.526 185.861L225.306 185.682L225.618 185.905L228.271 187.577L231.815 179.597L232.306 179.396C232.596 179.329 232.908 179.374 233.153 179.552L240.131 184.635L253.885 183.453L261.264 188.201L261.62 188.781L261.397 189.115L260.216 191.724L262.824 198.59L269.021 201.287L269.333 202.089L269.11 202.446L265.365 210.873C265.276 211.252 264.964 211.653 264.474 211.943C263.738 212.366 262.668 212.455 261.553 212.143L260.461 211.854L257.875 217.672C257.496 218.474 256.671 218.675 255.98 218.742L252.191 219.143C252.012 219.143 251.879 219.143 251.745 219.143ZM239.15 211.92L239.618 212.121C242.07 213.146 244.634 213.86 247.019 214.15L247.375 214.194L248.758 216.089C249.404 216.981 250.92 217.649 252.012 217.538L255.802 217.137C256.003 217.114 256.359 217.07 256.404 216.958L256.493 216.78L259.525 209.936L261.977 210.605C262.779 210.828 263.359 210.739 263.649 210.583C263.805 210.494 263.827 210.405 263.827 210.382L267.372 202.446L261.553 199.86L258.477 191.724L259.636 189.138L253.484 185.17L239.685 186.373L232.841 181.402L229.051 189.918L228.204 189.517L225.484 187.8L222.096 195.424C222.074 195.469 222.051 195.602 222.029 195.647L222.074 198.478C222.074 199.013 222.988 200.016 224.414 200.395L227.112 201.131L227.268 201.488C227.647 202.357 228.137 203.204 228.739 204.029C229.185 204.631 229.72 205.255 230.433 205.991L230.812 206.392L229.675 208.911C229.542 209.112 229.876 209.713 230.812 210.315L234.647 212.79C235.895 213.592 237.233 213.592 237.634 213.258L239.15 211.92Z" fill="white"/>
<path d="M265.477 196.085L263.158 195.46C262.779 194.569 262.267 193.677 261.598 192.763C260.929 191.849 260.149 190.98 259.279 190.133L260.416 189.152C261.196 188.461 260.706 187.168 259.302 186.276L255.467 183.802C254.063 182.888 252.28 182.732 251.499 183.423L250.362 184.426C247.888 183.4 245.28 182.665 242.761 182.353L241.602 180.747C240.777 179.611 238.993 178.83 237.611 178.964L233.822 179.365C232.439 179.521 231.971 180.547 232.796 181.661L233.955 183.267C232.216 184.024 230.968 185.161 230.232 186.543L227.914 185.919C226.309 185.473 225.016 185.986 225.038 187.034L225.083 189.887C225.105 190.935 226.421 192.139 228.026 192.585L230.344 193.209C230.723 194.101 231.236 194.992 231.904 195.906C232.573 196.82 233.353 197.69 234.223 198.537L233.086 199.518C232.306 200.209 232.796 201.502 234.201 202.393L238.035 204.868C239.439 205.782 241.223 205.938 242.003 205.247L243.14 204.244C245.614 205.291 248.222 206.005 250.764 206.317L251.923 207.922C252.748 209.059 254.531 209.839 255.913 209.705L259.703 209.304C261.085 209.148 261.553 208.122 260.728 207.008L259.569 205.403C261.308 204.645 262.556 203.508 263.292 202.126L265.61 202.75C267.215 203.196 268.508 202.683 268.486 201.635L268.441 198.782C268.397 197.712 267.082 196.508 265.477 196.085Z" fill="#070707"/>
<path d="M255.558 210.54C253.975 210.54 252.147 209.649 251.233 208.423L250.275 207.107C247.979 206.795 245.638 206.149 243.275 205.213L242.517 205.881C241.425 206.818 239.307 206.684 237.568 205.569L233.734 203.095C232.619 202.381 231.951 201.423 231.884 200.487C231.839 199.862 232.062 199.305 232.53 198.904L232.998 198.48C232.33 197.789 231.728 197.076 231.215 196.385C230.635 195.582 230.123 194.735 229.721 193.888L227.782 193.353C225.776 192.818 224.26 191.325 224.237 189.876L224.193 187.022C224.193 186.398 224.438 185.863 224.929 185.484C225.664 184.904 226.823 184.771 228.094 185.127L229.811 185.595C230.502 184.548 231.482 183.656 232.686 182.965L232.084 182.14C231.527 181.36 231.371 180.513 231.683 179.799C231.995 179.086 232.731 178.64 233.689 178.529L237.479 178.127C239.129 177.949 241.224 178.885 242.227 180.245L243.186 181.56C245.482 181.873 247.823 182.519 250.186 183.455L250.944 182.787C252.036 181.85 254.154 181.984 255.893 183.099L259.727 185.573C260.841 186.286 261.51 187.245 261.577 188.181C261.622 188.805 261.399 189.363 260.931 189.764L260.462 190.188C261.131 190.879 261.733 191.592 262.246 192.283C262.825 193.086 263.338 193.933 263.739 194.78L265.679 195.315C267.685 195.85 269.201 197.343 269.223 198.792L269.268 201.646C269.268 202.27 269.023 202.805 268.532 203.184C267.797 203.764 266.637 203.897 265.367 203.541L263.65 203.073C262.959 204.12 261.978 205.012 260.775 205.703L261.376 206.528C261.934 207.308 262.09 208.155 261.778 208.869C261.466 209.582 260.73 210.028 259.771 210.139L255.982 210.54C255.848 210.54 255.714 210.54 255.558 210.54ZM242.963 203.295L243.431 203.496C245.883 204.522 248.447 205.235 250.832 205.525L251.189 205.569L252.571 207.464C253.217 208.356 254.711 209.025 255.826 208.913L259.615 208.512C260.039 208.467 260.24 208.334 260.284 208.2C260.329 208.088 260.306 207.843 260.061 207.486L258.278 205.057L259.214 204.655C260.752 203.987 261.867 203.006 262.536 201.735L262.848 201.155L265.79 201.958C266.637 202.181 267.262 202.092 267.529 201.891C267.618 201.824 267.641 201.735 267.641 201.668L267.596 198.815C267.596 198.28 266.66 197.277 265.255 196.898L262.58 196.162L262.424 195.805C262.045 194.936 261.555 194.089 260.953 193.264C260.351 192.439 259.593 191.592 258.746 190.745L258.099 190.121L259.905 188.538C259.972 188.471 260.017 188.427 259.994 188.293C259.972 187.958 259.615 187.423 258.88 186.955L255.045 184.481C253.819 183.678 252.437 183.678 252.058 184.035L250.542 185.372L250.074 185.172C247.577 184.124 245.081 183.455 242.673 183.143L242.317 183.099L240.934 181.204C240.288 180.312 238.794 179.643 237.68 179.755L233.89 180.156C233.466 180.201 233.266 180.334 233.221 180.468C233.177 180.58 233.199 180.825 233.444 181.182L235.205 183.611L234.269 184.013C232.731 184.681 231.616 185.662 230.947 186.911L230.635 187.49L227.693 186.688C226.868 186.465 226.221 186.554 225.954 186.755C225.865 186.821 225.842 186.888 225.842 186.978L225.887 189.831C225.887 190.366 226.823 191.369 228.228 191.748L230.925 192.484L231.081 192.84C231.46 193.71 231.951 194.557 232.552 195.382C233.154 196.207 233.912 197.054 234.759 197.901L235.406 198.525L233.6 200.108C233.533 200.175 233.489 200.219 233.511 200.353C233.533 200.687 233.89 201.222 234.626 201.69L238.46 204.165C239.686 204.967 241.068 204.967 241.447 204.633L242.963 203.295Z" fill="white"/>
<path d="M229.518 192.624L225.688 201.242L227.175 201.903L231.005 193.285L229.518 192.624Z" fill="white"/>
<path d="M231.875 200.043L228.045 208.66L229.532 209.321L233.363 200.704L231.875 200.043Z" fill="white"/>
<path d="M241.984 204.585L238.154 213.203L239.641 213.864L243.472 205.246L241.984 204.585Z" fill="white"/>
<path d="M249.605 206.184L245.775 214.802L247.262 215.463L251.092 206.845L249.605 206.184Z" fill="white"/>
<path d="M255.023 193.428C257.743 197.151 256.249 200.562 251.657 201.074C247.065 201.587 241.135 198.979 238.416 195.256C235.696 191.533 237.19 188.122 241.782 187.61C246.374 187.097 252.304 189.705 255.023 193.428Z" fill="#070707"/>
<path d="M250.518 201.939C245.904 201.939 240.398 199.308 237.745 195.719C236.251 193.668 235.828 191.595 236.586 189.879C237.344 188.162 239.149 187.048 241.668 186.78C246.506 186.245 252.792 189.009 255.668 192.933C257.162 194.984 257.585 197.057 256.827 198.773C256.069 200.49 254.263 201.604 251.744 201.872C251.365 201.917 250.942 201.939 250.518 201.939ZM242.961 188.341C242.582 188.341 242.226 188.363 241.869 188.407C239.952 188.608 238.614 189.366 238.102 190.548C237.589 191.707 237.923 193.2 239.082 194.761C241.646 198.261 247.286 200.713 251.588 200.267C253.506 200.066 254.843 199.308 255.356 198.127C255.869 196.968 255.512 195.474 254.375 193.914C252.012 190.681 247.108 188.341 242.961 188.341Z" fill="white"/>
<path d="M238.664 194.688C238.486 194.71 238.486 194.71 238.307 194.733C238.397 194.889 238.33 195.067 238.441 195.223C241.161 198.946 247.091 201.554 251.683 201.041C251.861 201.019 251.95 200.841 252.129 200.819C252.039 200.662 252.039 200.663 251.928 200.529C249.186 196.806 243.256 194.198 238.664 194.688Z" fill="#070707"/>
<path d="M250.522 201.923C245.907 201.923 240.401 199.292 237.748 195.703C237.57 195.458 237.548 195.213 237.525 195.079L236.924 194.143L238.551 193.875C243.388 193.34 249.675 196.104 252.551 200.028C252.662 200.162 252.684 200.206 252.729 200.295L253.375 201.343L252.35 201.588C252.216 201.7 252.016 201.833 251.726 201.856C251.347 201.9 250.946 201.923 250.522 201.923ZM239.643 195.436C242.162 198.289 246.643 200.295 250.477 200.295C250.544 200.295 250.611 200.295 250.678 200.295C248.114 197.397 243.522 195.391 239.643 195.436Z" fill="white"/>
<path d="M418.07 36.328L411.36 38.2452L404.227 34.188L403.358 31.0225L394.953 32.0702L384.922 42.1017L375.782 42.7036C375.671 42.7036 375.581 42.8374 375.626 42.9488L378.19 52.0218C378.19 52.0441 378.212 52.0664 378.212 52.111L378.234 52.1556L374.021 52.7129L376.629 61.9196C376.629 61.9196 376.741 62.2763 376.874 62.4323L378.792 64.6615C379.483 65.4864 381.311 65.5532 382.871 64.8399L385.1 63.8144C385.992 64.2603 386.973 64.6392 388.11 64.929C388.979 65.152 389.893 65.2857 390.829 65.3972L391.387 67.3812L391.409 67.4927C391.543 68.3398 392.657 68.741 394.151 68.5627L398.765 67.9831C400.46 67.7602 401.975 66.7347 402.132 65.6647L402.377 64.1265C405.007 63.3017 407.526 62.1648 409.711 60.7381L411.673 61.2285C413.055 61.5852 414.994 61.0279 415.975 60.0024L418.695 57.1936C419.185 56.6809 419.386 56.3019 419.274 55.8561L419.252 55.7L417.335 48.9232L419.051 48.1207C420.456 47.4742 421.125 46.4041 420.746 45.6016L418.07 36.328C418.093 36.328 418.093 36.328 418.07 36.328Z" fill="#070707"/>
<path d="M393.412 69.4358C391.829 69.4358 390.737 68.767 390.559 67.6301L390.135 66.1588C389.266 66.0474 388.53 65.9136 387.839 65.7353C386.858 65.4901 385.9 65.1557 385.03 64.7321L383.158 65.6015C381.241 66.4932 379.078 66.3149 378.12 65.2003L376.203 62.971C375.98 62.7258 375.846 62.3468 375.801 62.1908L373.104 52.6051L373.528 51.9141H373.996L377.161 51.4905L374.709 42.8188L374.954 42.3284C375.133 42.0832 375.4 41.9271 375.69 41.9048L384.518 41.3029L394.549 31.2937L403.488 30.1791L404.09 30.6026L404.937 33.6567L411.491 37.3795L418.29 35.4401L418.915 35.9305V36.2203L421.478 45.4047C421.656 45.7614 421.679 46.2964 421.478 46.8314C421.188 47.6562 420.408 48.3919 419.338 48.9046L418.268 49.395L420.051 55.726C420.274 56.5954 419.762 57.2865 419.271 57.7992L416.552 60.608C415.348 61.8564 413.119 62.4806 411.469 62.057L409.842 61.6335C407.813 62.9042 405.561 63.9519 403.087 64.7544L402.931 65.8022C402.708 67.2511 400.947 68.5441 398.852 68.8116L394.237 69.3912C393.925 69.4135 393.657 69.4358 393.412 69.4358ZM385.053 62.9264L385.409 63.1048C386.279 63.5506 387.237 63.885 388.24 64.1525C388.976 64.3309 389.823 64.4869 390.849 64.5984L391.406 64.6652L392.164 67.3849C392.208 67.6301 392.855 67.9199 393.992 67.7639L398.606 67.1843C400.122 66.9836 401.192 66.1142 401.281 65.5569L401.616 63.5283L402.106 63.3723C404.714 62.5698 407.189 61.4329 409.24 60.0953L409.53 59.8947L411.848 60.4743C412.94 60.7418 414.568 60.2737 415.37 59.4711L418.09 56.6623C418.357 56.3725 418.491 56.1942 418.469 56.105L418.424 55.8821L416.329 48.481L418.669 47.3887C419.45 47.032 419.851 46.5639 419.962 46.2518C420.029 46.0735 419.985 45.9843 419.962 45.962L417.532 37.3349L411.268 39.1183L403.533 34.7267L402.753 31.9179L395.307 32.8542L385.253 42.908L376.604 43.4876L379.212 52.7389L378.32 52.9841L375.021 53.4076L377.384 61.7227C377.406 61.7672 377.451 61.901 377.496 61.9456L379.39 64.1525C379.747 64.5761 381.107 64.7767 382.511 64.1302L385.053 62.9264Z" fill="white"/>
<path d="M411.894 33.5772L409.665 34.6027C408.773 34.1568 407.793 33.7778 406.678 33.488C405.563 33.1982 404.36 33.0199 403.133 32.9307L403.379 31.3926C403.557 30.3225 402.309 29.6315 400.614 29.8321L396 30.4117C394.306 30.6123 392.79 31.6601 392.634 32.7301L392.389 34.2683C389.758 35.0931 387.239 36.23 385.055 37.6567L383.093 37.1663C381.711 36.8096 379.794 37.3669 378.79 38.3923L376.071 41.2012C375.068 42.2266 375.402 43.3635 376.784 43.6979L378.746 44.1883C377.876 45.9494 377.631 47.6659 377.966 49.2264L375.736 50.2518C374.176 50.9652 373.485 52.2136 374.198 53.0384L376.115 55.2676C376.806 56.0924 378.634 56.1593 380.195 55.4459L382.424 54.4205C383.316 54.8663 384.297 55.2453 385.433 55.5351C386.548 55.8249 387.752 56.0033 388.956 56.0924L388.71 57.6306C388.532 58.7006 389.78 59.3917 391.475 59.191L396.089 58.6114C397.783 58.4108 399.299 57.3631 399.455 56.2931L399.7 54.7549C402.331 53.9301 404.85 52.7932 407.035 51.3665L408.996 51.8569C410.378 52.2136 412.296 51.6563 413.299 50.6308L416.018 47.822C417.022 46.7965 416.687 45.6596 415.305 45.3252L413.343 44.8348C414.213 43.0737 414.458 41.3572 414.124 39.7968L416.353 38.7713C417.913 38.058 418.604 36.8096 417.891 35.9848L415.974 33.7556C415.283 32.953 413.455 32.8639 411.894 33.5772Z" fill="#070707"/>
<path d="M390.849 60.085C389.824 60.085 388.954 59.7729 388.419 59.2156C387.973 58.7697 387.795 58.1678 387.884 57.5436L387.996 56.8749C387.015 56.7634 386.078 56.6074 385.209 56.3844C384.206 56.1392 383.27 55.8048 382.4 55.3813L380.528 56.2507C378.611 57.1424 376.448 56.964 375.49 55.8494L373.572 53.6202C373.171 53.1521 373.015 52.5502 373.149 51.926C373.35 50.9897 374.174 50.1203 375.4 49.563L377.072 48.7828C376.916 47.4898 377.117 46.13 377.63 44.7702L376.582 44.5027C375.623 44.2575 374.977 43.7002 374.754 42.9422C374.531 42.1843 374.799 41.3595 375.49 40.6461L378.209 37.8373C379.391 36.5889 381.642 35.9647 383.292 36.3883L384.919 36.8118C386.926 35.5412 389.199 34.4935 391.674 33.6909L391.83 32.6432C392.053 31.1942 393.814 29.9012 395.909 29.6337L400.524 29.0541C401.861 28.8981 402.998 29.1879 403.667 29.879C404.113 30.3248 404.291 30.9267 404.202 31.5509L404.091 32.2196C405.094 32.3311 406.03 32.4871 406.877 32.7101C407.858 32.9553 408.817 33.2897 409.686 33.7132L411.559 32.8438C413.476 31.9521 415.638 32.1305 416.597 33.2451L418.514 35.4743C418.915 35.9425 419.071 36.5443 418.937 37.1685C418.737 38.1048 417.912 38.9742 416.686 39.5315L415.014 40.3117C415.17 41.6047 414.969 42.9645 414.457 44.3243L415.482 44.5918C416.441 44.8371 417.087 45.3944 417.31 46.1523C417.533 46.9102 417.265 47.7351 416.574 48.4484L413.877 51.2572C412.673 52.5056 410.444 53.1298 408.794 52.7062L407.167 52.305C405.161 53.5756 402.887 54.6234 400.412 55.4259L400.256 56.4736C400.033 57.9226 398.272 59.2156 396.177 59.4831L391.562 60.0627C391.317 60.0627 391.072 60.085 390.849 60.085ZM382.423 53.5756L382.779 53.754C383.649 54.1998 384.607 54.5342 385.61 54.8017C386.636 55.0692 387.773 55.2475 388.999 55.3367L389.89 55.4036L389.511 57.8112C389.489 57.9226 389.511 58.0118 389.601 58.1009C389.846 58.3462 390.492 58.5468 391.362 58.4353L395.976 57.8557C397.492 57.6551 398.562 56.7857 398.651 56.2284L398.963 54.1775L399.454 54.0215C402.107 53.1967 404.492 52.1043 406.587 50.7445L406.877 50.5439L409.196 51.1235C410.288 51.391 411.915 50.9228 412.718 50.1203L415.415 47.3115C415.683 47.044 415.816 46.7765 415.749 46.5981C415.705 46.4198 415.437 46.2638 415.081 46.1746L412.138 45.4167L412.584 44.5027C413.364 42.9422 413.587 41.4263 413.297 39.9773L413.164 39.3309L415.995 38.0156C416.819 37.6367 417.243 37.1239 417.332 36.7896C417.355 36.6558 417.332 36.5666 417.265 36.4998L415.348 34.2705C414.992 33.847 413.632 33.6463 412.227 34.2928L409.641 35.4966L409.285 35.3183C408.415 34.8724 407.479 34.538 406.454 34.2705C405.428 34.003 404.291 33.8247 403.065 33.7355L402.173 33.6686L402.552 31.2611C402.575 31.1496 402.552 31.0604 402.463 30.9936C402.218 30.7484 401.572 30.5477 400.702 30.6592L396.088 31.2388C394.572 31.4394 393.502 32.3088 393.413 32.8661L393.101 34.917L392.61 35.0731C390.002 35.8756 387.527 37.0125 385.477 38.35L385.187 38.5506L382.868 37.971C381.776 37.7035 380.149 38.1717 379.346 38.9742L376.627 41.783C376.359 42.0505 376.225 42.318 376.292 42.4964C376.337 42.6747 376.604 42.8308 376.939 42.9199L379.881 43.6779L379.435 44.5918C378.655 46.1523 378.432 47.6682 378.722 49.1172L378.856 49.7636L376.025 51.0789C375.2 51.4579 374.776 51.9706 374.687 52.305C374.665 52.4387 374.687 52.5279 374.754 52.5948L376.671 54.824C377.028 55.2475 378.388 55.4482 379.792 54.8017L382.423 53.5756Z" fill="white"/>
<path d="M382.953 54.1216L381.387 54.5635L384.02 63.8967L385.586 63.4548L382.953 54.1216Z" fill="white"/>
<path d="M389.666 58.4512L388.099 58.8931L390.732 68.2264L392.299 67.7846L389.666 58.4512Z" fill="white"/>
<path d="M400.563 55.3743L398.997 55.8162L401.63 65.1495L403.196 64.7077L400.563 55.3743Z" fill="white"/>
<path d="M407.611 51.5962L406.045 52.0381L408.678 61.3714L410.245 60.9295L407.611 51.5962Z" fill="white"/>
<path d="M401.951 38.3544C406.521 39.4913 407.591 43.1918 404.314 46.6249C401.037 50.0579 394.684 51.9081 390.091 50.7489C385.522 49.612 384.451 45.9115 387.728 42.4785C391.005 39.0677 397.359 37.2175 401.951 38.3544Z" fill="#070707"/>
<path d="M392.991 51.9102C391.921 51.9102 390.874 51.7988 389.915 51.5536C387.418 50.9294 385.746 49.5695 385.211 47.7193C384.676 45.869 385.367 43.7958 387.173 41.9233C390.628 38.3119 397.361 36.3502 402.176 37.554C404.673 38.1782 406.344 39.538 406.879 41.3883C407.414 43.2385 406.723 45.3117 404.918 47.1843C402.154 50.0823 397.294 51.9102 392.991 51.9102ZM398.988 38.847C395.131 38.847 390.784 40.4743 388.31 43.0602C386.928 44.5092 386.371 46.0028 386.75 47.2734C387.129 48.5441 388.377 49.5027 390.294 49.9708C394.619 51.0408 400.638 49.302 403.736 46.0697C405.118 44.6207 405.676 43.1271 405.297 41.8564C404.94 40.5858 403.669 39.6272 401.752 39.159C400.883 38.9361 399.947 38.847 398.988 38.847Z" fill="white"/>
<path d="M389.931 50.1834C389.797 50.3172 389.797 50.3172 389.686 50.4732C389.864 50.5178 389.908 50.7185 390.109 50.763C394.679 51.9 401.055 50.0497 404.332 46.6389C404.466 46.5052 404.399 46.3046 404.532 46.1708C404.354 46.1262 404.354 46.1039 404.176 46.0593C399.561 44.9001 393.208 46.7504 389.931 50.1834Z" fill="#070707"/>
<path d="M392.986 51.9096C391.916 51.9096 390.868 51.7981 389.91 51.5529C389.62 51.486 389.441 51.3077 389.33 51.1962L388.282 50.8618L389.352 49.6135C392.808 46.0021 399.54 44.0404 404.355 45.2442C404.533 45.2888 404.555 45.2888 404.689 45.3334L405.848 45.7123L405.135 46.6709C405.113 46.6709 405.157 46.9384 404.912 47.1836C402.148 50.0816 397.288 51.9096 392.986 51.9096ZM391.158 50.1485C395.081 50.7727 400.097 49.3237 403.107 46.6709C399.161 46.0467 394.145 47.4957 391.158 50.1485Z" fill="white"/>
<path d="M330.546 65.3734C329.989 67.469 327.113 68.5169 324.126 67.7143C321.138 66.9117 319.154 64.5931 319.711 62.4974C320.269 60.4017 323.145 59.3539 326.132 60.1565C329.12 60.9368 331.104 63.2777 330.546 65.3734Z" fill="#070707"/>
<path d="M326.157 68.8053C325.443 68.8053 324.685 68.7161 323.927 68.5155C320.517 67.6015 318.265 64.815 318.934 62.296C319.268 61.0253 320.272 60.0222 321.743 59.4872C323.103 58.9967 324.752 58.9521 326.357 59.3757C329.835 60.2897 332.02 63.0316 331.351 65.5952C330.816 67.5792 328.698 68.8053 326.157 68.8053ZM324.15 60.7132C323.504 60.7132 322.857 60.8247 322.3 61.0253C321.342 61.382 320.717 61.9839 320.517 62.7195C320.093 64.3468 321.832 66.264 324.351 66.9327C326.87 67.6015 329.344 66.799 329.768 65.1716C330.192 63.5443 328.453 61.6272 325.934 60.9584C325.332 60.7801 324.73 60.7132 324.15 60.7132Z" fill="white"/>
<path d="M350.591 61.1932C350.034 63.2888 347.158 64.3367 344.17 63.5341C341.183 62.7315 339.199 60.4129 339.756 58.3172C340.313 56.2216 343.189 55.1737 346.177 55.9763C349.164 56.7789 351.148 59.0975 350.591 61.1932Z" fill="#070707"/>
<path d="M346.152 64.6049C345.439 64.6049 344.681 64.5158 343.945 64.3151C340.468 63.4012 338.283 60.6592 338.952 58.0956C339.643 55.532 342.875 54.239 346.375 55.1753C349.786 56.0893 352.037 58.8758 351.368 61.3949C351.034 62.6655 350.031 63.6687 348.56 64.2037C347.824 64.4712 347.022 64.6049 346.152 64.6049ZM344.213 56.5351C342.407 56.5351 340.891 57.2931 340.557 58.5414C340.133 60.1688 341.872 62.0859 344.391 62.7547C345.662 63.0891 346.955 63.0668 348.025 62.6878C348.983 62.3311 349.607 61.7292 349.808 60.9936C350.232 59.3663 348.493 57.4491 345.974 56.7804C345.372 56.602 344.77 56.5351 344.213 56.5351Z" fill="white"/>
<path d="M331.352 65.5748L329.769 65.1512L336.368 40.2509C336.657 39.1362 337.594 38.2891 338.708 38.0885L355.517 35.0791C356.185 34.9676 356.832 35.1905 357.278 35.6587C357.724 36.1491 357.88 36.8179 357.724 37.4643L351.393 61.3616L349.81 60.938L356.141 37.0408C356.185 36.907 356.119 36.8179 356.074 36.7733C356.029 36.7287 355.94 36.6618 355.806 36.6841L338.998 39.6936C338.485 39.7827 338.084 40.1617 337.95 40.6744L331.352 65.5748Z" fill="white"/>
<path d="M337.085 46.2969L353.894 43.4658C354.763 43.3097 355.476 42.6633 355.722 41.8162L356.925 37.2908C357.126 36.5106 356.457 35.775 355.655 35.931L338.846 38.9405C338.022 39.0965 337.353 39.6984 337.152 40.5009L335.948 45.0485C335.77 45.7396 336.372 46.4084 337.085 46.2969Z" fill="#070707"/>
<path d="M336.928 47.1182C336.416 47.1182 335.925 46.8952 335.591 46.5163C335.167 46.0481 335.011 45.424 335.167 44.8221L336.371 40.2744C336.661 39.1598 337.597 38.3127 338.712 38.1121L355.52 35.1026C356.189 34.9912 356.835 35.2141 357.281 35.6822C357.727 36.1727 357.883 36.8414 357.727 37.4879L356.523 42.0132C356.211 43.1724 355.253 44.0641 354.049 44.2648L337.24 47.0959C337.129 47.1182 337.017 47.1182 336.928 47.1182ZM355.877 36.7077C355.854 36.7077 355.832 36.7077 355.832 36.7077L339.024 39.7171C338.511 39.8063 338.11 40.1853 337.976 40.698L336.772 45.2456L336.995 45.4908L353.804 42.6597C354.361 42.5705 354.829 42.147 354.963 41.5897L356.167 37.0644C356.211 36.9306 356.144 36.8414 356.1 36.7968C356.033 36.7523 355.966 36.7077 355.877 36.7077Z" fill="white"/>
<path d="M150.316 29.9365C148.332 30.7614 145.746 29.1116 144.564 26.2579C143.382 23.4043 144.029 20.4168 146.035 19.5919C148.02 18.767 150.606 20.4168 151.787 23.2705C152.969 26.1242 152.322 29.1116 150.316 29.9365Z" fill="#070707"/>
<path d="M149.201 30.9808C147.106 30.9808 144.921 29.2866 143.807 26.5892C142.447 23.3123 143.316 19.857 145.701 18.8538C148.131 17.8284 151.141 19.634 152.523 22.9556C153.883 26.2326 153.013 29.6879 150.628 30.691C150.182 30.8917 149.692 30.9808 149.201 30.9808ZM147.106 20.2136C146.838 20.2136 146.571 20.2582 146.326 20.3697C144.787 21.0162 144.319 23.5798 145.3 25.9651C146.303 28.3503 148.421 29.8216 149.982 29.1974C151.52 28.551 151.988 25.9874 151.007 23.6021C150.182 21.5735 148.533 20.2136 147.106 20.2136Z" fill="white"/>
<path d="M162.173 25.0257C162.173 25.0257 166.409 24.8251 169.352 32.4713C172.294 40.1176 176.931 40.2959 176.931 40.2959L183.128 37.7323C183.507 37.5762 183.507 37.0412 183.128 36.8852C181.122 36.0381 176.931 33.6974 175.839 28.9714C174.59 23.5767 170.087 21.7487 169.307 22.0608L150.314 29.9523L162.173 25.0257Z" fill="#070707"/>
<path d="M177.091 41.1437H176.913C176.712 41.1437 171.719 40.8539 168.62 32.784C166.19 26.453 162.98 25.8957 162.334 25.8511L150.653 30.7108L150.028 29.195L169.021 21.3034C169.757 20.9914 170.872 21.4818 171.473 21.7939C172.432 22.2843 175.598 24.2237 176.645 28.7937C177.671 33.2299 181.75 35.4145 183.444 36.1502C183.913 36.3508 184.225 36.819 184.225 37.3317C184.225 37.8444 183.913 38.3125 183.444 38.4909L177.091 41.1437ZM164.585 24.9148C166.235 25.7842 168.419 27.7682 170.114 32.2044C172.521 38.4909 175.999 39.3826 176.801 39.494L182.062 37.3094C179.878 36.2394 176.11 33.7426 175.04 29.1727C173.948 24.4467 170.225 22.8639 169.556 22.8639H169.534L164.585 24.9148Z" fill="white"/>
<path d="M396.488 131.197C394.504 132.022 391.918 130.372 390.737 127.518C389.555 124.664 390.202 121.677 392.208 120.852C394.192 120.027 396.778 121.677 397.96 124.531C399.141 127.384 398.473 130.372 396.488 131.197Z" fill="#070707"/>
<path d="M395.396 132.253C394.571 132.253 393.702 131.986 392.877 131.451C391.651 130.67 390.625 129.4 389.979 127.862C388.619 124.585 389.489 121.129 391.874 120.126C393.078 119.614 394.482 119.792 395.797 120.639C397.023 121.419 398.049 122.69 398.695 124.228C399.342 125.766 399.52 127.393 399.208 128.82C398.874 130.358 398.027 131.473 396.801 131.963C396.355 132.142 395.886 132.253 395.396 132.253ZM393.301 121.464C393.033 121.464 392.766 121.508 392.52 121.62C390.982 122.266 390.514 124.83 391.495 127.215C392.008 128.441 392.81 129.444 393.746 130.046C394.594 130.604 395.463 130.737 396.176 130.425C396.89 130.135 397.402 129.422 397.625 128.441C397.871 127.349 397.714 126.056 397.202 124.83C396.689 123.604 395.887 122.601 394.95 121.999C394.371 121.664 393.813 121.464 393.301 121.464Z" fill="white"/>
<path d="M408.347 126.265C408.347 126.265 412.583 126.065 415.526 133.711C418.468 141.357 423.105 141.535 423.105 141.535L429.302 138.972C429.681 138.816 429.681 138.281 429.302 138.125C427.296 137.278 423.105 134.937 422.013 130.211C420.764 124.816 416.261 122.988 415.481 123.3L396.488 131.192L408.347 126.265Z" fill="#070707"/>
<path d="M423.243 142.383H423.064C422.864 142.383 417.87 142.093 414.771 134.023C412.342 127.692 409.132 127.135 408.485 127.091L396.804 131.95L396.18 130.434L415.173 122.543C415.886 122.231 417.023 122.721 417.647 123.033C418.583 123.524 421.771 125.463 422.819 130.033C423.844 134.469 427.924 136.654 429.618 137.39C430.086 137.59 430.398 138.058 430.398 138.571C430.398 139.084 430.086 139.552 429.618 139.753L423.243 142.383ZM410.759 126.154C412.408 127.024 414.593 129.008 416.287 133.444C418.695 139.73 422.173 140.622 422.975 140.733L428.236 138.549C426.051 137.479 422.284 135.004 421.214 130.412C420.122 125.619 416.265 123.992 415.708 124.103L410.759 126.154Z" fill="white"/>
<path d="M280.211 39.5105L262.689 14.7215C261.641 13.2502 261.998 11.2216 263.469 10.1738L275.886 1.39067C277.357 0.342932 279.386 0.699608 280.434 2.1709L297.955 26.9599C299.003 28.4312 298.646 30.4598 297.175 31.5075L284.758 40.2907C283.287 41.3161 281.258 40.9818 280.211 39.5105Z" fill="#070707"/>
<path d="M282.888 41.6976C281.618 41.6976 280.347 41.0957 279.544 39.9811L262.023 15.1921C261.399 14.3004 261.153 13.2304 261.332 12.1603C261.51 11.0903 262.112 10.154 263.004 9.52986L275.42 0.746705C277.248 -0.546247 279.812 -0.122694 281.105 1.72756L298.627 26.5166C299.251 27.4083 299.496 28.4783 299.318 29.5706C299.139 30.6406 298.537 31.5769 297.646 32.2011L285.229 40.9843C284.516 41.4524 283.691 41.6976 282.888 41.6976ZM280.882 39.0225C281.662 40.1149 283.2 40.3824 284.293 39.6021L296.709 30.819C297.245 30.44 297.601 29.8827 297.713 29.2362C297.824 28.5898 297.668 27.9433 297.289 27.4083L279.767 2.64155C278.987 1.54923 277.471 1.28172 276.357 2.06195L263.94 10.8451C263.405 11.2241 263.048 11.7814 262.937 12.4279C262.825 13.0743 262.981 13.7208 263.36 14.2558L280.882 39.0225Z" fill="white"/>
<path d="M292.563 29.8251L291.671 28.5767L293.008 27.6404L293.9 28.8888L292.563 29.8251ZM289.174 25.0099L286.655 21.4432L287.993 20.5069L290.512 24.0737L289.174 25.0099ZM284.136 17.8987L281.617 14.3319L282.955 13.3957L285.474 16.9624L284.136 17.8987ZM279.12 10.7875L276.601 7.2207L277.939 6.28442L280.458 9.85119L279.12 10.7875Z" fill="white"/>
<path d="M283.49 36.2048L282.598 34.9565L283.936 34.0202L284.827 35.2686L283.49 36.2048ZM280.101 31.412L277.582 27.8453L278.92 26.909L281.439 30.4757L280.101 31.412ZM275.063 24.3008L272.544 20.734L273.882 19.7977L276.401 23.3422L275.063 24.3008ZM270.048 17.1896L267.529 13.6228L268.866 12.6865L271.385 16.231L270.048 17.1896Z" fill="white"/>
<path d="M337.128 173.163L307.078 168.883C305.295 168.638 304.046 166.988 304.314 165.205L306.454 150.135C306.699 148.352 308.349 147.103 310.132 147.371L340.182 151.651C341.966 151.896 343.214 153.546 342.946 155.329L340.806 170.399C340.561 172.16 338.912 173.408 337.128 173.163Z" fill="#070707"/>
<path d="M337.599 174.013C337.398 174.013 337.22 173.991 337.019 173.969L306.969 169.688C305.899 169.532 304.94 168.975 304.294 168.106C303.647 167.236 303.358 166.166 303.514 165.074L305.654 150.004C305.81 148.934 306.367 147.976 307.236 147.329C308.106 146.683 309.176 146.415 310.268 146.549L340.34 150.829C341.411 150.985 342.369 151.543 343.016 152.412C343.662 153.281 343.952 154.351 343.796 155.444L341.656 170.513C341.5 171.583 340.942 172.542 340.073 173.188C339.315 173.723 338.468 174.013 337.599 174.013ZM337.242 172.341C337.888 172.43 338.535 172.274 339.048 171.873C339.56 171.472 339.917 170.915 340.006 170.268L342.146 155.199C342.235 154.552 342.079 153.906 341.678 153.393C341.277 152.88 340.719 152.523 340.073 152.434L310.001 148.154C309.354 148.065 308.708 148.221 308.195 148.622C307.682 149.024 307.326 149.581 307.236 150.227L305.096 165.297C305.007 165.943 305.163 166.59 305.565 167.103C305.966 167.615 306.523 167.972 307.17 168.061L337.242 172.341Z" fill="white"/>
<path d="M338.558 157.508L337.042 157.285L337.265 155.68L338.781 155.903L338.558 157.508ZM332.74 156.683L328.437 156.059L328.66 154.454L332.963 155.078L332.74 156.683ZM324.113 155.457L319.81 154.833L320.033 153.206L324.336 153.83L324.113 155.457ZM315.486 154.231L311.183 153.607L311.406 152.002L315.708 152.626L315.486 154.231Z" fill="white"/>
<path d="M336.995 168.523L335.479 168.3L335.702 166.695L337.218 166.918L336.995 168.523ZM331.177 167.699L326.874 167.074L327.097 165.469L331.4 166.093L331.177 167.699ZM322.55 166.472L318.247 165.848L318.47 164.243L322.772 164.867L322.55 166.472ZM313.923 165.246L309.62 164.622L309.843 163.017L314.145 163.641L313.923 165.246Z" fill="white"/>
<path d="M174.567 87.7582L167.032 58.3547C166.587 56.6159 167.634 54.8325 169.373 54.3866L184.108 50.5969C185.847 50.1511 187.63 51.1988 188.076 52.9376L195.611 82.3412C196.057 84.08 195.009 85.8634 193.27 86.3092L178.535 90.0989C176.796 90.5448 175.013 89.497 174.567 87.7582Z" fill="#070707"/>
<path d="M177.734 91.0204C177.02 91.0204 176.307 90.8197 175.661 90.4408C174.724 89.8835 174.055 88.9918 173.788 87.944L166.253 58.5404C165.696 56.3558 167.011 54.1488 169.196 53.5692L183.931 49.7795C186.116 49.2222 188.323 50.5375 188.902 52.7221L196.437 82.1257C196.994 84.3104 195.679 86.5396 193.494 87.0969L178.759 90.8866C178.402 90.9758 178.068 91.0204 177.734 91.0204ZM184.934 51.3177C184.733 51.3177 184.533 51.34 184.332 51.3846L169.597 55.1743C168.304 55.5087 167.502 56.8462 167.836 58.1392L175.371 87.5428C175.527 88.167 175.928 88.702 176.485 89.0364C177.043 89.3707 177.711 89.4599 178.336 89.3039L193.071 85.5142C194.364 85.1798 195.166 83.8422 194.832 82.5493L187.297 53.1457C187.03 52.0534 186.026 51.3177 184.934 51.3177Z" fill="white"/>
<path d="M189.574 83.1106L189.195 81.6393L190.777 81.238L191.156 82.7093L189.574 83.1106ZM188.125 77.4038L187.032 73.1905L188.615 72.7893L189.707 77.0025L188.125 77.4038ZM185.962 68.9773L184.87 64.7641L186.453 64.3628L187.545 68.5761L185.962 68.9773ZM183.8 60.5286L182.708 56.3153L184.29 55.9141L185.383 60.1273L183.8 60.5286Z" fill="white"/>
<path d="M178.808 85.8684L178.43 84.3971L180.012 83.9958L180.391 85.4671L178.808 85.8684ZM177.359 80.1616L176.267 75.9483L177.85 75.5471L178.942 79.7603L177.359 80.1616ZM175.197 71.7128L174.105 67.4996L175.688 67.0983L176.78 71.3116L175.197 71.7128ZM173.035 63.2864L171.942 59.0731L173.525 58.6719L174.617 62.8851L173.035 63.2864Z" fill="white"/>
<path d="M105.082 110.91L105.416 114.321C105.461 114.811 105.751 115.257 106.174 115.502L109.161 117.152C110.254 117.754 110.187 119.359 109.028 119.849L105.884 121.209C105.439 121.41 105.104 121.811 105.015 122.301L104.369 125.668C104.123 126.894 102.585 127.317 101.76 126.381L99.4866 123.817C99.1522 123.438 98.6618 123.26 98.1714 123.327L94.783 123.75C93.5346 123.906 92.6652 122.569 93.3117 121.499L95.0505 118.556C95.2957 118.133 95.318 117.598 95.1173 117.152L93.6683 114.053C93.1333 112.916 94.1365 111.668 95.3625 111.958L98.7064 112.693C99.1968 112.805 99.6872 112.671 100.066 112.314L102.563 109.974C103.477 109.104 104.97 109.684 105.082 110.91Z" fill="#070707"/>
<path d="M102.899 127.691C102.252 127.691 101.606 127.424 101.16 126.911L98.8862 124.347C98.7301 124.169 98.5072 124.102 98.2843 124.124L94.8958 124.548C94.0041 124.659 93.157 124.258 92.6666 123.523C92.1762 122.787 92.1539 121.828 92.5997 121.07L94.3608 118.106C94.4723 117.905 94.4946 117.66 94.3831 117.459L92.9341 114.36C92.5551 113.558 92.6666 112.622 93.2239 111.931C93.7812 111.24 94.6729 110.927 95.5423 111.106L98.8862 111.841C99.1091 111.886 99.332 111.819 99.5103 111.663L102.007 109.322C102.654 108.721 103.59 108.542 104.415 108.854C105.239 109.166 105.819 109.924 105.908 110.794L106.243 114.204C106.265 114.427 106.399 114.628 106.599 114.739L109.586 116.389C110.367 116.813 110.813 117.637 110.79 118.529C110.746 119.421 110.211 120.179 109.408 120.535L106.265 121.895C106.064 121.984 105.908 122.163 105.864 122.386L105.217 125.752C105.039 126.621 104.415 127.312 103.545 127.557C103.322 127.669 103.099 127.691 102.899 127.691ZM98.3957 122.475C99.0645 122.475 99.6887 122.765 100.135 123.255L102.408 125.819C102.654 126.108 102.988 126.064 103.099 126.019C103.233 125.975 103.523 125.863 103.59 125.484L104.236 122.118C104.392 121.36 104.883 120.736 105.596 120.424L108.739 119.064C109.096 118.908 109.141 118.596 109.141 118.462C109.141 118.329 109.118 118.016 108.784 117.816L105.797 116.166C105.128 115.787 104.682 115.118 104.615 114.36L104.281 110.95C104.236 110.571 103.969 110.415 103.835 110.37C103.701 110.326 103.412 110.236 103.122 110.504L100.625 112.845C100.068 113.357 99.2874 113.58 98.5518 113.402L95.2079 112.666C94.8289 112.577 94.606 112.8 94.5169 112.911C94.4277 113.023 94.2716 113.29 94.4277 113.625L95.8767 116.723C96.1888 117.415 96.1665 118.217 95.7652 118.886L94.0264 121.828C93.8258 122.163 93.9818 122.453 94.0487 122.564C94.1156 122.675 94.3162 122.921 94.6952 122.876L98.0836 122.453C98.1951 122.497 98.3066 122.475 98.3957 122.475Z" fill="white"/>
<path d="M367.373 142.753L370.249 144.626C370.672 144.893 371.185 144.938 371.653 144.76L374.818 143.467C375.978 142.999 377.159 144.046 376.847 145.25L375.955 148.549C375.822 149.017 375.933 149.53 376.267 149.909L378.474 152.517C379.277 153.476 378.653 154.925 377.404 154.992L373.994 155.17C373.503 155.192 373.057 155.46 372.79 155.883L371.006 158.804C370.36 159.874 368.755 159.718 368.309 158.558L367.083 155.371C366.905 154.903 366.503 154.568 366.035 154.434L362.714 153.632C361.51 153.342 361.153 151.782 362.112 151.001L364.765 148.861C365.144 148.549 365.367 148.059 365.322 147.568L365.054 144.158C364.943 142.887 366.325 142.085 367.373 142.753Z" fill="#070707"/>
<path d="M369.692 160.333C369.625 160.333 369.536 160.333 369.469 160.333C368.577 160.244 367.842 159.687 367.507 158.862L366.281 155.674C366.192 155.474 366.014 155.295 365.791 155.251L362.469 154.448C361.6 154.248 360.953 153.579 360.753 152.709C360.552 151.84 360.864 150.948 361.555 150.391L364.208 148.251C364.386 148.117 364.476 147.894 364.453 147.671L364.186 144.261C364.119 143.369 364.542 142.544 365.323 142.076C366.081 141.63 367.039 141.63 367.775 142.121L370.651 143.993C370.829 144.127 371.074 144.127 371.297 144.06L374.463 142.767C375.287 142.433 376.224 142.589 376.87 143.168C377.539 143.748 377.806 144.662 377.583 145.509L376.692 148.808C376.625 149.031 376.692 149.254 376.826 149.433L379.032 152.041C379.612 152.709 379.746 153.646 379.389 154.471C379.032 155.295 378.274 155.83 377.383 155.875L373.972 156.053C373.749 156.076 373.549 156.187 373.415 156.388L371.631 159.308C371.23 159.91 370.495 160.333 369.692 160.333ZM366.549 143.347C366.393 143.347 366.259 143.414 366.192 143.436C366.081 143.503 365.835 143.703 365.858 144.082L366.125 147.493C366.192 148.251 365.858 148.987 365.278 149.477L362.625 151.617C362.336 151.862 362.358 152.174 362.38 152.308C362.402 152.442 362.514 152.732 362.893 152.821L366.214 153.623C366.95 153.802 367.574 154.337 367.842 155.05L369.068 158.238C369.202 158.595 369.514 158.661 369.647 158.684C369.781 158.684 370.093 158.684 370.294 158.349L372.077 155.429C372.479 154.783 373.17 154.359 373.928 154.337L377.338 154.158C377.717 154.136 377.896 153.869 377.94 153.735C377.985 153.623 378.074 153.311 377.829 153.022L375.622 150.413C375.131 149.834 374.953 149.031 375.154 148.296L376.045 144.996C376.134 144.617 375.934 144.394 375.845 144.305C375.755 144.216 375.488 144.038 375.131 144.194L371.966 145.487C371.275 145.777 370.45 145.71 369.826 145.286L366.95 143.414C366.794 143.369 366.66 143.347 366.549 143.347Z" fill="white"/>
<path d="M247.844 141.028L247.086 144.371C246.975 144.862 247.109 145.352 247.443 145.731L249.761 148.25C250.608 149.164 250.029 150.658 248.781 150.769L245.37 151.081C244.879 151.126 244.434 151.416 244.188 151.839L242.516 154.827C241.914 155.919 240.309 155.83 239.819 154.671L238.481 151.527C238.281 151.081 237.88 150.747 237.389 150.636L234.045 149.967C232.819 149.722 232.418 148.183 233.354 147.359L235.94 145.107C236.319 144.773 236.497 144.282 236.453 143.792L236.052 140.403C235.918 139.155 237.255 138.308 238.325 138.932L241.268 140.693C241.692 140.938 242.227 140.983 242.672 140.76L245.793 139.333C246.886 138.821 248.134 139.824 247.844 141.028Z" fill="#070707"/>
<path d="M241.201 156.402C241.157 156.402 241.112 156.402 241.068 156.402C240.176 156.357 239.418 155.822 239.061 154.997L237.724 151.854C237.635 151.654 237.456 151.498 237.233 151.453L233.89 150.784C233.02 150.606 232.329 149.959 232.106 149.112C231.883 148.243 232.151 147.351 232.819 146.772L235.405 144.52C235.584 144.364 235.651 144.141 235.628 143.918L235.249 140.53C235.138 139.638 235.539 138.791 236.297 138.323C237.055 137.832 237.991 137.832 238.749 138.278L241.692 140.039C241.892 140.151 242.115 140.173 242.338 140.084L245.437 138.657C246.239 138.278 247.176 138.412 247.867 138.969C248.558 139.527 248.87 140.418 248.669 141.288L247.911 144.632C247.867 144.854 247.911 145.077 248.067 145.256L250.386 147.775C250.988 148.421 251.166 149.357 250.832 150.182C250.52 151.007 249.762 151.587 248.87 151.654L245.459 151.966C245.236 151.988 245.036 152.122 244.924 152.322L243.252 155.31C242.806 155.956 242.048 156.402 241.201 156.402ZM237.545 139.527C237.367 139.527 237.233 139.593 237.166 139.638C237.055 139.705 236.81 139.906 236.854 140.285L237.256 143.673C237.345 144.431 237.055 145.189 236.475 145.679L233.89 147.931C233.6 148.176 233.644 148.51 233.667 148.622C233.711 148.756 233.823 149.045 234.202 149.112L237.545 149.781C238.303 149.937 238.928 150.45 239.217 151.141L240.555 154.284C240.711 154.641 241.023 154.685 241.157 154.708C241.268 154.708 241.603 154.685 241.803 154.351L243.475 151.364C243.854 150.695 244.523 150.271 245.281 150.182L248.692 149.87C249.071 149.826 249.227 149.558 249.271 149.424C249.316 149.313 249.405 149.001 249.137 148.711L246.819 146.192C246.306 145.635 246.083 144.854 246.262 144.097L247.02 140.753C247.109 140.374 246.886 140.151 246.774 140.062C246.685 139.972 246.418 139.816 246.061 139.972L242.985 141.511C242.294 141.823 241.491 141.778 240.822 141.399L237.88 139.638C237.768 139.571 237.635 139.527 237.545 139.527Z" fill="white"/>
<path d="M210.102 201.831L207.739 202.678C207.405 202.812 207.137 203.079 207.048 203.436L206.424 205.866C206.201 206.758 205.042 206.98 204.485 206.267L202.946 204.283C202.724 203.993 202.367 203.837 202.01 203.86L199.513 204.016C198.599 204.06 198.02 203.057 198.533 202.299L199.937 200.226C200.138 199.914 200.182 199.535 200.048 199.2L199.134 196.86C198.8 196.013 199.58 195.143 200.472 195.388L202.88 196.079C203.236 196.191 203.615 196.102 203.883 195.879L205.822 194.296C206.535 193.716 207.606 194.207 207.628 195.121L207.717 197.618C207.739 197.974 207.918 198.309 208.23 198.509L210.347 199.869C211.105 200.36 210.972 201.519 210.102 201.831Z" fill="#070707"/>
<path d="M205.355 207.513C204.775 207.513 204.218 207.246 203.839 206.777L202.301 204.793C202.234 204.726 202.145 204.682 202.056 204.682L199.559 204.838C198.779 204.86 198.132 204.504 197.776 203.879C197.419 203.233 197.441 202.453 197.843 201.851L199.247 199.778C199.292 199.688 199.314 199.599 199.269 199.51L198.355 197.169C198.088 196.478 198.222 195.72 198.734 195.163C199.225 194.628 199.983 194.405 200.674 194.606L203.081 195.297C203.17 195.319 203.26 195.297 203.349 195.252L205.288 193.67C205.845 193.201 206.626 193.09 207.294 193.402C207.963 193.714 208.409 194.361 208.431 195.096L208.52 197.615C208.52 197.704 208.565 197.794 208.654 197.838L210.772 199.198C211.396 199.599 211.731 200.29 211.641 201.026C211.552 201.762 211.084 202.364 210.393 202.609L208.03 203.456C207.941 203.478 207.874 203.567 207.852 203.656L207.228 206.086C207.049 206.8 206.47 207.335 205.756 207.491C205.623 207.513 205.489 207.513 205.355 207.513ZM202.078 203.055C202.68 203.055 203.237 203.322 203.594 203.79L205.132 205.774C205.221 205.908 205.355 205.886 205.422 205.886C205.489 205.863 205.6 205.819 205.645 205.685L206.269 203.255C206.425 202.653 206.871 202.163 207.473 201.94L209.836 201.093C209.992 201.048 210.014 200.915 210.014 200.848C210.014 200.781 210.014 200.669 209.88 200.58L207.763 199.22C207.228 198.886 206.893 198.306 206.871 197.66L206.782 195.141C206.782 194.985 206.67 194.918 206.603 194.896C206.536 194.873 206.425 194.829 206.314 194.94L204.374 196.523C203.884 196.924 203.237 197.058 202.613 196.88L200.206 196.189C200.049 196.144 199.96 196.211 199.916 196.278C199.871 196.322 199.804 196.434 199.871 196.568L200.785 198.908C201.008 199.51 200.941 200.157 200.585 200.692L199.18 202.765C199.091 202.899 199.136 203.01 199.18 203.077C199.225 203.144 199.292 203.255 199.448 203.211L201.944 203.055C202.011 203.055 202.033 203.055 202.078 203.055Z" fill="white"/>
<path d="M333.602 189.165L331.239 190.012C330.905 190.146 330.637 190.413 330.548 190.77L329.924 193.2C329.701 194.092 328.542 194.315 327.985 193.601L326.446 191.617C326.224 191.327 325.867 191.171 325.51 191.194L323.013 191.35C322.099 191.394 321.52 190.391 322.033 189.633L323.437 187.56C323.638 187.248 323.682 186.869 323.548 186.535L322.634 184.194C322.3 183.347 323.08 182.477 323.972 182.723L326.38 183.414C326.736 183.525 327.115 183.436 327.383 183.213L329.322 181.63C330.035 181.051 331.106 181.541 331.128 182.455L331.217 184.952C331.239 185.309 331.418 185.643 331.73 185.844L333.847 187.203C334.583 187.671 334.449 188.853 333.602 189.165Z" fill="#070707"/>
<path d="M328.831 194.856C328.251 194.856 327.694 194.589 327.315 194.121L325.777 192.137C325.71 192.07 325.599 192.025 325.532 192.025L323.035 192.181C322.255 192.203 321.608 191.847 321.252 191.223C320.895 190.576 320.917 189.818 321.341 189.194L322.745 187.121C322.79 187.032 322.812 186.942 322.768 186.853L321.854 184.513C321.586 183.822 321.72 183.064 322.233 182.529C322.723 181.994 323.459 181.771 324.194 181.971L326.602 182.662C326.691 182.685 326.802 182.662 326.869 182.618L328.809 181.035C329.388 180.567 330.146 180.455 330.815 180.768C331.484 181.08 331.93 181.726 331.952 182.462L332.041 184.958C332.041 185.048 332.086 185.137 332.175 185.181L334.293 186.541C334.917 186.942 335.251 187.634 335.162 188.369C335.073 189.105 334.605 189.707 333.914 189.952L331.551 190.799C331.462 190.821 331.395 190.911 331.372 191L330.748 193.43C330.57 194.143 329.99 194.678 329.277 194.834C329.099 194.834 328.965 194.856 328.831 194.856ZM325.576 190.376C326.156 190.376 326.736 190.643 327.092 191.111L328.63 193.095C328.72 193.207 328.853 193.207 328.92 193.207C328.987 193.184 329.099 193.14 329.143 193.006L329.767 190.576C329.923 189.974 330.369 189.462 330.971 189.261L333.334 188.414C333.49 188.369 333.512 188.235 333.512 188.169C333.512 188.102 333.512 187.968 333.379 187.901L331.261 186.541C330.726 186.207 330.392 185.627 330.369 184.981L330.28 182.462C330.28 182.306 330.169 182.239 330.102 182.217C330.035 182.194 329.923 182.15 329.812 182.261L327.872 183.844C327.382 184.245 326.736 184.379 326.111 184.201L323.704 183.509C323.548 183.465 323.459 183.532 323.414 183.599C323.369 183.643 323.303 183.755 323.369 183.888L324.283 186.229C324.506 186.831 324.439 187.477 324.083 188.013L322.678 190.086C322.589 190.219 322.634 190.331 322.656 190.398C322.701 190.465 322.79 190.576 322.924 190.532L325.42 190.376C325.487 190.376 325.532 190.376 325.576 190.376Z" fill="white"/>
<path d="M149.082 205.216L138.337 180.093C137.512 178.176 136.22 177.262 135.149 177.44L134.837 177.507L128.261 179.291C128.194 179.313 128.127 179.38 128.15 179.469L128.93 186.513L129.197 189.456L130.825 188.475L127.303 200.602C126.5 203.388 128.127 207.379 130.268 207.847L138.582 209.675C138.627 209.675 138.649 209.697 138.672 209.742L141.146 213.331C141.191 213.375 141.258 213.42 141.324 213.398L148.012 211.592C149.662 211.168 150.308 208.07 149.082 205.216Z" fill="#070707"/>
<path d="M140.974 214.338L140.483 213.78L138.165 210.414L130.095 208.631C129.092 208.408 128.156 207.628 127.442 206.424C126.35 204.574 125.993 202.211 126.528 200.36L129.471 190.262L128.535 190.842L128.133 186.584L127.286 178.871L128.067 178.514L134.999 176.641C136.582 176.396 138.187 177.622 139.101 179.785L149.846 204.908C150.715 206.937 150.782 209.277 150.002 210.838C149.579 211.663 148.977 212.22 148.219 212.398L140.974 214.338ZM132.213 186.673L128.089 200.806C127.688 202.211 127.977 204.128 128.847 205.577C129.315 206.379 129.917 206.914 130.452 207.026L139.079 208.921L139.346 209.233L141.576 212.465L147.795 210.771C148.152 210.682 148.397 210.347 148.531 210.058C148.999 209.121 149.133 207.338 148.33 205.51L137.585 180.386C136.894 178.759 135.891 178.135 135.289 178.224L135.022 178.313L129.025 179.941L129.894 188.077L132.213 186.673Z" fill="white"/>
<path d="M146.008 198.016L138.34 180.093C137.515 178.176 136.222 177.262 135.152 177.44L134.84 177.507L128.264 179.291C128.197 179.313 128.13 179.38 128.152 179.469L128.932 186.513L129.2 189.456L130.827 188.475L129.267 193.825C129.378 193.87 129.49 193.914 129.601 193.937L129.089 194.494L127.305 200.602C127.082 201.382 127.06 202.274 127.171 203.165L146.008 198.016Z" fill="#070707"/>
<path d="M126.485 204.172L126.351 203.258C126.218 202.211 126.262 201.207 126.507 200.36L129.45 190.262L128.514 190.842L128.113 186.584L127.265 178.871L128.046 178.514L134.979 176.641C136.561 176.396 138.166 177.622 139.08 179.785L147.128 198.577L126.485 204.172ZM129.807 194.899L128.09 200.828C127.979 201.207 127.912 201.653 127.912 202.099L144.899 197.485L137.587 180.409C136.896 178.781 135.893 178.157 135.291 178.246L135.023 178.313L129.026 179.941L129.896 188.077L132.192 186.673L130.275 193.249L131.144 193.45L129.807 194.899Z" fill="white"/>
<path d="M126.571 181.112L120.351 202.49C119.548 205.277 121.176 209.267 123.316 209.735L140.28 213.48C142.487 213.971 143.513 210.382 142.131 207.105L131.386 181.981C130.026 178.816 127.373 178.325 126.571 181.112Z" fill="#070707"/>
<path d="M140.683 214.335C140.505 214.335 140.304 214.312 140.104 214.268L123.117 210.523C122.114 210.3 121.178 209.52 120.464 208.316C119.372 206.466 119.015 204.103 119.55 202.252L125.77 180.874C126.193 179.425 127.107 178.556 128.289 178.466C129.716 178.377 131.231 179.603 132.123 181.654L142.868 206.778C143.894 209.163 143.782 211.95 142.578 213.376C142.088 214.023 141.419 214.335 140.683 214.335ZM128.445 180.116C128.423 180.116 128.423 180.116 128.4 180.116C127.776 180.161 127.486 180.896 127.353 181.342L121.133 202.72C120.732 204.125 121.022 206.042 121.891 207.491C122.359 208.294 122.961 208.829 123.496 208.94L140.483 212.685C140.728 212.73 141.04 212.752 141.352 212.351C142.043 211.504 142.244 209.453 141.397 207.424L130.63 182.323C129.983 180.785 129.069 180.116 128.445 180.116Z" fill="white"/>
<path d="M138.109 179.322L131.161 181.216L131.589 182.786L138.537 180.892L138.109 179.322Z" fill="white"/>
<path d="M149.421 75.5674L149.845 73.5166C150.38 71.0421 149.644 67.8543 148.084 65.8926L146.568 63.9532C145.23 62.259 143.87 60.5871 142.511 58.9374L142.979 56.7082C143.491 54.2115 142.667 51.0237 141.062 49.2626L138.164 46.0971C137.339 45.2054 136.492 44.8041 135.689 44.9156H135.644L130.785 45.9188C129.403 44.4921 127.998 43.0876 126.594 41.7278L121.11 36.4446C120.307 35.6643 119.46 35.3522 118.702 35.4414C110.276 35.6866 103.633 40.9699 103.633 40.9699L104.903 39.7215L111.658 46.2977L113.196 45.7181C111.948 49.3518 110.9 53.2083 110.053 57.2432L109.652 59.1381C109.117 61.6571 109.942 64.8895 111.591 66.6728L131.81 88.8313C130.227 90.3472 128.712 91.7739 128.578 91.7739C128.333 91.7739 126.371 100.044 126.371 100.044C126.371 100.044 134.976 100.557 141.463 97.1017C141.53 97.0794 141.597 97.0349 141.663 96.9903C142.132 96.7228 142.555 96.2323 142.867 95.5413L143.558 93.9585C146.055 88.4078 148.017 82.2328 149.421 75.5674Z" fill="#070707"/>
<path d="M127.715 100.836C126.935 100.836 126.423 100.814 126.356 100.814L125.375 100.747L125.598 99.8104C127.426 92.075 127.738 91.0718 128.317 90.9381C128.54 90.7597 129.142 90.2247 130.68 88.7534L110.996 67.1967C109.168 65.1904 108.277 61.7128 108.856 58.9263L109.257 57.0314C109.971 53.5984 110.863 50.2546 111.888 47.0668L111.464 47.2228L105.022 40.9364C104.465 41.3153 104.153 41.5606 104.153 41.5606L103.083 40.3345L104.933 38.5511L105.245 38.8632C107.92 37.2358 112.869 34.7614 118.709 34.5831C119.69 34.4939 120.76 34.9174 121.697 35.8314L127.18 41.1147C128.496 42.3854 129.789 43.6783 131.082 44.9936L135.495 44.0796C136.365 43.9681 137.524 44.1465 138.772 45.5063L141.67 48.6718C143.476 50.6335 144.368 54.0665 143.788 56.8308L143.409 58.6811C144.702 60.2415 145.973 61.802 147.221 63.407L148.737 65.3465C150.431 67.5088 151.234 70.9195 150.654 73.6615L150.231 75.7124C148.804 82.4447 146.82 88.6642 144.346 94.2373L143.654 95.8201C143.298 96.6449 142.763 97.2691 142.116 97.648C142.027 97.6926 141.916 97.7595 141.827 97.8041C136.744 100.501 130.457 100.836 127.715 100.836ZM127.426 99.1862C129.9 99.1862 136.164 98.9633 141.113 96.3105L141.693 96.9124L141.291 96.199C141.626 95.9984 141.938 95.6417 142.161 95.129L142.852 93.5908C145.282 88.1292 147.244 81.9988 148.626 75.378L149.049 73.3271C149.517 71.0756 148.849 68.1553 147.444 66.3719L145.928 64.4325C144.591 62.7383 143.253 61.0663 141.893 59.439L141.648 59.1269L142.183 56.4964C142.651 54.2449 141.916 51.3469 140.444 49.7641L137.546 46.5986C137.123 46.1305 136.454 45.5955 135.785 45.6623L130.547 46.777L130.235 46.4649C128.852 45.0382 127.448 43.656 126.044 42.2962L120.56 37.0129C119.98 36.4333 119.334 36.1658 118.799 36.2327C113.582 36.3887 109.035 38.5288 106.449 40.067L111.866 45.328L114.541 44.3025L113.983 45.9521C112.735 49.5858 111.687 53.4201 110.863 57.3658L110.461 59.2607C109.993 61.4899 110.751 64.4994 112.2 66.0821L132.954 88.8203L132.375 89.3776C130.48 91.1833 129.655 91.9635 129.209 92.2979C128.964 93.0558 128.161 96.1322 127.426 99.1862Z" fill="white"/>
<path d="M148.09 65.7864L146.574 63.8469C145.236 62.1527 143.876 60.4808 142.517 58.8312L142.985 56.6019C143.497 54.1052 142.673 50.9174 141.068 49.1563L138.17 45.9908C137.345 45.0991 136.498 44.6979 135.695 44.8093H135.651L130.791 45.8125C129.409 44.3858 128.004 42.9813 126.6 41.6215L121.116 36.3382C120.313 35.558 119.466 35.2459 118.708 35.3351C111.887 35.5357 106.671 37.3637 104.932 38.0547C104.597 38.1885 104.441 38.5898 104.597 38.9241L104.91 39.6375L111.664 46.2137L107.741 49.7582C106.537 53.3027 110.951 52.9237 110.104 56.8694L118.218 64.1144L135.338 70.5569C135.338 70.5569 142.65 69.0856 149.004 67.3691C148.781 66.7672 148.446 66.2545 148.09 65.7864Z" fill="#070707"/>
<path d="M135.296 71.3704L117.685 64.6828L109.237 57.1257L109.326 56.6575C109.66 55.1194 109.014 54.4952 108.233 53.715C107.342 52.8233 106.227 51.7309 106.985 49.4571L107.208 49.1228L110.485 46.1579L104.176 39.9383L103.864 39.225C103.708 38.8683 103.686 38.4448 103.842 38.0658C103.998 37.7091 104.288 37.397 104.644 37.2633C106.584 36.483 111.822 34.6774 118.689 34.4767C119.669 34.3876 120.739 34.8111 121.676 35.7251L127.16 41.0084C128.475 42.279 129.768 43.572 131.061 44.8872L135.475 43.9732C136.344 43.8618 137.503 44.0401 138.752 45.3999L141.65 48.5654C143.455 50.5272 144.347 53.9602 143.767 56.7244L143.388 58.5747C144.681 60.1128 145.952 61.6956 147.2 63.3006L148.716 65.2401C149.095 65.7305 149.452 66.3101 149.764 66.9566L150.188 67.8483L149.251 68.0935C142.943 69.7877 135.608 71.259 135.519 71.2813L135.296 71.3704ZM118.666 63.3675L135.43 69.6762C136.634 69.431 142.43 68.2272 147.825 66.8228C147.713 66.6445 147.579 66.4661 147.446 66.2878L145.93 64.3484C144.592 62.6542 143.255 60.9822 141.895 59.3549L141.65 59.0428L142.185 56.4123C142.653 54.1608 141.895 51.2628 140.446 49.6801L137.548 46.5146C137.124 46.0464 136.478 45.5114 135.787 45.5783L130.503 46.6483L130.191 46.3362C128.809 44.9095 127.427 43.5274 126 42.1676L120.516 36.8843C119.937 36.3047 119.313 36.0372 118.755 36.1041C112.291 36.3047 107.364 37.932 105.38 38.7123L105.558 39.1135L112.826 46.1802L108.434 50.1482C108.1 51.2851 108.546 51.7309 109.348 52.5112C110.151 53.3137 111.243 54.3837 110.975 56.4792L118.666 63.3675Z" fill="white"/>
<path d="M141.066 49.2511L138.169 46.0856C137.344 45.1939 136.497 44.7926 135.694 44.9041L130.79 45.9072L122.653 47.5792C122.274 47.6683 122.073 48.0696 122.23 48.4263L125.373 54.9133L142.382 51.4357C142.07 50.5886 141.624 49.8307 141.066 49.2511Z" fill="#070707"/>
<path d="M124.928 55.832L121.518 48.7876C121.339 48.3863 121.339 47.9405 121.518 47.5392C121.718 47.1379 122.075 46.8704 122.498 46.7812L135.539 44.1062C136.364 43.9947 137.523 44.173 138.772 45.5552L141.67 48.7207C142.272 49.3672 142.762 50.1697 143.163 51.1283L143.542 52.0423L124.928 55.832ZM123.123 48.3194L125.865 53.9817L141.224 50.8385C141.001 50.4372 140.756 50.1028 140.488 49.813L137.59 46.6475C137.167 46.1794 136.498 45.622 135.829 45.7112L123.123 48.3194Z" fill="white"/>
<path d="M135.608 78.3759L136.032 76.325C136.567 73.8505 135.831 70.6628 134.271 68.701L132.755 66.7616C131.418 65.0674 130.058 63.3955 128.698 61.7459L129.166 59.5166C129.679 57.0199 128.854 53.8321 127.249 52.071L124.351 48.9055C122.746 47.1444 120.829 47.3451 119.915 49.3736L119.179 51.001C117.061 48.7718 114.944 46.6094 112.781 44.5362L107.297 39.253C105.603 37.6256 103.708 37.96 102.794 40.0332L102.081 41.6605C99.6288 47.189 97.6671 53.364 96.2404 60.0294L95.8614 61.9242C95.3264 64.4432 96.1512 67.6756 97.8008 69.459L124.596 98.8179C126.223 100.601 128.163 100.401 129.077 98.3052L129.768 96.7224C132.242 91.2162 134.204 85.0636 135.608 78.3759Z" fill="#070707"/>
<path d="M126.87 100.856C125.867 100.856 124.864 100.343 123.994 99.3845L97.1989 70.0256C95.371 68.0192 94.4793 64.5416 95.0589 61.7551L95.4601 59.8603C96.8868 53.128 98.8709 46.9084 101.345 41.3354L102.059 39.708C102.616 38.4597 103.508 37.6571 104.578 37.4565C105.67 37.2336 106.851 37.6794 107.877 38.6603L113.361 43.9436C115.167 45.6824 117.039 47.5772 118.934 49.5612L119.157 49.0485C119.692 47.8447 120.584 47.0868 121.631 46.9307C122.768 46.7524 123.927 47.2651 124.953 48.3574L127.851 51.5229C129.656 53.4847 130.548 56.9177 129.969 59.6819L129.59 61.5322C130.883 63.0927 132.153 64.6531 133.402 66.2582L134.917 68.1976C136.612 70.3599 137.392 73.7707 136.835 76.5126L136.411 78.5635C134.984 85.2958 133 91.5376 130.526 97.0884L129.835 98.6711C129.278 99.8972 128.408 100.655 127.338 100.833C127.182 100.856 127.026 100.856 126.87 100.856ZM105.135 39.0393C105.046 39.0393 104.979 39.0393 104.89 39.0616C104.355 39.173 103.887 39.6412 103.552 40.3768L102.839 42.0041C100.409 47.4658 98.4473 53.5961 97.0652 60.2169L96.6639 62.1118C96.1958 64.341 96.9537 67.3505 98.4027 68.9332L125.198 98.2699C125.822 98.9609 126.513 99.2953 127.071 99.2062C127.583 99.117 128.029 98.6934 128.341 97.9801L129.032 96.3973C131.462 90.9357 133.402 84.8053 134.806 78.1845L135.23 76.1336C135.698 73.8821 135.029 70.9618 133.647 69.1784L132.131 67.239C130.793 65.5448 129.456 63.8729 128.096 62.2455L127.851 61.9334L128.386 59.303C128.854 57.0514 128.096 54.1534 126.647 52.5707L123.749 49.4052C123.125 48.7364 122.434 48.402 121.899 48.4912C121.408 48.5804 120.963 48.9816 120.65 49.6727L119.424 52.3923L118.577 51.5007C116.415 49.2046 114.275 47.0422 112.202 45.0582L106.718 39.7749C106.205 39.3068 105.648 39.0393 105.135 39.0393Z" fill="white"/>
<path d="M125.869 81.484C128.232 74.0161 125.869 63.2935 120.608 57.4975C118.111 54.7555 115.391 53.6186 112.984 53.9753H112.939C112.761 53.9976 112.582 54.0422 112.404 54.0868L98.3599 56.9848L105.649 90.936L119.716 88.0157C119.872 87.9934 120.05 87.9488 120.206 87.9042L120.251 87.8819C122.681 87.28 124.732 85.0954 125.869 81.484Z" fill="#070707"/>
<path d="M105.025 91.9112L97.4006 56.3772L112.247 53.3232C112.403 53.2786 112.604 53.234 112.805 53.2117C115.636 52.7882 118.601 54.1257 121.209 56.9791C126.648 62.9535 129.1 74.055 126.648 81.7459L125.868 81.5007L126.648 81.7459C125.444 85.5133 123.26 87.9877 120.473 88.7234C120.228 88.7902 120.05 88.8348 119.849 88.8571L105.025 91.9112ZM99.3401 57.6256L106.273 89.9717L119.537 87.2298C119.715 87.2075 119.849 87.1629 120.005 87.1406C122.279 86.5387 124.062 84.4432 125.088 81.2554C127.384 74.055 125.088 63.6445 120.005 58.0714C117.776 55.6416 115.346 54.4601 113.117 54.8168C112.938 54.8391 112.782 54.8836 112.626 54.9059L99.3401 57.6256Z" fill="white"/>
<path d="M125.977 68.368C124.996 64.1771 123.124 60.2314 120.582 57.4225C118.086 54.6806 115.366 53.5437 112.958 53.9004L97.9111 57.1327L99.4047 61.7695L111.599 71.3329L125.665 68.4126C125.754 68.4126 125.866 68.3903 125.977 68.368Z" fill="#070707"/>
<path d="M111.376 72.2256L98.6916 62.261L96.8413 56.5319L112.78 53.1211C115.611 52.6976 118.576 54.0351 121.185 56.8885C123.726 59.6751 125.732 63.71 126.78 68.1907L126.958 68.9932L126.156 69.1715L125.977 68.369L126.111 69.1715C126 69.1938 125.888 69.2161 125.777 69.2384L111.376 72.2256ZM100.096 61.2801L111.799 70.4645L124.996 67.7448C123.971 63.8437 122.21 60.4107 119.981 57.9808C117.751 55.551 115.277 54.3695 113.092 54.7262L98.9814 57.7579L100.096 61.2801Z" fill="white"/>
<path d="M111.691 84.3993C109.328 91.8672 103.131 93.227 97.8479 87.431C92.5647 81.6573 90.2017 70.9124 92.587 63.4445C94.9499 55.9766 101.147 54.6168 106.43 60.4128C111.691 66.1865 114.054 76.9313 111.691 84.3993Z" fill="#070707"/>
<path d="M104.557 91.8473C102.082 91.8473 99.5187 90.5098 97.2226 87.9907C91.7833 82.0164 89.3311 70.9148 91.7832 63.224C93.0093 59.3228 95.3054 56.8261 98.2257 56.1796C101.124 55.5331 104.267 56.8483 107.009 59.8801C112.448 65.8544 114.9 76.956 112.448 84.6469C111.222 88.5481 108.926 91.0448 106.006 91.6913C105.538 91.7804 105.047 91.8473 104.557 91.8473ZM99.6747 57.6509C99.2957 57.6509 98.9391 57.6955 98.5601 57.7623C96.2417 58.2751 94.3914 60.3705 93.3437 63.6921C91.0476 70.8925 93.3437 81.303 98.4263 86.8761C100.767 89.4398 103.331 90.5767 105.671 90.0639C107.99 89.5512 109.84 87.4557 110.888 84.1342C113.184 76.9337 110.888 66.5232 105.805 60.9501C103.821 58.7878 101.681 57.6509 99.6747 57.6509Z" fill="white"/>
<path d="M107.094 79.3891C105.868 83.2902 102.636 83.9812 99.8714 80.9718C97.1072 77.9624 95.8811 72.3447 97.1294 68.4659C98.3555 64.5648 101.588 63.8737 104.352 66.8831C107.116 69.8926 108.342 75.4879 107.094 79.3891Z" fill="white"/>
<path d="M103.397 83.6733C101.992 83.6733 100.565 82.9377 99.2947 81.5333C96.3299 78.2786 95.0369 72.438 96.3744 68.2248C97.0655 66.0624 98.3585 64.658 100.03 64.279C101.702 63.9224 103.441 64.6357 104.979 66.3299C107.944 69.5846 109.237 75.4252 107.9 79.6384C107.208 81.8008 105.916 83.2052 104.244 83.5619C103.954 83.6287 103.686 83.6733 103.397 83.6733ZM100.855 65.8395C100.699 65.8395 100.521 65.8618 100.365 65.8841C99.2947 66.1293 98.4253 67.1325 97.9349 68.7152C96.7757 72.3488 97.9349 77.6098 100.499 80.4187C101.635 81.6447 102.839 82.202 103.909 81.9791C104.979 81.7339 105.849 80.7307 106.339 79.148C107.498 75.5144 106.339 70.2534 103.775 67.4445C102.795 66.3968 101.791 65.8395 100.855 65.8395Z" fill="white"/>
<path d="M105.87 69.1544C104.778 67.1704 103.53 65.9889 102.281 65.4539C101.301 66.457 100.565 68.1289 100.453 70.6034C100.32 73.2339 100.899 75.8867 102.148 78.2051C103.24 80.1891 104.265 81.2592 105.492 81.7942C106.472 80.791 107.431 79.2305 107.565 76.7338C107.698 74.1256 107.119 71.4505 105.87 69.1544Z" fill="#070707"/>
<path d="M105.692 82.761L105.179 82.5381C103.752 81.9139 102.593 80.7101 101.434 78.5924C100.096 76.1625 99.4943 73.3983 99.6281 70.5672C99.7619 68.0928 100.475 66.1311 101.701 64.8827L102.103 64.4814L102.615 64.7044C104.109 65.3508 105.491 66.7552 106.583 68.7615C107.899 71.1914 108.523 73.9556 108.389 76.7867C108.278 79.0605 107.497 80.9331 106.093 82.3821L105.692 82.761ZM102.482 66.4654C101.768 67.4463 101.345 68.873 101.255 70.6341C101.122 73.1531 101.679 75.6275 102.86 77.7899C103.685 79.2834 104.443 80.2197 105.313 80.7547C106.182 79.6847 106.672 78.3026 106.739 76.6753C106.873 74.1562 106.316 71.6818 105.134 69.5195C104.354 68.1151 103.462 67.0673 102.482 66.4654Z" fill="white"/>
<path d="M313.338 31.2576C315.124 31.2576 316.571 29.8103 316.571 28.025C316.571 26.2396 315.124 24.7924 313.338 24.7924C311.553 24.7924 310.105 26.2396 310.105 28.025C310.105 29.8103 311.553 31.2576 313.338 31.2576Z" fill="#070707"/>
<path d="M313.339 32.0838C311.109 32.0838 309.281 30.2556 309.281 28.0262C309.281 25.7968 311.109 23.9686 313.339 23.9686C315.568 23.9686 317.396 25.7968 317.396 28.0262C317.396 30.2556 315.568 32.0838 313.339 32.0838ZM313.339 25.6184C312.001 25.6184 310.931 26.7108 310.931 28.0485C310.931 29.3862 312.023 30.4786 313.339 30.4786C314.676 30.4786 315.769 29.3862 315.769 28.0485C315.746 26.6885 314.654 25.6184 313.339 25.6184Z" fill="white"/>
<path d="M88.7204 144.398C90.5058 144.398 91.9531 142.951 91.9531 141.166C91.9531 139.38 90.5058 137.933 88.7204 137.933C86.9351 137.933 85.4878 139.38 85.4878 141.166C85.4878 142.951 86.9351 144.398 88.7204 144.398Z" fill="#070707"/>
<path d="M88.7236 145.225C86.4941 145.225 84.666 143.396 84.666 141.167C84.666 138.938 86.4941 137.109 88.7236 137.109C90.953 137.109 92.7811 138.938 92.7811 141.167C92.7811 143.396 90.953 145.225 88.7236 145.225ZM88.7236 138.759C87.3859 138.759 86.3158 139.852 86.3158 141.189C86.3158 142.527 87.4082 143.597 88.7236 143.597C90.0612 143.597 91.1536 142.505 91.1536 141.189C91.1313 139.829 90.0612 138.759 88.7236 138.759Z" fill="white"/>
<path d="M325.961 113.339C327.746 113.339 329.193 111.892 329.193 110.107C329.193 108.321 327.746 106.874 325.961 106.874C324.175 106.874 322.728 108.321 322.728 110.107C322.728 111.892 324.175 113.339 325.961 113.339Z" fill="#070707"/>
<path d="M325.958 114.166C323.729 114.166 321.901 112.338 321.901 110.108C321.901 107.879 323.729 106.051 325.958 106.051C328.188 106.051 330.016 107.879 330.016 110.108C330.016 112.338 328.188 114.166 325.958 114.166ZM325.958 107.7C324.621 107.7 323.551 108.793 323.551 110.13C323.551 111.468 324.643 112.538 325.958 112.538C327.274 112.538 328.389 111.446 328.389 110.13C328.389 108.77 327.296 107.7 325.958 107.7Z" fill="white"/>
<path d="M162.349 87.9885H160.721V98.3108H162.349V87.9885Z" fill="white"/>
<path d="M166.94 92.3219H156.128V93.9494H166.94V92.3219Z" fill="white"/>
<path d="M135.289 225.675H133.661V235.997H135.289V225.675Z" fill="white"/>
<path d="M139.884 230.016H129.071V231.644H139.884V230.016Z" fill="white"/>
<path d="M370.976 17.9902H369.349V28.3125H370.976V17.9902Z" fill="white"/>
<path d="M375.575 22.3308H364.762V23.9584H375.575V22.3308Z" fill="white"/>
<path d="M6.22023 160.496H4.59277V170.818H6.22023V160.496Z" fill="white"/>
<path d="M10.8128 164.806H0V166.433H10.8128V164.806Z" fill="white"/>
<path d="M392.343 81.9557H390.716V92.2779H392.343V81.9557Z" fill="white"/>
<path d="M396.933 86.2925H386.121V87.9199H396.933V86.2925Z" fill="white"/>
<path d="M296.886 212.158H292.784C292.271 212.158 291.847 211.735 291.847 211.222V207.12C291.847 206.607 292.271 206.183 292.784 206.183H296.886C297.398 206.183 297.822 206.607 297.822 207.12V211.222C297.822 211.735 297.398 212.158 296.886 212.158Z" fill="#070707"/>
<path d="M296.886 212.953H292.784C291.825 212.953 291.022 212.172 291.022 211.192V207.089C291.022 206.131 291.803 205.328 292.784 205.328H296.886C297.845 205.328 298.647 206.108 298.647 207.089V211.192C298.647 212.172 297.845 212.953 296.886 212.953ZM292.784 206.978L292.672 211.214L296.908 211.325C296.975 211.325 297.02 211.281 297.02 211.214V207.112L292.784 206.978Z" fill="white"/>
</svg>
