<svg width="115" height="98" viewBox="0 0 115 98" fill="none" xmlns="http://www.w3.org/2000/svg">
    <path d="M112.13 52H110.5V58.62H112.13V52Z" fill="black"/>
    <path d="M114.62 54.5H108V56.13H114.62V54.5Z" fill="black"/>
    <path d="M3.99683 84.1861C5.75684 84.1861 7.18361 82.7593 7.18361 80.9993C7.18361 79.2393 5.75684 77.8125 3.99683 77.8125C2.23683 77.8125 0.810059 79.2393 0.810059 80.9993C0.810059 82.7593 2.23683 84.1861 3.99683 84.1861Z" fill="white"/>
    <path d="M3.99997 85C1.80218 85 0 83.1978 0 81C0 78.8022 1.80218 77 3.99997 77C6.19775 77 7.99993 78.8022 7.99993 81C7.99993 83.1978 6.19775 85 3.99997 85ZM3.99997 78.6264C2.6813 78.6264 1.62636 79.7033 1.62636 81.022C1.62636 82.3407 2.70327 83.3956 3.99997 83.3956C5.31864 83.3956 6.39555 82.3187 6.39555 81.022C6.37358 79.6813 5.31864 78.6264 3.99997 78.6264Z" fill="black"/>
    <mask id="mask0" mask-type="alpha" maskUnits="userSpaceOnUse" x="3" y="0" width="102" height="98">
        <path d="M3 0H105V98H3V0Z" fill="#C4C4C4"/>
    </mask>
    <g mask="url(#mask0)">
        <rect x="31" y="10" width="58" height="96" rx="5" fill="white" stroke="black" stroke-width="2"/>
        <rect x="25" y="10" width="58" height="96" rx="5" fill="white" stroke="black" stroke-width="2"/>
        <path d="M33 26C33 23.2386 35.2386 21 38 21H70C72.7614 21 75 23.2386 75 26V103C75 105.761 72.7614 108 70 108H38C35.2386 108 33 105.761 33 103V26Z" fill="#0A0A0A" stroke="black" stroke-width="2"/>
    </g>
</svg>
