<svg width="129" height="105" viewBox="0 0 129 105" fill="none" xmlns="http://www.w3.org/2000/svg">
    <mask id="mask0" mask-type="alpha" maskUnits="userSpaceOnUse" x="26" y="0" width="99" height="105">
        <rect x="27" y="1" width="97" height="103" fill="#C4C4C4" stroke="black" stroke-width="2"/>
    </mask>
    <g mask="url(#mask0)">
        <rect x="56" y="20" width="56" height="94" rx="5" fill="white" stroke="black" stroke-width="2"/>
        <rect x="44" y="15" width="58" height="100" rx="5" fill="white" stroke="black" stroke-width="2"/>
        <rect x="52" y="30" width="42" height="42" rx="5" fill="black" stroke="black" stroke-width="2"/>
        <rect x="81" y="20" width="14" height="3" rx="1.5" fill="black"/>
        <path d="M51 83C51 81.8954 51.8954 81 53 81H91C92.1046 81 93 81.8954 93 83C93 84.1046 92.1046 85 91 85H53C51.8954 85 51 84.1046 51 83Z" fill="black"/>
        <rect x="51" y="89" width="30" height="4" rx="2" fill="black"/>
        <rect x="51" y="20" width="10" height="3" rx="1.5" fill="black"/>
    </g>
    <path d="M12.8393 79.2967C12.4384 81.133 9.9401 82.1106 7.27605 81.4663C4.612 80.822 2.77139 78.8113 3.18352 76.9592C3.58442 75.1229 6.08273 74.1453 8.74678 74.7896C11.4108 75.4339 13.2402 77.4605 12.8393 79.2967Z" fill="white"/>
    <path d="M13.0553 80.6218C12.6399 81.2071 12.0081 81.6851 11.2046 81.9924C10.0213 82.457 8.58331 82.5244 7.14218 82.1839C4.08072 81.446 2.01262 79.0336 2.48637 76.8196C2.72078 75.699 3.55743 74.795 4.83418 74.3019C6.01752 73.8372 7.45551 73.7698 8.89664 74.1104C10.3378 74.4509 11.6078 75.17 12.4853 76.1328C13.4325 77.1694 13.8142 78.3497 13.5524 79.4746C13.4572 79.8837 13.3023 80.2738 13.0553 80.6218ZM4.17494 76.5022C4.04022 76.6921 3.93784 76.905 3.89518 77.137C3.58937 78.5644 5.21285 80.2288 7.43675 80.7722C8.58418 81.0455 9.71589 80.9973 10.6239 80.6456C11.4548 80.3341 11.9896 79.7866 12.1225 79.1183C12.2716 78.4615 12.0125 77.7269 11.4134 77.0591C10.7447 76.3174 9.72837 75.7563 8.58094 75.483C7.43351 75.2098 6.30182 75.258 5.39376 75.6096C4.85935 75.8472 4.43316 76.1384 4.17494 76.5022Z" fill="black"/>
    <path d="M15.4863 68.1071C15.4863 68.1071 17.4859 64.9837 24.5551 66.8767C31.6244 68.7696 34.1038 65.558 34.1038 65.558L35.3733 59.8034C35.4515 59.4519 35.0612 59.1727 34.7553 59.3613C33.1208 60.3492 29.2898 62.1146 25.2885 60.4269C20.7202 58.5014 17.1051 60.7568 16.9375 61.4758L13.0718 79.1303L15.4863 68.1071Z" fill="white"/>
    <path d="M34.7892 65.9024L34.6988 66.0294C34.5972 66.1724 31.857 69.5791 24.4026 67.5768C18.555 66.0051 16.5228 68.0016 16.1629 68.4389L13.791 79.2973L12.3694 78.9512L16.2334 61.3013C16.3671 60.6302 17.3005 60.076 17.8442 59.7941C18.6761 59.3828 21.7049 58.1233 25.5682 59.761C29.3227 61.3448 32.982 59.5778 34.3765 58.7545C34.7599 58.5256 35.2594 58.5474 35.6333 58.8149C36.0072 59.0824 36.1905 59.549 36.0997 59.9873L34.7892 65.9024ZM16.6316 66.3304C18.1011 65.6086 20.6544 65.087 24.7476 66.1943C30.5514 67.7586 32.9629 65.746 33.4507 65.2323L34.5219 60.344C32.6351 61.3424 28.9226 62.7357 25.0317 61.1023C20.9832 59.3801 17.8433 61.279 17.6423 61.7342L16.6316 66.3304Z" fill="black"/>
    <path d="M124.054 46.2891C125.84 46.2891 127.287 44.8418 127.287 43.0564C127.287 41.2711 125.84 39.8237 124.054 39.8237C122.269 39.8237 120.822 41.2711 120.822 43.0564C120.822 44.8418 122.269 46.2891 124.054 46.2891Z" fill="white"/>
    <path d="M124.058 47.1152C121.828 47.1152 120 45.287 120 43.0576C120 40.8281 121.828 39 124.058 39C126.287 39 128.115 40.8281 128.115 43.0576C128.115 45.287 126.287 47.1152 124.058 47.1152ZM124.058 40.6498C122.72 40.6498 121.65 41.7422 121.65 43.0799C121.65 44.4175 122.742 45.4877 124.058 45.4877C125.395 45.4877 126.488 44.3952 126.488 43.0799C126.465 41.7199 125.395 40.6498 124.058 40.6498Z" fill="black"/>
</svg>
