<svg width="390" height="372" viewBox="0 0 390 372" fill="none" xmlns="http://www.w3.org/2000/svg">
<rect x="1" y="1" width="388" height="370" stroke="black" stroke-width="2"/>
<rect x="75" y="99" width="254" height="178" rx="5" fill="white" stroke="black" stroke-width="2"/>
<rect x="65" y="99" width="254" height="178" rx="5" fill="white" stroke="black" stroke-width="2"/>
<circle cx="138" cy="187" r="14" fill="black" stroke="black" stroke-width="2"/>
<path d="M109 227.176C109 216.033 118.033 207 129.176 207H146.824C157.967 207 167 216.033 167 227.176C167 228.184 166.184 229 165.176 229H110.824C109.816 229 109 228.184 109 227.176Z" fill="black" stroke="black" stroke-width="2"/>
<mask id="path-6-inside-1" fill="white">
<rect x="200" y="166" width="90" height="16" rx="1"/>
</mask>
<rect x="200" y="166" width="90" height="16" rx="1" stroke="black" stroke-width="4" mask="url(#path-6-inside-1)"/>
<mask id="path-7-inside-2" fill="white">
<rect x="254" y="116" width="36" height="12" rx="1"/>
</mask>
<rect x="254" y="116" width="36" height="12" rx="1" stroke="black" stroke-width="4" mask="url(#path-7-inside-2)"/>
<mask id="path-8-inside-3" fill="white">
<rect x="230" y="116" width="16" height="12" rx="1"/>
</mask>
<rect x="230" y="116" width="16" height="12" rx="1" stroke="black" stroke-width="4" mask="url(#path-8-inside-3)"/>
<path d="M95 157L136 157H156V174.5C156 175.328 156.672 176 157.5 176H181V200V243H95L95 157Z" stroke="black" stroke-width="2"/>
<path d="M192 156.8V175C192 175.552 191.552 176 191 176H157C156.448 176 156 175.552 156 175V141C156 140.448 156.448 140 157 140H175.2H182.4" stroke="black" stroke-width="2"/>
<path d="M180.576 144H160V172H188V159.167" stroke="black" stroke-width="2"/>
<path d="M174 159L166 152.22V157.268L174 164L191 146.61V141L174 159Z" fill="black"/>
<mask id="path-13-inside-4" fill="white">
<rect x="206" y="172" width="32" height="4" rx="1"/>
</mask>
<rect x="206" y="172" width="32" height="4" rx="1" fill="black" stroke="black" stroke-width="4" mask="url(#path-13-inside-4)"/>
<mask id="path-14-inside-5" fill="white">
<rect x="206" y="200" width="52" height="4" rx="1"/>
</mask>
<rect x="206" y="200" width="52" height="4" rx="1" fill="black" stroke="black" stroke-width="4" mask="url(#path-14-inside-5)"/>
<mask id="path-15-inside-6" fill="white">
<rect x="206" y="228" width="36" height="4" rx="1"/>
</mask>
<rect x="206" y="228" width="36" height="4" rx="1" fill="black" stroke="black" stroke-width="4" mask="url(#path-15-inside-6)"/>
<mask id="path-16-inside-7" fill="white">
<rect x="242" y="172" width="20" height="4" rx="1"/>
</mask>
<rect x="242" y="172" width="20" height="4" rx="1" fill="black" stroke="black" stroke-width="4" mask="url(#path-16-inside-7)"/>
<mask id="path-17-inside-8" fill="white">
<rect x="200" y="194" width="90" height="16" rx="1"/>
</mask>
<rect x="200" y="194" width="90" height="16" rx="1" stroke="black" stroke-width="4" mask="url(#path-17-inside-8)"/>
<mask id="path-18-inside-9" fill="white">
<rect x="200" y="222" width="90" height="16" rx="1"/>
</mask>
<rect x="200" y="222" width="90" height="16" rx="1" stroke="black" stroke-width="4" mask="url(#path-18-inside-9)"/>
<rect x="349" y="62" width="2" height="16" fill="black"/>
<rect x="358" y="69" width="2" height="16" transform="rotate(90 358 69)" fill="black"/>
<rect x="45" y="230" width="2" height="12" fill="black"/>
<rect x="52" y="235" width="2" height="12" transform="rotate(90 52 235)" fill="black"/>
<rect x="326" y="51" width="8" height="8" rx="1" fill="white" stroke="black" stroke-width="2"/>
<rect x="32" y="154" width="6" height="6" rx="3" fill="white" stroke="black" stroke-width="2"/>
<rect x="23" y="253" width="10" height="10" rx="5" fill="white" stroke="black" stroke-width="2"/>
<rect x="291" y="311" width="10" height="10" rx="5" fill="white" stroke="black" stroke-width="2"/>
</svg>
