<svg width="41" height="40" viewBox="0 0 41 40" fill="none" xmlns="http://www.w3.org/2000/svg">
    <path fill-rule="evenodd" clip-rule="evenodd" d="M34.0182 39.9999L40.0078 33.9949L26.0482 19.9999L40.0078 6.00499L34.0182 0L20.0078 14.046L5.99742 0.000108033L0.0078125 6.0051L13.9674 20.0001L0.0078125 33.995L5.99742 40L20.0079 25.954L34.0182 39.9999ZM25.1567 19.2079L38.3262 6.00497L38.3261 6.00487L25.1566 19.2078L25.1567 19.2079ZM1.68948 33.9951L14.8591 20.7922L14.8589 20.7921L1.68938 33.995L1.68948 33.9951ZM1.68948 6.00519L5.99744 1.68616L17.0111 12.7277L5.99743 1.68596L1.68937 6.00508L1.68948 6.00519ZM38.3261 33.9948L34.0182 38.3138L22.9334 27.201L34.0182 38.314L38.3262 33.9949L38.3261 33.9948Z" fill="#E43F29"/>
</svg>
