<svg width="1440" height="820" viewBox="0 0 1440 820" fill="none" xmlns="http://www.w3.org/2000/svg">
<rect opacity="0.8" width="1440" height="1000" fill="black" fill-opacity="0.9"/>
<path opacity="0.3" d="M393 524H356.556C354.596 524 354 524 353 524V552C353.797 552 354.596 552 356.556 552H389.444C391.404 552 392.422 552 393 552V527.473C393 525.559 393 524.977 393 524ZM354.778 525.737C355.125 525.737 355.573 525.737 356.556 525.737H391.222C391.222 525.953 391.222 526.514 391.222 527.473V536.355L384.649 529.592C384.64 529.583 384.636 529.579 384.627 529.574C384.618 529.566 384.613 529.561 384.609 529.553C384.596 529.54 384.578 529.531 384.56 529.518C384.538 529.5 384.511 529.479 384.489 529.461C384.467 529.444 384.44 529.431 384.413 529.418C384.387 529.405 384.36 529.392 384.333 529.379C384.307 529.37 384.28 529.362 384.253 529.353C384.227 529.344 384.2 529.336 384.173 529.331C384.147 529.327 384.116 529.322 384.089 529.322C384.062 529.318 384.036 529.318 384.004 529.318C383.973 529.318 383.947 529.322 383.92 529.322C383.893 529.327 383.867 529.327 383.836 529.331C383.809 529.336 383.778 529.344 383.751 529.353C383.724 529.362 383.698 529.37 383.671 529.379C383.644 529.392 383.618 529.405 383.591 529.418C383.564 529.431 383.542 529.444 383.516 529.457C383.489 529.474 383.467 529.492 383.444 529.509C383.427 529.522 383.409 529.531 383.396 529.544C383.387 529.553 383.382 529.557 383.378 529.566C383.373 529.57 383.364 529.579 383.356 529.583L372.422 541.1L366.396 538.152L366.387 538.143C366.369 538.13 366.347 538.122 366.329 538.113C366.298 538.096 366.267 538.078 366.236 538.065C366.204 538.052 366.173 538.044 366.142 538.035C366.12 538.026 366.093 538.018 366.071 538.013C366.036 538.005 366 538.005 365.969 538C365.947 538 365.924 537.996 365.902 537.996C365.871 537.996 365.836 538 365.804 538.005C365.778 538.009 365.756 538.009 365.733 538.013C365.702 538.018 365.676 538.026 365.649 538.035C365.622 538.044 365.596 538.048 365.569 538.057C365.542 538.065 365.516 538.083 365.489 538.096C365.462 538.109 365.44 538.117 365.413 538.135C365.387 538.152 365.36 538.174 365.333 538.196C365.316 538.209 365.293 538.222 365.28 538.239L354.849 548.992C354.809 548.844 354.778 548.688 354.778 548.527V525.737ZM389.444 550.264H356.556C356.404 550.264 356.262 550.242 356.124 550.207L365.991 539.98L372.062 542.958C372.067 542.958 372.067 542.962 372.071 542.962C372.138 543.005 372.209 543.036 372.28 543.057C372.298 543.062 372.311 543.066 372.329 543.071C372.404 543.088 372.48 543.101 372.556 543.101C372.622 543.101 372.689 543.092 372.751 543.079C372.769 543.075 372.787 543.066 372.809 543.062C372.853 543.049 372.898 543.031 372.938 543.014C372.96 543.005 372.982 542.992 373 542.979C373.036 542.958 373.071 542.936 373.107 542.91C373.129 542.893 373.147 542.875 373.169 542.858C373.178 542.849 373.191 542.84 373.204 542.827L384 531.458L391.222 538.886V550.264C391 550.264 390.427 550.264 389.444 550.264ZM365.889 534.419C367.604 534.419 369 533.056 369 531.38C369 529.705 367.604 528.341 365.889 528.341C364.173 528.341 362.778 529.705 362.778 531.38C362.778 533.056 364.173 534.419 365.889 534.419ZM365.889 530.078C366.622 530.078 367.222 530.664 367.222 531.38C367.222 532.096 366.622 532.682 365.889 532.682C365.156 532.682 364.556 532.096 364.556 531.38C364.556 530.664 365.156 530.078 365.889 530.078Z" fill="#1F191B"/>
</svg>
