<?xml version="1.0" standalone="no"?><!DOCTYPE svg PUBLIC "-//W3C//DTD SVG 1.1//EN" "http://www.w3.org/Graphics/SVG/1.1/DTD/svg11.dtd"><svg t="1618316468483" class="icon" viewBox="0 0 1024 1024" version="1.1" xmlns="http://www.w3.org/2000/svg" p-id="2005" xmlns:xlink="http://www.w3.org/1999/xlink" width="200" height="200"><defs><style type="text/css"></style></defs><path d="M938.666667 458.666667l-29.653334-313.045334a34.048 34.048 0 0 0-30.677333-30.634666L565.333333 85.333333h-0.426666a10.24 10.24 0 0 0-7.594667 2.901334L88.277333 557.226667a9.984 9.984 0 0 0 0 14.122666l364.373334 364.373334a9.898667 9.898667 0 0 0 7.082666 2.901333 9.941333 9.941333 0 0 0 7.082667-2.901333l469.034667-469.034667a10.538667 10.538667 0 0 0 2.773333-7.978667z m-479.061334 376.490666l-270.805333-270.805333 400.298667-400.298667 247.381333 23.466667 23.466667 247.338667-400.341334 400.298666z" p-id="2006" fill="#020202"></path><path d="M680.234667 255.573333a88.277333 88.277333 0 0 0-88.106667 88.149334c0 48.554667 39.552 88.149333 88.106667 88.149333a88.277333 88.277333 0 0 0 88.149333-88.149333 88.277333 88.277333 0 0 0-88.149333-88.149334z m0 120.192a32 32 0 1 1-0.042667-64 32 32 0 0 1 0.042667 64z" p-id="2007" fill="#020202"></path></svg>