<svg width="16" height="17" viewBox="0 0 16 17" fill="none" xmlns="http://www.w3.org/2000/svg">
    <g opacity="0.3">
        <circle cx="8" cy="8.5" r="7.5" stroke="black"/>
        <path d="M7.16202 11.5H8.77002V13H7.16202V11.5ZM5.25402 7.156C5.25402 6.716 5.31802 6.316 5.44602 5.956C5.58202 5.596 5.77402 5.288 6.02202 5.032C6.27802 4.776 6.58202 4.58 6.93402 4.444C7.29402 4.3 7.69402 4.228 8.13402 4.228C8.50202 4.228 8.84202 4.284 9.15402 4.396C9.47402 4.5 9.75002 4.656 9.98202 4.864C10.222 5.064 10.41 5.316 10.546 5.62C10.682 5.924 10.75 6.268 10.75 6.652C10.75 6.932 10.718 7.176 10.654 7.384C10.598 7.584 10.518 7.76 10.414 7.912C10.318 8.056 10.206 8.188 10.078 8.308C9.95002 8.42 9.82202 8.532 9.69402 8.644C9.54202 8.772 9.40202 8.896 9.27402 9.016C9.14602 9.136 9.03402 9.272 8.93802 9.424C8.84202 9.568 8.76602 9.74 8.71002 9.94C8.66202 10.14 8.63802 10.384 8.63802 10.672H7.34202C7.34202 10.32 7.35802 10.024 7.39002 9.784C7.43002 9.536 7.49002 9.32 7.57002 9.136C7.65002 8.952 7.74602 8.792 7.85802 8.656C7.97802 8.512 8.11802 8.372 8.27802 8.236C8.40602 8.124 8.52602 8.02 8.63802 7.924C8.75802 7.828 8.86202 7.724 8.95002 7.612C9.04602 7.492 9.11802 7.36 9.16602 7.216C9.22202 7.072 9.25002 6.9 9.25002 6.7C9.25002 6.46 9.20602 6.256 9.11802 6.088C9.03802 5.912 8.93802 5.772 8.81802 5.668C8.69802 5.564 8.57002 5.488 8.43402 5.44C8.29802 5.392 8.17802 5.368 8.07402 5.368C7.57802 5.368 7.21002 5.532 6.97002 5.86C6.73802 6.18 6.62202 6.612 6.62202 7.156H5.25402Z" fill="black"/>
    </g>
</svg>
