<svg width="262" height="158" viewBox="0 0 262 158" fill="none" xmlns="http://www.w3.org/2000/svg">
<rect width="262" height="158" fill="#E6E6E6"/>
<path d="M54.1371 40.78C54.0304 41.06 53.9371 41.3467 53.8571 41.64C53.7771 41.92 53.7238 42.2 53.6971 42.48C52.6171 43.0267 51.2571 43.3 49.6171 43.3C48.4571 43.3 47.4171 43.14 46.4971 42.82C45.5904 42.4867 44.8171 42.0267 44.1771 41.44C43.5504 40.84 43.0704 40.1333 42.7371 39.32C42.4038 38.5067 42.2371 37.6267 42.2371 36.68C42.2371 35.2933 42.4504 34.12 42.8771 33.16C43.3171 32.1867 43.8971 31.4 44.6171 30.8C45.3504 30.1867 46.1971 29.74 47.1571 29.46C48.1171 29.18 49.1238 29.04 50.1771 29.04C50.5238 29.04 50.8904 29.0667 51.2771 29.12C51.6638 29.1733 52.0371 29.2467 52.3971 29.34C52.7571 29.42 53.0971 29.52 53.4171 29.64C53.7504 29.76 54.0304 29.8867 54.2571 30.02C54.1238 30.3533 54.0171 30.6933 53.9371 31.04C53.8704 31.3733 53.8238 31.7133 53.7971 32.06H53.5171C53.0104 31.42 52.4904 30.9667 51.9571 30.7C51.4238 30.42 50.7971 30.28 50.0771 30.28C49.5438 30.28 49.0038 30.4 48.4571 30.64C47.9238 30.88 47.4371 31.2467 46.9971 31.74C46.5571 32.2333 46.1971 32.8667 45.9171 33.64C45.6504 34.4 45.5171 35.3133 45.5171 36.38C45.5171 37.4067 45.6571 38.2867 45.9371 39.02C46.2171 39.74 46.5771 40.3333 47.0171 40.8C47.4704 41.2533 47.9771 41.5867 48.5371 41.8C49.1104 42.0133 49.6838 42.12 50.2571 42.12C50.5771 42.12 50.9038 42.0867 51.2371 42.02C51.5704 41.94 51.8971 41.84 52.2171 41.72C52.5371 41.5867 52.8371 41.4267 53.1171 41.24C53.4104 41.0533 53.6638 40.8467 53.8771 40.62L54.1371 40.78ZM58.817 35.9C59.1636 34.98 59.5836 34.3067 60.077 33.88C60.5703 33.44 61.157 33.22 61.837 33.22C61.9036 33.22 61.957 33.2267 61.997 33.24C62.0503 33.24 62.1036 33.24 62.157 33.24C62.117 33.44 62.0836 33.6533 62.057 33.88C62.0436 34.1067 62.037 34.3733 62.037 34.68V35.32C62.037 35.4267 62.037 35.54 62.037 35.66C62.037 35.78 62.0436 35.8933 62.057 36L61.877 36.16C61.7436 36.08 61.5903 36.0133 61.417 35.96C61.257 35.9067 61.0703 35.88 60.857 35.88C60.257 35.88 59.7836 36.08 59.437 36.48C59.0903 36.8667 58.917 37.3267 58.917 37.86V38.66C58.917 39.4733 58.9236 40.24 58.937 40.96C58.9636 41.68 59.0103 42.3733 59.077 43.04C58.9036 43.0133 58.6836 43 58.417 43C58.1636 43 57.8836 43 57.577 43C57.2703 43 56.9903 43 56.737 43C56.4836 43 56.2636 43.0133 56.077 43.04C56.1436 42.3733 56.1836 41.68 56.197 40.96C56.2236 40.24 56.237 39.4733 56.237 38.66V37.86C56.237 37.0467 56.2236 36.2867 56.197 35.58C56.1836 34.86 56.1436 34.14 56.077 33.42C56.3036 33.4467 56.5303 33.4733 56.757 33.5C56.997 33.5133 57.2303 33.52 57.457 33.52C57.6836 33.52 57.9103 33.5133 58.137 33.5C58.377 33.4733 58.6103 33.4467 58.837 33.42L58.777 35.86L58.817 35.9ZM66.2704 38.26C66.2704 38.7933 66.3237 39.2933 66.4304 39.76C66.5371 40.2267 66.6971 40.6333 66.9104 40.98C67.1371 41.3133 67.4171 41.58 67.7504 41.78C68.0971 41.9667 68.4971 42.06 68.9504 42.06C69.8704 42.06 70.6904 41.76 71.4104 41.16L71.6504 41.34L71.2104 42.46C70.8771 42.7133 70.4771 42.9133 70.0104 43.06C69.5437 43.22 68.9304 43.3 68.1704 43.3C67.5171 43.3 66.8971 43.2067 66.3104 43.02C65.7237 42.8467 65.2037 42.5533 64.7504 42.14C64.3104 41.7267 63.9571 41.2067 63.6904 40.58C63.4371 39.94 63.3104 39.18 63.3104 38.3C63.3104 37.4333 63.4237 36.68 63.6504 36.04C63.8904 35.4 64.2171 34.8667 64.6304 34.44C65.0437 34.0133 65.5304 33.6933 66.0904 33.48C66.6637 33.2667 67.2837 33.16 67.9504 33.16C69.2704 33.16 70.2771 33.5467 70.9704 34.32C71.6771 35.0933 72.0304 36.1867 72.0304 37.6V38.02C72.0304 38.14 72.0237 38.22 72.0104 38.26H66.2704ZM69.3504 37.36C69.3237 36.36 69.1971 35.56 68.9704 34.96C68.7571 34.36 68.3904 34.06 67.8704 34.06C67.5771 34.06 67.3304 34.16 67.1304 34.36C66.9304 34.56 66.7704 34.82 66.6504 35.14C66.5304 35.4467 66.4371 35.8 66.3704 36.2C66.3171 36.5867 66.2837 36.9733 66.2704 37.36H69.3504ZM78.5504 40C78.5504 39.4267 78.5504 38.9933 78.5504 38.7C78.5637 38.3933 78.5704 38.1267 78.5704 37.9C78.2904 38.06 77.9904 38.1933 77.6704 38.3C77.3637 38.3933 77.0771 38.52 76.8104 38.68C76.5571 38.8267 76.3437 39.0333 76.1704 39.3C76.0104 39.5667 75.9304 39.9533 75.9304 40.46C75.9304 40.9533 76.0304 41.3333 76.2304 41.6C76.4437 41.8533 76.7237 41.98 77.0704 41.98C77.5104 41.98 77.8637 41.8133 78.1304 41.48C78.4104 41.1467 78.5504 40.6533 78.5504 40ZM73.8104 34.56C74.3704 34.1067 74.9704 33.76 75.6104 33.52C76.2637 33.28 76.9104 33.16 77.5504 33.16C78.0837 33.16 78.5704 33.22 79.0104 33.34C79.4637 33.46 79.8504 33.6533 80.1704 33.92C80.5037 34.1733 80.7571 34.5067 80.9304 34.92C81.1171 35.3333 81.2104 35.8333 81.2104 36.42C81.2104 37.2733 81.1971 38.0667 81.1704 38.8C81.1571 39.52 81.1504 40.24 81.1504 40.96C81.1504 41.28 81.1704 41.5333 81.2104 41.72C81.2637 41.8933 81.3371 42.0267 81.4304 42.12C81.5237 42.2133 81.6437 42.2733 81.7904 42.3C81.9504 42.3267 82.1304 42.34 82.3304 42.34V42.82C81.9437 42.98 81.6171 43.1 81.3504 43.18C81.0837 43.26 80.7971 43.3 80.4904 43.3C79.9971 43.3 79.5971 43.18 79.2904 42.94C78.9837 42.7 78.7504 42.3533 78.5904 41.9C78.2837 42.3267 77.9237 42.6667 77.5104 42.92C77.1104 43.1733 76.6037 43.3 75.9904 43.3C75.4837 43.3 75.0504 43.2333 74.6904 43.1C74.3304 42.9667 74.0304 42.78 73.7904 42.54C73.5637 42.2867 73.3971 42.0067 73.2904 41.7C73.1837 41.38 73.1304 41.06 73.1304 40.74C73.1304 40.3 73.1971 39.92 73.3304 39.6C73.4771 39.28 73.6771 39.0067 73.9304 38.78C74.1971 38.5533 74.5104 38.3667 74.8704 38.22C75.2304 38.06 75.6371 37.9267 76.0904 37.82C76.6504 37.6867 77.0904 37.5733 77.4104 37.48C77.7437 37.3733 77.9904 37.2733 78.1504 37.18C78.3104 37.0733 78.4104 36.96 78.4504 36.84C78.5037 36.72 78.5304 36.5733 78.5304 36.4C78.5304 35.92 78.3571 35.5133 78.0104 35.18C77.6771 34.8333 77.2104 34.66 76.6104 34.66C76.3837 34.66 76.1504 34.6933 75.9104 34.76C75.6704 34.8133 75.4371 34.8933 75.2104 35C74.9971 35.1067 74.7971 35.2267 74.6104 35.36C74.4371 35.48 74.3037 35.6133 74.2104 35.76H74.0704L73.8104 34.56ZM88.9704 33.52C88.9304 33.72 88.9104 33.9 88.9104 34.06C88.9104 34.2333 88.9304 34.4 88.9704 34.56L87.2104 34.52C87.1837 34.8267 87.1571 35.18 87.1304 35.58C87.1171 35.98 87.1037 36.3867 87.0904 36.8C87.0904 37.2133 87.0837 37.6133 87.0704 38C87.0704 38.3867 87.0704 38.7133 87.0704 38.98C87.0704 39.6733 87.0837 40.2333 87.1104 40.66C87.1504 41.0867 87.2104 41.4133 87.2904 41.64C87.3704 41.8667 87.4837 42.02 87.6304 42.1C87.7771 42.18 87.9637 42.22 88.1904 42.22C88.4437 42.22 88.6304 42.2067 88.7504 42.18C88.8704 42.14 88.9904 42.0867 89.1104 42.02V42.84C88.8437 42.96 88.5104 43.0667 88.1104 43.16C87.7104 43.2533 87.3171 43.3 86.9304 43.3C85.2371 43.3 84.3904 42.2867 84.3904 40.26C84.3904 39.8733 84.3971 39.44 84.4104 38.96C84.4237 38.4667 84.4371 37.9667 84.4504 37.46C84.4771 36.94 84.4971 36.4333 84.5104 35.94C84.5237 35.4333 84.5304 34.9667 84.5304 34.54L83.1304 34.56C83.1704 34.4 83.1904 34.2333 83.1904 34.06C83.1904 33.9 83.1704 33.72 83.1304 33.52L84.5304 33.58C84.5304 33.1667 84.5237 32.78 84.5104 32.42C84.4971 32.06 84.4771 31.6267 84.4504 31.12C84.9171 30.9333 85.3771 30.74 85.8304 30.54C86.2837 30.3267 86.7371 30.1067 87.1904 29.88L87.3904 30.02C87.3637 30.2333 87.3371 30.4867 87.3104 30.78C87.2971 31.06 87.2771 31.36 87.2504 31.68C87.2371 31.9867 87.2237 32.3067 87.2104 32.64C87.2104 32.96 87.2104 33.2667 87.2104 33.56L88.9704 33.52ZM92.9305 38.26C92.9305 38.7933 92.9839 39.2933 93.0905 39.76C93.1972 40.2267 93.3572 40.6333 93.5705 40.98C93.7972 41.3133 94.0772 41.58 94.4105 41.78C94.7572 41.9667 95.1572 42.06 95.6105 42.06C96.5305 42.06 97.3505 41.76 98.0705 41.16L98.3105 41.34L97.8705 42.46C97.5372 42.7133 97.1372 42.9133 96.6705 43.06C96.2039 43.22 95.5905 43.3 94.8305 43.3C94.1772 43.3 93.5572 43.2067 92.9705 43.02C92.3839 42.8467 91.8639 42.5533 91.4105 42.14C90.9705 41.7267 90.6172 41.2067 90.3505 40.58C90.0972 39.94 89.9705 39.18 89.9705 38.3C89.9705 37.4333 90.0839 36.68 90.3105 36.04C90.5505 35.4 90.8772 34.8667 91.2905 34.44C91.7039 34.0133 92.1905 33.6933 92.7505 33.48C93.3239 33.2667 93.9439 33.16 94.6105 33.16C95.9305 33.16 96.9372 33.5467 97.6305 34.32C98.3372 35.0933 98.6905 36.1867 98.6905 37.6V38.02C98.6905 38.14 98.6839 38.22 98.6705 38.26H92.9305ZM96.0105 37.36C95.9839 36.36 95.8572 35.56 95.6305 34.96C95.4172 34.36 95.0505 34.06 94.5305 34.06C94.2372 34.06 93.9905 34.16 93.7905 34.36C93.5905 34.56 93.4305 34.82 93.3105 35.14C93.1905 35.4467 93.0972 35.8 93.0305 36.2C92.9772 36.5867 92.9439 36.9733 92.9305 37.36H96.0105ZM106.837 33.28C106.837 32.36 106.824 31.5867 106.797 30.96C106.77 30.3333 106.75 29.78 106.737 29.3C107.11 29.3667 107.41 29.4 107.637 29.4C107.864 29.4 108.164 29.3667 108.537 29.3C109.99 30.9133 111.424 32.5 112.837 34.06C114.264 35.62 115.724 37.2067 117.217 38.82V37.08V35.14C117.217 34.4867 117.21 33.8467 117.197 33.22C117.197 32.58 117.19 31.9933 117.177 31.46C117.177 30.9267 117.164 30.4667 117.137 30.08C117.124 29.6933 117.104 29.4333 117.077 29.3C117.45 29.3667 117.75 29.4 117.977 29.4C118.204 29.4 118.504 29.3667 118.877 29.3C118.81 30.5133 118.757 31.6133 118.717 32.6C118.677 33.5733 118.644 34.4933 118.617 35.36C118.59 36.2267 118.57 37.0867 118.557 37.94C118.557 38.78 118.557 39.68 118.557 40.64V43.04C118.29 43.0133 118.017 43 117.737 43C117.444 43 117.184 43.0133 116.957 43.04C114.21 39.84 111.297 36.62 108.217 33.38C108.204 33.7667 108.19 34.1533 108.177 34.54C108.177 34.9267 108.177 35.32 108.177 35.72V38.04C108.177 38.84 108.177 39.52 108.177 40.08C108.19 40.64 108.204 41.1133 108.217 41.5C108.23 41.8867 108.244 42.2067 108.257 42.46C108.27 42.7 108.284 42.8933 108.297 43.04C108.137 43.0133 107.977 43 107.817 43C107.657 43 107.504 43 107.357 43C107.05 43 106.744 43.0133 106.437 43.04C106.464 42.9333 106.497 42.5533 106.537 41.9C106.577 41.2467 106.617 40.4533 106.657 39.52C106.71 38.5733 106.75 37.5533 106.777 36.46C106.817 35.3533 106.837 34.2933 106.837 33.28ZM124.063 38.26C124.063 38.7933 124.117 39.2933 124.223 39.76C124.33 40.2267 124.49 40.6333 124.703 40.98C124.93 41.3133 125.21 41.58 125.543 41.78C125.89 41.9667 126.29 42.06 126.743 42.06C127.663 42.06 128.483 41.76 129.203 41.16L129.443 41.34L129.003 42.46C128.67 42.7133 128.27 42.9133 127.803 43.06C127.337 43.22 126.723 43.3 125.963 43.3C125.31 43.3 124.69 43.2067 124.103 43.02C123.517 42.8467 122.997 42.5533 122.543 42.14C122.103 41.7267 121.75 41.2067 121.483 40.58C121.23 39.94 121.103 39.18 121.103 38.3C121.103 37.4333 121.217 36.68 121.443 36.04C121.683 35.4 122.01 34.8667 122.423 34.44C122.837 34.0133 123.323 33.6933 123.883 33.48C124.457 33.2667 125.077 33.16 125.743 33.16C127.063 33.16 128.07 33.5467 128.763 34.32C129.47 35.0933 129.823 36.1867 129.823 37.6V38.02C129.823 38.14 129.817 38.22 129.803 38.26H124.063ZM127.143 37.36C127.117 36.36 126.99 35.56 126.763 34.96C126.55 34.36 126.183 34.06 125.663 34.06C125.37 34.06 125.123 34.16 124.923 34.36C124.723 34.56 124.563 34.82 124.443 35.14C124.323 35.4467 124.23 35.8 124.163 36.2C124.11 36.5867 124.077 36.9733 124.063 37.36H127.143ZM142.083 40.34C142.817 38.02 143.49 35.7133 144.103 33.42C144.397 33.4867 144.657 33.52 144.883 33.52C145.017 33.52 145.143 33.5133 145.263 33.5C145.397 33.4733 145.55 33.4467 145.723 33.42C145.63 33.5933 145.503 33.88 145.343 34.28C145.183 34.68 145.003 35.1533 144.803 35.7C144.617 36.2467 144.41 36.8467 144.183 37.5C143.97 38.14 143.757 38.7867 143.543 39.44C143.33 40.0933 143.117 40.7333 142.903 41.36C142.703 41.9867 142.523 42.5467 142.363 43.04C142.177 43.0133 141.99 43 141.803 43C141.63 43 141.45 43 141.263 43C141.077 43 140.89 43 140.703 43C140.517 43 140.33 43.0133 140.143 43.04C139.983 42.5333 139.817 41.9933 139.643 41.42C139.47 40.8333 139.297 40.26 139.123 39.7C138.95 39.1267 138.783 38.5733 138.623 38.04C138.463 37.4933 138.317 36.9867 138.183 36.52H138.143C137.797 37.64 137.45 38.74 137.103 39.82C136.77 40.9 136.45 41.9733 136.143 43.04C135.957 43.0133 135.763 43 135.563 43C135.377 43 135.19 43 135.003 43C134.817 43 134.623 43 134.423 43C134.223 43 134.023 43.0133 133.823 43.04C133.677 42.5467 133.503 41.98 133.303 41.34C133.117 40.6867 132.917 40.0267 132.703 39.36C132.49 38.6933 132.277 38.0333 132.063 37.38C131.85 36.7267 131.65 36.1333 131.463 35.6C131.29 35.0533 131.137 34.5867 131.003 34.2C130.87 33.8133 130.777 33.5533 130.723 33.42C131.017 33.4467 131.283 33.4733 131.523 33.5C131.777 33.5133 132.03 33.52 132.283 33.52C132.523 33.52 132.763 33.5133 133.003 33.5C133.257 33.4733 133.503 33.4467 133.743 33.42C134.063 34.58 134.397 35.7733 134.743 37C135.09 38.2133 135.417 39.3267 135.723 40.34H135.763C136.15 39.1667 136.503 38.0133 136.823 36.88C137.143 35.7467 137.463 34.5933 137.783 33.42C137.97 33.4467 138.157 33.4733 138.343 33.5C138.53 33.5133 138.717 33.52 138.903 33.52C139.09 33.52 139.277 33.5133 139.463 33.5C139.65 33.4733 139.837 33.4467 140.023 33.42C140.343 34.5933 140.67 35.7467 141.003 36.88C141.337 38.0133 141.683 39.1667 142.043 40.34H142.083ZM159.476 33.06C159.476 32.4733 159.416 32.0067 159.296 31.66C159.176 31.3133 158.99 31.0533 158.736 30.88C158.496 30.6933 158.176 30.5733 157.776 30.52C157.39 30.4667 156.923 30.44 156.376 30.44C156.336 32.2533 156.316 34.0667 156.316 35.88C156.396 35.8933 156.47 35.9067 156.536 35.92C156.616 35.92 156.69 35.92 156.756 35.92C157.636 35.92 158.31 35.6867 158.776 35.22C159.243 34.74 159.476 34.02 159.476 33.06ZM156.316 36.74V37.56C156.316 38.6667 156.33 39.6533 156.356 40.52C156.383 41.3733 156.423 42.2133 156.476 43.04C156.25 43.0133 156.003 43 155.736 43C155.47 43 155.17 43 154.836 43C154.503 43 154.203 43 153.936 43C153.67 43 153.423 43.0133 153.196 43.04C153.25 42.2133 153.29 41.3733 153.316 40.52C153.343 39.6533 153.356 38.6667 153.356 37.56V34.84C153.356 33.7333 153.343 32.7533 153.316 31.9C153.29 31.0333 153.25 30.1667 153.196 29.3C153.423 29.3267 153.67 29.3533 153.936 29.38C154.203 29.3933 154.503 29.4 154.836 29.4C155.196 29.4 155.603 29.3867 156.056 29.36C156.523 29.32 157.096 29.3 157.776 29.3C158.283 29.3 158.716 29.3133 159.076 29.34C159.436 29.3667 159.743 29.4067 159.996 29.46C160.263 29.5133 160.49 29.5867 160.676 29.68C160.876 29.76 161.063 29.86 161.236 29.98C161.636 30.2733 161.95 30.64 162.176 31.08C162.416 31.5067 162.536 32.02 162.536 32.62C162.536 33.5933 162.27 34.3867 161.736 35C161.203 35.6133 160.436 36.0467 159.436 36.3C160.076 37.4333 160.763 38.5667 161.496 39.7C162.23 40.82 162.963 41.9333 163.696 43.04C163.39 43.0133 163.09 43 162.796 43C162.503 43 162.203 43 161.896 43C161.59 43 161.283 43 160.976 43C160.683 43 160.383 43.0133 160.076 43.04L156.496 36.74H156.316ZM167.423 38.26C167.423 38.7933 167.476 39.2933 167.583 39.76C167.689 40.2267 167.849 40.6333 168.063 40.98C168.289 41.3133 168.569 41.58 168.903 41.78C169.249 41.9667 169.649 42.06 170.103 42.06C171.023 42.06 171.843 41.76 172.563 41.16L172.803 41.34L172.363 42.46C172.029 42.7133 171.629 42.9133 171.163 43.06C170.696 43.22 170.083 43.3 169.323 43.3C168.669 43.3 168.049 43.2067 167.463 43.02C166.876 42.8467 166.356 42.5533 165.903 42.14C165.463 41.7267 165.109 41.2067 164.843 40.58C164.589 39.94 164.463 39.18 164.463 38.3C164.463 37.4333 164.576 36.68 164.803 36.04C165.043 35.4 165.369 34.8667 165.783 34.44C166.196 34.0133 166.683 33.6933 167.243 33.48C167.816 33.2667 168.436 33.16 169.103 33.16C170.423 33.16 171.429 33.5467 172.123 34.32C172.829 35.0933 173.183 36.1867 173.183 37.6V38.02C173.183 38.14 173.176 38.22 173.163 38.26H167.423ZM170.503 37.36C170.476 36.36 170.349 35.56 170.123 34.96C169.909 34.36 169.543 34.06 169.023 34.06C168.729 34.06 168.483 34.16 168.283 34.36C168.083 34.56 167.923 34.82 167.803 35.14C167.683 35.4467 167.589 35.8 167.523 36.2C167.469 36.5867 167.436 36.9733 167.423 37.36H170.503ZM181.123 38.42C181.123 36.98 180.943 35.9533 180.583 35.34C180.223 34.7133 179.756 34.4 179.183 34.4C178.943 34.4 178.716 34.4667 178.503 34.6C178.289 34.72 178.103 34.9267 177.943 35.22C177.783 35.5 177.656 35.8733 177.563 36.34C177.469 36.8067 177.423 37.38 177.423 38.06C177.423 38.82 177.476 39.4533 177.583 39.96C177.703 40.4667 177.849 40.8733 178.023 41.18C178.196 41.4733 178.396 41.68 178.623 41.8C178.849 41.92 179.069 41.98 179.283 41.98C179.829 41.98 180.269 41.7 180.603 41.14C180.949 40.5667 181.123 39.66 181.123 38.42ZM183.763 41.64C183.763 42.92 183.776 44.0867 183.803 45.14C183.829 46.2067 183.869 47.26 183.923 48.3C183.749 48.2733 183.529 48.2467 183.263 48.22C182.996 48.2067 182.716 48.2 182.423 48.2C182.129 48.2 181.849 48.2067 181.583 48.22C181.316 48.2467 181.096 48.2733 180.923 48.3C180.976 47.26 181.016 46.22 181.043 45.18C181.069 44.1533 181.083 43.0533 181.083 41.88H181.043C180.816 42.3067 180.456 42.6533 179.963 42.92C179.483 43.1733 178.943 43.3 178.343 43.3C177.796 43.3 177.283 43.1867 176.803 42.96C176.336 42.72 175.929 42.38 175.583 41.94C175.236 41.4867 174.963 40.96 174.763 40.36C174.563 39.7467 174.463 39.08 174.463 38.36C174.463 37.6533 174.536 36.9867 174.683 36.36C174.829 35.72 175.056 35.1667 175.363 34.7C175.669 34.22 176.063 33.8467 176.543 33.58C177.036 33.3 177.623 33.16 178.303 33.16C179.103 33.16 179.723 33.3333 180.163 33.68C180.603 34.0267 180.949 34.5 181.203 35.1L181.243 35.06C181.243 35.02 181.236 34.92 181.223 34.76C181.209 34.6 181.196 34.4267 181.183 34.24C181.169 34.0533 181.149 33.88 181.123 33.72C181.109 33.56 181.096 33.46 181.083 33.42C181.216 33.4467 181.403 33.4733 181.643 33.5C181.896 33.5133 182.156 33.52 182.423 33.52C182.716 33.52 182.996 33.5133 183.263 33.5C183.529 33.4733 183.749 33.4467 183.923 33.42C183.869 34.54 183.829 35.6467 183.803 36.74C183.776 37.8333 183.763 39.0333 183.763 40.34V41.64ZM192.136 41.6C191.763 42.16 191.323 42.5867 190.816 42.88C190.323 43.16 189.756 43.3 189.116 43.3C188.116 43.3 187.343 43.02 186.796 42.46C186.263 41.9 185.996 40.9733 185.996 39.68C185.996 39 186.009 38.4 186.036 37.88C186.063 37.36 186.076 36.84 186.076 36.32C186.076 35.8933 186.063 35.4333 186.036 34.94C186.023 34.4333 186.003 33.9267 185.976 33.42C186.149 33.4467 186.369 33.4733 186.636 33.5C186.903 33.5133 187.183 33.52 187.476 33.52C187.769 33.52 188.049 33.5133 188.316 33.5C188.583 33.4733 188.803 33.4467 188.976 33.42C188.883 34.14 188.823 34.9733 188.796 35.92C188.769 36.8667 188.756 37.9467 188.756 39.16C188.756 40 188.896 40.62 189.176 41.02C189.469 41.4067 189.876 41.6 190.396 41.6C190.996 41.6 191.436 41.34 191.716 40.82C191.996 40.3 192.136 39.58 192.136 38.66V37.86C192.136 37.0467 192.123 36.2867 192.096 35.58C192.083 34.86 192.043 34.14 191.976 33.42C192.349 33.4867 192.849 33.52 193.476 33.52C193.783 33.52 194.063 33.5133 194.316 33.5C194.569 33.4733 194.789 33.4467 194.976 33.42C194.909 34.14 194.863 34.86 194.836 35.58C194.823 36.2867 194.816 37.0467 194.816 37.86V38.66C194.816 39.4733 194.823 40.24 194.836 40.96C194.863 41.68 194.909 42.3733 194.976 43.04C194.736 43.0133 194.496 43 194.256 43C194.029 43 193.796 43 193.556 43C193.316 43 193.076 43 192.836 43C192.609 43 192.363 43.0133 192.096 43.04L192.176 41.6H192.136ZM199.649 38.26C199.649 38.7933 199.703 39.2933 199.809 39.76C199.916 40.2267 200.076 40.6333 200.289 40.98C200.516 41.3133 200.796 41.58 201.129 41.78C201.476 41.9667 201.876 42.06 202.329 42.06C203.249 42.06 204.069 41.76 204.789 41.16L205.029 41.34L204.589 42.46C204.256 42.7133 203.856 42.9133 203.389 43.06C202.923 43.22 202.309 43.3 201.549 43.3C200.896 43.3 200.276 43.2067 199.689 43.02C199.103 42.8467 198.583 42.5533 198.129 42.14C197.689 41.7267 197.336 41.2067 197.069 40.58C196.816 39.94 196.689 39.18 196.689 38.3C196.689 37.4333 196.803 36.68 197.029 36.04C197.269 35.4 197.596 34.8667 198.009 34.44C198.423 34.0133 198.909 33.6933 199.469 33.48C200.043 33.2667 200.663 33.16 201.329 33.16C202.649 33.16 203.656 33.5467 204.349 34.32C205.056 35.0933 205.409 36.1867 205.409 37.6V38.02C205.409 38.14 205.403 38.22 205.389 38.26H199.649ZM202.729 37.36C202.703 36.36 202.576 35.56 202.349 34.96C202.136 34.36 201.769 34.06 201.249 34.06C200.956 34.06 200.709 34.16 200.509 34.36C200.309 34.56 200.149 34.82 200.029 35.14C199.909 35.4467 199.816 35.8 199.749 36.2C199.696 36.5867 199.663 36.9733 199.649 37.36H202.729ZM207.409 40.58C207.489 40.7933 207.589 41 207.709 41.2C207.843 41.3867 208.003 41.56 208.189 41.72C208.376 41.8667 208.596 41.9867 208.849 42.08C209.116 42.1733 209.423 42.22 209.769 42.22C210.236 42.22 210.596 42.1 210.849 41.86C211.103 41.62 211.229 41.36 211.229 41.08C211.229 40.7733 211.116 40.5267 210.889 40.34C210.663 40.1533 210.376 39.9867 210.029 39.84C209.696 39.68 209.329 39.52 208.929 39.36C208.529 39.2 208.156 39 207.809 38.76C207.476 38.5067 207.196 38.1933 206.969 37.82C206.743 37.4467 206.629 36.9667 206.629 36.38C206.629 35.82 206.729 35.34 206.929 34.94C207.143 34.5267 207.416 34.1933 207.749 33.94C208.083 33.6733 208.456 33.48 208.869 33.36C209.296 33.2267 209.716 33.16 210.129 33.16C210.689 33.16 211.183 33.24 211.609 33.4C212.049 33.56 212.496 33.7933 212.949 34.1C212.829 34.3667 212.729 34.6533 212.649 34.96C212.569 35.2667 212.509 35.5667 212.469 35.86H211.909C211.869 35.7 211.803 35.5267 211.709 35.34C211.616 35.14 211.489 34.9533 211.329 34.78C211.169 34.6067 210.976 34.4667 210.749 34.36C210.523 34.24 210.249 34.18 209.929 34.18C209.529 34.18 209.189 34.2867 208.909 34.5C208.643 34.7133 208.509 34.9933 208.509 35.34C208.509 35.66 208.623 35.92 208.849 36.12C209.089 36.3067 209.383 36.4733 209.729 36.62C210.076 36.7667 210.456 36.9133 210.869 37.06C211.283 37.2067 211.663 37.4 212.009 37.64C212.356 37.8667 212.643 38.1667 212.869 38.54C213.109 38.9133 213.229 39.3933 213.229 39.98C213.229 40.5667 213.123 41.0733 212.909 41.5C212.696 41.9133 212.409 42.26 212.049 42.54C211.689 42.8067 211.276 43 210.809 43.12C210.356 43.24 209.876 43.3 209.369 43.3C208.769 43.3 208.229 43.2133 207.749 43.04C207.269 42.8667 206.889 42.6867 206.609 42.5C206.769 41.86 206.869 41.22 206.909 40.58H207.409ZM220.123 33.52C220.083 33.72 220.063 33.9 220.063 34.06C220.063 34.2333 220.083 34.4 220.123 34.56L218.363 34.52C218.336 34.8267 218.309 35.18 218.283 35.58C218.269 35.98 218.256 36.3867 218.243 36.8C218.243 37.2133 218.236 37.6133 218.223 38C218.223 38.3867 218.223 38.7133 218.223 38.98C218.223 39.6733 218.236 40.2333 218.263 40.66C218.303 41.0867 218.363 41.4133 218.443 41.64C218.523 41.8667 218.636 42.02 218.783 42.1C218.929 42.18 219.116 42.22 219.343 42.22C219.596 42.22 219.783 42.2067 219.903 42.18C220.023 42.14 220.143 42.0867 220.263 42.02V42.84C219.996 42.96 219.663 43.0667 219.263 43.16C218.863 43.2533 218.469 43.3 218.083 43.3C216.389 43.3 215.543 42.2867 215.543 40.26C215.543 39.8733 215.549 39.44 215.563 38.96C215.576 38.4667 215.589 37.9667 215.603 37.46C215.629 36.94 215.649 36.4333 215.663 35.94C215.676 35.4333 215.683 34.9667 215.683 34.54L214.283 34.56C214.323 34.4 214.343 34.2333 214.343 34.06C214.343 33.9 214.323 33.72 214.283 33.52L215.683 33.58C215.683 33.1667 215.676 32.78 215.663 32.42C215.649 32.06 215.629 31.6267 215.603 31.12C216.069 30.9333 216.529 30.74 216.983 30.54C217.436 30.3267 217.889 30.1067 218.343 29.88L218.543 30.02C218.516 30.2333 218.489 30.4867 218.463 30.78C218.449 31.06 218.429 31.36 218.403 31.68C218.389 31.9867 218.376 32.3067 218.363 32.64C218.363 32.96 218.363 33.2667 218.363 33.56L220.123 33.52Z" fill="black"/>
<path d="M186.13 112H184.5V118.62H186.13V112Z" fill="black"/>
<path d="M188.62 114.5H182V116.13H188.62V114.5Z" fill="black"/>
<path d="M77.9973 144.186C79.7573 144.186 81.1841 142.759 81.1841 140.999C81.1841 139.239 79.7573 137.812 77.9973 137.812C76.2373 137.812 74.8105 139.239 74.8105 140.999C74.8105 142.759 76.2373 144.186 77.9973 144.186Z" fill="white"/>
<path d="M78 145C75.8022 145 74 143.198 74 141C74 138.802 75.8022 137 78 137C80.1978 137 81.9999 138.802 81.9999 141C81.9999 143.198 80.1978 145 78 145ZM78 138.626C76.6813 138.626 75.6264 139.703 75.6264 141.022C75.6264 142.341 76.7033 143.396 78 143.396C79.3186 143.396 80.3956 142.319 80.3956 141.022C80.3736 139.681 79.3186 138.626 78 138.626Z" fill="black"/>
<mask id="mask0" mask-type="alpha" maskUnits="userSpaceOnUse" x="77" y="60" width="102" height="98">
<path d="M77 60H179V158H77V60Z" fill="#C4C4C4"/>
</mask>
<g mask="url(#mask0)">
<rect x="105" y="70" width="58" height="96" rx="5" fill="white" stroke="black" stroke-width="2"/>
<rect x="99" y="70" width="58" height="96" rx="5" fill="white" stroke="black" stroke-width="2"/>
<path d="M107 86C107 83.2386 109.239 81 112 81H144C146.761 81 149 83.2386 149 86V163C149 165.761 146.761 168 144 168H112C109.239 168 107 165.761 107 163V86Z" fill="#0A0A0A" stroke="black" stroke-width="2"/>
</g>
<rect x="122" y="74" width="10" height="3" rx="1.5" fill="black"/>
<rect x="133" y="74" width="3" height="3" rx="1.5" fill="black"/>
<mask id="path-13-inside-1" fill="white">
<path fill-rule="evenodd" clip-rule="evenodd" d="M136 90C139.314 90 142 92.6863 142 96V128V130V138.074C142 139.988 139.569 140.809 138.409 139.286L131.336 130H88C84.6863 130 82 127.314 82 124V96C82 92.6863 84.6863 90 88 90H136Z"/>
</mask>
<path fill-rule="evenodd" clip-rule="evenodd" d="M136 90C139.314 90 142 92.6863 142 96V128V130V138.074C142 139.988 139.569 140.809 138.409 139.286L131.336 130H88C84.6863 130 82 127.314 82 124V96C82 92.6863 84.6863 90 88 90H136Z" fill="white"/>
<path d="M138.409 139.286L140 138.074H140L138.409 139.286ZM131.336 130V128H132.327L132.927 128.788L131.336 130ZM140 96C140 93.7909 138.209 92 136 92V88C140.418 88 144 91.5817 144 96H140ZM140 128V96H144V128H140ZM140 130V128H144V130H140ZM140 138.074V130H144V138.074H140ZM140 138.074C140.008 138.085 140.014 138.09 140.015 138.092C140.017 138.093 140.017 138.093 140.014 138.091C140.011 138.089 140.007 138.086 140.002 138.084C139.997 138.082 139.993 138.08 139.989 138.079C139.981 138.077 139.978 138.078 139.981 138.078C139.985 138.078 139.991 138.077 140 138.074C140.009 138.071 140.015 138.067 140.017 138.065C140.02 138.064 140.017 138.065 140.012 138.072C140.01 138.075 140.007 138.079 140.005 138.083C140.002 138.088 140 138.092 139.999 138.096C139.998 138.099 139.998 138.1 139.999 138.097C139.999 138.095 140 138.087 140 138.074H144C144 141.903 139.138 143.544 136.818 140.498L140 138.074ZM132.927 128.788L140 138.074L136.818 140.498L129.745 131.212L132.927 128.788ZM88 128H131.336V132H88V128ZM84 124C84 126.209 85.7909 128 88 128V132C83.5817 132 80 128.418 80 124H84ZM84 96V124H80V96H84ZM88 92C85.7909 92 84 93.7909 84 96H80C80 91.5817 83.5817 88 88 88V92ZM136 92H88V88H136V92Z" fill="black" mask="url(#path-13-inside-1)"/>
<path d="M121.504 108.305L120.091 107.685C119.631 107.485 119.267 107.114 119.075 106.65C118.887 106.185 118.887 105.665 119.075 105.2L119.639 103.769C119.723 103.649 119.763 103.504 119.75 103.358C119.738 103.212 119.674 103.076 119.571 102.972L118.021 101.423C117.918 101.32 117.781 101.256 117.636 101.244C117.49 101.231 117.344 101.271 117.225 101.355L115.797 101.944C115.331 102.132 114.812 102.132 114.346 101.944C113.883 101.752 113.512 101.387 113.312 100.927L112.692 99.5144C112.667 99.3689 112.591 99.2372 112.477 99.1429C112.363 99.0486 112.22 98.9979 112.072 99.0001H109.903C109.755 98.9979 109.612 99.0486 109.498 99.1429C109.385 99.2372 109.308 99.3689 109.283 99.5144L108.664 100.927C108.463 101.386 108.093 101.749 107.631 101.941C107.169 102.133 106.651 102.138 106.185 101.956L104.772 101.374C104.652 101.289 104.507 101.25 104.361 101.262C104.216 101.275 104.079 101.338 103.976 101.442L102.426 102.991C102.323 103.094 102.259 103.231 102.247 103.377C102.234 103.522 102.274 103.668 102.358 103.787L102.944 105.203C103.133 105.67 103.133 106.193 102.944 106.66C102.75 107.121 102.386 107.49 101.927 107.688L100.514 108.308C100.369 108.333 100.237 108.409 100.143 108.523C100.049 108.637 99.9979 108.78 100 108.928V111.097C99.9979 111.245 100.049 111.388 100.143 111.502C100.237 111.615 100.369 111.692 100.514 111.717L101.927 112.336C102.387 112.537 102.752 112.908 102.944 113.371C103.132 113.836 103.132 114.356 102.944 114.821L102.374 116.228C102.289 116.348 102.25 116.493 102.262 116.639C102.275 116.784 102.338 116.921 102.442 117.024L103.991 118.574C104.094 118.677 104.231 118.741 104.377 118.753C104.522 118.766 104.668 118.726 104.787 118.642L106.203 118.056C106.669 117.868 107.188 117.868 107.654 118.056C108.117 118.248 108.488 118.613 108.688 119.073L109.308 120.486C109.333 120.631 109.409 120.763 109.523 120.857C109.637 120.951 109.78 121.002 109.928 121H112.097C112.245 121.002 112.388 120.951 112.502 120.857C112.615 120.763 112.692 120.631 112.717 120.486L113.336 119.073C113.537 118.611 113.909 118.245 114.374 118.053C114.839 117.866 115.357 117.866 115.821 118.053L117.253 118.617C117.372 118.702 117.518 118.741 117.664 118.729C117.809 118.716 117.946 118.652 118.049 118.549L119.599 117C119.702 116.896 119.766 116.76 119.778 116.614C119.791 116.468 119.751 116.323 119.667 116.203L119.056 114.797C118.867 114.33 118.867 113.807 119.056 113.34C119.25 112.879 119.614 112.51 120.073 112.312L121.486 111.692C121.631 111.667 121.763 111.591 121.857 111.477C121.951 111.363 122.002 111.22 122 111.072V108.903C121.998 108.762 121.948 108.626 121.857 108.517C121.767 108.408 121.643 108.333 121.504 108.305Z" stroke="black" stroke-width="2"/>
<circle cx="111" cy="110" r="4" stroke="black" stroke-width="2"/>
<path d="M176.864 104.83H172.762C172.249 104.83 171.825 104.406 171.825 103.894V99.7916C171.825 99.2788 172.249 98.8552 172.762 98.8552H176.864C177.376 98.8552 177.8 99.2788 177.8 99.7916V103.894C177.8 104.406 177.376 104.83 176.864 104.83Z" fill="white"/>
<path d="M176.863 105.625H172.761C171.803 105.625 171 104.844 171 103.863V99.7612C171 98.8026 171.78 98 172.761 98H176.863C177.822 98 178.625 98.7803 178.625 99.7612V103.863C178.625 104.844 177.822 105.625 176.863 105.625ZM172.761 99.6498L172.65 103.886L176.886 103.997C176.953 103.997 176.997 103.953 176.997 103.886V99.7835L172.761 99.6498Z" fill="black"/>
</svg>
