<svg width="17" height="16" viewBox="0 0 17 16" fill="none" xmlns="http://www.w3.org/2000/svg">

<path fill-rule="evenodd" clip-rule="evenodd" d="M3 3.2C3 3.08954 3.08954 3 3.2 3H6.8C6.91046 3 7 3.08954 7 3.2V6.8C7 6.91046 6.91046 7 6.8 7H3.2C3.08954 7 3 6.91046 3 6.8V3.2ZM4.2 5.8V4.2H5.8V5.8H4.2Z" fill="black"/>
<path fill-rule="evenodd" clip-rule="evenodd" d="M3.2 8C3.08954 8 3 8.08954 3 8.2V10.8C3 10.9105 3.08954 11 3.2 11H6.8C6.91046 11 7 10.9105 7 10.8V8.2C7 8.08954 6.91046 8 6.8 8H3.2ZM4.2 9.2V9.8H5.8V9.2H4.2Z" fill="black"/>
<path fill-rule="evenodd" clip-rule="evenodd" d="M8 7.2C8 7.08954 8.08954 7 8.2 7H10.8C10.9105 7 11 7.08954 11 7.2V10.8C11 10.9105 10.9105 11 10.8 11H8.2C8.08954 11 8 10.9105 8 10.8V7.2ZM9.2 9.8V8.2H9.8V9.8H9.2Z" fill="black"/>
<path fill-rule="evenodd" clip-rule="evenodd" d="M8.2 3C8.08954 3 8 3.08954 8 3.2V5.8C8 5.91046 8.08954 6 8.2 6H10.8C10.9105 6 11 5.91046 11 5.8V3.2C11 3.08954 10.9105 3 10.8 3H8.2ZM9.2 4.2V4.8H9.8V4.2H9.2Z" fill="black"/>
<path fill-rule="evenodd" clip-rule="evenodd" d="M0 0.6C0 0.26863 0.268629 0 0.6 0H13.4C13.7314 0 14 0.268629 14 0.6V1.40039H15.4C15.8418 1.40039 16.2 1.75856 16.2 2.20039V15.2005C16.2 15.6423 15.8418 16.0005 15.4 16.0005H3.20002C2.7582 16.0005 2.40002 15.6423 2.40002 15.2005V14.0004H3.60002V14.8005H15V2.60039H14V13.4C14 13.7314 13.7314 14 13.4 14H0.6C0.26863 14 0 13.7314 0 13.4V0.6ZM1.2 12.8V1.2H12.8V12.8H1.2Z" fill="black"/>

</svg>
