<svg width="17" height="16" viewBox="0 0 17 16" fill="none" xmlns="http://www.w3.org/2000/svg">
<path d="M1.2 3.2V14.8H12.8V9.6C12.8 9.26863 13.0686 9 13.4 9C13.7314 9 14 9.26863 14 9.6V15.6C14 15.8209 13.8209 16 13.6 16H0.4C0.179086 16 0 15.8209 0 15.6V2.4C0 2.17909 0.179086 2 0.4 2H6.4C6.73137 2 7 2.26863 7 2.6C7 2.93137 6.73137 3.2 6.4 3.2H1.2Z" fill="white"/>
<path fill-rule="evenodd" clip-rule="evenodd" d="M11.8994 1.69706L5.32124 8.27523L5.32124 10.8208H7.86682L14.445 4.24264L11.8994 1.69706ZM12.253 0.353553C12.0577 0.158291 11.7411 0.158291 11.5459 0.353554L4.26769 7.63173C4.17392 7.7255 4.12124 7.85267 4.12124 7.98528L4.12124 11.5208C4.12124 11.797 4.3451 12.0208 4.62124 12.0208H8.15677C8.28938 12.0208 8.41656 11.9681 8.51033 11.8744L15.7885 4.59619C15.9838 4.40093 15.9838 4.08435 15.7885 3.88909L12.253 0.353553Z" fill="white"/>
</svg>
