<svg width="16" height="16" viewBox="0 0 16 16" fill="none" xmlns="http://www.w3.org/2000/svg">
<path fill-rule="evenodd" clip-rule="evenodd" d="M11.339 0.5C12.5856 0.499767 13.7743 1.02183 14.6456 1.93994C15.5159 2.85697 15.9998 4.0944 16 5.37855C16.0003 7.04894 15.1448 8.09569 14.3429 9.07689C14.1835 9.27202 14.0261 9.46456 13.878 9.6589L13.8598 9.6828L8.80744 15.0081C8.80245 15.0134 8.79733 15.0188 8.79228 15.0241C8.70546 15.1157 8.61108 15.2153 8.52397 15.2888C8.43751 15.3618 8.25677 15.5 7.99986 15.5C7.74293 15.5 7.56224 15.3617 7.4758 15.2887C7.38871 15.2152 7.29437 15.1155 7.20759 15.0239L2.14558 9.68839L2.13163 9.67111C2.01609 9.52803 1.89687 9.38526 1.7766 9.24124C0.915429 8.20997 0.000605674 7.11445 3.12151e-07 5.38159C-0.000448358 4.0974 0.482791 2.85967 1.35262 1.94213C2.22348 1.0235 3.41193 0.500742 4.65857 0.500258C6.07374 0.499709 7.12829 1.17102 7.99994 1.9968C8.87102 1.17158 9.92463 0.500264 11.339 0.5ZM13.8342 2.70294C13.1666 1.99958 12.2685 1.61094 11.3392 1.61111C10.1661 1.61133 9.28768 2.23687 8.40572 3.16652L7.99987 3.59432L7.59407 3.16647C6.71196 2.23643 5.83274 1.61091 4.659 1.61137C3.72973 1.61173 2.8317 2.0009 2.16451 2.70469C1.4963 3.40955 1.11593 4.37181 1.11628 5.38121C1.11674 6.68987 1.75757 7.46553 2.62436 8.51467C2.74166 8.65665 2.86311 8.80365 2.98766 8.95765L8.00005 14.2408L13.007 8.96338C13.1909 8.72284 13.3688 8.50242 13.5369 8.29406C14.3144 7.33037 14.8839 6.62453 14.8837 5.37874C14.8836 4.36938 14.5027 3.40738 13.8342 2.70294Z" fill="black"/>
</svg>
