<svg width="18" height="18" viewBox="0 0 18 18" fill="none" xmlns="http://www.w3.org/2000/svg">
<path d="M18 0H0V18H18V0Z" fill="#252A2F"/>
<path d="M4.29555 6.0199C4.31057 5.87146 4.25397 5.72474 4.14312 5.62484L3.01406 4.2647V4.06152H6.51981L9.22957 10.0044L11.6119 4.06152H14.9539V4.2647L13.9886 5.19027C13.9054 5.25371 13.8641 5.35797 13.8813 5.46117V12.2619C13.8641 12.3651 13.9054 12.4693 13.9886 12.5328L14.9314 13.4583V13.6615H10.1893V13.4583L11.1659 12.5102C11.2619 12.4143 11.2619 12.386 11.2619 12.2393V6.7423L8.54649 13.6389H8.17954L5.01815 6.7423V11.3645C4.99179 11.5589 5.05633 11.7545 5.19316 11.895L6.46336 13.4358V13.6389H2.86163V13.4358L4.13183 11.895C4.26766 11.7543 4.32844 11.5573 4.29555 11.3645V6.0199Z" fill="white"/>
</svg>
