<svg width="16" height="16" viewBox="0 0 16 16" fill="none" xmlns="http://www.w3.org/2000/svg">
<path fill-rule="evenodd" clip-rule="evenodd" d="M0 6.7998H4.2V11.7998H7.2V15.9998H0.6C0.268629 15.9998 0 15.7312 0 15.3998V6.7998ZM1.2 7.9998V14.7998H6V12.9998H3V7.9998H1.2Z" fill="black"/>
<path fill-rule="evenodd" clip-rule="evenodd" d="M0 4.3998C0 4.06843 0.268629 3.7998 0.6 3.7998H6.6C6.93137 3.7998 7.2 4.06843 7.2 4.3998L7.2 8.7998H9.6C9.93137 8.7998 10.2 9.06843 10.2 9.39981V12.9998L3 12.9998L3 7.9998L0 7.9998V4.3998ZM1.2 4.9998V6.7998L4.2 6.7998L4.2 11.7998L9 11.7998V9.9998H6L6 4.9998H1.2Z" fill="black"/>
<path fill-rule="evenodd" clip-rule="evenodd" d="M6 11.7998H15.4C15.7314 11.7998 16 12.0684 16 12.3998V15.3998C16 15.7312 15.7314 15.9998 15.4 15.9998H6V11.7998ZM7.17647 12.9998V14.7998H14.8235V12.9998H7.17647Z" fill="black"/>
<path fill-rule="evenodd" clip-rule="evenodd" d="M9.7998 0.6C9.7998 0.268629 10.0684 0 10.3998 0H15.3998C15.7312 0 15.9998 0.268629 15.9998 0.6V5.6C15.9998 5.93137 15.7312 6.2 15.3998 6.2H10.3998C10.0684 6.2 9.7998 5.93137 9.7998 5.6V0.6ZM10.9998 1.2V5H14.7998V1.2H10.9998Z" fill="black"/>
</svg>
