<svg width="17" height="17" viewBox="0 0 17 17" fill="none" xmlns="http://www.w3.org/2000/svg">
<path fill-rule="evenodd" clip-rule="evenodd" d="M4.00134 14.9295C7.82768 17.1387 12.7204 15.8277 14.9295 12.0013C17.1387 8.175 15.8277 3.28227 12.0013 1.07313C8.17499 -1.13601 3.28227 0.174995 1.07313 4.00134C-1.13601 7.82768 0.174995 12.7204 4.00134 14.9295ZM7.18161 8.2216L4.19536 13.3939C3.09813 12.6214 2.29958 11.5613 1.84353 10.3771C3.34235 9.91422 4.7349 8.85929 5.70042 7.36644L7.18161 8.2216ZM8.22084 8.8216L5.23461 13.9939C6.49558 14.5778 7.86347 14.7302 9.15672 14.4996C8.77323 12.9903 8.95045 11.2675 9.71241 9.68276L8.22084 8.8216ZM10.3123 8.6435L8.82084 7.78237L11.8077 2.609C12.944 3.40915 13.76 4.51778 14.2068 5.75327C12.7082 6.17566 11.3045 7.18975 10.3123 8.6435ZM10.9289 10.3851C10.3443 11.6523 10.2281 12.9799 10.5027 14.1093C11.636 13.6461 12.6484 12.866 13.3934 11.808L10.9289 10.3851ZM13.9935 10.7688L11.5289 9.34586C12.3335 8.20646 13.4256 7.44084 14.5417 7.11385C14.7072 8.32717 14.5376 9.5944 13.9935 10.7688ZM7.78161 7.18237L6.2747 6.31236C6.98914 4.72617 7.12588 3.0164 6.70855 1.5291C8.04213 1.26218 9.46265 1.40413 10.7685 2.00896L7.78161 7.18237ZM5.05498 5.60815C5.58861 4.35189 5.66914 3.04871 5.37133 1.94753C4.28981 2.41637 3.32532 3.17742 2.60851 4.19568L5.05498 5.60815ZM2.00861 5.23497C1.44482 6.45258 1.28346 7.76988 1.48072 9.02339C2.60753 8.66135 3.7001 7.85299 4.48615 6.66538L2.00861 5.23497Z" fill="black"/>
</svg>
