<?xml version="1.0" encoding="UTF-8"?>
<svg width="18px" height="15px" viewBox="0 0 18 15" version="1.1" xmlns="http://www.w3.org/2000/svg" xmlns:xlink="http://www.w3.org/1999/xlink">
    <title>飞鸽</title>
    <g id="更改页面" stroke="none" stroke-width="1" fill="none" fill-rule="evenodd">
        <g id="box" transform="translate(-1431.000000, -1342.000000)" fill="#252A2F">
            <g id="飞鸽" transform="translate(1431.000000, 1342.000000)">
                <path d="M15.8796,3.23593 C16.6424,2.79467 17.2277,2.09498 17.5024,1.261489 C16.7882,1.671086 15.9989,1.967304 15.1569,2.12767 C14.4849,1.433091 13.5246,1 12.4617,1 C10.4226,1 8.77021,2.59855 8.77021,4.56993 C8.77021,4.84981 8.80085,5.12253 8.86424,5.383 C5.79609,5.23387 3.07554,3.81407 1.25304,1.6527 C0.935024,2.18181 0.753302,2.79467 0.753302,3.44839 C0.753302,4.68638 1.40518,5.77932 2.3962,6.42078 C1.79081,6.4024 1.22134,6.23999 0.722662,5.97441 L0.722662,6.01833 C0.722662,7.74865 1.99472,9.19195 3.68621,9.51881 C3.37559,9.60257 3.05018,9.64445 2.7121,9.64445 C2.47438,9.64445 2.24194,9.623 2.01796,9.58112 C2.48706,10.99888 3.85103,12.0326 5.46751,12.0602 C4.20285,13.0183 2.61067,13.5882 0.881141,13.5882 C0.583201,13.5882 0.288431,13.5729 0,13.5392 C1.63444,14.5514 3.57528,15.1429 5.66086,15.1429 C12.4543,15.1429 16.1669,9.70267 16.1669,4.98464 C16.1669,4.82938 16.1648,4.67514 16.1574,4.52295 C16.879,4.01938 17.5066,3.39017 18,2.67414 C17.3376,2.9581 16.6255,3.15013 15.8796,3.23593 Z" id="路径"></path>
            </g>
        </g>
    </g>
</svg>