<?xml version="1.0" encoding="UTF-8"?>
<svg width="17px" height="16px" viewBox="0 0 17 16" version="1.1" xmlns="http://www.w3.org/2000/svg" xmlns:xlink="http://www.w3.org/1999/xlink">
    <title>分 享</title>
    <g id="更改页面" stroke="none" stroke-width="1" fill="none" fill-rule="evenodd">
        <g id="box" transform="translate(-1465.000000, -1342.000000)" fill="#252A2F" fill-rule="nonzero">
            <g id="分-享" transform="translate(1465.000000, 1342.000000)">
                <path d="M14.3023115,10.6562006 C13.189439,10.6562006 12.2796434,11.2448362 11.8558918,12.1587332 L6.47695312,9.89767594 C6.79071702,9.41735159 6.96310769,8.8286068 6.96310769,8.19376514 C6.96310769,7.93073644 6.93170369,7.66725296 6.86885887,7.41930489 L10.3032713,4.78607088 C10.7583164,5.12677664 11.338775,5.32813667 11.9816551,5.32813667 C13.5343124,5.32813667 14.6946222,4.18186345 14.6946222,2.66434121 C14.6946222,1.14627322 13.5339259,0 11.9816551,0 C10.4289057,0 9.2842427,1.14625503 9.2842427,2.66434121 C9.2842427,3.051635 9.36275271,3.40778521 9.48801897,3.71747472 L6.31982265,6.11805957 C5.69269981,5.18871818 4.65756424,4.53803186 3.48142359,4.53803186 C1.56346002,4.5333021 0.00478327931,6.06590498 0,7.96127972 C0,7.96646989 0,7.97166133 0,7.97685151 C-0.00361075659,9.87224444 1.54829185,11.4116509 3.46625542,11.4152891 L3.48153404,11.4152891 C4.20290571,11.4152891 4.87706092,11.2298465 5.42606032,10.8890498 L11.6053041,13.4909947 C11.6839061,14.9313129 12.8129039,16 14.3022379,16 C15.8553554,16 17,14.8540906 17,13.3361136 C17,11.8181365 15.83923,10.6562915 14.3026981,10.6562915 L14.3023299,10.6562915 L14.3023115,10.6562006 Z" id="路径"></path>
            </g>
        </g>
    </g>
</svg>