<svg width="262" height="262" viewBox="0 0 262 262" fill="none" xmlns="http://www.w3.org/2000/svg">
<rect width="262" height="262" fill="#E6E6E6"/>
<path d="M74.7241 33.06C74.3775 33.86 74.0508 34.6533 73.7441 35.44C73.4375 36.2133 73.1375 37.0067 72.8441 37.82H76.5041C76.2108 37.0067 75.9175 36.2133 75.6241 35.44C75.3441 34.6533 75.0441 33.86 74.7241 33.06ZM81.8041 43.04C81.4841 43.0133 81.1775 43 80.8841 43C80.6041 43 80.3241 43 80.0441 43C79.7641 43 79.4775 43 79.1841 43C78.9041 43 78.6241 43.0133 78.3441 43.04C78.1308 42.3867 77.9108 41.72 77.6841 41.04C77.4575 40.36 77.2175 39.68 76.9641 39C76.5375 38.9867 76.1108 38.98 75.6841 38.98C75.2575 38.9667 74.8308 38.96 74.4041 38.96C74.0575 38.96 73.7108 38.9667 73.3641 38.98C73.0175 38.98 72.6708 38.9867 72.3241 39C72.0575 39.68 71.8108 40.36 71.5841 41.04C71.3575 41.72 71.1508 42.3867 70.9641 43.04C70.8041 43.0133 70.6441 43 70.4841 43C70.3375 43 70.1841 43 70.0241 43C69.8641 43 69.7041 43 69.5441 43C69.3841 43 69.2108 43.0133 69.0241 43.04C69.1841 42.6933 69.3975 42.2133 69.6641 41.6C69.9308 40.9867 70.2241 40.2933 70.5441 39.52C70.8641 38.7467 71.2041 37.92 71.5641 37.04C71.9375 36.1467 72.3041 35.2467 72.6641 34.34C73.0375 33.4333 73.3975 32.54 73.7441 31.66C74.1041 30.78 74.4308 29.96 74.7241 29.2C74.8575 29.2267 74.9841 29.2533 75.1041 29.28C75.2241 29.2933 75.3508 29.3 75.4841 29.3C75.6175 29.3 75.7441 29.2933 75.8641 29.28C75.9841 29.2533 76.1108 29.2267 76.2441 29.2C76.6708 30.3333 77.1241 31.5467 77.6041 32.84C78.0975 34.1333 78.5908 35.4067 79.0841 36.66C79.5775 37.9 80.0575 39.08 80.5241 40.2C80.9908 41.32 81.4175 42.2667 81.8041 43.04ZM85.704 38.46C85.704 39.14 85.7507 39.7133 85.844 40.18C85.9373 40.6467 86.064 41.0267 86.224 41.32C86.384 41.6 86.564 41.8067 86.764 41.94C86.9773 42.06 87.1973 42.12 87.424 42.12C87.9707 42.12 88.4173 41.8133 88.764 41.2C89.124 40.5733 89.304 39.54 89.304 38.1C89.304 36.86 89.1373 35.96 88.804 35.4C88.4707 34.8267 88.044 34.54 87.524 34.54C87.3107 34.54 87.0973 34.6 86.884 34.72C86.6707 34.84 86.4773 35.0533 86.304 35.36C86.1307 35.6533 85.984 36.0533 85.864 36.56C85.7573 37.0667 85.704 37.7 85.704 38.46ZM91.984 36.18C91.984 37.4867 91.9973 38.6867 92.024 39.78C92.0507 40.8733 92.0907 41.96 92.144 43.04C91.9707 43.0133 91.7507 43 91.484 43C91.2173 43 90.9373 43 90.644 43C90.3773 43 90.1173 43 89.864 43C89.624 43 89.4373 43.0133 89.304 43.04C89.3173 43.0133 89.3307 42.9267 89.344 42.78C89.3573 42.6333 89.3707 42.4667 89.384 42.28C89.4107 42.0933 89.4307 41.92 89.444 41.76C89.4573 41.6 89.464 41.5 89.464 41.46L89.424 41.42C89.1707 42.02 88.824 42.4867 88.384 42.82C87.944 43.14 87.3373 43.3 86.564 43.3C85.884 43.3 85.304 43.1733 84.824 42.92C84.344 42.6533 83.9507 42.2867 83.644 41.82C83.3373 41.3533 83.1107 40.8067 82.964 40.18C82.8173 39.5533 82.744 38.88 82.744 38.16C82.744 37.44 82.844 36.78 83.044 36.18C83.244 35.5667 83.5173 35.04 83.864 34.6C84.2107 34.1467 84.6173 33.7933 85.084 33.54C85.564 33.2867 86.0707 33.16 86.604 33.16C87.204 33.16 87.7373 33.3 88.204 33.58C88.684 33.86 89.0373 34.2133 89.264 34.64H89.304C89.304 33.44 89.2907 32.3133 89.264 31.26C89.2373 30.1933 89.1973 29.0933 89.144 27.96C89.3173 27.9867 89.5373 28.0133 89.804 28.04C90.0707 28.0533 90.3507 28.06 90.644 28.06C90.9373 28.06 91.2173 28.0533 91.484 28.04C91.7507 28.0133 91.9707 27.9867 92.144 27.96C92.0907 29.08 92.0507 30.1867 92.024 31.28C91.9973 32.3733 91.984 33.5733 91.984 34.88V36.18ZM96.8173 38.46C96.8173 39.14 96.8639 39.7133 96.9573 40.18C97.0506 40.6467 97.1773 41.0267 97.3373 41.32C97.4973 41.6 97.6773 41.8067 97.8773 41.94C98.0906 42.06 98.3106 42.12 98.5373 42.12C99.0839 42.12 99.5306 41.8133 99.8773 41.2C100.237 40.5733 100.417 39.54 100.417 38.1C100.417 36.86 100.251 35.96 99.9173 35.4C99.5839 34.8267 99.1573 34.54 98.6373 34.54C98.4239 34.54 98.2106 34.6 97.9973 34.72C97.7839 34.84 97.5906 35.0533 97.4173 35.36C97.2439 35.6533 97.0973 36.0533 96.9773 36.56C96.8706 37.0667 96.8173 37.7 96.8173 38.46ZM103.097 36.18C103.097 37.4867 103.111 38.6867 103.137 39.78C103.164 40.8733 103.204 41.96 103.257 43.04C103.084 43.0133 102.864 43 102.597 43C102.331 43 102.051 43 101.757 43C101.491 43 101.231 43 100.977 43C100.737 43 100.551 43.0133 100.417 43.04C100.431 43.0133 100.444 42.9267 100.457 42.78C100.471 42.6333 100.484 42.4667 100.497 42.28C100.524 42.0933 100.544 41.92 100.557 41.76C100.571 41.6 100.577 41.5 100.577 41.46L100.537 41.42C100.284 42.02 99.9373 42.4867 99.4973 42.82C99.0573 43.14 98.4506 43.3 97.6773 43.3C96.9973 43.3 96.4173 43.1733 95.9373 42.92C95.4573 42.6533 95.0639 42.2867 94.7573 41.82C94.4506 41.3533 94.2239 40.8067 94.0773 40.18C93.9306 39.5533 93.8573 38.88 93.8573 38.16C93.8573 37.44 93.9573 36.78 94.1573 36.18C94.3573 35.5667 94.6306 35.04 94.9773 34.6C95.3239 34.1467 95.7306 33.7933 96.1973 33.54C96.6773 33.2867 97.1839 33.16 97.7173 33.16C98.3173 33.16 98.8506 33.3 99.3173 33.58C99.7973 33.86 100.151 34.2133 100.377 34.64H100.417C100.417 33.44 100.404 32.3133 100.377 31.26C100.351 30.1933 100.311 29.0933 100.257 27.96C100.431 27.9867 100.651 28.0133 100.917 28.04C101.184 28.0533 101.464 28.06 101.757 28.06C102.051 28.06 102.331 28.0533 102.597 28.04C102.864 28.0133 103.084 27.9867 103.257 27.96C103.204 29.08 103.164 30.1867 103.137 31.28C103.111 32.3733 103.097 33.5733 103.097 34.88V36.18ZM111.837 33.28C111.837 32.36 111.824 31.5867 111.797 30.96C111.77 30.3333 111.75 29.78 111.737 29.3C112.11 29.3667 112.41 29.4 112.637 29.4C112.864 29.4 113.164 29.3667 113.537 29.3C114.99 30.9133 116.424 32.5 117.837 34.06C119.264 35.62 120.724 37.2067 122.217 38.82V37.08V35.14C122.217 34.4867 122.21 33.8467 122.197 33.22C122.197 32.58 122.19 31.9933 122.177 31.46C122.177 30.9267 122.164 30.4667 122.137 30.08C122.124 29.6933 122.104 29.4333 122.077 29.3C122.45 29.3667 122.75 29.4 122.977 29.4C123.204 29.4 123.504 29.3667 123.877 29.3C123.81 30.5133 123.757 31.6133 123.717 32.6C123.677 33.5733 123.644 34.4933 123.617 35.36C123.59 36.2267 123.57 37.0867 123.557 37.94C123.557 38.78 123.557 39.68 123.557 40.64V43.04C123.29 43.0133 123.017 43 122.737 43C122.444 43 122.184 43.0133 121.957 43.04C119.21 39.84 116.297 36.62 113.217 33.38C113.204 33.7667 113.19 34.1533 113.177 34.54C113.177 34.9267 113.177 35.32 113.177 35.72V38.04C113.177 38.84 113.177 39.52 113.177 40.08C113.19 40.64 113.204 41.1133 113.217 41.5C113.23 41.8867 113.244 42.2067 113.257 42.46C113.27 42.7 113.284 42.8933 113.297 43.04C113.137 43.0133 112.977 43 112.817 43C112.657 43 112.504 43 112.357 43C112.05 43 111.744 43.0133 111.437 43.04C111.464 42.9333 111.497 42.5533 111.537 41.9C111.577 41.2467 111.617 40.4533 111.657 39.52C111.71 38.5733 111.75 37.5533 111.777 36.46C111.817 35.3533 111.837 34.2933 111.837 33.28ZM129.063 38.26C129.063 38.7933 129.117 39.2933 129.223 39.76C129.33 40.2267 129.49 40.6333 129.703 40.98C129.93 41.3133 130.21 41.58 130.543 41.78C130.89 41.9667 131.29 42.06 131.743 42.06C132.663 42.06 133.483 41.76 134.203 41.16L134.443 41.34L134.003 42.46C133.67 42.7133 133.27 42.9133 132.803 43.06C132.337 43.22 131.723 43.3 130.963 43.3C130.31 43.3 129.69 43.2067 129.103 43.02C128.517 42.8467 127.997 42.5533 127.543 42.14C127.103 41.7267 126.75 41.2067 126.483 40.58C126.23 39.94 126.103 39.18 126.103 38.3C126.103 37.4333 126.217 36.68 126.443 36.04C126.683 35.4 127.01 34.8667 127.423 34.44C127.837 34.0133 128.323 33.6933 128.883 33.48C129.457 33.2667 130.077 33.16 130.743 33.16C132.063 33.16 133.07 33.5467 133.763 34.32C134.47 35.0933 134.823 36.1867 134.823 37.6V38.02C134.823 38.14 134.817 38.22 134.803 38.26H129.063ZM132.143 37.36C132.117 36.36 131.99 35.56 131.763 34.96C131.55 34.36 131.183 34.06 130.663 34.06C130.37 34.06 130.123 34.16 129.923 34.36C129.723 34.56 129.563 34.82 129.443 35.14C129.323 35.4467 129.23 35.8 129.163 36.2C129.11 36.5867 129.077 36.9733 129.063 37.36H132.143ZM147.083 40.34C147.817 38.02 148.49 35.7133 149.103 33.42C149.397 33.4867 149.657 33.52 149.883 33.52C150.017 33.52 150.143 33.5133 150.263 33.5C150.397 33.4733 150.55 33.4467 150.723 33.42C150.63 33.5933 150.503 33.88 150.343 34.28C150.183 34.68 150.003 35.1533 149.803 35.7C149.617 36.2467 149.41 36.8467 149.183 37.5C148.97 38.14 148.757 38.7867 148.543 39.44C148.33 40.0933 148.117 40.7333 147.903 41.36C147.703 41.9867 147.523 42.5467 147.363 43.04C147.177 43.0133 146.99 43 146.803 43C146.63 43 146.45 43 146.263 43C146.077 43 145.89 43 145.703 43C145.517 43 145.33 43.0133 145.143 43.04C144.983 42.5333 144.817 41.9933 144.643 41.42C144.47 40.8333 144.297 40.26 144.123 39.7C143.95 39.1267 143.783 38.5733 143.623 38.04C143.463 37.4933 143.317 36.9867 143.183 36.52H143.143C142.797 37.64 142.45 38.74 142.103 39.82C141.77 40.9 141.45 41.9733 141.143 43.04C140.957 43.0133 140.763 43 140.563 43C140.377 43 140.19 43 140.003 43C139.817 43 139.623 43 139.423 43C139.223 43 139.023 43.0133 138.823 43.04C138.677 42.5467 138.503 41.98 138.303 41.34C138.117 40.6867 137.917 40.0267 137.703 39.36C137.49 38.6933 137.277 38.0333 137.063 37.38C136.85 36.7267 136.65 36.1333 136.463 35.6C136.29 35.0533 136.137 34.5867 136.003 34.2C135.87 33.8133 135.777 33.5533 135.723 33.42C136.017 33.4467 136.283 33.4733 136.523 33.5C136.777 33.5133 137.03 33.52 137.283 33.52C137.523 33.52 137.763 33.5133 138.003 33.5C138.257 33.4733 138.503 33.4467 138.743 33.42C139.063 34.58 139.397 35.7733 139.743 37C140.09 38.2133 140.417 39.3267 140.723 40.34H140.763C141.15 39.1667 141.503 38.0133 141.823 36.88C142.143 35.7467 142.463 34.5933 142.783 33.42C142.97 33.4467 143.157 33.4733 143.343 33.5C143.53 33.5133 143.717 33.52 143.903 33.52C144.09 33.52 144.277 33.5133 144.463 33.5C144.65 33.4733 144.837 33.4467 145.023 33.42C145.343 34.5933 145.67 35.7467 146.003 36.88C146.337 38.0133 146.683 39.1667 147.043 40.34H147.083ZM158.536 33.28C158.536 32.36 158.523 31.5867 158.496 30.96C158.47 30.3333 158.45 29.78 158.436 29.3C158.81 29.3667 159.11 29.4 159.336 29.4C159.563 29.4 159.863 29.3667 160.236 29.3C161.69 30.9133 163.123 32.5 164.536 34.06C165.963 35.62 167.423 37.2067 168.916 38.82V37.08V35.14C168.916 34.4867 168.91 33.8467 168.896 33.22C168.896 32.58 168.89 31.9933 168.876 31.46C168.876 30.9267 168.863 30.4667 168.836 30.08C168.823 29.6933 168.803 29.4333 168.776 29.3C169.15 29.3667 169.45 29.4 169.676 29.4C169.903 29.4 170.203 29.3667 170.576 29.3C170.51 30.5133 170.456 31.6133 170.416 32.6C170.376 33.5733 170.343 34.4933 170.316 35.36C170.29 36.2267 170.27 37.0867 170.256 37.94C170.256 38.78 170.256 39.68 170.256 40.64V43.04C169.99 43.0133 169.716 43 169.436 43C169.143 43 168.883 43.0133 168.656 43.04C165.91 39.84 162.996 36.62 159.916 33.38C159.903 33.7667 159.89 34.1533 159.876 34.54C159.876 34.9267 159.876 35.32 159.876 35.72V38.04C159.876 38.84 159.876 39.52 159.876 40.08C159.89 40.64 159.903 41.1133 159.916 41.5C159.93 41.8867 159.943 42.2067 159.956 42.46C159.97 42.7 159.983 42.8933 159.996 43.04C159.836 43.0133 159.676 43 159.516 43C159.356 43 159.203 43 159.056 43C158.75 43 158.443 43.0133 158.136 43.04C158.163 42.9333 158.196 42.5533 158.236 41.9C158.276 41.2467 158.316 40.4533 158.356 39.52C158.41 38.5733 158.45 37.5533 158.476 36.46C158.516 35.3533 158.536 34.2933 158.536 33.28ZM173.743 34.84C173.743 33.7333 173.729 32.7533 173.703 31.9C173.676 31.0333 173.636 30.1667 173.583 29.3C174.183 29.3133 174.776 29.3333 175.363 29.36C175.949 29.3867 176.543 29.4 177.143 29.4C178.129 29.4 179.003 29.3933 179.763 29.38C180.536 29.3533 181.056 29.3267 181.323 29.3C181.269 29.5133 181.243 29.7933 181.243 30.14C181.243 30.3533 181.249 30.52 181.263 30.64C181.276 30.76 181.296 30.8933 181.323 31.04C180.936 31.0133 180.509 30.9867 180.043 30.96C179.589 30.9333 179.143 30.9067 178.703 30.88C178.276 30.8533 177.889 30.8333 177.543 30.82C177.196 30.8067 176.949 30.8 176.803 30.8C176.749 31.5333 176.716 32.26 176.703 32.98C176.703 33.7 176.703 34.4267 176.703 35.16C177.569 35.1467 178.349 35.1267 179.043 35.1C179.749 35.0733 180.483 35.04 181.243 35C181.203 35.2267 181.176 35.4 181.163 35.52C181.149 35.64 181.143 35.7667 181.143 35.9C181.143 36.0067 181.149 36.12 181.163 36.24C181.189 36.3467 181.216 36.5067 181.243 36.72C179.723 36.6 178.209 36.54 176.703 36.54V37.56C176.703 38.6667 176.716 39.6533 176.743 40.52C176.769 41.3733 176.809 42.2133 176.863 43.04C176.636 43.0133 176.389 43 176.123 43C175.856 43 175.556 43 175.223 43C174.889 43 174.589 43 174.323 43C174.056 43 173.809 43.0133 173.583 43.04C173.636 42.2133 173.676 41.3733 173.703 40.52C173.729 39.6533 173.743 38.6667 173.743 37.56V34.84ZM186.283 32.56C186.283 32.1733 186.276 31.82 186.263 31.5C186.263 31.18 186.249 30.9467 186.223 30.8C186.023 30.8 185.776 30.8067 185.483 30.82C185.189 30.8333 184.876 30.8533 184.543 30.88C184.209 30.8933 183.869 30.92 183.523 30.96C183.176 30.9867 182.856 31.02 182.563 31.06C182.589 30.9133 182.609 30.7667 182.623 30.62C182.649 30.4733 182.663 30.3267 182.663 30.18C182.663 30.0333 182.649 29.8867 182.623 29.74C182.609 29.5933 182.589 29.4467 182.563 29.3C183.016 29.3133 183.423 29.3267 183.783 29.34C184.156 29.3533 184.529 29.3667 184.903 29.38C185.289 29.38 185.703 29.3867 186.143 29.4C186.596 29.4 187.136 29.4 187.763 29.4C188.389 29.4 188.923 29.4 189.363 29.4C189.816 29.3867 190.229 29.38 190.603 29.38C190.976 29.3667 191.336 29.3533 191.683 29.34C192.043 29.3267 192.429 29.3133 192.843 29.3C192.816 29.4467 192.789 29.5933 192.763 29.74C192.749 29.8867 192.743 30.0333 192.743 30.18C192.743 30.3267 192.749 30.4733 192.763 30.62C192.789 30.7667 192.816 30.9133 192.843 31.06C192.576 31.02 192.276 30.9867 191.943 30.96C191.609 30.92 191.276 30.8933 190.943 30.88C190.623 30.8533 190.316 30.8333 190.023 30.82C189.729 30.8067 189.483 30.8 189.283 30.8C189.269 30.8667 189.256 30.96 189.243 31.08C189.243 31.2 189.243 31.34 189.243 31.5V32.56V37.56C189.243 38.6667 189.256 39.6533 189.283 40.52C189.309 41.3733 189.349 42.2133 189.403 43.04C189.176 43.0133 188.929 43 188.663 43C188.396 43 188.096 43 187.763 43C187.429 43 187.129 43 186.863 43C186.596 43 186.349 43.0133 186.123 43.04C186.176 42.2133 186.216 41.3733 186.243 40.52C186.269 39.6533 186.283 38.6667 186.283 37.56V32.56Z" fill="black"/>
<path d="M105.836 96.0643C105.836 92.5978 108.646 89.7876 112.113 89.7876H165.549C169.015 89.7876 171.825 92.5978 171.825 96.0643V199.561C171.825 203.028 169.015 205.838 165.549 205.838H112.113C108.646 205.838 105.836 203.028 105.836 199.561V96.0643Z" fill="white"/>
<path fill-rule="evenodd" clip-rule="evenodd" d="M165.549 91.8798H112.113C109.802 91.8798 107.928 93.7533 107.928 96.0643V199.561C107.928 201.872 109.802 203.746 112.113 203.746H165.549C167.86 203.746 169.733 201.872 169.733 199.561V96.0643C169.733 93.7533 167.86 91.8798 165.549 91.8798ZM112.113 89.7876C108.646 89.7876 105.836 92.5978 105.836 96.0643V199.561C105.836 203.028 108.646 205.838 112.113 205.838H165.549C169.015 205.838 171.825 203.028 171.825 199.561V96.0643C171.825 92.5978 169.015 89.7876 165.549 89.7876H112.113Z" fill="black"/>
<path d="M94.2749 88.2767C94.2749 84.8102 97.0851 82 100.552 82H156.263C159.73 82 162.54 84.8102 162.54 88.2767V191.774C162.54 195.24 159.73 198.05 156.263 198.05H100.552C97.0851 198.05 94.2749 195.24 94.2749 191.774V88.2767Z" fill="white"/>
<path fill-rule="evenodd" clip-rule="evenodd" d="M156.263 84.0922H100.552C98.2406 84.0922 96.3671 85.9657 96.3671 88.2767V191.774C96.3671 194.085 98.2406 195.958 100.552 195.958H156.263C158.574 195.958 160.448 194.085 160.448 191.774V88.2767C160.448 85.9657 158.574 84.0922 156.263 84.0922ZM100.552 82C97.0851 82 94.2749 84.8102 94.2749 88.2767V191.774C94.2749 195.24 97.0851 198.05 100.552 198.05H156.263C159.73 198.05 162.54 195.24 162.54 191.774V88.2767C162.54 84.8102 159.73 82 156.263 82H100.552Z" fill="black"/>
<path d="M103.376 105.34C103.376 101.873 106.187 99.063 109.653 99.063H147.161C150.627 99.063 153.437 101.873 153.437 105.34V142.847C153.437 146.314 150.627 149.124 147.161 149.124H109.653C106.187 149.124 103.376 146.314 103.376 142.847V105.34Z" fill="black"/>
<path fill-rule="evenodd" clip-rule="evenodd" d="M147.161 101.155H109.653C107.342 101.155 105.469 103.029 105.469 105.34V142.847C105.469 145.158 107.342 147.032 109.653 147.032H147.161C149.472 147.032 151.345 145.158 151.345 142.847V105.34C151.345 103.029 149.472 101.155 147.161 101.155ZM109.653 99.063C106.187 99.063 103.376 101.873 103.376 105.34V142.847C103.376 146.314 106.187 149.124 109.653 149.124H147.161C150.627 149.124 153.437 146.314 153.437 142.847V105.34C153.437 101.873 150.627 99.063 147.161 99.063H109.653Z" fill="black"/>
<path d="M137.509 90.5343C137.509 89.5917 138.273 88.8276 139.216 88.8276H151.731C152.673 88.8276 153.438 89.5917 153.438 90.5343C153.438 91.4768 152.673 92.2409 151.731 92.2409H139.216C138.273 92.2409 137.509 91.4768 137.509 90.5343Z" fill="black"/>
<path d="M103.376 160.496C103.376 159.239 104.395 158.22 105.652 158.22H148.886C150.143 158.22 151.162 159.239 151.162 160.496C151.162 161.752 150.143 162.771 148.886 162.771H105.652C104.395 162.771 103.376 161.752 103.376 160.496Z" fill="black"/>
<path d="M103.347 169.61C103.347 168.353 104.366 167.334 105.622 167.334H148.857C150.114 167.334 151.132 168.353 151.132 169.61C151.132 170.866 150.114 171.885 148.857 171.885H105.622C104.366 171.885 103.347 170.866 103.347 169.61Z" fill="black"/>
<path d="M103.376 178.712C103.376 177.455 104.395 176.436 105.652 176.436H135.233C136.49 176.436 137.509 177.455 137.509 178.712C137.509 179.968 136.49 180.987 135.233 180.987H105.652C104.395 180.987 103.376 179.968 103.376 178.712Z" fill="black"/>
<path d="M103.376 90.5343C103.376 89.5917 104.141 88.8276 105.083 88.8276H113.047C113.99 88.8276 114.754 89.5917 114.754 90.5343C114.754 91.4768 113.99 92.2409 113.047 92.2409H105.083C104.141 92.2409 103.376 91.4768 103.376 90.5343Z" fill="black"/>
<path d="M55.4961 134.188C55.0351 136.28 52.1902 137.401 49.1612 136.676C46.1321 135.951 44.0434 133.667 44.5172 131.557C44.9782 129.464 47.823 128.343 50.8521 129.069C53.8812 129.794 55.9571 132.096 55.4961 134.188Z" fill="white"/>
<path d="M55.7389 135.69C55.2648 136.358 54.5447 136.904 53.6299 137.256C52.2825 137.789 50.6464 137.87 49.0079 137.487C45.5271 136.656 43.1808 133.916 43.7256 131.393C43.9953 130.117 44.9495 129.085 46.4032 128.519C47.7507 127.987 49.3867 127.905 51.0253 128.289C52.6639 128.672 54.1068 129.487 55.1025 130.58C56.1772 131.758 56.6084 133.1 56.3075 134.382C56.1982 134.848 56.0209 135.293 55.7389 135.69ZM45.6474 131.027C45.4936 131.243 45.3766 131.486 45.3275 131.75C44.9758 133.377 46.8182 135.267 49.3468 135.879C50.6514 136.186 51.939 136.128 52.9729 135.725C53.9189 135.367 54.5288 134.742 54.6818 133.981C54.8532 133.232 54.5603 132.397 53.8805 131.638C53.1218 130.796 51.9671 130.16 50.6625 129.853C49.3579 129.545 48.0703 129.603 47.0363 130.007C46.4278 130.279 45.9421 130.612 45.6474 131.027Z" fill="black"/>
<path d="M58.5148 121.478C58.5148 121.478 60.7956 117.919 68.8249 120.05C76.8541 122.181 79.6805 118.52 79.6805 118.52L81.1386 111.971C81.2284 111.571 80.7855 111.255 80.4374 111.47C78.5771 112.599 74.2184 114.619 69.6754 112.712C64.4887 110.536 60.3741 113.112 60.1817 113.93L55.7415 134.023L58.5148 121.478Z" fill="white"/>
<path d="M80.4597 118.92L80.3567 119.065C80.2409 119.228 77.1173 123.111 68.6501 120.857C62.0079 119.087 59.6929 121.365 59.2827 121.863L56.558 134.222L54.9432 133.833L59.3818 113.744C59.5355 112.98 60.5979 112.347 61.2166 112.025C62.1632 111.554 65.609 110.112 69.9957 111.963C74.2588 113.753 78.4225 111.731 80.0097 110.791C80.4461 110.529 81.0137 110.552 81.438 110.855C81.8622 111.159 82.0694 111.689 81.965 112.188L80.4597 118.92ZM59.821 119.463C61.4932 118.638 64.3966 118.037 69.0459 119.283C75.6383 121.045 78.3845 118.748 78.9402 118.162L80.1707 112.598C78.0236 113.74 73.8003 115.336 69.3823 113.49C64.7855 111.544 61.2116 113.714 60.982 114.232L59.821 119.463Z" fill="black"/>
<path d="M75.356 159.363H73.5015V166.895H75.356V159.363Z" fill="black"/>
<path d="M78.1895 162.214H70.6572V164.069H78.1895V162.214Z" fill="black"/>
<path d="M189.767 119.742C191.798 119.742 193.445 118.095 193.445 116.064C193.445 114.032 191.798 112.386 189.767 112.386C187.736 112.386 186.089 114.032 186.089 116.064C186.089 118.095 187.736 119.742 189.767 119.742Z" fill="white"/>
<path d="M189.771 120.678C187.234 120.678 185.154 118.598 185.154 116.062C185.154 113.525 187.234 111.445 189.771 111.445C192.307 111.445 194.387 113.525 194.387 116.062C194.387 118.598 192.307 120.678 189.771 120.678ZM189.771 113.322C188.249 113.322 187.031 114.565 187.031 116.087C187.031 117.609 188.274 118.827 189.771 118.827C191.293 118.827 192.536 117.584 192.536 116.087C192.51 114.54 191.293 113.322 189.771 113.322Z" fill="black"/>
<path d="M193.378 214.834L186.056 186.26C185.622 184.57 186.641 182.837 188.33 182.404L202.65 178.721C204.34 178.288 206.073 179.306 206.506 180.996L213.829 209.57C214.262 211.26 213.244 212.993 211.554 213.426L197.234 217.109C195.544 217.542 193.811 216.524 193.378 214.834Z" fill="white"/>
<path d="M196.455 218C195.761 218 195.068 217.805 194.44 217.437C193.53 216.895 192.88 216.029 192.62 215.011L185.298 186.436C184.756 184.313 186.034 182.168 188.157 181.605L202.477 177.922C204.6 177.381 206.745 178.659 207.308 180.782L214.63 209.356C215.172 211.479 213.894 213.646 211.771 214.187L197.451 217.87C197.104 217.957 196.779 218 196.455 218ZM203.452 179.417C203.257 179.417 203.062 179.439 202.867 179.482L188.547 183.165C187.291 183.49 186.511 184.79 186.836 186.046L194.158 214.621C194.31 215.227 194.7 215.747 195.241 216.072C195.783 216.397 196.433 216.484 197.039 216.332L211.359 212.649C212.616 212.324 213.396 211.025 213.071 209.768L205.748 181.193C205.488 180.132 204.513 179.417 203.452 179.417Z" fill="black"/>
<path d="M207.962 210.283L207.594 208.853L209.132 208.464L209.501 209.893L207.962 210.283ZM206.554 204.737L205.493 200.643L207.031 200.253L208.092 204.347L206.554 204.737ZM204.453 196.548L203.391 192.454L204.93 192.064L205.991 196.159L204.453 196.548ZM202.352 188.338L201.29 184.243L202.828 183.854L203.89 187.948L202.352 188.338Z" fill="black"/>
<path d="M197.501 212.995L197.133 211.565L198.671 211.175L199.039 212.605L197.501 212.995ZM196.093 207.449L195.031 203.355L196.57 202.965L197.631 207.059L196.093 207.449ZM193.992 199.239L192.93 195.144L194.468 194.754L195.53 198.849L193.992 199.239ZM191.89 191.05L190.829 186.955L192.367 186.565L193.428 190.66L191.89 191.05Z" fill="black"/>
<path d="M130.926 135.758C130.151 135.758 129.376 135.437 128.842 134.823L126.116 131.75C125.929 131.536 125.662 131.456 125.395 131.483L121.334 131.991C120.265 132.124 119.25 131.643 118.662 130.762C118.074 129.88 118.048 128.731 118.582 127.823L120.693 124.269C120.826 124.029 120.853 123.735 120.719 123.494L118.983 119.78C118.528 118.819 118.662 117.697 119.33 116.868C119.998 116.04 121.067 115.666 122.109 115.88L126.116 116.761C126.384 116.815 126.651 116.735 126.864 116.548L129.857 113.742C130.632 113.021 131.754 112.807 132.742 113.181C133.731 113.555 134.426 114.464 134.533 115.506L134.933 119.593C134.96 119.861 135.12 120.101 135.361 120.235L138.941 122.212C139.876 122.719 140.41 123.708 140.384 124.777C140.33 125.845 139.689 126.754 138.727 127.181L134.96 128.811C134.72 128.918 134.533 129.132 134.479 129.399L133.704 133.433C133.491 134.475 132.742 135.304 131.7 135.597C131.433 135.731 131.166 135.758 130.926 135.758ZM125.529 129.506C126.33 129.506 127.078 129.853 127.613 130.441L130.338 133.513C130.632 133.861 131.032 133.807 131.166 133.754C131.326 133.7 131.674 133.567 131.754 133.113L132.529 129.078C132.716 128.17 133.304 127.422 134.158 127.048L137.926 125.418C138.353 125.231 138.407 124.857 138.407 124.697C138.407 124.536 138.38 124.162 137.979 123.922L134.399 121.945C133.597 121.49 133.063 120.689 132.983 119.78L132.582 115.693C132.529 115.238 132.208 115.051 132.048 114.998C131.887 114.945 131.54 114.838 131.193 115.158L128.2 117.964C127.532 118.578 126.597 118.845 125.716 118.632L121.708 117.75C121.254 117.643 120.987 117.91 120.88 118.044C120.773 118.177 120.586 118.498 120.773 118.899L122.509 122.613C122.883 123.441 122.857 124.403 122.376 125.204L120.292 128.731C120.051 129.132 120.238 129.479 120.319 129.613C120.399 129.746 120.639 130.04 121.093 129.987L125.155 129.479C125.288 129.533 125.422 129.506 125.529 129.506Z" fill="white"/>
</svg>
