<svg width="16" height="16" viewBox="0 0 16 16" fill="none" xmlns="http://www.w3.org/2000/svg">
<g opacity="0.7">
<path d="M12.7255 0.775772L12.7247 1.4218L12.7271 0.775772C13.6027 0.778266 14.3285 1.4351 14.395 2.28234L14.4 2.40456V12.0692C14.4 12.2721 14.3285 12.4666 14.2005 12.6213L14.1331 12.6953L11.6637 15.069C11.5249 15.2021 11.3478 15.2852 11.1599 15.3101L11.0451 15.3168H3.27203C2.39736 15.3143 1.67151 14.6575 1.60499 13.8102L1.60001 13.688V2.4029C1.60167 1.53986 2.28927 0.84395 3.14981 0.780761L3.27452 0.775772H12.7255ZM12.802 2.02958L12.7238 2.02293H3.27619C3.06001 2.02293 2.88874 2.16427 2.85298 2.33804L2.84633 2.40456V13.6855C2.84633 13.8684 2.9935 14.0289 3.19554 14.063L3.27369 14.0696L10.9038 14.0688L13.1528 11.9062V2.40705C13.1498 2.32582 13.1215 2.24757 13.0718 2.18319C13.0222 2.11881 12.9538 2.07151 12.876 2.04787L12.802 2.02958Z" fill="black"/>
<path d="M9.90273 14.9161C9.74175 14.9161 9.58737 14.8521 9.47355 14.7383C9.35972 14.6245 9.29578 14.4701 9.29578 14.3091V12.0376C9.29622 11.6992 9.43079 11.3747 9.67002 11.1354C9.90924 10.896 10.2336 10.7612 10.572 10.7605H13.7049C13.866 10.7605 14.0205 10.8245 14.1344 10.9384C14.2483 11.0523 14.3123 11.2068 14.3123 11.3679C14.3123 11.529 14.2483 11.6835 14.1344 11.7974C14.0205 11.9113 13.866 11.9753 13.7049 11.9753H10.572C10.5638 11.9753 10.5557 11.9769 10.5482 11.98C10.5406 11.9831 10.5337 11.9877 10.5279 11.9935C10.5222 11.9993 10.5176 12.0062 10.5144 12.0138C10.5113 12.0213 10.5097 12.0294 10.5097 12.0376V14.3091C10.5097 14.4701 10.4457 14.6245 10.3319 14.7383C10.2181 14.8521 10.0637 14.9161 9.90273 14.9161Z" fill="black"/>
<path d="M4.82681 6.98246H8.79027C9.19546 6.98246 9.39806 7.18505 9.39806 7.59024C9.39806 7.99543 9.19546 8.19802 8.79027 8.19802H4.82681C4.42162 8.19802 4.21902 7.99543 4.21902 7.59024C4.21902 7.18505 4.42162 6.98246 4.82681 6.98246Z" fill="black"/>
<path d="M4.72955 4.48316H10.765C11.1701 4.48316 11.3727 4.68576 11.3727 5.09094C11.3727 5.49613 11.1701 5.69873 10.765 5.69873H4.72955C4.32436 5.69873 4.12177 5.49613 4.12177 5.09094C4.12177 4.68576 4.32436 4.48316 4.72955 4.48316Z" fill="black"/>
<path d="M4.72955 9.46929H6.82228C7.22747 9.46929 7.43006 9.67189 7.43006 10.0771C7.43006 10.4823 7.22747 10.6849 6.82228 10.6849H4.72955C4.32436 10.6849 4.12177 10.4823 4.12177 10.0771C4.12177 9.67189 4.32436 9.46929 4.72955 9.46929Z" fill="black"/>
</g>
</svg>
