<svg width="87" height="16" viewBox="0 0 87 16" fill="none" xmlns="http://www.w3.org/2000/svg">
<path d="M82.9727 6.74403L85.3836 9.15495L82.9727 11.5659L83.7167 12.3099L86.8717 9.15495L83.7167 5.99997L82.9727 6.74403Z" fill="#124EEB"/>
<path d="M86 8.599H56V9.73477H86V8.599Z" fill="#124EEB"/>
<path d="M0.195859 4.432H1.75586L3.90386 11.212H3.92786L6.12386 4.432H7.64786L4.71986 13H3.05186L0.195859 4.432ZM8.46498 4.432H9.83298V5.728H8.46498V4.432ZM8.46498 6.796H9.83298V13H8.46498V6.796ZM15.5835 9.352C15.5675 9.136 15.5195 8.928 15.4395 8.728C15.3675 8.528 15.2635 8.356 15.1275 8.212C14.9995 8.06 14.8395 7.94 14.6475 7.852C14.4635 7.756 14.2555 7.708 14.0235 7.708C13.7835 7.708 13.5635 7.752 13.3635 7.84C13.1715 7.92 13.0035 8.036 12.8595 8.188C12.7235 8.332 12.6115 8.504 12.5235 8.704C12.4435 8.904 12.3995 9.12 12.3915 9.352H15.5835ZM12.3915 10.252C12.3915 10.492 12.4235 10.724 12.4875 10.948C12.5595 11.172 12.6635 11.368 12.7995 11.536C12.9355 11.704 13.1075 11.84 13.3155 11.944C13.5235 12.04 13.7715 12.088 14.0595 12.088C14.4595 12.088 14.7795 12.004 15.0195 11.836C15.2675 11.66 15.4515 11.4 15.5715 11.056H16.8675C16.7955 11.392 16.6715 11.692 16.4955 11.956C16.3195 12.22 16.1075 12.444 15.8595 12.628C15.6115 12.804 15.3315 12.936 15.0195 13.024C14.7155 13.12 14.3955 13.168 14.0595 13.168C13.5715 13.168 13.1395 13.088 12.7635 12.928C12.3875 12.768 12.0675 12.544 11.8035 12.256C11.5475 11.968 11.3515 11.624 11.2155 11.224C11.0875 10.824 11.0235 10.384 11.0235 9.904C11.0235 9.464 11.0915 9.048 11.2275 8.656C11.3715 8.256 11.5715 7.908 11.8275 7.612C12.0915 7.308 12.4075 7.068 12.7755 6.892C13.1435 6.716 13.5595 6.628 14.0235 6.628C14.5115 6.628 14.9475 6.732 15.3315 6.94C15.7235 7.14 16.0475 7.408 16.3035 7.744C16.5595 8.08 16.7435 8.468 16.8555 8.908C16.9755 9.34 17.0075 9.788 16.9515 10.252H12.3915ZM17.4275 6.796H18.8795L20.0915 11.428H20.1155L21.2795 6.796H22.6595L23.7755 11.428H23.7995L25.0595 6.796H26.4515L24.5075 13H23.1035L21.9515 8.392H21.9275L20.7875 13H19.3475L17.4275 6.796ZM33.1552 4.432H34.7512L38.0512 13H36.4432L35.6392 10.732H32.2192L31.4152 13H29.8672L33.1552 4.432ZM32.6272 9.592H35.2432L33.9592 5.908H33.9232L32.6272 9.592ZM38.7111 4.432H40.0791V13H38.7111V4.432ZM41.6056 4.432H42.9736V13H41.6056V4.432Z" fill="#124EEB"/>
</svg>
