<?xml version="1.0" standalone="no"?><!DOCTYPE svg PUBLIC "-//W3C//DTD SVG 1.1//EN" "http://www.w3.org/Graphics/SVG/1.1/DTD/svg11.dtd"><svg t="1619410730832" class="icon" viewBox="0 0 1024 1024" version="1.1" xmlns="http://www.w3.org/2000/svg" p-id="1178" xmlns:xlink="http://www.w3.org/1999/xlink" width="200" height="200"><defs><style type="text/css"></style></defs><path d="M912.205085 449.388089L182.415592 9.695957a69.292355 69.292355 0 0 0-70.641975 0A71.352302 71.352302 0 0 0 76.470388 73.021569v878.247741a72.701922 72.701922 0 0 0 35.303229 63.325611 63.929389 63.929389 0 0 0 35.303229 9.376311 79.556573 79.556573 0 0 0 35.30323-9.376311l729.789493-439.692131a71.316785 71.316785 0 0 0 35.303229-63.325612 79.556573 79.556573 0 0 0-35.267713-62.189089zM152.972557 941.857483l-3.551633-858.323081 714.481956 430.315821z" p-id="1179" fill="#cdcdcd"></path></svg>