<svg width="56" height="56" viewBox="0 0 56 56" fill="none" xmlns="http://www.w3.org/2000/svg">
<path d="M28 56C43.464 56 56 43.464 56 28C56 12.536 43.464 0 28 0C12.536 0 0 12.536 0 28C0 43.464 12.536 56 28 56Z" fill="white"/>
<path d="M55.5 28C55.5 43.1878 43.1878 55.5 28 55.5C12.8122 55.5 0.5 43.1878 0.5 28C0.5 12.8122 12.8122 0.5 28 0.5C43.1878 0.5 55.5 12.8122 55.5 28Z" stroke="black" strokeOpacity="0.1"/>
<path d="M27.9978 10.1819V23.352L39.4473 28.3261L27.9978 10.1819Z" fill="black" fill-opacity="0.602"/>
<path d="M27.9969 10.1819L16.5459 28.3261L27.9969 23.352V10.1819Z" fill="black"/>
<path d="M27.9978 36.861V45.8099L39.455 30.3992L27.9978 36.861Z" fill="black" fill-opacity="0.602"/>
<path d="M27.9969 45.8099V36.8595L16.5459 30.3992L27.9969 45.8099Z" fill="black"/>
<path d="M27.9978 34.7899L39.4473 28.3266L27.9978 23.3555V34.7899Z" fill="black" fill-opacity="0.2"/>
<path d="M16.5459 28.3266L27.9969 34.7899V23.3555L16.5459 28.3266Z" fill="black" fill-opacity="0.602"/>
</svg>
