<svg width="128" height="128" viewBox="0 0 128 128" fill="none" xmlns="http://www.w3.org/2000/svg">
<path fill-rule="evenodd" clip-rule="evenodd" d="M64 126C98.2417 126 126 98.2417 126 64C126 29.7583 98.2417 2 64 2C29.7583 2 2 29.7583 2 64C2 98.2417 29.7583 126 64 126Z" fill="#B1ECFF"/>
<mask id="mask0" mask-type="alpha" maskUnits="userSpaceOnUse" x="2" y="2" width="124" height="124">
<path fill-rule="evenodd" clip-rule="evenodd" d="M64 126C98.2417 126 126 98.2417 126 64C126 29.7583 98.2417 2 64 2C29.7583 2 2 29.7583 2 64C2 98.2417 29.7583 126 64 126Z" fill="#B1ECFF"/>
</mask>
<g mask="url(#mask0)">
<rect x="3" y="92" width="122" height="39" fill="#1253FC"/>
</g>
<path d="M62.6802 119V114.32H53.4102V110.57H61.3302V105.89H53.4102V102.32H62.6802V97.64H48.1602V119H62.6802Z" fill="white"/>
<path d="M81.9221 112.22H76.5821C76.2521 113.42 75.5921 114.5 73.8521 114.5C72.8921 114.5 72.1721 114.11 71.7821 113.6C71.3021 112.97 70.9721 112.22 70.9721 108.32C70.9721 104.42 71.3021 103.67 71.7821 103.04C72.1721 102.53 72.8921 102.14 73.8521 102.14C75.5921 102.14 76.2521 103.22 76.5821 104.42H81.9221C81.1421 99.71 77.8721 97.46 73.8221 97.46C71.3321 97.46 69.4421 98.3 67.8821 99.86C65.6321 102.11 65.7221 105.11 65.7221 108.32C65.7221 111.53 65.6321 114.53 67.8821 116.78C69.4421 118.34 71.3321 119.18 73.8221 119.18C77.8721 119.18 81.1421 116.93 81.9221 112.22Z" fill="white"/>
<path fill-rule="evenodd" clip-rule="evenodd" d="M70.5299 35.8592C70.5299 26.1271 65.8708 17.7585 62.326 15.0351C62.3113 15.0257 62.0539 14.8779 62.0759 15.2689C62.0759 15.2726 62.0723 15.2745 62.0723 15.2801C61.7781 34.0692 52.3423 39.1607 47.1556 46.0216C35.1844 61.8516 46.3172 79.2079 57.6541 82.4158C63.9973 84.2096 56.1887 79.2397 55.183 68.7406C53.9677 56.0512 70.5299 46.3639 70.5299 35.8592Z" fill="#1253FC"/>
<path fill-rule="evenodd" clip-rule="evenodd" d="M76.7488 42.2557C76.6716 42.2052 76.5612 42.1716 76.4859 42.2913C76.2781 44.6575 73.7427 49.7153 70.5306 54.3616C59.6332 70.1186 65.8422 77.7165 69.3337 81.7961C71.3617 84.1641 69.3337 81.7961 74.4009 79.3757C74.7999 79.1849 84.2889 74.1121 85.3167 62.5543C86.3114 51.3613 79.2585 44.3058 76.7488 42.2557Z" fill="#00ACE4"/>
</svg>
