<svg width="56" height="56" viewBox="0 0 56 56" fill="none" xmlns="http://www.w3.org/2000/svg">
<path d="M28 56C43.464 56 56 43.464 56 28C56 12.536 43.464 0 28 0C12.536 0 0 12.536 0 28C0 43.464 12.536 56 28 56Z" fill="#26A17B"/>
<path d="M28 48C39.0457 48 48 39.0457 48 28C48 16.9543 39.0457 8 28 8C16.9543 8 8 16.9543 8 28C8 39.0457 16.9543 48 28 48Z" fill="#26A17B"/>
<path fill-rule="evenodd" clip-rule="evenodd" d="M30.4025 29.7289V29.7264C30.265 29.7364 29.5563 29.7789 27.975 29.7789C26.7125 29.7789 25.8238 29.7414 25.5113 29.7264V29.7302C20.6512 29.5164 17.0237 28.6702 17.0237 27.6577C17.0237 26.6464 20.6512 25.8002 25.5113 25.5827V28.8877C25.8288 28.9102 26.7388 28.9639 27.9963 28.9639C29.505 28.9639 30.2613 28.9014 30.4025 28.8889V25.5852C35.2525 25.8014 38.8713 26.6477 38.8713 27.6577C38.8713 28.6702 35.2525 29.5139 30.4025 29.7289ZM30.4025 25.2414V22.2839H37.17V17.7739H18.7438V22.2839H25.5113V25.2402C20.0113 25.4927 15.875 26.5827 15.875 27.8877C15.875 29.1927 20.0113 30.2814 25.5113 30.5352V40.0127H30.4025V30.5327C35.8938 30.2802 40.02 29.1914 40.02 27.8877C40.02 26.5839 35.8938 25.4952 30.4025 25.2414Z" fill="white"/>
</svg>
