<svg width="56" height="56" viewBox="0 0 56 56" fill="none" xmlns="http://www.w3.org/2000/svg">
<path d="M28 56C43.4639 56 56 43.4639 56 28C56 12.536 43.4639 0 28 0C12.536 0 0 12.536 0 28C0 43.4639 12.536 56 28 56Z" fill="#627EEA"/>
<path d="M28.0586 7V22.5225L41.1784 28.3851L28.0586 7Z" fill="white" fill-opacity="0.602"/>
<path d="M28.059 7L14.9375 28.3851L28.059 22.5225V7Z" fill="white"/>
<path d="M28.0586 38.4441V48.9913L41.1871 30.8281L28.0586 38.4441Z" fill="white" fill-opacity="0.602"/>
<path d="M28.059 48.9913V38.4424L14.9375 30.8281L28.059 48.9913Z" fill="white"/>
<path d="M28.0586 36.0032L41.1784 28.3854L28.0586 22.5264V36.0032Z" fill="white" fill-opacity="0.2"/>
<path d="M14.9375 28.3854L28.059 36.0032V22.5264L14.9375 28.3854Z" fill="white" fill-opacity="0.602"/>
</svg>
