<svg width="56" height="56" viewBox="0 0 56 56" fill="none" xmlns="http://www.w3.org/2000/svg">
<path d="M28 56C43.464 56 56 43.464 56 28C56 12.536 43.464 0 28 0C12.536 0 0 12.536 0 28C0 43.464 12.536 56 28 56Z" fill="#F3BA2F"/>
<path d="M21.3972 25.2868L28 18.684L34.6062 25.2902L38.4482 21.4482L28 11L17.5552 21.4448L21.3972 25.2868ZM11 28L14.842 24.158L18.684 28L14.842 31.842L11 28ZM21.3972 30.7132L28 37.316L34.6062 30.7098L38.4482 34.5501L28 45L17.5552 34.5552L17.5501 34.5501L21.3972 30.7132ZM37.316 28L41.158 24.158L45 28L41.158 31.842L37.316 28ZM31.8964 27.9966H31.8998V28L28 31.8998L24.1053 28.0068L24.0985 28L24.1053 27.9949L24.787 27.3115L25.1185 26.98L28 24.1002L31.8981 27.9983L31.8964 27.9966Z" fill="white"/>
</svg>
