<svg width="32" height="29" viewBox="0 0 32 29" fill="none" xmlns="http://www.w3.org/2000/svg">
<path fill-rule="evenodd" clip-rule="evenodd" d="M9.16968 26.2128L13.3301 27.3192V25.8724L13.6697 25.532H16.047V27.2341V28.4256H13.4999L10.3584 27.0639L9.16968 26.2128Z" fill="#CDBDB2"/>
<path fill-rule="evenodd" clip-rule="evenodd" d="M22.7546 26.2128L18.6792 27.3192V25.8724L18.3395 25.532H15.9622V27.2341V28.4256H18.5094L21.6509 27.0639L22.7546 26.2128Z" fill="#CDBDB2"/>
<path fill-rule="evenodd" clip-rule="evenodd" d="M13.6697 23.064L13.3301 25.8725L13.7546 25.532H18.1697L18.6791 25.8725L18.3395 23.064L17.6603 22.6384L14.264 22.7235L13.6697 23.064Z" fill="#393939"/>
<path fill-rule="evenodd" clip-rule="evenodd" d="M11.3779 4.08521L13.4157 8.85116L14.3496 22.7235H17.6609L18.6798 8.85116L20.5477 4.08521H11.3779Z" fill="#F89C35"/>
<path fill-rule="evenodd" clip-rule="evenodd" d="M2.46256 14.5532L0.0852051 21.4468L6.0286 21.1064H9.84935V18.1277L9.67954 12L8.83049 12.6809L2.46256 14.5532Z" fill="#F89D35"/>
<path fill-rule="evenodd" clip-rule="evenodd" d="M6.96265 15.3193L13.9249 15.4895L13.1608 19.064L9.84944 18.213L6.96265 15.3193Z" fill="#D87C30"/>
<path fill-rule="evenodd" clip-rule="evenodd" d="M6.96265 15.4043L9.84944 18.1277V20.8511L6.96265 15.4043Z" fill="#EA8D3A"/>
<path fill-rule="evenodd" clip-rule="evenodd" d="M9.84937 18.2129L13.2456 19.064L14.3494 22.7235L13.5852 23.1491L9.84937 20.9363V18.2129Z" fill="#F89D35"/>
<path fill-rule="evenodd" clip-rule="evenodd" d="M9.84892 20.9363L9.16968 26.2129L13.6697 23.0639L9.84892 20.9363Z" fill="#EB8F35"/>
<path fill-rule="evenodd" clip-rule="evenodd" d="M13.925 15.4895L14.3495 22.7235L13.0759 19.0214L13.925 15.4895Z" fill="#EA8E3A"/>
<path fill-rule="evenodd" clip-rule="evenodd" d="M5.9436 21.0214L9.84926 20.9363L9.17002 26.2129L5.9436 21.0214Z" fill="#D87C30"/>
<path fill-rule="evenodd" clip-rule="evenodd" d="M1.95313 28.5108L9.17011 26.213L5.9437 21.0215L0.0852051 21.447L1.95313 28.5108Z" fill="#EB8F35"/>
<path fill-rule="evenodd" clip-rule="evenodd" d="M13.4155 8.85107L9.76453 11.9149L6.96265 15.3192L13.9249 15.5745L13.4155 8.85107Z" fill="#E8821E"/>
<path fill-rule="evenodd" clip-rule="evenodd" d="M9.16968 26.2129L13.6697 23.064L13.3301 25.7874V27.3193L10.2735 26.7235L9.16968 26.2129Z" fill="#DFCEC3"/>
<path fill-rule="evenodd" clip-rule="evenodd" d="M22.7546 26.2129L18.3395 23.064L18.6792 25.7874V27.3193L21.7358 26.7235L22.7546 26.2129Z" fill="#DFCEC3"/>
<path fill-rule="evenodd" clip-rule="evenodd" d="M12.0568 17.0215L12.9907 18.9789L9.6794 18.1279L12.0568 17.0215Z" fill="#393939"/>
<path fill-rule="evenodd" clip-rule="evenodd" d="M1.86768 0.0852051L13.4148 8.85116L11.462 4.0852L1.86768 0.0852051Z" fill="#E88F35"/>
<path fill-rule="evenodd" clip-rule="evenodd" d="M1.86863 0.0852051L0.340332 4.76606L1.18939 9.87244L0.595049 10.2129L1.44411 10.9788L0.76486 11.5746L1.69882 12.4256L1.10448 12.9363L2.46297 14.6384L8.8309 12.681C8.8309 12.681 13.5007 8.93627 13.4158 8.85116C13.3309 8.76606 1.86863 0.0852051 1.86863 0.0852051Z" fill="#8E5A30"/>
<path fill-rule="evenodd" clip-rule="evenodd" d="M29.4622 14.5532L31.8396 21.4468L25.8962 21.1064H22.0754V18.1277L22.2453 12L23.0943 12.6809L29.4622 14.5532Z" fill="#F89D35"/>
<path fill-rule="evenodd" clip-rule="evenodd" d="M24.9622 15.3193L17.9999 15.4895L18.764 19.064L22.0754 18.213L24.9622 15.3193Z" fill="#D87C30"/>
<path fill-rule="evenodd" clip-rule="evenodd" d="M24.9622 15.4043L22.0754 18.1277V20.8511L24.9622 15.4043Z" fill="#EA8D3A"/>
<path fill-rule="evenodd" clip-rule="evenodd" d="M22.0757 18.2129L18.6795 19.064L17.5757 22.7235L18.3398 23.1491L22.0757 20.9363V18.2129Z" fill="#F89D35"/>
<path fill-rule="evenodd" clip-rule="evenodd" d="M22.0759 20.9363L22.7551 26.2129L18.34 23.149L22.0759 20.9363Z" fill="#EB8F35"/>
<path fill-rule="evenodd" clip-rule="evenodd" d="M18.0001 15.4895L17.5755 22.7235L18.8491 19.0214L18.0001 15.4895Z" fill="#EA8E3A"/>
<path fill-rule="evenodd" clip-rule="evenodd" d="M25.9814 21.0214L22.0758 20.9363L22.755 26.2129L25.9814 21.0214Z" fill="#D87C30"/>
<path fill-rule="evenodd" clip-rule="evenodd" d="M29.9717 28.5108L22.7547 26.213L25.9811 21.0215L31.8396 21.447L29.9717 28.5108Z" fill="#EB8F35"/>
<path fill-rule="evenodd" clip-rule="evenodd" d="M18.5093 8.85107L22.1603 11.9149L24.9622 15.3192L17.9999 15.5745L18.5093 8.85107Z" fill="#E8821E"/>
<path fill-rule="evenodd" clip-rule="evenodd" d="M19.868 17.0215L18.9341 18.9789L22.2454 18.1279L19.868 17.0215Z" fill="#393939"/>
<path fill-rule="evenodd" clip-rule="evenodd" d="M30.0571 0.0852051L18.51 8.85116L20.4628 4.0852L30.0571 0.0852051Z" fill="#E88F35"/>
<path fill-rule="evenodd" clip-rule="evenodd" d="M30.0562 0.0852051L31.5845 4.76606L30.7354 9.87244L31.3298 10.2129L30.4807 10.9788L31.1599 11.5746L30.226 12.4256L30.8203 12.9363L29.4618 14.6384L23.0939 12.681C23.0939 12.681 18.4241 8.93627 18.509 8.85116C18.5939 8.76606 30.0562 0.0852051 30.0562 0.0852051Z" fill="#8E5A30"/>
</svg>
