<svg xmlns="http://www.w3.org/2000/svg" fill="none" viewBox="0 0 135 44">
  <path fill="currentColor" d="M32.067 12.067V22.28h3.453V12.068h2.383v-2.3H35.52v-.75c0-.516.097-.879.292-1.089.21-.225.551-.338 1.021-.338.438 0 .86.024 1.265.072V5.097a311 311 0 00-.9-.049A8.863 8.863 0 0036.274 5c-1.41 0-2.464.355-3.161 1.065-.697.71-1.046 1.621-1.046 2.735v.968H30v2.3h2.067zM39.265 13.616c.05-.807.252-1.476.608-2.009.357-.532.811-.96 1.362-1.282a5.744 5.744 0 011.848-.678 10.23 10.23 0 012.092-.218c.632 0 1.272.048 1.92.145.65.08 1.241.25 1.776.508a3.45 3.45 0 011.313 1.09c.34.451.511 1.056.511 1.815v6.51c0 .565.032 1.105.097 1.622.065.516.179.903.34 1.162h-3.501a7.857 7.857 0 01-.17-.581 8.317 8.317 0 01-.073-.63c-.551.565-1.2.96-1.946 1.186a7.843 7.843 0 01-2.286.34 6.2 6.2 0 01-1.678-.219 3.85 3.85 0 01-1.361-.677 3.274 3.274 0 01-.924-1.162c-.211-.468-.317-1.025-.317-1.67 0-.71.122-1.29.365-1.743.26-.468.584-.839.973-1.113.405-.274.86-.476 1.362-.605a13.429 13.429 0 011.556-.339c.519-.08 1.03-.145 1.532-.193a9.254 9.254 0 001.338-.218c.389-.097.697-.234.924-.412.227-.193.332-.468.316-.823 0-.37-.065-.661-.195-.87a1.14 1.14 0 00-.486-.51 1.59 1.59 0 00-.705-.241 4.649 4.649 0 00-.852-.073c-.68 0-1.215.146-1.604.436-.39.29-.617.774-.681 1.452h-3.454zm7.977 2.541c-.146.13-.332.234-.56.315a6.46 6.46 0 01-.705.17 9.894 9.894 0 01-.778.12c-.276.033-.551.073-.827.121-.26.049-.519.113-.778.194a2.3 2.3 0 00-.657.339c-.178.129-.324.298-.437.508-.114.21-.17.476-.17.799 0 .306.056.565.17.774.113.21.267.38.462.509.194.112.421.193.68.241.26.049.528.073.803.073.681 0 1.208-.113 1.58-.339.374-.226.65-.492.828-.798.178-.323.283-.646.316-.968.049-.323.073-.581.073-.775v-1.283zM53.375 9.768V22.28h3.453v-6.558c0-1.275.211-2.187.633-2.735.421-.565 1.102-.847 2.043-.847.826 0 1.402.258 1.726.774.324.5.487 1.267.487 2.3v7.066h3.453v-7.696a9.34 9.34 0 00-.22-2.105c-.129-.646-.364-1.186-.704-1.622-.34-.452-.811-.799-1.41-1.04-.584-.259-1.338-.388-2.262-.388-.73 0-1.443.17-2.14.508-.698.323-1.265.847-1.703 1.574h-.073V9.768h-3.283zM73.651 19.328c-.535 0-.98-.113-1.337-.339a2.813 2.813 0 01-.876-.871 4.023 4.023 0 01-.462-1.186 7.666 7.666 0 01-.121-1.355c0-.469.048-.912.145-1.332.114-.435.284-.814.511-1.137.243-.339.535-.605.876-.799.356-.193.778-.29 1.264-.29.568 0 1.038.105 1.41.314.374.21.673.492.9.847.227.355.39.767.487 1.235.097.452.146.936.146 1.452 0 .452-.065.887-.195 1.307a3.257 3.257 0 01-.535 1.089c-.243.323-.551.58-.924.774-.373.194-.802.29-1.289.29zm6.226 2.154V9.768h-3.283v1.67h-.049c-.421-.726-.948-1.243-1.58-1.55-.617-.306-1.338-.459-2.165-.459-.875 0-1.654.17-2.334.508a4.963 4.963 0 00-1.678 1.38 6.11 6.11 0 00-1.046 1.984 7.9 7.9 0 00-.34 2.324c0 .855.097 1.67.291 2.444.211.759.535 1.428.973 2.01a4.78 4.78 0 001.678 1.354c.68.323 1.492.485 2.432.485.762 0 1.483-.154 2.164-.46a3.469 3.469 0 001.605-1.477h.049v1.646c.016.888-.203 1.622-.657 2.203-.438.58-1.143.87-2.116.87-.616 0-1.159-.128-1.629-.386-.47-.242-.786-.686-.948-1.332h-3.43c.05.71.244 1.315.585 1.816.356.516.794.935 1.313 1.258a5.94 5.94 0 001.75.702c.65.161 1.281.242 1.897.242 1.443 0 2.594-.194 3.454-.58.859-.388 1.515-.864 1.97-1.429a4.03 4.03 0 00.875-1.79c.146-.646.219-1.219.219-1.72zM86.207 7.832V5h-3.453v2.832h3.453zm-3.453 1.936V22.28h3.453V9.768h-3.453zM98.143 16.036c0 .517-.057 1.017-.17 1.5a3.973 3.973 0 01-.535 1.284c-.243.37-.551.67-.924.895-.357.21-.795.315-1.313.315-.503 0-.94-.105-1.314-.315a2.874 2.874 0 01-.924-.895 3.973 3.973 0 01-.535-1.283 6.552 6.552 0 01-.17-1.5c0-.533.057-1.041.17-1.525.114-.485.292-.912.535-1.283.244-.371.552-.662.924-.871.373-.226.811-.34 1.314-.34.518 0 .956.114 1.313.34.373.21.68.5.924.87.243.372.421.8.535 1.284.113.484.17.992.17 1.524zM88.927 5v17.28h3.282v-1.597h.05a3.143 3.143 0 001.653 1.477c.73.29 1.556.435 2.48.435.633 0 1.257-.129 1.873-.387a4.676 4.676 0 001.653-1.186c.503-.532.908-1.21 1.216-2.033.308-.839.462-1.831.462-2.977s-.154-2.13-.462-2.953c-.308-.839-.713-1.524-1.216-2.057a4.676 4.676 0 00-1.653-1.186 4.806 4.806 0 00-1.873-.387c-.778 0-1.532.153-2.261.46-.714.29-1.281.758-1.703 1.404h-.048V5h-3.453zM103.89 5v17.28h3.453V5h-3.453zM118.525 14.681h-5.617c.016-.242.065-.516.146-.823a2.82 2.82 0 01.462-.871c.227-.274.518-.5.875-.678.373-.193.835-.29 1.386-.29.843 0 1.467.226 1.873.677.421.452.713 1.114.875 1.985zm-5.617 2.178h9.07a8.788 8.788 0 00-.243-2.783 6.692 6.692 0 00-1.118-2.372 5.362 5.362 0 00-1.946-1.646c-.794-.42-1.726-.629-2.796-.629-.957 0-1.832.17-2.627.508a6.12 6.12 0 00-2.018 1.404 5.993 5.993 0 00-1.313 2.081 7.268 7.268 0 00-.463 2.614c0 .968.146 1.856.438 2.663.308.806.738 1.5 1.289 2.081a5.69 5.69 0 002.019 1.355c.794.307 1.686.46 2.675.46 1.426 0 2.642-.322 3.647-.968 1.005-.645 1.751-1.718 2.238-3.219h-3.04c-.114.387-.422.758-.924 1.113-.503.34-1.103.509-1.8.509-.973 0-1.718-.25-2.237-.75-.519-.5-.803-1.308-.851-2.42zM12 0h6v6h-6zM0 12h18v6H0z"/>
  <path fill="currentColor" d="M6 24V6h6v18zM82.737 33.146V41h.935v-.759h.022c.103.169.227.312.374.429.154.11.315.198.484.264.169.066.337.114.506.143.176.03.334.044.473.044.433 0 .81-.077 1.133-.231.33-.154.601-.363.814-.627a2.63 2.63 0 00.484-.946c.11-.36.165-.74.165-1.144 0-.403-.055-.785-.165-1.144a2.773 2.773 0 00-.495-.946 2.248 2.248 0 00-.814-.66c-.323-.161-.704-.242-1.144-.242a2.65 2.65 0 00-1.089.22c-.33.14-.572.367-.726.682h-.022v-2.937h-.935zm4.4 4.961c0 .279-.03.55-.088.814a2.154 2.154 0 01-.286.704 1.49 1.49 0 01-.528.495c-.213.125-.48.187-.803.187a1.78 1.78 0 01-.825-.176 1.712 1.712 0 01-.561-.484 2.068 2.068 0 01-.308-.682 3.492 3.492 0 01-.011-1.595c.066-.257.169-.484.308-.682.14-.205.319-.37.539-.495.22-.125.488-.187.803-.187.3 0 .561.059.781.176.227.117.41.275.55.473.147.198.253.425.319.682.073.25.11.506.11.77zm4.32 3.652a5.37 5.37 0 01-.33.704c-.102.19-.22.345-.352.462a1.05 1.05 0 01-.428.264 1.51 1.51 0 01-.54.088c-.11 0-.22-.007-.33-.022a1.558 1.558 0 01-.319-.077v-.858c.081.037.173.066.275.088.11.03.202.044.275.044.191 0 .349-.048.474-.143a.794.794 0 00.296-.385l.386-.957-2.255-5.654h1.056l1.66 4.653h.022l1.596-4.653h.99l-2.476 6.446zm7.528-5.236v-2.497h2.09c.227 0 .44.015.638.044.205.022.385.077.539.165a.938.938 0 01.363.374c.088.161.132.381.132.66 0 .418-.132.733-.396.946-.257.205-.682.308-1.276.308h-2.09zm-1.045-3.377V41h3.795c.389 0 .73-.062 1.023-.187.301-.132.55-.3.748-.506.205-.213.359-.455.462-.726.103-.271.154-.55.154-.836 0-.484-.128-.895-.385-1.232-.257-.337-.627-.557-1.111-.66v-.022c.374-.147.66-.37.858-.671a1.92 1.92 0 00.308-1.089c0-.396-.092-.73-.275-1.001a1.991 1.991 0 00-.649-.638 1.339 1.339 0 00-.429-.165 3.636 3.636 0 00-.528-.077 5.087 5.087 0 00-.583-.033c-.191-.007-.37-.011-.539-.011H97.94zm1.045 6.974v-2.717h2.387c.22 0 .433.022.638.066.205.037.385.106.539.209.161.095.29.227.385.396.095.169.143.381.143.638 0 .44-.132.785-.396 1.034-.257.25-.616.374-1.078.374h-2.618zm7.013-1.958c0-.345.044-.649.132-.913.096-.271.224-.499.385-.682.162-.183.349-.323.561-.418a1.725 1.725 0 011.375 0 1.6 1.6 0 01.572.418c.162.183.286.41.374.682.096.264.143.568.143.913 0 .345-.047.653-.143.924a1.91 1.91 0 01-.374.671 1.662 1.662 0 01-.572.407 1.725 1.725 0 01-1.375 0 1.709 1.709 0 01-.561-.407 2.082 2.082 0 01-.385-.671 2.99 2.99 0 01-.132-.924zm-.99 0c0 .418.059.807.176 1.166.118.36.294.675.528.946.235.264.525.473.869.627.345.147.741.22 1.188.22.455 0 .851-.073 1.188-.22.345-.154.635-.363.869-.627.235-.271.411-.587.528-.946.118-.36.176-.748.176-1.166 0-.418-.058-.807-.176-1.166a2.583 2.583 0 00-.528-.946 2.447 2.447 0 00-.869-.638c-.337-.154-.733-.231-1.188-.231-.447 0-.843.077-1.188.231a2.465 2.465 0 00-.869.638c-.234.264-.41.58-.528.946-.117.36-.176.748-.176 1.166zM116.341 41v-5.687h-.935v3.212c0 .257-.037.495-.11.715-.066.213-.169.4-.308.561-.14.161-.316.286-.528.374a1.867 1.867 0 01-.737.132c-.36 0-.642-.103-.847-.308-.206-.205-.308-.484-.308-.836v-3.85h-.935v3.74c0 .308.029.59.088.847.066.25.176.466.33.649.154.183.355.326.605.429.249.095.561.143.935.143.418 0 .781-.08 1.089-.242a1.95 1.95 0 00.759-.781h.022V41h.88zm1.404-5.687V41h.935v-3.212c0-.257.033-.491.099-.704.073-.22.18-.41.319-.572.139-.161.312-.286.517-.374.213-.088.462-.132.748-.132.359 0 .642.103.847.308.205.205.308.484.308.836V41h.935v-3.74c0-.308-.033-.587-.099-.836a1.546 1.546 0 00-.319-.66 1.54 1.54 0 00-.605-.429c-.249-.103-.561-.154-.935-.154-.843 0-1.459.345-1.848 1.034h-.022v-.902h-.88zm9.973 1.826h.968a2.18 2.18 0 00-.264-.869 1.9 1.9 0 00-.539-.616 2.07 2.07 0 00-.748-.352 3.225 3.225 0 00-.902-.121c-.447 0-.839.08-1.177.242-.337.154-.619.37-.847.649-.22.271-.385.594-.495.968-.11.367-.165.763-.165 1.188 0 .425.055.818.165 1.177.118.352.286.656.506.913.228.257.506.455.836.594.338.14.723.209 1.155.209.726 0 1.298-.19 1.716-.572.426-.381.69-.924.792-1.628h-.957c-.058.44-.22.781-.484 1.023-.256.242-.616.363-1.078.363a1.55 1.55 0 01-.759-.176 1.503 1.503 0 01-.517-.462 2.227 2.227 0 01-.297-.671 3.388 3.388 0 01-.088-.77c0-.286.03-.561.088-.825.059-.271.154-.51.286-.715.14-.205.323-.37.55-.495.228-.125.51-.187.847-.187.396 0 .712.099.946.297.235.198.389.477.462.836zm5.997.473h-3.267c.014-.22.062-.425.143-.616.08-.198.19-.37.33-.517.139-.147.304-.26.495-.341.198-.088.418-.132.66-.132.234 0 .447.044.638.132.198.08.366.194.506.341.146.14.26.308.341.506.088.198.139.407.154.627zm.902 1.584h-.924c-.081.374-.25.653-.506.836-.25.183-.572.275-.968.275-.308 0-.576-.051-.803-.154a1.594 1.594 0 01-.561-.407 1.661 1.661 0 01-.319-.594 2.286 2.286 0 01-.088-.715h4.257a4.427 4.427 0 00-.099-1.089 3.026 3.026 0 00-.418-1.056 2.374 2.374 0 00-.803-.792c-.33-.213-.748-.319-1.254-.319-.389 0-.748.073-1.078.22a2.592 2.592 0 00-.847.616 2.886 2.886 0 00-.55.935c-.132.36-.198.755-.198 1.188.014.433.077.832.187 1.199.117.367.289.682.517.946.227.264.506.47.836.616.337.147.733.22 1.188.22.645 0 1.18-.161 1.606-.484.425-.323.7-.803.825-1.441z"/>
</svg>