<svg width="123" height="25" viewBox="0 0 123 25" fill="none" xmlns="http://www.w3.org/2000/svg">
<path d="M40.631 11.8V7.792H44.159C44.495 7.792 44.815 7.824 45.119 7.888C45.439 7.936 45.719 8.032 45.959 8.176C46.199 8.32 46.391 8.52 46.535 8.776C46.679 9.032 46.751 9.36 46.751 9.76C46.751 10.48 46.535 11 46.103 11.32C45.671 11.64 45.119 11.8 44.447 11.8H40.631ZM36.863 4.864V22H45.167C45.935 22 46.679 21.904 47.399 21.712C48.135 21.52 48.783 21.224 49.343 20.824C49.919 20.424 50.375 19.912 50.711 19.288C51.047 18.648 51.215 17.896 51.215 17.032C51.215 15.96 50.951 15.048 50.423 14.296C49.911 13.528 49.127 12.992 48.071 12.688C48.839 12.32 49.415 11.848 49.799 11.272C50.199 10.696 50.399 9.976 50.399 9.112C50.399 8.312 50.263 7.64 49.991 7.096C49.735 6.552 49.367 6.12 48.887 5.8C48.407 5.464 47.831 5.224 47.159 5.08C46.487 4.936 45.743 4.864 44.927 4.864H36.863ZM40.631 19.072V14.368H44.735C45.551 14.368 46.207 14.56 46.703 14.944C47.199 15.312 47.447 15.936 47.447 16.816C47.447 17.264 47.367 17.632 47.207 17.92C47.063 18.208 46.863 18.44 46.607 18.616C46.351 18.776 46.055 18.896 45.719 18.976C45.383 19.04 45.031 19.072 44.663 19.072H40.631ZM56.4255 15.808C56.4255 15.312 56.4735 14.824 56.5695 14.344C56.6655 13.864 56.8255 13.44 57.0495 13.072C57.2895 12.704 57.6015 12.408 57.9855 12.184C58.3695 11.944 58.8495 11.824 59.4255 11.824C60.0015 11.824 60.4815 11.944 60.8655 12.184C61.2655 12.408 61.5775 12.704 61.8015 13.072C62.0415 13.44 62.2095 13.864 62.3055 14.344C62.4015 14.824 62.4495 15.312 62.4495 15.808C62.4495 16.304 62.4015 16.792 62.3055 17.272C62.2095 17.736 62.0415 18.16 61.8015 18.544C61.5775 18.912 61.2655 19.208 60.8655 19.432C60.4815 19.656 60.0015 19.768 59.4255 19.768C58.8495 19.768 58.3695 19.656 57.9855 19.432C57.6015 19.208 57.2895 18.912 57.0495 18.544C56.8255 18.16 56.6655 17.736 56.5695 17.272C56.4735 16.792 56.4255 16.304 56.4255 15.808ZM53.0175 15.808C53.0175 16.8 53.1695 17.696 53.4735 18.496C53.7775 19.296 54.2095 19.984 54.7695 20.56C55.3295 21.12 56.0015 21.552 56.7855 21.856C57.5695 22.16 58.4495 22.312 59.4255 22.312C60.4015 22.312 61.2815 22.16 62.0655 21.856C62.8655 21.552 63.5455 21.12 64.1055 20.56C64.6655 19.984 65.0975 19.296 65.4015 18.496C65.7055 17.696 65.8575 16.8 65.8575 15.808C65.8575 14.816 65.7055 13.92 65.4015 13.12C65.0975 12.304 64.6655 11.616 64.1055 11.056C63.5455 10.48 62.8655 10.04 62.0655 9.736C61.2815 9.416 60.4015 9.256 59.4255 9.256C58.4495 9.256 57.5695 9.416 56.7855 9.736C56.0015 10.04 55.3295 10.48 54.7695 11.056C54.2095 11.616 53.7775 12.304 53.4735 13.12C53.1695 13.92 53.0175 14.816 53.0175 15.808ZM79.7133 22V9.592H76.3053V16.096C76.3053 17.36 76.0973 18.272 75.6813 18.832C75.2653 19.376 74.5933 19.648 73.6653 19.648C72.8493 19.648 72.2813 19.4 71.9613 18.904C71.6413 18.392 71.4813 17.624 71.4813 16.6V9.592H68.0733V17.224C68.0733 17.992 68.1373 18.696 68.2653 19.336C68.4093 19.96 68.6493 20.496 68.9853 20.944C69.3213 21.376 69.7773 21.712 70.3533 21.952C70.9453 22.192 71.6973 22.312 72.6093 22.312C73.3293 22.312 74.0333 22.152 74.7213 21.832C75.4093 21.512 75.9693 20.992 76.4013 20.272H76.4733V22H79.7133ZM82.2999 9.592V22H85.7079V15.496C85.7079 14.232 85.9159 13.328 86.3319 12.784C86.7479 12.224 87.4199 11.944 88.3479 11.944C89.1639 11.944 89.7319 12.2 90.0519 12.712C90.3719 13.208 90.5319 13.968 90.5319 14.992V22H93.9399V14.368C93.9399 13.6 93.8679 12.904 93.7239 12.28C93.5959 11.64 93.3639 11.104 93.0279 10.672C92.6919 10.224 92.2279 9.88 91.6359 9.64C91.0599 9.384 90.3159 9.256 89.4039 9.256C88.6839 9.256 87.9799 9.424 87.2919 9.76C86.6039 10.08 86.0439 10.6 85.6119 11.32H85.5399V9.592H82.2999ZM104.974 13.96H108.31C108.262 13.16 108.07 12.472 107.734 11.896C107.398 11.304 106.958 10.816 106.414 10.432C105.886 10.032 105.278 9.736 104.59 9.544C103.918 9.352 103.214 9.256 102.478 9.256C101.47 9.256 100.574 9.424 99.7905 9.76C99.0065 10.096 98.3425 10.568 97.7985 11.176C97.2545 11.768 96.8385 12.48 96.5505 13.312C96.2785 14.128 96.1425 15.016 96.1425 15.976C96.1425 16.904 96.2945 17.76 96.5985 18.544C96.9025 19.312 97.3265 19.976 97.8705 20.536C98.4145 21.096 99.0705 21.536 99.8385 21.856C100.622 22.16 101.478 22.312 102.406 22.312C104.054 22.312 105.406 21.88 106.462 21.016C107.518 20.152 108.158 18.896 108.382 17.248H105.094C104.982 18.016 104.702 18.632 104.254 19.096C103.822 19.544 103.198 19.768 102.382 19.768C101.854 19.768 101.406 19.648 101.038 19.408C100.67 19.168 100.374 18.864 100.15 18.496C99.9425 18.112 99.7905 17.688 99.6945 17.224C99.5985 16.76 99.5505 16.304 99.5505 15.856C99.5505 15.392 99.5985 14.928 99.6945 14.464C99.7905 13.984 99.9505 13.552 100.174 13.168C100.414 12.768 100.718 12.448 101.086 12.208C101.454 11.952 101.91 11.824 102.454 11.824C103.91 11.824 104.75 12.536 104.974 13.96ZM118.66 14.464H113.116C113.132 14.224 113.18 13.952 113.26 13.648C113.356 13.344 113.508 13.056 113.716 12.784C113.94 12.512 114.228 12.288 114.58 12.112C114.948 11.92 115.404 11.824 115.948 11.824C116.78 11.824 117.396 12.048 117.796 12.496C118.212 12.944 118.5 13.6 118.66 14.464ZM113.116 16.624H122.068C122.132 15.664 122.052 14.744 121.828 13.864C121.604 12.984 121.236 12.2 120.724 11.512C120.228 10.824 119.588 10.28 118.804 9.88C118.02 9.464 117.1 9.256 116.044 9.256C115.1 9.256 114.236 9.424 113.452 9.76C112.684 10.096 112.02 10.56 111.46 11.152C110.9 11.728 110.468 12.416 110.164 13.216C109.86 14.016 109.708 14.88 109.708 15.808C109.708 16.768 109.852 17.648 110.14 18.448C110.444 19.248 110.868 19.936 111.412 20.512C111.956 21.088 112.62 21.536 113.404 21.856C114.188 22.16 115.068 22.312 116.044 22.312C117.452 22.312 118.652 21.992 119.644 21.352C120.636 20.712 121.372 19.648 121.852 18.16H118.852C118.74 18.544 118.436 18.912 117.94 19.264C117.444 19.6 116.852 19.768 116.164 19.768C115.204 19.768 114.468 19.52 113.956 19.024C113.444 18.528 113.164 17.728 113.116 16.624Z" fill="black"/>
<path d="M2 2H7M15 4L2 8.78947M15 16.2105L2 21M15 23H10" stroke="black" stroke-width="3" stroke-linecap="round" stroke-linejoin="round"/>
<path d="M15 10L2 15" stroke="black" stroke-width="3" stroke-linecap="round" stroke-linejoin="bevel"/>
</svg>
