<svg width="140" height="40" viewBox="0 0 140 40" fill="none" xmlns="http://www.w3.org/2000/svg">
<path d="M88.9596 33.012H90.0996C90.0356 32.556 89.8996 32.156 89.6916 31.812C89.4836 31.46 89.2236 31.168 88.9116 30.936C88.5996 30.704 88.2436 30.528 87.8436 30.408C87.4436 30.288 87.0196 30.228 86.5716 30.228C85.9156 30.228 85.3316 30.348 84.8196 30.588C84.3156 30.82 83.8916 31.14 83.5476 31.548C83.2116 31.956 82.9556 32.436 82.7796 32.988C82.6036 33.532 82.5156 34.116 82.5156 34.74C82.5156 35.364 82.5956 35.948 82.7556 36.492C82.9236 37.036 83.1716 37.508 83.4996 37.908C83.8276 38.308 84.2396 38.624 84.7356 38.856C85.2316 39.08 85.8116 39.192 86.4756 39.192C87.5716 39.192 88.4356 38.892 89.0676 38.292C89.6996 37.692 90.0716 36.852 90.1836 35.772H89.0436C89.0196 36.124 88.9476 36.452 88.8276 36.756C88.7076 37.06 88.5396 37.324 88.3236 37.548C88.1156 37.764 87.8636 37.936 87.5676 38.064C87.2796 38.184 86.9476 38.244 86.5716 38.244C86.0596 38.244 85.6196 38.148 85.2516 37.956C84.8836 37.764 84.5796 37.508 84.3396 37.188C84.1076 36.86 83.9356 36.48 83.8236 36.048C83.7116 35.608 83.6556 35.144 83.6556 34.656C83.6556 34.208 83.7116 33.776 83.8236 33.36C83.9356 32.944 84.1076 32.576 84.3396 32.256C84.5796 31.928 84.8796 31.668 85.2396 31.476C85.6076 31.284 86.0476 31.188 86.5596 31.188C87.1596 31.188 87.6756 31.34 88.1076 31.644C88.5476 31.948 88.8316 32.404 88.9596 33.012Z" fill="black"/>
<path d="M92.2918 35.904C92.2918 35.528 92.3398 35.196 92.4358 34.908C92.5398 34.612 92.6798 34.364 92.8558 34.164C93.0318 33.964 93.2358 33.812 93.4678 33.708C93.7078 33.604 93.9598 33.552 94.2238 33.552C94.4878 33.552 94.7358 33.604 94.9678 33.708C95.2078 33.812 95.4158 33.964 95.5918 34.164C95.7678 34.364 95.9038 34.612 95.9998 34.908C96.1038 35.196 96.1558 35.528 96.1558 35.904C96.1558 36.28 96.1038 36.616 95.9998 36.912C95.9038 37.2 95.7678 37.444 95.5918 37.644C95.4158 37.836 95.2078 37.984 94.9678 38.088C94.7358 38.192 94.4878 38.244 94.2238 38.244C93.9598 38.244 93.7078 38.192 93.4678 38.088C93.2358 37.984 93.0318 37.836 92.8558 37.644C92.6798 37.444 92.5398 37.2 92.4358 36.912C92.3398 36.616 92.2918 36.28 92.2918 35.904ZM91.2118 35.904C91.2118 36.36 91.2758 36.784 91.4038 37.176C91.5318 37.568 91.7238 37.912 91.9798 38.208C92.2358 38.496 92.5518 38.724 92.9278 38.892C93.3038 39.052 93.7358 39.132 94.2238 39.132C94.7198 39.132 95.1518 39.052 95.5198 38.892C95.8958 38.724 96.2118 38.496 96.4678 38.208C96.7238 37.912 96.9158 37.568 97.0438 37.176C97.1718 36.784 97.2358 36.36 97.2358 35.904C97.2358 35.448 97.1718 35.024 97.0438 34.632C96.9158 34.232 96.7238 33.888 96.4678 33.6C96.2118 33.304 95.8958 33.072 95.5198 32.904C95.1518 32.736 94.7198 32.652 94.2238 32.652C93.7358 32.652 93.3038 32.736 92.9278 32.904C92.5518 33.072 92.2358 33.304 91.9798 33.6C91.7238 33.888 91.5318 34.232 91.4038 34.632C91.2758 35.024 91.2118 35.448 91.2118 35.904Z" fill="black"/>
<path d="M98.6184 30.432V39H99.6384V30.432H98.6184Z" fill="black"/>
<path d="M101.399 30.432V39H102.419V30.432H101.399Z" fill="black"/>
<path d="M108.427 35.304H104.863C104.879 35.064 104.931 34.84 105.019 34.632C105.107 34.416 105.227 34.228 105.379 34.068C105.531 33.908 105.711 33.784 105.919 33.696C106.135 33.6 106.375 33.552 106.639 33.552C106.895 33.552 107.127 33.6 107.335 33.696C107.551 33.784 107.735 33.908 107.887 34.068C108.047 34.22 108.171 34.404 108.259 34.62C108.355 34.836 108.411 35.064 108.427 35.304ZM109.411 37.032H108.403C108.315 37.44 108.131 37.744 107.851 37.944C107.579 38.144 107.227 38.244 106.795 38.244C106.459 38.244 106.167 38.188 105.919 38.076C105.671 37.964 105.467 37.816 105.307 37.632C105.147 37.44 105.031 37.224 104.959 36.984C104.887 36.736 104.855 36.476 104.863 36.204H109.507C109.523 35.828 109.487 35.432 109.399 35.016C109.319 34.6 109.167 34.216 108.943 33.864C108.727 33.512 108.435 33.224 108.067 33C107.707 32.768 107.251 32.652 106.699 32.652C106.275 32.652 105.883 32.732 105.523 32.892C105.171 33.052 104.863 33.276 104.599 33.564C104.343 33.852 104.143 34.192 103.999 34.584C103.855 34.976 103.783 35.408 103.783 35.88C103.799 36.352 103.867 36.788 103.987 37.188C104.115 37.588 104.303 37.932 104.551 38.22C104.799 38.508 105.103 38.732 105.463 38.892C105.831 39.052 106.263 39.132 106.759 39.132C107.463 39.132 108.047 38.956 108.511 38.604C108.975 38.252 109.275 37.728 109.411 37.032Z" fill="black"/>
<path d="M114.896 34.788H115.952C115.912 34.42 115.816 34.104 115.664 33.84C115.512 33.568 115.316 33.344 115.076 33.168C114.844 32.992 114.572 32.864 114.26 32.784C113.956 32.696 113.628 32.652 113.276 32.652C112.788 32.652 112.36 32.74 111.992 32.916C111.624 33.084 111.316 33.32 111.068 33.624C110.828 33.92 110.648 34.272 110.528 34.68C110.408 35.08 110.348 35.512 110.348 35.976C110.348 36.44 110.408 36.868 110.528 37.26C110.656 37.644 110.84 37.976 111.08 38.256C111.328 38.536 111.632 38.752 111.992 38.904C112.36 39.056 112.78 39.132 113.252 39.132C114.044 39.132 114.668 38.924 115.124 38.508C115.588 38.092 115.876 37.5 115.988 36.732H114.944C114.88 37.212 114.704 37.584 114.416 37.848C114.136 38.112 113.744 38.244 113.24 38.244C112.92 38.244 112.644 38.18 112.412 38.052C112.18 37.924 111.992 37.756 111.848 37.548C111.704 37.332 111.596 37.088 111.524 36.816C111.46 36.544 111.428 36.264 111.428 35.976C111.428 35.664 111.46 35.364 111.524 35.076C111.588 34.78 111.692 34.52 111.836 34.296C111.988 34.072 112.188 33.892 112.436 33.756C112.684 33.62 112.992 33.552 113.36 33.552C113.792 33.552 114.136 33.66 114.392 33.876C114.648 34.092 114.816 34.396 114.896 34.788Z" fill="black"/>
<path d="M118.665 32.796V30.936H117.645V32.796H116.589V33.696H117.645V37.644C117.645 37.932 117.673 38.164 117.729 38.34C117.785 38.516 117.869 38.652 117.981 38.748C118.101 38.844 118.253 38.912 118.437 38.952C118.629 38.984 118.857 39 119.121 39H119.901V38.1H119.433C119.273 38.1 119.141 38.096 119.037 38.088C118.941 38.072 118.865 38.044 118.809 38.004C118.753 37.964 118.713 37.908 118.689 37.836C118.673 37.764 118.665 37.668 118.665 37.548V33.696H119.901V32.796H118.665Z" fill="black"/>
<path d="M122.235 31.68V30.432H121.215V31.68H122.235ZM121.215 32.796V39H122.235V32.796H121.215Z" fill="black"/>
<path d="M123.971 30.432V39H124.991V38.172H125.015C125.127 38.356 125.263 38.512 125.423 38.64C125.591 38.76 125.767 38.856 125.951 38.928C126.135 39 126.319 39.052 126.503 39.084C126.695 39.116 126.867 39.132 127.019 39.132C127.491 39.132 127.903 39.048 128.255 38.88C128.615 38.712 128.911 38.484 129.143 38.196C129.383 37.9 129.559 37.556 129.671 37.164C129.791 36.772 129.851 36.356 129.851 35.916C129.851 35.476 129.791 35.06 129.671 34.668C129.551 34.276 129.371 33.932 129.131 33.636C128.899 33.332 128.603 33.092 128.243 32.916C127.891 32.74 127.475 32.652 126.995 32.652C126.563 32.652 126.167 32.732 125.807 32.892C125.447 33.044 125.183 33.292 125.015 33.636H124.991V30.432H123.971ZM128.771 35.844C128.771 36.148 128.739 36.444 128.675 36.732C128.611 37.02 128.507 37.276 128.363 37.5C128.219 37.724 128.027 37.904 127.787 38.04C127.555 38.176 127.263 38.244 126.911 38.244C126.559 38.244 126.259 38.18 126.011 38.052C125.763 37.916 125.559 37.74 125.399 37.524C125.247 37.308 125.135 37.06 125.063 36.78C124.991 36.492 124.955 36.196 124.955 35.892C124.955 35.604 124.987 35.32 125.051 35.04C125.123 34.76 125.235 34.512 125.387 34.296C125.539 34.072 125.735 33.892 125.975 33.756C126.215 33.62 126.507 33.552 126.851 33.552C127.179 33.552 127.463 33.616 127.703 33.744C127.951 33.872 128.151 34.044 128.303 34.26C128.463 34.476 128.579 34.724 128.651 35.004C128.731 35.276 128.771 35.556 128.771 35.844Z" fill="black"/>
<path d="M131.228 30.432V39H132.248V30.432H131.228Z" fill="black"/>
<path d="M138.256 35.304H134.692C134.708 35.064 134.76 34.84 134.848 34.632C134.936 34.416 135.056 34.228 135.208 34.068C135.36 33.908 135.54 33.784 135.748 33.696C135.964 33.6 136.204 33.552 136.468 33.552C136.724 33.552 136.956 33.6 137.164 33.696C137.38 33.784 137.564 33.908 137.716 34.068C137.876 34.22 138 34.404 138.088 34.62C138.184 34.836 138.24 35.064 138.256 35.304ZM139.24 37.032H138.232C138.144 37.44 137.96 37.744 137.68 37.944C137.408 38.144 137.056 38.244 136.624 38.244C136.288 38.244 135.996 38.188 135.748 38.076C135.5 37.964 135.296 37.816 135.136 37.632C134.976 37.44 134.86 37.224 134.788 36.984C134.716 36.736 134.684 36.476 134.692 36.204H139.336C139.352 35.828 139.316 35.432 139.228 35.016C139.148 34.6 138.996 34.216 138.772 33.864C138.556 33.512 138.264 33.224 137.896 33C137.536 32.768 137.08 32.652 136.528 32.652C136.104 32.652 135.712 32.732 135.352 32.892C135 33.052 134.692 33.276 134.428 33.564C134.172 33.852 133.972 34.192 133.828 34.584C133.684 34.976 133.612 35.408 133.612 35.88C133.628 36.352 133.696 36.788 133.816 37.188C133.944 37.588 134.132 37.932 134.38 38.22C134.628 38.508 134.932 38.732 135.292 38.892C135.66 39.052 136.092 39.132 136.588 39.132C137.292 39.132 137.876 38.956 138.34 38.604C138.804 38.252 139.104 37.728 139.24 37.032Z" fill="black"/>
<path d="M40.1313 11.8V7.79201H43.6593C43.9953 7.79201 44.3153 7.82402 44.6193 7.88802C44.9393 7.93601 45.2193 8.03201 45.4593 8.17601C45.6993 8.32001 45.8913 8.52001 46.0353 8.77601C46.1793 9.03201 46.2513 9.36001 46.2513 9.76001C46.2513 10.48 46.0353 11 45.6033 11.32C45.1713 11.64 44.6193 11.8 43.9473 11.8H40.1313ZM36.3633 4.86401V22H44.6673C45.4353 22 46.1793 21.904 46.8993 21.712C47.6353 21.52 48.2833 21.224 48.8433 20.824C49.4193 20.424 49.8753 19.912 50.2113 19.288C50.5473 18.648 50.7153 17.896 50.7153 17.032C50.7153 15.96 50.4513 15.048 49.9233 14.296C49.4113 13.528 48.6273 12.992 47.5713 12.688C48.3393 12.32 48.9153 11.848 49.2993 11.272C49.6993 10.696 49.8993 9.97601 49.8993 9.11201C49.8993 8.31201 49.7633 7.64001 49.4913 7.09601C49.2353 6.55201 48.8673 6.12001 48.3873 5.80001C47.9073 5.46401 47.3313 5.22401 46.6593 5.08001C45.9873 4.93601 45.2433 4.86401 44.4273 4.86401H36.3633ZM40.1313 19.072V14.368H44.2353C45.0513 14.368 45.7073 14.56 46.2033 14.944C46.6993 15.312 46.9473 15.936 46.9473 16.816C46.9473 17.264 46.8673 17.632 46.7073 17.92C46.5633 18.208 46.3633 18.44 46.1073 18.616C45.8513 18.776 45.5553 18.896 45.2193 18.976C44.8833 19.04 44.5313 19.072 44.1633 19.072H40.1313Z" fill="black"/>
<path d="M55.9257 15.808C55.9257 15.312 55.9737 14.824 56.0697 14.344C56.1657 13.864 56.3257 13.44 56.5497 13.072C56.7897 12.704 57.1017 12.408 57.4857 12.184C57.8697 11.944 58.3497 11.824 58.9257 11.824C59.5017 11.824 59.9817 11.944 60.3657 12.184C60.7657 12.408 61.0777 12.704 61.3017 13.072C61.5417 13.44 61.7097 13.864 61.8057 14.344C61.9017 14.824 61.9497 15.312 61.9497 15.808C61.9497 16.304 61.9017 16.792 61.8057 17.272C61.7097 17.736 61.5417 18.16 61.3017 18.544C61.0777 18.912 60.7657 19.208 60.3657 19.432C59.9817 19.656 59.5017 19.768 58.9257 19.768C58.3497 19.768 57.8697 19.656 57.4857 19.432C57.1017 19.208 56.7897 18.912 56.5497 18.544C56.3257 18.16 56.1657 17.736 56.0697 17.272C55.9737 16.792 55.9257 16.304 55.9257 15.808ZM52.5177 15.808C52.5177 16.8 52.6697 17.696 52.9737 18.496C53.2777 19.296 53.7097 19.984 54.2697 20.56C54.8297 21.12 55.5017 21.552 56.2857 21.856C57.0697 22.16 57.9497 22.312 58.9257 22.312C59.9017 22.312 60.7817 22.16 61.5657 21.856C62.3657 21.552 63.0457 21.12 63.6057 20.56C64.1657 19.984 64.5977 19.296 64.9017 18.496C65.2057 17.696 65.3577 16.8 65.3577 15.808C65.3577 14.816 65.2057 13.92 64.9017 13.12C64.5977 12.304 64.1657 11.616 63.6057 11.056C63.0457 10.48 62.3657 10.04 61.5657 9.73601C60.7817 9.41601 59.9017 9.25601 58.9257 9.25601C57.9497 9.25601 57.0697 9.41601 56.2857 9.73601C55.5017 10.04 54.8297 10.48 54.2697 11.056C53.7097 11.616 53.2777 12.304 52.9737 13.12C52.6697 13.92 52.5177 14.816 52.5177 15.808Z" fill="black"/>
<path d="M79.2136 22V9.59201H75.8056V16.096C75.8056 17.36 75.5976 18.272 75.1816 18.832C74.7656 19.376 74.0936 19.648 73.1656 19.648C72.3496 19.648 71.7816 19.4 71.4616 18.904C71.1416 18.392 70.9816 17.624 70.9816 16.6V9.59201H67.5736V17.224C67.5736 17.992 67.6376 18.696 67.7656 19.336C67.9096 19.96 68.1496 20.496 68.4856 20.944C68.8216 21.376 69.2776 21.712 69.8536 21.952C70.4456 22.192 71.1976 22.312 72.1096 22.312C72.8296 22.312 73.5336 22.152 74.2216 21.832C74.9096 21.512 75.4696 20.992 75.9016 20.272H75.9736V22H79.2136Z" fill="black"/>
<path d="M81.8002 9.59201V22H85.2082V15.496C85.2082 14.232 85.4162 13.328 85.8322 12.784C86.2482 12.224 86.9202 11.944 87.8482 11.944C88.6642 11.944 89.2322 12.2 89.5522 12.712C89.8722 13.208 90.0322 13.968 90.0322 14.992V22H93.4402V14.368C93.4402 13.6 93.3682 12.904 93.2242 12.28C93.0962 11.64 92.8642 11.104 92.5282 10.672C92.1922 10.224 91.7282 9.88001 91.1362 9.64001C90.5602 9.38401 89.8162 9.25601 88.9042 9.25601C88.1842 9.25601 87.4802 9.42401 86.7922 9.76001C86.1042 10.08 85.5442 10.6 85.1122 11.32H85.0402V9.59201H81.8002Z" fill="black"/>
<path d="M104.475 13.96H107.811C107.763 13.16 107.571 12.472 107.235 11.896C106.899 11.304 106.459 10.816 105.915 10.432C105.387 10.032 104.779 9.73601 104.091 9.54401C103.419 9.35201 102.715 9.25601 101.979 9.25601C100.971 9.25601 100.075 9.42401 99.2907 9.76001C98.5067 10.096 97.8427 10.568 97.2987 11.176C96.7547 11.768 96.3387 12.48 96.0507 13.312C95.7787 14.128 95.6427 15.016 95.6427 15.976C95.6427 16.904 95.7947 17.76 96.0987 18.544C96.4027 19.312 96.8267 19.976 97.3707 20.536C97.9147 21.096 98.5707 21.536 99.3387 21.856C100.123 22.16 100.979 22.312 101.907 22.312C103.555 22.312 104.907 21.88 105.963 21.016C107.019 20.152 107.659 18.896 107.883 17.248H104.595C104.483 18.016 104.203 18.632 103.755 19.096C103.323 19.544 102.699 19.768 101.883 19.768C101.355 19.768 100.907 19.648 100.539 19.408C100.171 19.168 99.8747 18.864 99.6507 18.496C99.4427 18.112 99.2907 17.688 99.1947 17.224C99.0987 16.76 99.0507 16.304 99.0507 15.856C99.0507 15.392 99.0987 14.928 99.1947 14.464C99.2907 13.984 99.4507 13.552 99.6747 13.168C99.9147 12.768 100.219 12.448 100.587 12.208C100.955 11.952 101.411 11.824 101.955 11.824C103.411 11.824 104.251 12.536 104.475 13.96Z" fill="black"/>
<path d="M118.16 14.464H112.616C112.632 14.224 112.68 13.952 112.76 13.648C112.856 13.344 113.008 13.056 113.216 12.784C113.44 12.512 113.728 12.288 114.08 12.112C114.448 11.92 114.904 11.824 115.448 11.824C116.28 11.824 116.896 12.048 117.296 12.496C117.712 12.944 118 13.6 118.16 14.464ZM112.616 16.624H121.568C121.632 15.664 121.552 14.744 121.328 13.864C121.104 12.984 120.736 12.2 120.224 11.512C119.728 10.824 119.088 10.28 118.304 9.88001C117.52 9.46401 116.6 9.25601 115.544 9.25601C114.6 9.25601 113.736 9.42401 112.952 9.76001C112.184 10.096 111.52 10.56 110.96 11.152C110.4 11.728 109.968 12.416 109.664 13.216C109.36 14.016 109.208 14.88 109.208 15.808C109.208 16.768 109.352 17.648 109.64 18.448C109.944 19.248 110.368 19.936 110.912 20.512C111.456 21.088 112.12 21.536 112.904 21.856C113.688 22.16 114.568 22.312 115.544 22.312C116.952 22.312 118.152 21.992 119.144 21.352C120.136 20.712 120.872 19.648 121.352 18.16H118.352C118.24 18.544 117.936 18.912 117.44 19.264C116.944 19.6 116.352 19.768 115.664 19.768C114.704 19.768 113.968 19.52 113.456 19.024C112.944 18.528 112.664 17.728 112.616 16.624Z" fill="black"/>
<path fill-rule="evenodd" clip-rule="evenodd" d="M0.000407712 2C0.000407712 1.17157 0.671981 0.5 1.50041 0.5H6.50041C7.32884 0.5 8.00041 1.17157 8.00041 2C8.00041 2.82843 7.32884 3.5 6.50041 3.5H1.50041C0.671981 3.5 0.000407712 2.82843 0.000407712 2ZM15.9079 3.48144C16.1943 4.25879 15.7963 5.12112 15.019 5.40751L2.01897 10.197C1.24162 10.4834 0.379285 10.0854 0.092893 9.30803C-0.193499 8.53068 0.204501 7.66835 0.98185 7.38196L13.9819 2.59249C14.7592 2.30609 15.6215 2.70409 15.9079 3.48144ZM15.9079 15.692C16.1943 16.4693 15.7963 17.3316 15.019 17.618L2.01897 22.4075C1.24162 22.6939 0.379285 22.2959 0.092893 21.5186C-0.193499 20.7412 0.204501 19.8789 0.98185 19.5925L13.9819 14.803C14.7592 14.5166 15.6215 14.9146 15.9079 15.692ZM8.00041 23C8.00041 22.1716 8.67198 21.5 9.50041 21.5H14.5004C15.3288 21.5 16.0004 22.1716 16.0004 23C16.0004 23.8284 15.3288 24.5 14.5004 24.5H9.50041C8.67198 24.5 8.00041 23.8284 8.00041 23Z" fill="black"/>
<path fill-rule="evenodd" clip-rule="evenodd" d="M15.9004 9.46157C16.1978 10.2348 15.8121 11.1027 15.0389 11.4001L2.03887 16.4001C1.26566 16.6974 0.397774 16.3117 0.100386 15.5385C-0.197002 14.7653 0.188727 13.8974 0.961936 13.6L13.9619 8.60002C14.7351 8.30263 15.603 8.68836 15.9004 9.46157Z" fill="black"/>
</svg>
