<svg width="135" height="44" viewBox="0 0 135 44" fill="none" xmlns="http://www.w3.org/2000/svg">
<path d="M32.067 12.0671V22.2805H35.5202V12.0671H37.9034V9.76788H35.5202V9.0176C35.5202 8.50128 35.6175 8.13825 35.8121 7.92849C36.0228 7.7026 36.3633 7.58966 36.8334 7.58966C37.2712 7.58966 37.6927 7.61386 38.098 7.66227V5.09681C37.8062 5.08068 37.5062 5.06454 37.1982 5.04841C36.8902 5.01614 36.5821 5 36.2741 5C34.8636 5 33.8099 5.35497 33.1127 6.06491C32.4156 6.77484 32.067 7.68647 32.067 8.79978V9.76788H30V12.0671H32.067Z" fill="black"/>
<path d="M39.2654 13.6161C39.3141 12.8093 39.5167 12.1397 39.8734 11.6073C40.2301 11.0748 40.684 10.6472 41.2352 10.3245C41.7864 10.0018 42.4025 9.77595 43.0834 9.64687C43.7805 9.50165 44.4776 9.42904 45.1748 9.42904C45.807 9.42904 46.4474 9.47745 47.0959 9.57426C47.7444 9.65493 48.3361 9.82435 48.8711 10.0825C49.4061 10.3407 49.8439 10.7037 50.1843 11.1716C50.5248 11.6234 50.695 12.2285 50.695 12.9868V19.4972C50.695 20.062 50.7274 20.6025 50.7923 21.1188C50.8571 21.6351 50.9706 22.0224 51.1327 22.2805H47.6309C47.5661 22.0869 47.5093 21.8933 47.4607 21.6997C47.4283 21.4899 47.4039 21.2802 47.3877 21.0704C46.8365 21.6351 46.188 22.0304 45.4423 22.2563C44.6965 22.4822 43.9345 22.5952 43.1564 22.5952C42.5565 22.5952 41.9972 22.5226 41.4784 22.3773C40.9596 22.2321 40.5057 22.0062 40.1166 21.6997C39.7275 21.3931 39.4195 21.0059 39.1925 20.538C38.9817 20.07 38.8763 19.5134 38.8763 18.868C38.8763 18.158 38.9979 17.5772 39.2411 17.1254C39.5005 16.6575 39.8248 16.2864 40.2138 16.0121C40.6192 15.7378 41.0731 15.5361 41.5757 15.407C42.0945 15.2618 42.6132 15.1489 43.132 15.0682C43.6508 14.9875 44.1615 14.923 44.6641 14.8746C45.1667 14.8262 45.6125 14.7536 46.0016 14.6568C46.3907 14.56 46.6987 14.4228 46.9257 14.2453C47.1526 14.0517 47.258 13.7774 47.2418 13.4224C47.2418 13.0513 47.177 12.7609 47.0473 12.5512C46.9338 12.3253 46.7717 12.1558 46.5609 12.0429C46.3664 11.9138 46.1313 11.8332 45.8557 11.8009C45.5963 11.7525 45.3126 11.7283 45.0045 11.7283C44.3236 11.7283 43.7886 11.8735 43.3995 12.1639C43.0104 12.4543 42.7835 12.9384 42.7186 13.6161H39.2654ZM47.2418 16.1573C47.0959 16.2864 46.9095 16.3913 46.6825 16.4719C46.4717 16.5365 46.2367 16.593 45.9773 16.6414C45.7341 16.6898 45.4747 16.7301 45.1991 16.7624C44.9235 16.7946 44.6479 16.835 44.3723 16.8834C44.1129 16.9318 43.8535 16.9963 43.5941 17.077C43.3509 17.1577 43.132 17.2706 42.9375 17.4158C42.7592 17.5449 42.6132 17.7143 42.4998 17.9241C42.3863 18.1338 42.3295 18.4001 42.3295 18.7228C42.3295 19.0293 42.3863 19.2875 42.4998 19.4972C42.6132 19.707 42.7673 19.8764 42.9618 20.0055C43.1564 20.1184 43.3833 20.1991 43.6427 20.2475C43.9021 20.2959 44.1696 20.3201 44.4452 20.3201C45.1261 20.3201 45.653 20.2072 46.0259 19.9813C46.3988 19.7554 46.6744 19.4892 46.8527 19.1826C47.0311 18.8599 47.1364 18.5372 47.1689 18.2145C47.2175 17.8918 47.2418 17.6337 47.2418 17.44V16.1573Z" fill="black"/>
<path d="M53.3753 9.76788V22.2805H56.8285V15.7217C56.8285 14.447 57.0393 13.5354 57.4608 12.9868C57.8823 12.4221 58.5632 12.1397 59.5035 12.1397C60.3303 12.1397 60.9059 12.3979 61.2301 12.9142C61.5544 13.4144 61.7165 14.1808 61.7165 15.2134V22.2805H65.1697V14.5842C65.1697 13.8097 65.0967 13.1078 64.9508 12.4785C64.8211 11.8331 64.586 11.2926 64.2456 10.857C63.9051 10.4052 63.435 10.0583 62.8351 9.81628C62.2515 9.55812 61.4976 9.42904 60.5735 9.42904C59.844 9.42904 59.1306 9.59846 58.4335 9.93729C57.7364 10.26 57.169 10.7844 56.7312 11.5105H56.6583V9.76788H53.3753Z" fill="black"/>
<path d="M73.6512 19.3278C73.1162 19.3278 72.6704 19.2149 72.3137 18.989C71.9571 18.7631 71.6652 18.4727 71.4383 18.1177C71.2275 17.7627 71.0735 17.3674 70.9762 16.9318C70.8952 16.48 70.8546 16.0282 70.8546 15.5765C70.8546 15.1085 70.9033 14.6648 71.0005 14.2453C71.114 13.8097 71.2842 13.4305 71.5112 13.1078C71.7544 12.769 72.0462 12.5028 72.3867 12.3091C72.7433 12.1155 73.1649 12.0187 73.6512 12.0187C74.2186 12.0187 74.6888 12.1236 75.0617 12.3333C75.4346 12.5431 75.7345 12.8254 75.9615 13.1804C76.1884 13.5354 76.3505 13.9468 76.4478 14.4147C76.5451 14.8665 76.5937 15.3506 76.5937 15.8669C76.5937 16.3187 76.5289 16.7543 76.3992 17.1738C76.2857 17.5772 76.1074 17.9402 75.8642 18.2629C75.621 18.5856 75.313 18.8438 74.9401 19.0374C74.5672 19.231 74.1376 19.3278 73.6512 19.3278ZM79.8767 21.4818V9.76788H76.5937V11.4378H76.5451C76.1236 10.7118 75.5967 10.1955 74.9644 9.88889C74.3483 9.58233 73.6269 9.42904 72.8001 9.42904C71.9246 9.42904 71.1464 9.59846 70.4655 9.93729C69.8008 10.2761 69.2415 10.736 68.7876 11.3168C68.3336 11.8816 67.9851 12.5431 67.7419 13.3014C67.5149 14.0436 67.4014 14.8181 67.4014 15.6249C67.4014 16.48 67.4987 17.2948 67.6933 18.0693C67.904 18.8276 68.2283 19.4972 68.666 20.0781C69.1037 20.6428 69.663 21.0946 70.3439 21.4334C71.0249 21.7561 71.8355 21.9175 72.7758 21.9175C73.5377 21.9175 74.2592 21.7642 74.9401 21.4576C75.6372 21.1349 76.1722 20.6428 76.5451 19.9813H76.5937V21.6271C76.6099 22.5145 76.3911 23.2486 75.9371 23.8295C75.4994 24.4103 74.7942 24.7008 73.8214 24.7008C73.2054 24.7008 72.6623 24.5717 72.1921 24.3135C71.722 24.0715 71.4058 23.6278 71.2437 22.9824H67.8148C67.8635 23.6923 68.058 24.2974 68.3985 24.7976C68.7551 25.3139 69.1929 25.7334 69.7117 26.0561C70.2467 26.3788 70.8303 26.6128 71.4626 26.758C72.1111 26.9193 72.7433 27 73.3594 27C74.8023 27 75.9533 26.8064 76.8126 26.4191C77.6718 26.0319 78.3284 25.5559 78.7824 24.9912C79.2363 24.4426 79.5281 23.8456 79.6578 23.2002C79.8037 22.5548 79.8767 21.982 79.8767 21.4818Z" fill="black"/>
<path d="M86.2074 7.83168V5H82.7542V7.83168H86.2074ZM82.7542 9.76788V22.2805H86.2074V9.76788H82.7542Z" fill="black"/>
<path d="M98.1431 16.0363C98.1431 16.5526 98.0863 17.0528 97.9729 17.5369C97.8594 18.0209 97.6811 18.4485 97.4379 18.8196C97.1947 19.1907 96.8867 19.4892 96.5138 19.7151C96.1571 19.9248 95.7194 20.0297 95.2006 20.0297C94.698 20.0297 94.2603 19.9248 93.8874 19.7151C93.5145 19.4892 93.2065 19.1907 92.9633 18.8196C92.7201 18.4485 92.5418 18.0209 92.4283 17.5369C92.3148 17.0528 92.2581 16.5526 92.2581 16.0363C92.2581 15.5038 92.3148 14.9956 92.4283 14.5116C92.5418 14.0275 92.7201 13.5999 92.9633 13.2288C93.2065 12.8577 93.5145 12.5673 93.8874 12.3575C94.2603 12.1316 94.698 12.0187 95.2006 12.0187C95.7194 12.0187 96.1571 12.1316 96.5138 12.3575C96.8867 12.5673 97.1947 12.8577 97.4379 13.2288C97.6811 13.5999 97.8594 14.0275 97.9729 14.5116C98.0863 14.9956 98.1431 15.5038 98.1431 16.0363ZM88.9265 5V22.2805H92.2094V20.6832H92.2581C92.631 21.377 93.1822 21.8691 93.9117 22.1595C94.6413 22.4499 95.4681 22.5952 96.3922 22.5952C97.0245 22.5952 97.6486 22.4661 98.2647 22.2079C98.8808 21.9498 99.432 21.5545 99.9183 21.022C100.421 20.4895 100.826 19.8119 101.134 18.989C101.442 18.15 101.596 17.1577 101.596 16.0121C101.596 14.8665 101.442 13.8823 101.134 13.0594C100.826 12.2204 100.421 11.5347 99.9183 11.0022C99.432 10.4697 98.8808 10.0744 98.2647 9.81628C97.6486 9.55812 97.0245 9.42904 96.3922 9.42904C95.614 9.42904 94.8601 9.58233 94.1306 9.88889C93.4173 10.1793 92.8498 10.6472 92.4283 11.2926H92.3797V5H88.9265Z" fill="black"/>
<path d="M103.89 5V22.2805H107.343V5H103.89Z" fill="black"/>
<path d="M118.525 14.681H112.908C112.924 14.4389 112.973 14.1646 113.054 13.8581C113.151 13.5515 113.305 13.2611 113.516 12.9868C113.743 12.7125 114.034 12.4866 114.391 12.3091C114.764 12.1155 115.226 12.0187 115.777 12.0187C116.62 12.0187 117.244 12.2446 117.65 12.6964C118.071 13.1481 118.363 13.8097 118.525 14.681ZM112.908 16.8592H121.978C122.043 15.8911 121.962 14.9633 121.735 14.0759C121.508 13.1885 121.135 12.3979 120.617 11.7041C120.114 11.0103 119.465 10.4617 118.671 10.0583C117.877 9.6388 116.945 9.42904 115.875 9.42904C114.918 9.42904 114.043 9.59846 113.248 9.93729C112.47 10.2761 111.797 10.744 111.23 11.341C110.662 11.9219 110.225 12.6157 109.917 13.4224C109.609 14.2292 109.454 15.1005 109.454 16.0363C109.454 17.0044 109.6 17.8918 109.892 18.6986C110.2 19.5053 110.63 20.1991 111.181 20.78C111.732 21.3608 112.405 21.8126 113.2 22.1353C113.994 22.4419 114.886 22.5952 115.875 22.5952C117.301 22.5952 118.517 22.2725 119.522 21.6271C120.527 20.9817 121.273 19.9087 121.76 18.4081H118.72C118.606 18.7954 118.298 19.1665 117.796 19.5215C117.293 19.8603 116.693 20.0297 115.996 20.0297C115.023 20.0297 114.278 19.7796 113.759 19.2794C113.24 18.7792 112.956 17.9725 112.908 16.8592Z" fill="black"/>
<rect x="12" width="6" height="6" fill="black"/>
<rect y="12" width="18" height="6" fill="black"/>
<rect x="6" y="24" width="18" height="6" transform="rotate(-90 6 24)" fill="black"/>
<path d="M82.737 33.146V41H83.672V40.241H83.694C83.7967 40.4097 83.9213 40.5527 84.068 40.67C84.222 40.78 84.3833 40.868 84.552 40.934C84.7207 41 84.8893 41.0477 85.058 41.077C85.234 41.1063 85.3917 41.121 85.531 41.121C85.9637 41.121 86.3413 41.044 86.664 40.89C86.994 40.736 87.2653 40.527 87.478 40.263C87.698 39.9917 87.8593 39.6763 87.962 39.317C88.072 38.9577 88.127 38.5763 88.127 38.173C88.127 37.7697 88.072 37.3883 87.962 37.029C87.852 36.6697 87.687 36.3543 87.467 36.083C87.2543 35.8043 86.983 35.5843 86.653 35.423C86.3303 35.2617 85.949 35.181 85.509 35.181C85.113 35.181 84.75 35.2543 84.42 35.401C84.09 35.5403 83.848 35.7677 83.694 36.083H83.672V33.146H82.737ZM87.137 38.107C87.137 38.3857 87.1077 38.657 87.049 38.921C86.9903 39.185 86.895 39.4197 86.763 39.625C86.631 39.8303 86.455 39.9953 86.235 40.12C86.0223 40.2447 85.7547 40.307 85.432 40.307C85.1093 40.307 84.8343 40.2483 84.607 40.131C84.3797 40.0063 84.1927 39.845 84.046 39.647C83.9067 39.449 83.804 39.2217 83.738 38.965C83.672 38.701 83.639 38.4297 83.639 38.151C83.639 37.887 83.6683 37.6267 83.727 37.37C83.793 37.1133 83.8957 36.886 84.035 36.688C84.1743 36.4827 84.354 36.3177 84.574 36.193C84.794 36.0683 85.0617 36.006 85.377 36.006C85.6777 36.006 85.938 36.0647 86.158 36.182C86.3853 36.2993 86.5687 36.457 86.708 36.655C86.8547 36.853 86.961 37.0803 87.027 37.337C87.1003 37.5863 87.137 37.843 87.137 38.107ZM91.4575 41.759C91.3475 42.0377 91.2375 42.2723 91.1275 42.463C91.0248 42.6537 90.9075 42.8077 90.7755 42.925C90.6508 43.0497 90.5078 43.1377 90.3465 43.189C90.1925 43.2477 90.0128 43.277 89.8075 43.277C89.6975 43.277 89.5875 43.2697 89.4775 43.255C89.3675 43.2403 89.2612 43.2147 89.1585 43.178V42.32C89.2392 42.3567 89.3308 42.386 89.4335 42.408C89.5435 42.4373 89.6352 42.452 89.7085 42.452C89.8992 42.452 90.0568 42.4043 90.1815 42.309C90.3135 42.221 90.4125 42.0927 90.4785 41.924L90.8635 40.967L88.6085 35.313H89.6645L91.3255 39.966H91.3475L92.9425 35.313H93.9325L91.4575 41.759ZM98.985 36.523V34.026H101.075C101.302 34.026 101.515 34.0407 101.713 34.07C101.918 34.092 102.098 34.147 102.252 34.235C102.406 34.323 102.527 34.4477 102.615 34.609C102.703 34.7703 102.747 34.9903 102.747 35.269C102.747 35.687 102.615 36.0023 102.351 36.215C102.094 36.4203 101.669 36.523 101.075 36.523H98.985ZM97.94 33.146V41H101.735C102.124 41 102.465 40.9377 102.758 40.813C103.059 40.681 103.308 40.5123 103.506 40.307C103.711 40.0943 103.865 39.8523 103.968 39.581C104.071 39.3097 104.122 39.031 104.122 38.745C104.122 38.261 103.994 37.8503 103.737 37.513C103.48 37.1757 103.11 36.9557 102.626 36.853V36.831C103 36.6843 103.286 36.4607 103.484 36.16C103.689 35.852 103.792 35.489 103.792 35.071C103.792 34.675 103.7 34.3413 103.517 34.07C103.341 33.7987 103.125 33.586 102.868 33.432C102.751 33.3587 102.608 33.3037 102.439 33.267C102.278 33.2303 102.102 33.2047 101.911 33.19C101.72 33.168 101.526 33.157 101.328 33.157C101.137 33.1497 100.958 33.146 100.789 33.146H97.94ZM98.985 40.12V37.403H101.372C101.592 37.403 101.805 37.425 102.01 37.469C102.215 37.5057 102.395 37.5753 102.549 37.678C102.71 37.7733 102.839 37.9053 102.934 38.074C103.029 38.2427 103.077 38.4553 103.077 38.712C103.077 39.152 102.945 39.4967 102.681 39.746C102.424 39.9953 102.065 40.12 101.603 40.12H98.985ZM105.998 38.162C105.998 37.8173 106.042 37.513 106.13 37.249C106.226 36.9777 106.354 36.7503 106.515 36.567C106.677 36.3837 106.864 36.2443 107.076 36.149C107.296 36.0537 107.527 36.006 107.769 36.006C108.011 36.006 108.239 36.0537 108.451 36.149C108.671 36.2443 108.862 36.3837 109.023 36.567C109.185 36.7503 109.309 36.9777 109.397 37.249C109.493 37.513 109.54 37.8173 109.54 38.162C109.54 38.5067 109.493 38.8147 109.397 39.086C109.309 39.35 109.185 39.5737 109.023 39.757C108.862 39.933 108.671 40.0687 108.451 40.164C108.239 40.2593 108.011 40.307 107.769 40.307C107.527 40.307 107.296 40.2593 107.076 40.164C106.864 40.0687 106.677 39.933 106.515 39.757C106.354 39.5737 106.226 39.35 106.13 39.086C106.042 38.8147 105.998 38.5067 105.998 38.162ZM105.008 38.162C105.008 38.58 105.067 38.9687 105.184 39.328C105.302 39.6873 105.478 40.0027 105.712 40.274C105.947 40.538 106.237 40.747 106.581 40.901C106.926 41.0477 107.322 41.121 107.769 41.121C108.224 41.121 108.62 41.0477 108.957 40.901C109.302 40.747 109.592 40.538 109.826 40.274C110.061 40.0027 110.237 39.6873 110.354 39.328C110.472 38.9687 110.53 38.58 110.53 38.162C110.53 37.744 110.472 37.3553 110.354 36.996C110.237 36.6293 110.061 36.314 109.826 36.05C109.592 35.7787 109.302 35.566 108.957 35.412C108.62 35.258 108.224 35.181 107.769 35.181C107.322 35.181 106.926 35.258 106.581 35.412C106.237 35.566 105.947 35.7787 105.712 36.05C105.478 36.314 105.302 36.6293 105.184 36.996C105.067 37.3553 105.008 37.744 105.008 38.162ZM116.341 41V35.313H115.406V38.525C115.406 38.7817 115.369 39.02 115.296 39.24C115.23 39.4527 115.127 39.6397 114.988 39.801C114.848 39.9623 114.672 40.087 114.46 40.175C114.254 40.263 114.009 40.307 113.723 40.307C113.363 40.307 113.081 40.2043 112.876 39.999C112.67 39.7937 112.568 39.515 112.568 39.163V35.313H111.633V39.053C111.633 39.361 111.662 39.6433 111.721 39.9C111.787 40.1493 111.897 40.3657 112.051 40.549C112.205 40.7323 112.406 40.8753 112.656 40.978C112.905 41.0733 113.217 41.121 113.591 41.121C114.009 41.121 114.372 41.0403 114.68 40.879C114.988 40.7103 115.241 40.45 115.439 40.098H115.461V41H116.341ZM117.745 35.313V41H118.68V37.788C118.68 37.5313 118.713 37.2967 118.779 37.084C118.852 36.864 118.959 36.6733 119.098 36.512C119.237 36.3507 119.41 36.226 119.615 36.138C119.828 36.05 120.077 36.006 120.363 36.006C120.722 36.006 121.005 36.1087 121.21 36.314C121.415 36.5193 121.518 36.798 121.518 37.15V41H122.453V37.26C122.453 36.952 122.42 36.6733 122.354 36.424C122.295 36.1673 122.189 35.9473 122.035 35.764C121.881 35.5807 121.679 35.4377 121.43 35.335C121.181 35.2323 120.869 35.181 120.495 35.181C119.652 35.181 119.036 35.5257 118.647 36.215H118.625V35.313H117.745ZM127.718 37.139H128.686C128.65 36.8017 128.562 36.512 128.422 36.27C128.283 36.0207 128.103 35.8153 127.883 35.654C127.671 35.4927 127.421 35.3753 127.135 35.302C126.857 35.2213 126.556 35.181 126.233 35.181C125.786 35.181 125.394 35.2617 125.056 35.423C124.719 35.577 124.437 35.7933 124.209 36.072C123.989 36.3433 123.824 36.666 123.714 37.04C123.604 37.4067 123.549 37.8027 123.549 38.228C123.549 38.6533 123.604 39.0457 123.714 39.405C123.832 39.757 124 40.0613 124.22 40.318C124.448 40.5747 124.726 40.7727 125.056 40.912C125.394 41.0513 125.779 41.121 126.211 41.121C126.937 41.121 127.509 40.9303 127.927 40.549C128.353 40.1677 128.617 39.625 128.719 38.921H127.762C127.704 39.361 127.542 39.702 127.278 39.944C127.022 40.186 126.662 40.307 126.2 40.307C125.907 40.307 125.654 40.2483 125.441 40.131C125.229 40.0137 125.056 39.8597 124.924 39.669C124.792 39.471 124.693 39.2473 124.627 38.998C124.569 38.7487 124.539 38.492 124.539 38.228C124.539 37.942 124.569 37.667 124.627 37.403C124.686 37.1317 124.781 36.8933 124.913 36.688C125.053 36.4827 125.236 36.3177 125.463 36.193C125.691 36.0683 125.973 36.006 126.31 36.006C126.706 36.006 127.022 36.105 127.256 36.303C127.491 36.501 127.645 36.7797 127.718 37.139ZM133.715 37.612H130.448C130.462 37.392 130.51 37.1867 130.591 36.996C130.671 36.798 130.781 36.6257 130.921 36.479C131.06 36.3323 131.225 36.2187 131.416 36.138C131.614 36.05 131.834 36.006 132.076 36.006C132.31 36.006 132.523 36.05 132.714 36.138C132.912 36.2187 133.08 36.3323 133.22 36.479C133.366 36.6183 133.48 36.787 133.561 36.985C133.649 37.183 133.7 37.392 133.715 37.612ZM134.617 39.196H133.693C133.612 39.57 133.443 39.8487 133.187 40.032C132.937 40.2153 132.615 40.307 132.219 40.307C131.911 40.307 131.643 40.2557 131.416 40.153C131.188 40.0503 131.001 39.9147 130.855 39.746C130.708 39.57 130.602 39.372 130.536 39.152C130.47 38.9247 130.44 38.6863 130.448 38.437H134.705C134.719 38.0923 134.686 37.7293 134.606 37.348C134.532 36.9667 134.393 36.6147 134.188 36.292C133.99 35.9693 133.722 35.7053 133.385 35.5C133.055 35.2873 132.637 35.181 132.131 35.181C131.742 35.181 131.383 35.2543 131.053 35.401C130.73 35.5477 130.448 35.753 130.206 36.017C129.971 36.281 129.788 36.5927 129.656 36.952C129.524 37.3113 129.458 37.7073 129.458 38.14C129.472 38.5727 129.535 38.9723 129.645 39.339C129.762 39.7057 129.934 40.021 130.162 40.285C130.389 40.549 130.668 40.7543 130.998 40.901C131.335 41.0477 131.731 41.121 132.186 41.121C132.831 41.121 133.366 40.9597 133.792 40.637C134.217 40.3143 134.492 39.834 134.617 39.196Z" fill="black"/>
</svg>
