<svg width="18" height="18" viewBox="0 0 18 18" fill="none" xmlns="http://www.w3.org/2000/svg">
<path d="M9 18C13.9705 18 18 13.9705 18 9C18 4.02942 13.9705 0 9 0C4.02942 0 0 4.02942 0 9C0 13.9705 4.02942 18 9 18Z" fill="#627EEA"/>
<path d="M9.01892 2.24998V7.23937L13.236 9.12376L9.01892 2.24998Z" fill="white" fill-opacity="0.602"/>
<path d="M9.01891 2.24998L4.80128 9.12376L9.01891 7.23937V2.24998Z" fill="white"/>
<path d="M9.01892 12.357V15.7472L13.2388 9.90898L9.01892 12.357Z" fill="white" fill-opacity="0.602"/>
<path d="M9.01891 15.7472V12.3564L4.80128 9.90898L9.01891 15.7472Z" fill="white"/>
<path d="M9.01892 11.5724L13.236 9.12379L9.01892 7.24054V11.5724Z" fill="white" fill-opacity="0.2"/>
<path d="M4.80128 9.12379L9.01891 11.5724V7.24054L4.80128 9.12379Z" fill="white" fill-opacity="0.602"/>
</svg>
