<svg width="12" height="12" viewBox="0 0 12 12" fill="none" xmlns="http://www.w3.org/2000/svg">
<path fill-rule="evenodd" clip-rule="evenodd" d="M6.75518 0L12.0003 3.96387V5.20666H0.0281372V3.8193H9.48986L5.88927 1.09822L6.75518 0Z" fill="black"/>
<path fill-rule="evenodd" clip-rule="evenodd" d="M5.24604 12L0.000962611 8.03613L0.000962722 6.79334L11.9731 6.79334L11.9731 8.1807L2.51136 8.1807L6.11195 10.9018L5.24604 12Z" fill="black"/>
</svg>
<svg width="12" height="12" viewBox="0 0 12 12" fill="none" xmlns="http://www.w3.org/2000/svg">
<path fill-rule="evenodd" clip-rule="evenodd" d="M6.75518 0L12.0003 3.96387V5.20666H0.0281372V3.8193H9.48986L5.88927 1.09822L6.75518 0Z" fill="black"/>
<path fill-rule="evenodd" clip-rule="evenodd" d="M5.24604 12L0.000962611 8.03613L0.000962722 6.79334L11.9731 6.79334L11.9731 8.1807L2.51136 8.1807L6.11195 10.9018L5.24604 12Z" fill="black"/>
</svg>
