<svg width="262" height="262" viewBox="0 0 262 262" fill="none" xmlns="http://www.w3.org/2000/svg">
<rect width="262" height="262" fill="black"/>
<path d="M203 131C203 170.765 170.765 203 131 203C91.2355 203 59 170.765 59 131C59 91.2355 91.2355 59 131 59C170.765 59 203 91.2355 203 131Z" fill="white"/>
<path fill-rule="evenodd" clip-rule="evenodd" d="M131 200C169.108 200 200 169.108 200 131C200 92.8924 169.108 62 131 62C92.8924 62 62 92.8924 62 131C62 169.108 92.8924 200 131 200ZM131 203C170.765 203 203 170.765 203 131C203 91.2355 170.765 59 131 59C91.2355 59 59 91.2355 59 131C59 170.765 91.2355 203 131 203Z" fill="#E6E6E6"/>
<path d="M94.2609 130.086C95.2472 119.829 103.865 112 114.169 112H147.831C158.135 112 166.753 119.829 167.739 130.086L170.368 157.426C170.707 160.95 167.936 164 164.395 164H157.504C155.339 164 153.342 162.834 152.278 160.948L144.722 147.552C143.658 145.666 141.661 144.5 139.496 144.5H122.504C120.339 144.5 118.342 145.666 117.278 147.552L109.722 160.948C108.658 162.834 106.661 164 104.496 164H97.6045C94.0639 164 91.2932 160.95 91.6321 157.426L94.2609 130.086Z" fill="#E6E6E6"/>
<path fill-rule="evenodd" clip-rule="evenodd" d="M147.831 114.6H114.169C105.204 114.6 97.707 121.411 96.849 130.335L94.2202 157.675C94.0281 159.672 95.5982 161.4 97.6045 161.4H104.496C105.723 161.4 106.854 160.739 107.457 159.67L115.014 146.275C116.538 143.572 119.401 141.9 122.504 141.9H139.496C142.599 141.9 145.462 143.572 146.986 146.275L154.543 159.67C155.146 160.739 156.277 161.4 157.504 161.4H164.395C166.402 161.4 167.972 159.672 167.78 157.675L165.151 130.335C164.293 121.411 156.795 114.6 147.831 114.6ZM114.169 112C103.865 112 95.2472 119.829 94.2609 130.086L91.6321 157.426C91.2932 160.95 94.0639 164 97.6045 164H104.496C106.661 164 108.658 162.834 109.722 160.948L117.278 147.552C118.342 145.666 120.339 144.5 122.504 144.5H139.496C141.661 144.5 143.658 145.666 144.722 147.552L152.278 160.948C153.342 162.834 155.339 164 157.504 164H164.395C167.936 164 170.707 160.95 170.368 157.426L167.739 130.086C166.753 119.829 158.135 112 147.831 112H114.169Z" fill="black"/>
<path fill-rule="evenodd" clip-rule="evenodd" d="M113.3 154C113.3 154.718 112.718 155.3 112 155.3L102 155.3C101.282 155.3 100.7 154.718 100.7 154C100.7 153.282 101.282 152.7 102 152.7L112 152.7C112.718 152.7 113.3 153.282 113.3 154Z" fill="black"/>
<path fill-rule="evenodd" clip-rule="evenodd" d="M168.3 154C168.3 154.718 167.718 155.3 167 155.3L151 155.3C150.282 155.3 149.7 154.718 149.7 154C149.7 153.282 150.282 152.7 151 152.7L167 152.7C167.718 152.7 168.3 153.282 168.3 154Z" fill="black"/>
<path d="M115 122C119.418 122 123 125.582 123 130C123 134.418 119.418 138 115 138C110.582 138 107 134.418 107 130C107 125.582 110.582 122 115 122Z" fill="black"/>
<path fill-rule="evenodd" clip-rule="evenodd" d="M115 124.8C112.128 124.8 109.8 127.128 109.8 130C109.8 132.872 112.128 135.2 115 135.2C117.872 135.2 120.2 132.872 120.2 130C120.2 127.128 117.872 124.8 115 124.8ZM123 130C123 125.582 119.418 122 115 122C110.582 122 107 125.582 107 130C107 134.418 110.582 138 115 138C119.418 138 123 134.418 123 130Z" fill="black"/>
<path d="M145.6 123.4C145.6 122.627 146.226 122 147 122C147.773 122 148.4 122.627 148.4 123.4V136.6C148.4 137.373 147.773 138 147 138C146.226 138 145.6 137.373 145.6 136.6V123.4Z" fill="black"/>
<path d="M153.6 128.602C154.373 128.602 155 129.228 155 130.002C155 130.775 154.373 131.402 153.6 131.402L140.4 131.402C139.627 131.402 139 130.775 139 130.002C139 129.228 139.627 128.602 140.4 128.602L153.6 128.602Z" fill="black"/>
<path fill-rule="evenodd" clip-rule="evenodd" d="M141 87.5996C141.773 87.5996 142.4 88.2264 142.4 88.9996V90.9996C142.4 95.0865 139.087 98.3996 135 98.3996H114C112.564 98.3996 111.4 99.5637 111.4 101C111.4 102.436 112.564 103.6 114 103.6H125.5C129.587 103.6 132.9 106.913 132.9 111V113C132.9 113.773 132.273 114.4 131.5 114.4C130.727 114.4 130.1 113.773 130.1 113V111C130.1 108.459 128.041 106.4 125.5 106.4H114C111.018 106.4 108.6 103.982 108.6 101C108.6 98.0173 111.018 95.5996 114 95.5996H135C137.541 95.5996 139.6 93.5401 139.6 90.9996V88.9996C139.6 88.2264 140.227 87.5996 141 87.5996Z" fill="black"/>
</svg>
