<svg width="262" height="262" viewBox="0 0 262 262" fill="none" xmlns="http://www.w3.org/2000/svg">
<rect width="262" height="262" fill="black"/>
<path d="M203 131C203 170.765 170.765 203 131 203C91.2355 203 59 170.765 59 131C59 91.2355 91.2355 59 131 59C170.765 59 203 91.2355 203 131Z" fill="white"/>
<path fill-rule="evenodd" clip-rule="evenodd" d="M131 200C169.108 200 200 169.108 200 131C200 92.8924 169.108 62 131 62C92.8924 62 62 92.8924 62 131C62 169.108 92.8924 200 131 200ZM131 203C170.765 203 203 170.765 203 131C203 91.2355 170.765 59 131 59C91.2355 59 59 91.2355 59 131C59 170.765 91.2355 203 131 203Z" fill="#E6E6E6"/>
<path d="M136.787 163C134.608 163 132.429 162.098 130.926 160.37L123.262 151.73C122.736 151.128 121.985 150.903 121.233 150.978L109.813 152.406C106.807 152.781 103.952 151.429 102.299 148.949C100.646 146.47 100.571 143.239 102.073 140.684L108.009 130.691C108.385 130.015 108.46 129.189 108.084 128.512L103.2 118.068C101.923 115.363 102.299 112.208 104.177 109.878C106.056 107.549 109.061 106.497 111.991 107.098L123.262 109.578C124.013 109.728 124.765 109.503 125.366 108.977L133.781 101.087C135.96 99.0588 139.116 98.4576 141.896 99.5096C144.676 100.561 146.63 103.116 146.93 106.046L148.057 117.542C148.132 118.294 148.583 118.97 149.259 119.346L159.328 124.906C161.958 126.333 163.46 129.113 163.385 132.119C163.235 135.124 161.432 137.679 158.727 138.881L148.132 143.464C147.456 143.765 146.93 144.366 146.78 145.117L144.601 156.463C144 159.393 141.896 161.723 138.966 162.549C138.214 162.925 137.463 163 136.787 163Z" fill="#E6E6E6"/>
<path fill-rule="evenodd" clip-rule="evenodd" d="M132.88 158.655L132.888 158.664C133.863 159.786 135.308 160.4 136.787 160.4C137.275 160.4 137.565 160.342 137.803 160.224L138.023 160.114L138.26 160.047C140.228 159.492 141.637 157.948 142.051 155.955L144.228 144.617L144.23 144.608C144.561 142.954 145.701 141.7 147.076 141.089L147.088 141.083L157.682 136.5C159.494 135.691 160.676 134.009 160.787 132.021C160.828 129.938 159.792 128.116 158.087 127.191L158.079 127.186L147.997 121.618C146.597 120.841 145.633 119.425 145.47 117.801L145.47 117.796L144.344 106.312C144.344 106.31 144.343 106.308 144.343 106.306C144.141 104.356 142.832 102.644 140.976 101.941C139.11 101.235 137.002 101.643 135.556 102.988C135.555 102.989 135.554 102.99 135.553 102.99L127.112 110.904L127.078 110.933C125.931 111.937 124.374 112.452 122.752 112.127L122.728 112.122L111.453 109.642C109.463 109.24 107.454 109.957 106.201 111.511C104.949 113.064 104.7 115.154 105.551 116.958L105.556 116.967L110.409 127.345C111.25 128.947 110.98 130.698 110.282 131.954L110.264 131.987L104.314 142.003C104.314 142.004 104.313 142.006 104.312 142.007C103.313 143.709 103.367 145.865 104.462 147.507C105.58 149.184 107.482 150.077 109.49 149.826L120.943 148.394L120.975 148.391C122.406 148.248 124.038 148.674 125.212 150.01C125.214 150.012 125.217 150.015 125.219 150.017L132.88 158.655ZM102.073 140.684L108.009 130.691C108.385 130.015 108.46 129.189 108.084 128.512L103.2 118.068C101.923 115.363 102.299 112.208 104.177 109.878C106.056 107.549 109.061 106.497 111.991 107.098L123.262 109.578C124.013 109.728 124.765 109.503 125.366 108.977L133.781 101.087C135.96 99.0588 139.116 98.4576 141.896 99.5096C144.676 100.561 146.63 103.116 146.93 106.046L148.057 117.542C148.132 118.294 148.583 118.97 149.259 119.346L159.328 124.906C161.958 126.333 163.46 129.113 163.385 132.119C163.235 135.124 161.432 137.679 158.727 138.881L148.132 143.464C147.456 143.765 146.93 144.366 146.78 145.117L144.601 156.463C144 159.393 141.896 161.723 138.966 162.549C138.214 162.925 137.463 163 136.787 163C134.608 163 132.429 162.098 130.926 160.37L123.262 151.73C122.736 151.128 121.985 150.903 121.233 150.978L109.813 152.406C106.807 152.781 103.952 151.429 102.299 148.949C100.646 146.47 100.571 143.239 102.073 140.684Z" fill="black"/>
<path fill-rule="evenodd" clip-rule="evenodd" d="M133.68 120.733C133.68 120.734 133.679 120.734 133.679 120.734L132.104 122.211C131.581 122.702 130.758 122.675 130.267 122.151C129.776 121.628 129.802 120.805 130.326 120.314L131.907 118.831C133.091 117.73 134.797 117.408 136.296 117.975C137.8 118.544 138.854 119.922 139.017 121.51L139.018 121.516L139.418 125.598L142.998 127.575C144.439 128.359 145.234 129.873 145.194 131.452L145.194 131.468L145.193 131.485C145.112 133.112 144.129 134.498 142.676 135.144L142.664 135.149L138.899 136.778L138.126 140.802L138.124 140.81C137.811 142.338 136.72 143.578 135.2 144.05C134.705 144.268 134.242 144.3 133.92 144.3C132.755 144.3 131.573 143.82 130.746 142.872L128.029 139.809L123.966 140.317C122.34 140.52 120.793 139.783 119.906 138.452C119.007 137.104 118.968 135.357 119.782 133.973L119.785 133.968L121.889 130.425L120.15 126.706C120.149 126.705 120.149 126.704 120.149 126.703C119.458 125.239 119.663 123.524 120.68 122.263C121.695 121.004 123.317 120.442 124.883 120.764C125.587 120.908 126.04 121.595 125.895 122.298C125.751 123.002 125.064 123.455 124.361 123.311C123.729 123.181 123.097 123.408 122.704 123.896C122.312 124.381 122.235 125.032 122.501 125.596L122.503 125.6L124.32 129.485C124.692 130.2 124.567 130.972 124.265 131.516L124.256 131.532L122.023 135.291C122.023 135.292 122.022 135.292 122.022 135.293C121.71 135.825 121.728 136.499 122.069 137.01C122.421 137.539 123.015 137.816 123.644 137.737L127.942 137.2L127.958 137.198C128.58 137.136 129.302 137.321 129.823 137.913L132.703 141.161C133.003 141.506 133.453 141.7 133.92 141.7C134.08 141.7 134.131 141.681 134.156 141.668L134.266 141.613L134.384 141.58C135.002 141.406 135.444 140.925 135.576 140.295L136.393 136.039C136.539 135.307 137.044 134.754 137.647 134.486L137.659 134.481L141.625 132.765C142.193 132.511 142.559 131.989 142.595 131.371C142.606 130.705 142.277 130.142 141.753 129.857L141.745 129.853L137.969 127.768L137.966 127.766C137.351 127.424 136.925 126.801 136.853 126.083L136.431 121.775C136.431 121.774 136.431 121.774 136.431 121.773C136.367 121.164 135.957 120.627 135.376 120.407C134.791 120.186 134.131 120.314 133.68 120.733Z" fill="black"/>
</svg>
