<svg width="262" height="262" viewBox="0 0 262 262" fill="none" xmlns="http://www.w3.org/2000/svg">
<rect width="262" height="262" fill="black"/>
<path d="M203 131C203 170.765 170.765 203 131 203C91.2355 203 59 170.765 59 131C59 91.2355 91.2355 59 131 59C170.765 59 203 91.2355 203 131Z" fill="white"/>
<path fill-rule="evenodd" clip-rule="evenodd" d="M131 200C169.108 200 200 169.108 200 131C200 92.8924 169.108 62 131 62C92.8924 62 62 92.8924 62 131C62 169.108 92.8924 200 131 200ZM131 203C170.765 203 203 170.765 203 131C203 91.2355 170.765 59 131 59C91.2355 59 59 91.2355 59 131C59 170.765 91.2355 203 131 203Z" fill="#E6E6E6"/>
<path d="M89 109C89 105.686 91.6863 103 95 103H167C170.314 103 173 105.686 173 109V153C173 156.314 170.314 159 167 159H95C91.6863 159 89 156.314 89 153V109Z" fill="#E6E6E6"/>
<path fill-rule="evenodd" clip-rule="evenodd" d="M167 105.6H95C93.1222 105.6 91.6 107.122 91.6 109V153C91.6 154.878 93.1222 156.4 95 156.4H167C168.878 156.4 170.4 154.878 170.4 153V109C170.4 107.122 168.878 105.6 167 105.6ZM95 103C91.6863 103 89 105.686 89 109V153C89 156.314 91.6863 159 95 159H167C170.314 159 173 156.314 173 153V109C173 105.686 170.314 103 167 103H95Z" fill="black"/>
<path fill-rule="evenodd" clip-rule="evenodd" d="M172.3 150C172.3 150.718 171.718 151.3 171 151.3H167.84C167.122 151.3 166.54 150.718 166.54 150C166.54 149.282 167.122 148.7 167.84 148.7H171C171.718 148.7 172.3 149.282 172.3 150ZM159.66 150C159.66 150.718 159.078 151.3 158.36 151.3H152.04C151.322 151.3 150.74 150.718 150.74 150C150.74 149.282 151.322 148.7 152.04 148.7H158.36C159.078 148.7 159.66 149.282 159.66 150ZM143.86 150C143.86 150.718 143.278 151.3 142.56 151.3H136.24C135.522 151.3 134.94 150.718 134.94 150C134.94 149.282 135.522 148.7 136.24 148.7H142.56C143.278 148.7 143.86 149.282 143.86 150ZM128.06 150C128.06 150.718 127.478 151.3 126.76 151.3H120.44C119.722 151.3 119.14 150.718 119.14 150C119.14 149.282 119.722 148.7 120.44 148.7H126.76C127.478 148.7 128.06 149.282 128.06 150ZM112.26 150C112.26 150.718 111.678 151.3 110.96 151.3H104.64C103.922 151.3 103.34 150.718 103.34 150C103.34 149.282 103.922 148.7 104.64 148.7H110.96C111.678 148.7 112.26 149.282 112.26 150ZM96.46 150C96.46 150.718 95.878 151.3 95.16 151.3H92C91.2821 151.3 90.7 150.718 90.7 150C90.7 149.282 91.2821 148.7 92 148.7H95.16C95.878 148.7 96.46 149.282 96.46 150Z" fill="black"/>
<path fill-rule="evenodd" clip-rule="evenodd" d="M172.3 112C172.3 112.718 171.718 113.3 171 113.3H167.84C167.122 113.3 166.54 112.718 166.54 112C166.54 111.282 167.122 110.7 167.84 110.7H171C171.718 110.7 172.3 111.282 172.3 112ZM159.66 112C159.66 112.718 159.078 113.3 158.36 113.3H152.04C151.322 113.3 150.74 112.718 150.74 112C150.74 111.282 151.322 110.7 152.04 110.7H158.36C159.078 110.7 159.66 111.282 159.66 112ZM143.86 112C143.86 112.718 143.278 113.3 142.56 113.3H136.24C135.522 113.3 134.94 112.718 134.94 112C134.94 111.282 135.522 110.7 136.24 110.7H142.56C143.278 110.7 143.86 111.282 143.86 112ZM128.06 112C128.06 112.718 127.478 113.3 126.76 113.3H120.44C119.722 113.3 119.14 112.718 119.14 112C119.14 111.282 119.722 110.7 120.44 110.7H126.76C127.478 110.7 128.06 111.282 128.06 112ZM112.26 112C112.26 112.718 111.678 113.3 110.96 113.3H104.64C103.922 113.3 103.34 112.718 103.34 112C103.34 111.282 103.922 110.7 104.64 110.7H110.96C111.678 110.7 112.26 111.282 112.26 112ZM96.46 112C96.46 112.718 95.878 113.3 95.16 113.3H92C91.2821 113.3 90.7 112.718 90.7 112C90.7 111.282 91.2821 110.7 92 110.7H95.16C95.878 110.7 96.46 111.282 96.46 112Z" fill="black"/>
<path d="M107 120C109.209 120 111 121.791 111 124L111 138C111 140.209 109.209 142 107 142L93 142C90.7909 142 89 140.209 89 138L89 124C89 121.791 90.7909 120 93 120L107 120Z" fill="#101010"/>
<path d="M169 120C171.209 120 173 121.791 173 124L173 138C173 140.209 171.209 142 169 142L155 142C152.791 142 151 140.209 151 138L151 124C151 121.791 152.791 120 155 120L169 120Z" fill="#101010"/>
<path d="M141 120C143.209 120 145 121.791 145 124L145 138C145 140.209 143.209 142 141 142L121 142C118.791 142 117 140.209 117 138L117 124C117 121.791 118.791 120 121 120L141 120Z" fill="#101010"/>
</svg>
