<svg width="16" height="16" viewBox="0 0 16 16" fill="none" xmlns="http://www.w3.org/2000/svg">
<path fill-rule="evenodd" clip-rule="evenodd" d="M1.2 8C1.2 11.7555 4.24446 14.8 8 14.8C11.7555 14.8 14.8 11.7555 14.8 8C14.8 4.24446 11.7555 1.2 8 1.2C4.24446 1.2 1.2 4.24446 1.2 8ZM8 0C3.58172 0 0 3.58172 0 8C0 12.4183 3.58172 16 8 16C12.4183 16 16 12.4183 16 8C16 3.58172 12.4183 0 8 0Z" fill="black"/>
<path fill-rule="evenodd" clip-rule="evenodd" d="M7.10039 6.19911V9.79911L9.50039 7.99911L7.10039 6.19911ZM5.90039 5.39911C5.90039 4.73987 6.653 4.36357 7.18039 4.75911L10.6471 7.35911C11.0737 7.67911 11.0737 8.31911 10.6471 8.63911L7.18039 11.2391C6.653 11.6347 5.90039 11.2583 5.90039 10.5991V5.39911Z" fill="black"/>
</svg>
