<svg width="16" height="16" viewBox="0 0 16 16" fill="none" xmlns="http://www.w3.org/2000/svg">
<path fill-rule="evenodd" clip-rule="evenodd" d="M8 6.8C9.5464 6.8 10.8 5.5464 10.8 4C10.8 2.4536 9.5464 1.2 8 1.2C6.4536 1.2 5.2 2.4536 5.2 4C5.2 5.5464 6.4536 6.8 8 6.8ZM8 8C10.2091 8 12 6.20914 12 4C12 1.79086 10.2091 0 8 0C5.79086 0 4 1.79086 4 4C4 6.20914 5.79086 8 8 8Z" fill="black"/>
<path fill-rule="evenodd" clip-rule="evenodd" d="M9.63636 10.2H6.36364C3.7023 10.2 1.51121 12.2133 1.23041 14.8H14.7696C14.4888 12.2133 12.2977 10.2 9.63636 10.2ZM6.36364 9C2.8491 9 0 11.8491 0 15.3636C0 15.7151 0.28491 16 0.636364 16H15.3636C15.7151 16 16 15.7151 16 15.3636C16 11.8491 13.1509 9 9.63636 9H6.36364Z" fill="black"/>
</svg>
