<svg width="17" height="16" viewBox="0 0 17 16" fill="none" xmlns="http://www.w3.org/2000/svg">
<path fill-rule="evenodd" clip-rule="evenodd" d="M8 1.2C4.24446 1.2 1.2 4.24446 1.2 8C1.2 11.7555 4.24446 14.8 8 14.8C11.7555 14.8 14.8 11.7555 14.8 8C14.8 7.6878 14.779 7.38083 14.7384 7.08035L15.9276 6.9197C15.9754 7.27328 16 7.63392 16 8C16 12.4183 12.4183 16 8 16C3.58172 16 0 12.4183 0 8C0 3.58172 3.58172 0 8 0C9.15338 0 10.2513 0.244451 11.2434 0.684941C11.4425 0.773338 11.6373 0.869609 11.8274 0.973355L11.2525 2.02669C11.091 1.93854 10.9255 1.85677 10.7564 1.7817C9.91467 1.40796 8.98242 1.2 8 1.2Z" fill="white"/>
<path fill-rule="evenodd" clip-rule="evenodd" d="M15.9948 2.00507C16.2682 2.27844 16.2682 2.72166 15.9948 2.99502L8.62575 10.3641C8.29321 10.6966 7.76071 10.7171 7.40364 10.411L4.04426 7.53153C3.75074 7.27993 3.71674 6.83802 3.96834 6.54449C4.21993 6.25097 4.66184 6.21697 4.95537 6.46857L7.9632 9.04671L15.0048 2.00507C15.2782 1.73171 15.7214 1.73171 15.9948 2.00507Z" fill="white"/>
</svg>
