<svg width="20" height="20" viewBox="0 0 20 20" fill="none" xmlns="http://www.w3.org/2000/svg">
<circle cx="10" cy="10" r="9.3" stroke="black" stroke-width="1.4"/>
<path fill-rule="evenodd" clip-rule="evenodd" d="M9 14.7V14.1C9 13.8791 9.17909 13.7 9.4 13.7H10.6C10.8209 13.7 11 13.8791 11 14.1V14.7C11 15.2523 10.5523 15.7 10 15.7C9.44772 15.7 9 15.2523 9 14.7Z" fill="black"/>
<path fill-rule="evenodd" clip-rule="evenodd" d="M8.3384 6.402C8.1307 6.70009 8.01108 7.0333 7.95075 7.30399C7.9027 7.51961 7.72089 7.69999 7.49998 7.69999H6.49998C6.27906 7.69999 6.09904 7.52053 6.1263 7.3013C6.19574 6.74307 6.41032 6.02056 6.86155 5.37297C7.46333 4.5093 8.47787 3.79999 9.99998 3.79999C11.8506 3.79999 13.095 4.76412 13.5413 6.10288C13.9624 7.36635 13.6255 8.84725 12.6364 9.83638C12.3909 10.0819 12.1566 10.298 11.9593 10.4801C11.8896 10.5444 11.8244 10.6046 11.765 10.6602C11.524 10.886 11.3661 11.0484 11.2483 11.2094C11.0872 11.4296 10.9532 11.7085 10.9126 12.3C10.8975 12.5203 10.7209 12.7 10.5 12.7H9.49998C9.27906 12.7 9.09847 12.5207 9.1096 12.3001C9.15555 11.3894 9.36814 10.7309 9.79556 10.1466C10.0184 9.84196 10.2809 9.58406 10.5344 9.34659C10.6107 9.27509 10.6862 9.20542 10.7623 9.13526C10.9523 8.95992 11.1457 8.78149 11.3636 8.56359C11.8744 8.05272 12.0375 7.28363 11.8337 6.67209C11.6549 6.13586 11.1494 5.59999 9.99998 5.59999C9.12209 5.59999 8.63662 5.97401 8.3384 6.402Z" fill="#090909"/>
</svg>
