<svg width="21" height="20" viewBox="0 0 21 20" fill="none" xmlns="http://www.w3.org/2000/svg">
<g opacity="0.8">
<path opacity="0.8" d="M9.20833 0.688293C4.51043 0.688293 0.688232 4.5105 0.688232 9.20839C0.688232 13.9063 4.51043 17.7285 9.20833 17.7285C11.3216 17.7285 13.2565 16.9532 14.7469 15.6743L17.9205 18.8479L18.1224 19.0395L19.04 18.1219L18.8473 17.92L15.6731 14.7464C16.9525 13.256 17.7284 11.3216 17.7284 9.20782C17.7284 4.50992 13.9062 0.688293 9.20833 0.688293ZM9.20833 1.99868C13.1974 1.99868 16.4175 5.21874 16.4175 9.20782C16.4175 13.1969 13.1974 16.417 9.20833 16.417C5.21925 16.417 1.99919 13.1969 1.99919 9.20782C1.99919 5.21874 5.21925 1.99868 9.20833 1.99868Z" fill="black"/>
<path opacity="0.8" fill-rule="evenodd" clip-rule="evenodd" d="M17.9205 18.8478L14.7469 15.6742C13.2564 16.953 11.3215 17.7284 9.20827 17.7284C4.51037 17.7284 0.688169 13.9062 0.688169 9.20827C0.688169 4.51037 4.51037 0.688169 9.20827 0.688169C13.9062 0.688169 17.7284 4.5098 17.7284 9.20769C17.7284 11.3215 16.9524 13.2558 15.673 14.7463L18.8472 17.9199L19.0399 18.1217L18.1223 19.0393L17.9205 18.8478ZM16.595 14.695C17.7372 13.1626 18.4165 11.2635 18.4165 9.20769C18.4165 4.12967 14.2862 0 9.20827 0C4.1303 0 0 4.1303 0 9.20827C0 14.2862 4.1303 18.4165 9.20827 18.4165C11.2635 18.4165 13.1629 17.7377 14.6955 16.596L17.4402 19.3408L18.1349 20L20.0019 18.1329L19.345 17.4447L16.595 14.695ZM15.7292 9.20769C15.7292 5.59868 12.8173 2.68672 9.20827 2.68672C5.59925 2.68672 2.6873 5.59868 2.6873 9.20769C2.6873 12.8167 5.59925 15.7287 9.20827 15.7287C12.8173 15.7287 15.7292 12.8167 15.7292 9.20769ZM16.4174 9.20769C16.4174 5.21861 13.1973 1.99856 9.20827 1.99856C5.21918 1.99856 1.99913 5.21861 1.99913 9.20769C1.99913 13.1968 5.21918 16.4168 9.20827 16.4168C13.1973 16.4168 16.4174 13.1968 16.4174 9.20769Z" fill="black"/>
</g>
</svg>
