<!-- <svg width="37" height="36" viewBox="0 0 37 36" fill="none" xmlns="http://www.w3.org/2000/svg">
<path d="M26.3386 13.5562C28.7616 12.6773 30.1858 11.9637 32.5313 10.9022C29.286 10.3004 26.069 9.90183 22.7795 9.54964C18.5835 10.8962 15.8858 11.679 11.52 12.5054C16.7158 12.5469 21.2109 12.879 26.3386 13.5562Z" fill="black"/>
<path d="M26.3386 24.6148C28.7616 23.7359 30.1858 23.0222 32.5313 21.9607C29.286 21.3589 26.069 20.9604 22.7795 20.6082C18.5835 21.9547 15.8858 22.7376 11.52 23.5639C16.7158 23.6054 21.2109 23.9375 26.3386 24.6148Z" fill="black"/>
<path d="M34.5932 32.0052H23.2529C17.3852 33.8516 13.1201 35.1861 6.9707 36H34.5932C35.6942 36 36.5908 35.1051 36.5908 34.0024C36.5903 32.9018 35.6942 32.0052 34.5932 32.0052Z" fill="black"/>
<path d="M28.0682 29.155C28.4899 28.9956 28.9099 28.8328 29.3294 28.6677C31.1676 27.9415 32.985 27.1657 34.7797 26.3378C35.302 26.096 35.6891 25.6765 35.8702 25.153C36.0426 24.6576 36.0064 24.1276 35.7699 23.6617C35.3937 22.9231 34.6118 22.4842 33.7774 22.5426C33.5254 22.5602 33.2806 22.6225 33.0495 22.7296C26.03 25.9617 18.6452 28.3764 11.0081 29.9489C9.8899 30.1787 8.76602 30.3908 7.63726 30.5837C6.03973 30.8581 4.43205 31.0952 2.81563 31.296C2.70928 31.3096 2.60384 31.3237 2.49698 31.3364C2.36201 31.353 2.23146 31.3821 2.10288 31.4203C1.65509 31.5545 1.25963 31.8154 0.985983 32.1698C0.676121 32.5706 0.541889 33.0606 0.608475 33.5499C0.722066 34.388 1.43266 35.0571 2.31965 35.2558C2.55298 35.3078 2.79858 35.3261 3.04954 35.3068C3.08969 35.304 3.12997 35.3029 3.17082 35.2974C3.42756 35.2657 3.6838 35.2332 3.94033 35.1984C11.7843 34.1754 19.4203 32.3152 26.7392 29.6479C27.1829 29.487 27.6268 29.3233 28.0682 29.155Z" fill="black"/>
<path d="M3.17085 24.0977C14.2113 22.7368 24.8466 19.7215 34.7797 15.1372C35.3021 14.8962 35.689 14.4759 35.8703 13.9541C36.0426 13.457 36.0064 12.927 35.7699 12.4611C35.3937 11.7233 34.6118 11.2841 33.7774 11.3424C33.5254 11.36 33.2806 11.4233 33.0495 11.5294C23.4516 15.9484 13.1715 18.8435 2.49701 20.1367C1.88846 20.2103 1.33813 20.514 0.985952 20.9692C0.676091 21.3699 0.54192 21.8609 0.608506 22.3502C0.756382 23.444 1.92462 24.2531 3.17085 24.0977Z" fill="black"/>
<path d="M3.17079 12.8982C14.2113 11.5369 24.8466 8.52286 34.7797 3.93813C35.3021 3.69762 35.689 3.27637 35.8702 2.7542C36.0426 2.25837 36.0064 1.72791 35.7699 1.26245C35.3937 0.5243 34.6118 0.0854435 33.7774 0.143792C33.5254 0.161411 33.2806 0.223762 33.0494 0.329498C23.4515 4.74933 13.1715 7.6445 2.49692 8.93679C1.8884 9.01083 1.33806 9.31448 0.985952 9.77055C0.676091 10.1713 0.541827 10.661 0.608383 11.1498C0.75632 12.2445 1.92462 13.0545 3.17079 12.8982Z" fill="black"/>
</svg> -->

<svg width="62" height="95" viewBox="0 0 62 95" fill="none" xmlns="http://www.w3.org/2000/svg">
<path d="M6 6.52778H25.2308M56 14.332L6 33.0211M56 61.9789L6 80.668M56 88.4722H36.7692" stroke="black" stroke-width="11.7063" stroke-linecap="round" stroke-linejoin="round"/>
<path d="M56 37.7445L6 57.2551" stroke="black" stroke-width="11.7063" stroke-linecap="round" stroke-linejoin="bevel"/>
</svg>
