<svg width="16" height="16" viewBox="0 0 16 16" fill="none" xmlns="http://www.w3.org/2000/svg">
<path fill-rule="evenodd" clip-rule="evenodd" d="M2.77974 1.2L1.84641 3.3H14.1534L13.22 1.2H2.77974ZM14.1583 0.356317C14.062 0.13964 13.8471 0 13.61 0H2.38982C2.15271 0 1.93783 0.139641 1.84153 0.356318L0.124885 4.21877C0.0661037 4.35103 0.162916 4.5 0.307647 4.5H15.6921C15.8369 4.5 15.9337 4.35103 15.8749 4.21877L14.1583 0.356317Z" fill="black"/>
<path fill-rule="evenodd" clip-rule="evenodd" d="M1.3 4.5C1.13431 4.5 1 4.63431 1 4.8V6C1 6.86005 1.64543 7.5 2.375 7.5C3.10457 7.5 3.75 6.86005 3.75 6H4.75C4.75 6.2549 4.80817 6.49291 4.91041 6.70359L4.91084 6.70448C4.98194 6.85175 5.07406 6.982 5.18084 7.0902L5.18396 7.09336L5.18394 7.09338C5.30512 7.21837 5.44883 7.31864 5.60882 7.3909C5.76909 7.46127 5.94261 7.5 6.125 7.5C6.85457 7.5 7.5 6.86005 7.5 6H8.5C8.5 6.39046 8.63549 6.73911 8.85251 7.002L8.85329 7.00295C9.10927 7.31458 9.47503 7.5 9.875 7.5C10.6046 7.5 11.25 6.86005 11.25 6H12.25C12.25 6.86005 12.8954 7.5 13.625 7.5C14.0608 7.5 14.4597 7.27633 14.7167 6.90875L14.718 6.90697C14.8932 6.65868 15 6.34521 15 6V4.8C15 4.63431 14.8657 4.5 14.7 4.5H1.3ZM11.75 7.53439C11.3204 8.11748 10.6489 8.5 9.875 8.5C9.15253 8.5 8.51122 8.16198 8.08055 7.63768C8.05282 7.60405 8.02593 7.56964 7.99993 7.5345C7.5703 8.11753 6.89886 8.5 6.125 8.5C5.79719 8.5 5.48609 8.42964 5.20373 8.30518L5.20018 8.30362L5.20019 8.30361C4.92759 8.18092 4.67879 8.00856 4.4675 7.79102C4.38904 7.71136 4.31612 7.62591 4.24923 7.53545C3.81957 8.11794 3.14844 8.5 2.375 8.5C1.03364 8.5 0 7.35089 0 6V4.8C0 4.08203 0.58203 3.5 1.3 3.5H14.7C15.418 3.5 16 4.08203 16 4.8V6C16 6.55275 15.8287 7.067 15.5357 7.48259C15.1098 8.09118 14.4176 8.5 13.625 8.5C12.8511 8.5 12.1796 8.11748 11.75 7.53439Z" fill="black"/>
<path fill-rule="evenodd" clip-rule="evenodd" d="M6.2 11.2V14.8H9.8V11.2H6.2ZM5.6 10C5.26863 10 5 10.2686 5 10.6V15.4C5 15.7314 5.26863 16 5.6 16H10.4C10.7314 16 11 15.7314 11 15.4V10.6C11 10.2686 10.7314 10 10.4 10H5.6Z" fill="black"/>
</svg>
