<svg width="16" height="16" viewBox="0 0 16 16" fill="none" xmlns="http://www.w3.org/2000/svg">
    <g opacity="0.4">
        <path fill-rule="evenodd" clip-rule="evenodd" d="M0 6.80005H4.2V11.8H7.2V16H0.6C0.268629 16 0 15.7314 0 15.4V6.80005ZM1.2 8.00005V14.8H6V13H3V8.00005H1.2Z" fill="black"/>
        <path fill-rule="evenodd" clip-rule="evenodd" d="M0 4.40005C0 4.06868 0.268629 3.80005 0.6 3.80005H6.6C6.93137 3.80005 7.2 4.06868 7.2 4.40005L7.2 8.80005H9.6C9.93137 8.80005 10.2 9.06868 10.2 9.40005V13L3 13L3 8.00005L0 8.00005V4.40005ZM1.2 5.00005V6.80005L4.2 6.80005L4.2 11.8L9 11.8V10H6L6 5.00005H1.2Z" fill="black"/>
        <path fill-rule="evenodd" clip-rule="evenodd" d="M6 11.8H15.4C15.7314 11.8 16 12.0687 16 12.4V15.4C16 15.7314 15.7314 16 15.4 16H6V11.8ZM7.17647 13V14.8H14.8235V13H7.17647Z" fill="black"/>
        <path fill-rule="evenodd" clip-rule="evenodd" d="M9.7998 0.6C9.7998 0.268629 10.0684 0 10.3998 0H15.3998C15.7312 0 15.9998 0.268629 15.9998 0.6V5.6C15.9998 5.93137 15.7312 6.2 15.3998 6.2H10.3998C10.0684 6.2 9.7998 5.93137 9.7998 5.6V0.6ZM10.9998 1.2V5H14.7998V1.2H10.9998Z" fill="black"/>
    </g>
</svg>
