<svg width="16" height="16" viewBox="0 0 16 16" fill="none" xmlns="http://www.w3.org/2000/svg">
    <path opacity="0.4" fill-rule="evenodd" clip-rule="evenodd" d="M8.57032 14.5437C8.70898 14.6992 8.93137 14.8 9.17786 14.8C9.19984 14.8 9.21527 14.7994 9.22625 14.7986C9.22857 14.7984 9.23064 14.7983 9.23245 14.7981L9.3111 14.7598L9.41855 14.7302C9.73707 14.6427 9.94366 14.4123 10.0063 14.1246L10.5652 11.2882C10.6913 10.6736 11.1206 10.2273 11.6105 10.015L11.6213 10.0104L14.3319 8.86731C14.6196 8.74097 14.781 8.49986 14.8 8.23311C14.8025 7.92428 14.6475 7.66938 14.3975 7.53708L14.3899 7.53309L11.8052 6.14161C11.3013 5.86875 10.9364 5.36098 10.8746 4.75805L10.8743 4.75567L10.5859 1.88718C10.5858 1.88651 10.5857 1.88585 10.5856 1.88518C10.5569 1.61986 10.3681 1.36212 10.0729 1.25324C9.77037 1.14165 9.43471 1.21056 9.2147 1.4094C9.21432 1.40976 9.21393 1.41011 9.21354 1.41046L7.04324 3.39386L7.02761 3.40719C6.62029 3.75462 6.06243 3.9359 5.47969 3.82229L5.46867 3.82014L2.57703 3.20001C2.24481 3.13597 1.92823 3.25632 1.73944 3.48452C1.55512 3.70732 1.52286 3.99328 1.64428 4.24392L1.64628 4.24805L2.8856 6.83153C3.20438 7.43366 3.09098 8.07688 2.84016 8.51699L2.83147 8.53224L1.30271 11.0411C1.30237 11.0417 1.30204 11.0422 1.3017 11.0428C1.15856 11.2815 1.16709 11.5811 1.3236 11.81C1.49431 12.0596 1.78841 12.2 2.11491 12.1602L5.05824 11.8016L5.07262 11.8002C5.56753 11.752 6.16227 11.8932 6.59895 12.377L8.57032 14.5437ZM5.70932 13.1824C5.57444 13.0321 5.38174 12.9758 5.18904 12.9945L2.26005 13.3514C1.48927 13.4454 0.757021 13.1072 0.333088 12.4874C-0.0908439 11.8675 -0.110111 11.0598 0.275282 10.4211L1.79759 7.92282C1.89393 7.75376 1.9132 7.54713 1.81685 7.37807L0.564322 4.76708C0.236738 4.09085 0.333088 3.30191 0.81483 2.7196C1.29657 2.13729 2.06736 1.87432 2.81888 2.02459L5.70932 2.64447C5.90202 2.68203 6.09471 2.62568 6.24887 2.4942L8.40707 0.521861C8.96589 0.0146885 9.77522 -0.13559 10.4882 0.127388C11.2012 0.390366 11.7022 1.02903 11.7793 1.76161L12.0683 4.63559C12.0876 4.82343 12.2032 4.99249 12.3766 5.08641L14.9588 6.47643C15.6332 6.83333 16.0186 7.52835 15.9993 8.27971C15.9608 9.03108 15.4983 9.66974 14.8046 9.97029L12.0876 11.1161C11.9141 11.1913 11.7793 11.3415 11.7407 11.5294L11.1819 14.3658C11.0277 15.0984 10.4882 15.6807 9.73668 15.8873C9.54398 15.9812 9.35129 16 9.17786 16C8.61904 16 8.06022 15.7746 7.67483 15.3426L5.70932 13.1824Z" fill="black"/>
</svg>
