<svg width="16" height="16" viewBox="0 0 16 16" fill="none" xmlns="http://www.w3.org/2000/svg">
<path d="M11 10.8H14.8V1.2H9.2V3H8V0.6C8 0.268629 8.26863 0 8.6 0H15.4C15.7314 0 16 0.268629 16 0.6V11.4C16 11.7314 15.7314 12 15.4 12H11V10.8Z" fill="black"/>
<path d="M7 12.8H10.8V3.2H5.2V5H4V2.6C4 2.26863 4.26863 2 4.6 2H11.4C11.7314 2 12 2.26863 12 2.6V13.4C12 13.7314 11.7314 14 11.4 14H7V12.8Z" fill="black"/>
<path fill-rule="evenodd" clip-rule="evenodd" d="M1.2 5.2V14.8H6.8V5.2H1.2ZM0.6 4C0.268629 4 0 4.26863 0 4.6V15.4C0 15.7314 0.268629 16 0.6 16H7.4C7.73137 16 8 15.7314 8 15.4V4.6C8 4.26863 7.73137 4 7.4 4H0.6Z" fill="black"/>
<path d="M2 12.24C2 12.1075 2.08954 12 2.2 12H5.8C5.91046 12 6 12.1075 6 12.24V12.96C6 13.0925 5.91046 13.2 5.8 13.2H2.2C2.08954 13.2 2 13.0925 2 12.96V12.24Z" fill="black"/>
<path d="M7 10.24C7 10.1075 7.08954 10 7.2 10H9.8C9.91046 10 10 10.1075 10 10.24V10.96C10 11.0925 9.91046 11.2 9.8 11.2H7.2C7.08954 11.2 7 11.0925 7 10.96V10.24Z" fill="black"/>
<path d="M11 8.24C11 8.10745 11.0895 8 11.2 8H13.8C13.9105 8 14 8.10745 14 8.24V8.96C14 9.09255 13.9105 9.2 13.8 9.2H11.2C11.0895 9.2 11 9.09255 11 8.96V8.24Z" fill="black"/>
</svg>
