<svg width="15" height="12" viewBox="0 0 15 12" fill="none" xmlns="http://www.w3.org/2000/svg">
<path opacity="0.8" fill-rule="evenodd" clip-rule="evenodd" d="M0 0.8C0 0.358173 0.358171 0 0.8 0H7.4C7.84183 0 8.2 0.358172 8.2 0.8V2.99998H7V1.2H1.2L1.2 10.8H7L7 8.99998H8.2L8.2 11.2C8.2 11.6418 7.84183 12 7.4 12H0.800001C0.358174 12 4.76837e-07 11.6418 4.76837e-07 11.2L0 0.8Z" fill="white"/>
<path opacity="0.8" fill-rule="evenodd" clip-rule="evenodd" d="M11.7169 3.12524L14.0167 6.00006L11.7169 8.87488L10.7798 8.12524L12 6.60006L4.09998 6.59997V5.39997L12 5.40006L10.7798 3.87488L11.7169 3.12524Z" fill="white"/>
</svg>
