<svg width="16" height="17" viewBox="0 0 16 17" fill="none" xmlns="http://www.w3.org/2000/svg">
<g opacity="0.8">
<path d="M0.8 4.60156C0.358172 4.60156 0 4.95973 0 5.40156V15.6138C0 15.9734 0.437414 16.1503 0.687441 15.892L2.90398 13.6016H11.2C11.6418 13.6016 12 13.2434 12 12.8016V8H10.8V12.4016H2.39536L1.2 13.6368V5.80156H5V4.60156H0.8Z" fill="white"/>
<path fill-rule="evenodd" clip-rule="evenodd" d="M13.6046 7.8L14.8 9.03521V1.2H5.2V7.8H13.6046ZM16 0.8C16 0.358172 15.6418 0 15.2 0H4.8C4.35817 0 4 0.358172 4 0.8V8.2C4 8.64183 4.35817 9 4.8 9H13.096L15.3126 11.2904C15.5626 11.5488 16 11.3718 16 11.0123V0.8Z" fill="white"/>
<rect x="6.2998" y="2.80078" width="7.4" height="1.2" fill="white"/>
<rect x="6.2998" y="5" width="5.7" height="1.2" fill="white"/>
</g>
</svg>
