<svg width="18" height="18" viewBox="0 0 18 18" fill="none" xmlns="http://www.w3.org/2000/svg">
<path opacity="0.2" d="M15.8124 17.0451L15.8123 17.0452L15.818 17.0506L15.9939 17.2176L16.2059 17.4188L16.4126 17.2121L17.2126 16.4121L17.4199 16.2048L17.2175 15.9928L17.0495 15.8168L17.0495 15.8168L17.0446 15.8118L14.4702 13.2379C15.5242 11.9176 16.157 10.2459 16.157 8.428C16.157 4.16629 12.6901 0.7 8.42849 0.7C4.16681 0.7 0.7 4.16681 0.7 8.42849C0.7 12.6902 4.16681 16.157 8.42849 16.157C10.2459 16.157 11.918 15.5247 13.2384 14.4711L15.8124 17.0451ZM8.42849 2.4425C11.7408 2.4425 14.414 5.11568 14.414 8.428C14.414 11.7403 11.7408 14.4135 8.42849 14.4135C5.11618 14.4135 2.443 11.7403 2.443 8.428C2.443 5.11568 5.11618 2.4425 8.42849 2.4425Z" fill="black" stroke="black" stroke-width="0.6"/>
</svg>
