<svg width="16" height="16" viewBox="0 0 16 16" fill="none" xmlns="http://www.w3.org/2000/svg">
<path fill-rule="evenodd" clip-rule="evenodd" d="M7.27244 4.37593e-05H8.71103C8.96617 -0.00225237 9.21395 0.0858788 9.41038 0.248916C9.58256 0.391824 9.70544 0.584113 9.76329 0.798582L10.1523 1.68547C10.2165 1.83292 10.335 1.94988 10.4833 2.01205C10.6319 2.07127 10.7977 2.07115 10.9463 2.0117C10.9469 2.01145 10.9475 2.01121 10.9481 2.01096L11.843 1.64212C12.0349 1.52978 12.2576 1.47903 12.4806 1.49812C12.7344 1.51984 12.9723 1.63056 13.1523 1.8107M13.1523 1.8107L14.1848 2.84316C14.1849 2.84329 14.1847 2.84304 14.1848 2.84316C14.3649 3.02319 14.476 3.26148 14.4977 3.51524C14.5167 3.73612 14.4671 3.95663 14.357 4.14725L14.0015 5.04982C13.9413 5.19889 13.9409 5.36539 14.0003 5.51467C14.0625 5.66289 14.1795 5.78147 14.3269 5.84566L14.3286 5.84638L15.221 6.23779C15.428 6.29783 15.6131 6.41872 15.7515 6.5857C15.9086 6.77521 15.9962 7.01272 15.9999 7.25886L16 7.2638V8.71097C16.0023 8.96613 15.9141 9.21394 15.7511 9.41038C15.6082 9.58256 15.4159 9.70544 15.2014 9.76329L14.3162 10.1515L14.3134 10.1527C14.1666 10.2164 14.0499 10.3339 13.9872 10.481C13.9283 10.6286 13.928 10.7931 13.9862 10.941L14.3684 11.822C14.4835 12.0153 14.5357 12.2406 14.5163 12.4662C14.4946 12.7199 14.3839 12.9578 14.2038 13.1379C14.2036 13.138 14.2039 13.1377 14.2038 13.1379L13.1713 14.1703C12.9912 14.3507 12.7532 14.4615 12.4992 14.4833C12.2783 14.5022 12.0578 14.4526 11.8672 14.3425L10.9652 13.9872C10.8164 13.9273 10.6502 13.9269 10.5012 13.9861C10.3524 14.0483 10.2334 14.1657 10.1691 14.3138L10.1681 14.3162L9.77981 15.2014C9.72197 15.4159 9.59909 15.6082 9.42691 15.7511C9.23046 15.9141 8.98266 16.0023 8.7275 16H7.28902C7.03387 16.0023 6.78606 15.9141 6.58961 15.7511C6.41743 15.6082 6.29456 15.4159 6.23671 15.2014L5.84845 14.3162L5.84772 14.3145C5.78353 14.1671 5.66496 14.0501 5.51673 13.988C5.36818 13.9288 5.20256 13.9288 5.05405 13.9882L4.1657 14.3556C3.9737 14.4681 3.75086 14.5189 3.52763 14.4998C3.27369 14.4781 3.03563 14.3672 2.85556 14.1868L1.82348 13.1548C1.82335 13.1546 1.82361 13.1549 1.82348 13.1548C1.64334 12.9747 1.53224 12.7365 1.51051 12.4827C1.49149 12.2605 1.5418 12.0386 1.65329 11.8472L2.01096 10.9647C2.01101 10.9645 2.01091 10.9648 2.01096 10.9647C2.07101 10.8157 2.07147 10.649 2.01205 10.4998C1.94988 10.3516 1.83292 10.233 1.68548 10.1688L1.68381 10.1681L0.798578 9.77981C0.584108 9.72196 0.391821 9.59908 0.248916 9.42691C0.0858796 9.23048 -0.00225237 8.98269 4.37591e-05 8.72756V7.28897C-0.00225237 7.03383 0.0858792 6.78604 0.248916 6.58961C0.391824 6.41744 0.584113 6.29456 0.798581 6.23671L1.68656 5.84725C1.83337 5.78364 1.95012 5.66613 2.01279 5.51902C2.07226 5.36991 2.07202 5.2036 2.01208 5.05463L1.64444 4.1657C1.53192 3.9737 1.48108 3.75086 1.50019 3.52763C1.52191 3.27387 1.63262 3.03597 1.81276 2.85595L2.84523 1.82348C3.02525 1.64334 3.26355 1.53224 3.5173 1.51051C3.74037 1.49142 3.96306 1.54218 4.15497 1.65454L5.03712 2.01823C5.18613 2.07499 5.35129 2.0726 5.49869 2.01143C5.64768 1.9496 5.76696 1.83251 5.83154 1.68469L6.22018 0.798582C6.27803 0.584111 6.40091 0.391822 6.57309 0.248916C6.76952 0.0858796 7.0173 -0.00225237 7.27244 4.37593e-05M7.44156 1.33338L7.05336 2.21848C7.05331 2.2186 7.05341 2.21836 7.05336 2.21848C6.85085 2.68177 6.47678 3.04912 6.00976 3.24293C5.54263 3.43679 5.0186 3.44234 4.54746 3.25843L4.54159 3.25614L3.66117 2.89316L2.88289 3.67143L3.2469 4.5516C3.43845 5.02365 3.43843 5.55178 3.24689 6.02383L3.24407 6.03077C3.04894 6.49655 2.68134 6.86888 2.21816 7.07003C2.21764 7.07025 2.21713 7.07048 2.21661 7.0707L1.33338 7.45809V8.55843L2.21769 8.9463C2.21795 8.94641 2.2182 8.94652 2.21845 8.94663C2.68317 9.14917 3.05121 9.5241 3.24512 9.99251L3.24734 9.99789C3.4372 10.4681 3.43717 10.9936 3.24732 11.4639L2.89283 12.3385L3.67143 13.1171L4.55266 12.7527C5.02287 12.5628 5.54842 12.5628 6.01863 12.7527L6.02402 12.7549C6.49246 12.9488 6.86739 13.3169 7.06993 13.7816C7.07003 13.7818 7.07013 13.7821 7.07023 13.7823L7.45809 14.6666H8.55843L8.94596 13.7831C8.94615 13.7826 8.94633 13.7822 8.94651 13.7818C9.14919 13.3156 9.52531 12.9464 9.99531 12.7525L10.0005 12.7504C10.4689 12.5617 10.9921 12.5614 11.4607 12.7493C11.4616 12.7497 11.4624 12.75 11.4633 12.7504L12.3545 13.1015L13.1326 12.3234L12.7561 11.4558L12.7531 11.4484C12.5616 10.9763 12.5616 10.4482 12.7531 9.97617L12.7559 9.96923C12.9511 9.50343 13.3187 9.13109 13.7819 8.92995C13.7824 8.92973 13.7829 8.92952 13.7834 8.9293L14.6666 8.54191V7.45059L13.7947 7.06816C13.7944 7.06803 13.7941 7.0679 13.7938 7.06776C13.3291 6.8652 12.9612 6.49031 12.7673 6.02195L12.7651 6.01657C12.5756 5.54733 12.5752 5.02299 12.7639 4.55353L13.1159 3.65992L12.3368 2.88076L11.4473 3.24733C10.9771 3.43719 10.4516 3.43717 9.98137 3.24732L9.97598 3.24514C9.50764 3.05127 9.13278 2.6833 8.9302 2.21869C8.93006 2.21836 8.92991 2.21803 8.92977 2.21769L8.54191 1.33338H7.44156ZM13.2428 3.78675C13.2429 3.78688 13.2426 3.78662 13.2428 3.78675V3.78675ZM12.2277 13.2283C12.2276 13.2284 12.2278 13.2282 12.2277 13.2283V13.2283ZM3.78882 2.76551C3.78895 2.76538 3.78869 2.76564 3.78882 2.76551V2.76551Z" fill="black"/>
<path fill-rule="evenodd" clip-rule="evenodd" d="M8.00008 6.00008C6.89551 6.00008 6.00008 6.89551 6.00008 8.00008C6.00008 9.10465 6.89551 10.0001 8.00008 10.0001C9.10465 10.0001 10.0001 9.10465 10.0001 8.00008C10.0001 6.89551 9.10465 6.00008 8.00008 6.00008ZM4.66675 8.00008C4.66675 6.15913 6.15913 4.66675 8.00008 4.66675C9.84103 4.66675 11.3334 6.15913 11.3334 8.00008C11.3334 9.84103 9.84103 11.3334 8.00008 11.3334C6.15913 11.3334 4.66675 9.84103 4.66675 8.00008Z" fill="black"/>
</svg>
