<svg width="60" height="60" viewBox="0 0 60 60" fill="none" xmlns="http://www.w3.org/2000/svg">
<circle cx="30" cy="30" r="30" fill="#E1E1E1"/>
<path fillRule="evenodd" clipRule="evenodd" d="M43.6978 24.8148C45.5797 24.8148 47.1052 23.2893 47.1052 21.4074C47.1052 19.5255 45.5797 18 43.6978 18C41.8159 18 40.2904 19.5255 40.2904 21.4074C40.2904 23.2893 41.8159 24.8148 43.6978 24.8148ZM14.9469 41H45.0724C45.9028 41 46.369 40.0463 45.8616 39.3889L37.9839 29.1838C37.5993 28.6856 36.8556 28.6623 36.4406 29.1354L33.5975 32.3766C33.1701 32.8637 32.3994 32.822 32.0272 32.2916L26.4033 24.2776C26.0051 23.7101 25.1644 23.7101 24.7662 24.2776L14.136 39.4256C13.671 40.0882 14.1374 41 14.9469 41Z" fill="white"/>
</svg>
