<svg width="262" height="262" viewBox="0 0 262 262" fill="none" xmlns="http://www.w3.org/2000/svg">
<rect width="262" height="262" fill="#E6E6E6"/>
<path d="M73.0738 33.06C72.7271 33.86 72.4004 34.6533 72.0938 35.44C71.7871 36.2133 71.4871 37.0067 71.1938 37.82H74.8538C74.5604 37.0067 74.2671 36.2133 73.9738 35.44C73.6938 34.6533 73.3938 33.86 73.0738 33.06ZM80.1538 43.04C79.8338 43.0133 79.5271 43 79.2338 43C78.9538 43 78.6738 43 78.3937 43C78.1138 43 77.8271 43 77.5338 43C77.2538 43 76.9738 43.0133 76.6938 43.04C76.4804 42.3867 76.2604 41.72 76.0338 41.04C75.8071 40.36 75.5671 39.68 75.3138 39C74.8871 38.9867 74.4604 38.98 74.0338 38.98C73.6071 38.9667 73.1804 38.96 72.7538 38.96C72.4071 38.96 72.0604 38.9667 71.7138 38.98C71.3671 38.98 71.0204 38.9867 70.6738 39C70.4071 39.68 70.1604 40.36 69.9338 41.04C69.7071 41.72 69.5004 42.3867 69.3138 43.04C69.1538 43.0133 68.9938 43 68.8338 43C68.6871 43 68.5338 43 68.3738 43C68.2138 43 68.0538 43 67.8938 43C67.7338 43 67.5604 43.0133 67.3738 43.04C67.5338 42.6933 67.7471 42.2133 68.0138 41.6C68.2804 40.9867 68.5738 40.2933 68.8938 39.52C69.2138 38.7467 69.5538 37.92 69.9138 37.04C70.2871 36.1467 70.6538 35.2467 71.0138 34.34C71.3871 33.4333 71.7471 32.54 72.0938 31.66C72.4538 30.78 72.7804 29.96 73.0738 29.2C73.2071 29.2267 73.3338 29.2533 73.4538 29.28C73.5738 29.2933 73.7004 29.3 73.8338 29.3C73.9671 29.3 74.0938 29.2933 74.2138 29.28C74.3338 29.2533 74.4604 29.2267 74.5938 29.2C75.0204 30.3333 75.4738 31.5467 75.9538 32.84C76.4471 34.1333 76.9404 35.4067 77.4338 36.66C77.9271 37.9 78.4071 39.08 78.8738 40.2C79.3404 41.32 79.7671 42.2667 80.1538 43.04ZM84.0536 38.46C84.0536 39.14 84.1003 39.7133 84.1936 40.18C84.2869 40.6467 84.4136 41.0267 84.5736 41.32C84.7336 41.6 84.9136 41.8067 85.1136 41.94C85.3269 42.06 85.5469 42.12 85.7736 42.12C86.3203 42.12 86.7669 41.8133 87.1136 41.2C87.4736 40.5733 87.6536 39.54 87.6536 38.1C87.6536 36.86 87.4869 35.96 87.1536 35.4C86.8203 34.8267 86.3936 34.54 85.8736 34.54C85.6603 34.54 85.4469 34.6 85.2336 34.72C85.0203 34.84 84.8269 35.0533 84.6536 35.36C84.4803 35.6533 84.3336 36.0533 84.2136 36.56C84.1069 37.0667 84.0536 37.7 84.0536 38.46ZM90.3336 36.18C90.3336 37.4867 90.3469 38.6867 90.3736 39.78C90.4003 40.8733 90.4403 41.96 90.4936 43.04C90.3203 43.0133 90.1003 43 89.8336 43C89.5669 43 89.2869 43 88.9936 43C88.7269 43 88.4669 43 88.2136 43C87.9736 43 87.7869 43.0133 87.6536 43.04C87.6669 43.0133 87.6803 42.9267 87.6936 42.78C87.7069 42.6333 87.7203 42.4667 87.7336 42.28C87.7603 42.0933 87.7803 41.92 87.7936 41.76C87.8069 41.6 87.8136 41.5 87.8136 41.46L87.7736 41.42C87.5203 42.02 87.1736 42.4867 86.7336 42.82C86.2936 43.14 85.6869 43.3 84.9136 43.3C84.2336 43.3 83.6536 43.1733 83.1736 42.92C82.6936 42.6533 82.3003 42.2867 81.9936 41.82C81.6869 41.3533 81.4603 40.8067 81.3136 40.18C81.1669 39.5533 81.0936 38.88 81.0936 38.16C81.0936 37.44 81.1936 36.78 81.3936 36.18C81.5936 35.5667 81.8669 35.04 82.2136 34.6C82.5603 34.1467 82.9669 33.7933 83.4336 33.54C83.9136 33.2867 84.4203 33.16 84.9536 33.16C85.5536 33.16 86.0869 33.3 86.5536 33.58C87.0336 33.86 87.3869 34.2133 87.6136 34.64H87.6536C87.6536 33.44 87.6403 32.3133 87.6136 31.26C87.5869 30.1933 87.5469 29.0933 87.4936 27.96C87.6669 27.9867 87.8869 28.0133 88.1536 28.04C88.4203 28.0533 88.7003 28.06 88.9936 28.06C89.2869 28.06 89.5669 28.0533 89.8336 28.04C90.1003 28.0133 90.3203 27.9867 90.4936 27.96C90.4403 29.08 90.4003 30.1867 90.3736 31.28C90.3469 32.3733 90.3336 33.5733 90.3336 34.88V36.18ZM95.1669 38.46C95.1669 39.14 95.2135 39.7133 95.3069 40.18C95.4002 40.6467 95.5269 41.0267 95.6869 41.32C95.8469 41.6 96.0269 41.8067 96.2269 41.94C96.4402 42.06 96.6602 42.12 96.8869 42.12C97.4335 42.12 97.8802 41.8133 98.2269 41.2C98.5869 40.5733 98.7669 39.54 98.7669 38.1C98.7669 36.86 98.6002 35.96 98.2669 35.4C97.9335 34.8267 97.5069 34.54 96.9869 34.54C96.7735 34.54 96.5602 34.6 96.3469 34.72C96.1335 34.84 95.9402 35.0533 95.7669 35.36C95.5935 35.6533 95.4469 36.0533 95.3269 36.56C95.2202 37.0667 95.1669 37.7 95.1669 38.46ZM101.447 36.18C101.447 37.4867 101.46 38.6867 101.487 39.78C101.514 40.8733 101.554 41.96 101.607 43.04C101.434 43.0133 101.214 43 100.947 43C100.68 43 100.4 43 100.107 43C99.8402 43 99.5802 43 99.3269 43C99.0869 43 98.9002 43.0133 98.7669 43.04C98.7802 43.0133 98.7935 42.9267 98.8069 42.78C98.8202 42.6333 98.8335 42.4667 98.8469 42.28C98.8735 42.0933 98.8935 41.92 98.9069 41.76C98.9202 41.6 98.9269 41.5 98.9269 41.46L98.8869 41.42C98.6335 42.02 98.2869 42.4867 97.8469 42.82C97.4069 43.14 96.8002 43.3 96.0269 43.3C95.3469 43.3 94.7669 43.1733 94.2869 42.92C93.8069 42.6533 93.4135 42.2867 93.1069 41.82C92.8002 41.3533 92.5735 40.8067 92.4269 40.18C92.2802 39.5533 92.2069 38.88 92.2069 38.16C92.2069 37.44 92.3069 36.78 92.5069 36.18C92.7069 35.5667 92.9802 35.04 93.3269 34.6C93.6735 34.1467 94.0802 33.7933 94.5469 33.54C95.0269 33.2867 95.5335 33.16 96.0669 33.16C96.6669 33.16 97.2002 33.3 97.6669 33.58C98.1469 33.86 98.5002 34.2133 98.7269 34.64H98.7669C98.7669 33.44 98.7535 32.3133 98.7269 31.26C98.7002 30.1933 98.6602 29.0933 98.6069 27.96C98.7802 27.9867 99.0002 28.0133 99.2669 28.04C99.5335 28.0533 99.8135 28.06 100.107 28.06C100.4 28.06 100.68 28.0533 100.947 28.04C101.214 28.0133 101.434 27.9867 101.607 27.96C101.554 29.08 101.514 30.1867 101.487 31.28C101.46 32.3733 101.447 33.5733 101.447 34.88V36.18ZM110.187 33.28C110.187 32.36 110.173 31.5867 110.147 30.96C110.12 30.3333 110.1 29.78 110.087 29.3C110.46 29.3667 110.76 29.4 110.987 29.4C111.213 29.4 111.513 29.3667 111.887 29.3C113.34 30.9133 114.773 32.5 116.187 34.06C117.613 35.62 119.073 37.2067 120.567 38.82V37.08V35.14C120.567 34.4867 120.56 33.8467 120.547 33.22C120.547 32.58 120.54 31.9933 120.527 31.46C120.527 30.9267 120.513 30.4667 120.487 30.08C120.473 29.6933 120.453 29.4333 120.427 29.3C120.8 29.3667 121.1 29.4 121.327 29.4C121.553 29.4 121.853 29.3667 122.227 29.3C122.16 30.5133 122.107 31.6133 122.067 32.6C122.027 33.5733 121.993 34.4933 121.967 35.36C121.94 36.2267 121.92 37.0867 121.907 37.94C121.907 38.78 121.907 39.68 121.907 40.64V43.04C121.64 43.0133 121.367 43 121.087 43C120.793 43 120.533 43.0133 120.307 43.04C117.56 39.84 114.647 36.62 111.567 33.38C111.553 33.7667 111.54 34.1533 111.527 34.54C111.527 34.9267 111.527 35.32 111.527 35.72V38.04C111.527 38.84 111.527 39.52 111.527 40.08C111.54 40.64 111.553 41.1133 111.567 41.5C111.58 41.8867 111.593 42.2067 111.607 42.46C111.62 42.7 111.633 42.8933 111.647 43.04C111.487 43.0133 111.327 43 111.167 43C111.007 43 110.853 43 110.707 43C110.4 43 110.093 43.0133 109.787 43.04C109.813 42.9333 109.847 42.5533 109.887 41.9C109.927 41.2467 109.967 40.4533 110.007 39.52C110.06 38.5733 110.1 37.5533 110.127 36.46C110.167 35.3533 110.187 34.2933 110.187 33.28ZM127.413 38.26C127.413 38.7933 127.466 39.2933 127.573 39.76C127.68 40.2267 127.84 40.6333 128.053 40.98C128.28 41.3133 128.56 41.58 128.893 41.78C129.24 41.9667 129.64 42.06 130.093 42.06C131.013 42.06 131.833 41.76 132.553 41.16L132.793 41.34L132.353 42.46C132.02 42.7133 131.62 42.9133 131.153 43.06C130.686 43.22 130.073 43.3 129.313 43.3C128.66 43.3 128.04 43.2067 127.453 43.02C126.866 42.8467 126.346 42.5533 125.893 42.14C125.453 41.7267 125.1 41.2067 124.833 40.58C124.58 39.94 124.453 39.18 124.453 38.3C124.453 37.4333 124.566 36.68 124.793 36.04C125.033 35.4 125.36 34.8667 125.773 34.44C126.186 34.0133 126.673 33.6933 127.233 33.48C127.806 33.2667 128.426 33.16 129.093 33.16C130.413 33.16 131.42 33.5467 132.113 34.32C132.82 35.0933 133.173 36.1867 133.173 37.6V38.02C133.173 38.14 133.166 38.22 133.153 38.26H127.413ZM130.493 37.36C130.466 36.36 130.34 35.56 130.113 34.96C129.9 34.36 129.533 34.06 129.013 34.06C128.72 34.06 128.473 34.16 128.273 34.36C128.073 34.56 127.913 34.82 127.793 35.14C127.673 35.4467 127.58 35.8 127.513 36.2C127.46 36.5867 127.426 36.9733 127.413 37.36H130.493ZM145.433 40.34C146.166 38.02 146.84 35.7133 147.453 33.42C147.746 33.4867 148.006 33.52 148.233 33.52C148.366 33.52 148.493 33.5133 148.613 33.5C148.746 33.4733 148.9 33.4467 149.073 33.42C148.98 33.5933 148.853 33.88 148.693 34.28C148.533 34.68 148.353 35.1533 148.153 35.7C147.966 36.2467 147.76 36.8467 147.533 37.5C147.32 38.14 147.106 38.7867 146.893 39.44C146.68 40.0933 146.466 40.7333 146.253 41.36C146.053 41.9867 145.873 42.5467 145.713 43.04C145.526 43.0133 145.34 43 145.153 43C144.98 43 144.8 43 144.613 43C144.426 43 144.24 43 144.053 43C143.866 43 143.68 43.0133 143.493 43.04C143.333 42.5333 143.166 41.9933 142.993 41.42C142.82 40.8333 142.646 40.26 142.473 39.7C142.3 39.1267 142.133 38.5733 141.973 38.04C141.813 37.4933 141.666 36.9867 141.533 36.52H141.493C141.146 37.64 140.8 38.74 140.453 39.82C140.12 40.9 139.8 41.9733 139.493 43.04C139.306 43.0133 139.113 43 138.913 43C138.726 43 138.54 43 138.353 43C138.166 43 137.973 43 137.773 43C137.573 43 137.373 43.0133 137.173 43.04C137.026 42.5467 136.853 41.98 136.653 41.34C136.466 40.6867 136.266 40.0267 136.053 39.36C135.84 38.6933 135.626 38.0333 135.413 37.38C135.2 36.7267 135 36.1333 134.813 35.6C134.64 35.0533 134.486 34.5867 134.353 34.2C134.22 33.8133 134.126 33.5533 134.073 33.42C134.366 33.4467 134.633 33.4733 134.873 33.5C135.126 33.5133 135.38 33.52 135.633 33.52C135.873 33.52 136.113 33.5133 136.353 33.5C136.606 33.4733 136.853 33.4467 137.093 33.42C137.413 34.58 137.746 35.7733 138.093 37C138.44 38.2133 138.766 39.3267 139.073 40.34H139.113C139.5 39.1667 139.853 38.0133 140.173 36.88C140.493 35.7467 140.813 34.5933 141.133 33.42C141.32 33.4467 141.506 33.4733 141.693 33.5C141.88 33.5133 142.066 33.52 142.253 33.52C142.44 33.52 142.626 33.5133 142.813 33.5C143 33.4733 143.186 33.4467 143.373 33.42C143.693 34.5933 144.02 35.7467 144.353 36.88C144.686 38.0133 145.033 39.1667 145.393 40.34H145.433ZM156.786 34.84C156.786 33.7333 156.772 32.7533 156.746 31.9C156.719 31.0333 156.679 30.1667 156.626 29.3C156.852 29.3267 157.099 29.3533 157.366 29.38C157.632 29.3933 157.932 29.4 158.266 29.4C158.599 29.4 158.899 29.3933 159.166 29.38C159.432 29.3533 159.679 29.3267 159.906 29.3C159.852 30.1667 159.812 31.0333 159.786 31.9C159.759 32.7533 159.746 33.7333 159.746 34.84V37.56C159.746 38.6667 159.759 39.6533 159.786 40.52C159.812 41.3733 159.852 42.2133 159.906 43.04C159.679 43.0133 159.432 43 159.166 43C158.899 43 158.599 43 158.266 43C157.932 43 157.632 43 157.366 43C157.099 43 156.852 43.0133 156.626 43.04C156.679 42.2133 156.719 41.3733 156.746 40.52C156.772 39.6533 156.786 38.6667 156.786 37.56V34.84ZM167.906 33.52C167.866 33.72 167.846 33.9 167.846 34.06C167.846 34.2333 167.866 34.4 167.906 34.56L166.146 34.52C166.119 34.8267 166.093 35.18 166.066 35.58C166.053 35.98 166.039 36.3867 166.026 36.8C166.026 37.2133 166.019 37.6133 166.006 38C166.006 38.3867 166.006 38.7133 166.006 38.98C166.006 39.6733 166.019 40.2333 166.046 40.66C166.086 41.0867 166.146 41.4133 166.226 41.64C166.306 41.8667 166.419 42.02 166.566 42.1C166.713 42.18 166.899 42.22 167.126 42.22C167.379 42.22 167.566 42.2067 167.686 42.18C167.806 42.14 167.926 42.0867 168.046 42.02V42.84C167.779 42.96 167.446 43.0667 167.046 43.16C166.646 43.2533 166.253 43.3 165.866 43.3C164.173 43.3 163.326 42.2867 163.326 40.26C163.326 39.8733 163.333 39.44 163.346 38.96C163.359 38.4667 163.373 37.9667 163.386 37.46C163.413 36.94 163.433 36.4333 163.446 35.94C163.459 35.4333 163.466 34.9667 163.466 34.54L162.066 34.56C162.106 34.4 162.126 34.2333 162.126 34.06C162.126 33.9 162.106 33.72 162.066 33.52L163.466 33.58C163.466 33.1667 163.459 32.78 163.446 32.42C163.433 32.06 163.413 31.6267 163.386 31.12C163.853 30.9333 164.313 30.74 164.766 30.54C165.219 30.3267 165.673 30.1067 166.126 29.88L166.326 30.02C166.299 30.2333 166.273 30.4867 166.246 30.78C166.233 31.06 166.213 31.36 166.186 31.68C166.173 31.9867 166.159 32.3067 166.146 32.64C166.146 32.96 166.146 33.2667 166.146 33.56L167.906 33.52ZM171.866 38.26C171.866 38.7933 171.919 39.2933 172.026 39.76C172.133 40.2267 172.293 40.6333 172.506 40.98C172.733 41.3133 173.013 41.58 173.346 41.78C173.693 41.9667 174.093 42.06 174.546 42.06C175.466 42.06 176.286 41.76 177.006 41.16L177.246 41.34L176.806 42.46C176.473 42.7133 176.073 42.9133 175.606 43.06C175.139 43.22 174.526 43.3 173.766 43.3C173.113 43.3 172.493 43.2067 171.906 43.02C171.319 42.8467 170.799 42.5533 170.346 42.14C169.906 41.7267 169.553 41.2067 169.286 40.58C169.033 39.94 168.906 39.18 168.906 38.3C168.906 37.4333 169.019 36.68 169.246 36.04C169.486 35.4 169.813 34.8667 170.226 34.44C170.639 34.0133 171.126 33.6933 171.686 33.48C172.259 33.2667 172.879 33.16 173.546 33.16C174.866 33.16 175.873 33.5467 176.566 34.32C177.273 35.0933 177.626 36.1867 177.626 37.6V38.02C177.626 38.14 177.619 38.22 177.606 38.26H171.866ZM174.946 37.36C174.919 36.36 174.793 35.56 174.566 34.96C174.353 34.36 173.986 34.06 173.466 34.06C173.173 34.06 172.926 34.16 172.726 34.36C172.526 34.56 172.366 34.82 172.246 35.14C172.126 35.4467 172.033 35.8 171.966 36.2C171.913 36.5867 171.879 36.9733 171.866 37.36H174.946ZM182.086 34.92C182.459 34.36 182.893 33.9267 183.386 33.62C183.893 33.3133 184.466 33.16 185.106 33.16C185.706 33.16 186.219 33.3267 186.646 33.66C187.086 33.98 187.426 34.4467 187.666 35.06C188.066 34.4467 188.533 33.98 189.066 33.66C189.599 33.3267 190.166 33.16 190.766 33.16C191.766 33.16 192.533 33.4533 193.066 34.04C193.613 34.6133 193.886 35.5467 193.886 36.84C193.886 37.52 193.873 38.12 193.846 38.64C193.819 39.16 193.806 39.68 193.806 40.2C193.806 40.6267 193.813 41.0933 193.826 41.6C193.853 42.0933 193.879 42.5733 193.906 43.04C193.733 43.0133 193.513 43 193.246 43C192.979 43 192.699 43 192.406 43C192.113 43 191.833 43 191.566 43C191.299 43 191.079 43.0133 190.906 43.04C190.999 42.3467 191.059 41.5333 191.086 40.6C191.113 39.6533 191.126 38.5733 191.126 37.36C191.126 36.52 190.986 35.9067 190.706 35.52C190.426 35.12 190.033 34.92 189.526 34.92C189.206 34.92 188.939 34.9933 188.726 35.14C188.526 35.2867 188.366 35.48 188.246 35.72C188.126 35.9467 188.046 36.1933 188.006 36.46C187.966 36.7267 187.946 36.98 187.946 37.22V38.66C187.946 39.4733 187.953 40.24 187.966 40.96C187.993 41.68 188.039 42.3733 188.106 43.04C187.933 43.0133 187.713 43 187.446 43C187.193 43 186.913 43 186.606 43C186.299 43 186.019 43 185.766 43C185.513 43 185.293 43.0133 185.106 43.04C185.173 42.3733 185.213 41.68 185.226 40.96C185.253 40.24 185.266 39.4733 185.266 38.66V37.44C185.266 36.64 185.166 36.02 184.966 35.58C184.766 35.14 184.386 34.92 183.826 34.92C183.226 34.92 182.786 35.18 182.506 35.7C182.226 36.22 182.086 36.94 182.086 37.86V38.66C182.086 39.4733 182.093 40.24 182.106 40.96C182.133 41.68 182.179 42.3733 182.246 43.04C182.073 43.0133 181.853 43 181.586 43C181.333 43 181.053 43 180.746 43C180.439 43 180.159 43 179.906 43C179.653 43 179.433 43.0133 179.246 43.04C179.313 42.3733 179.353 41.68 179.366 40.96C179.393 40.24 179.406 39.4733 179.406 38.66V37.86C179.406 37.0467 179.393 36.2867 179.366 35.58C179.353 34.86 179.313 34.14 179.246 33.42C179.486 33.4467 179.719 33.4733 179.946 33.5C180.186 33.5133 180.426 33.52 180.666 33.52C180.906 33.52 181.139 33.5133 181.366 33.5C181.606 33.4733 181.859 33.4467 182.126 33.42L182.046 34.92H182.086Z" fill="black"/>
<path d="M105.836 96.0643C105.836 92.5978 108.646 89.7876 112.113 89.7876H165.549C169.015 89.7876 171.825 92.5978 171.825 96.0643V199.561C171.825 203.028 169.015 205.838 165.549 205.838H112.113C108.646 205.838 105.836 203.028 105.836 199.561V96.0643Z" fill="white"/>
<path fill-rule="evenodd" clip-rule="evenodd" d="M165.549 91.8798H112.113C109.802 91.8798 107.928 93.7533 107.928 96.0643V199.561C107.928 201.872 109.802 203.746 112.113 203.746H165.549C167.86 203.746 169.733 201.872 169.733 199.561V96.0643C169.733 93.7533 167.86 91.8798 165.549 91.8798ZM112.113 89.7876C108.646 89.7876 105.836 92.5978 105.836 96.0643V199.561C105.836 203.028 108.646 205.838 112.113 205.838H165.549C169.015 205.838 171.825 203.028 171.825 199.561V96.0643C171.825 92.5978 169.015 89.7876 165.549 89.7876H112.113Z" fill="black"/>
<path d="M94.2754 88.2767C94.2754 84.8102 97.0856 82 100.552 82H156.264C159.73 82 162.54 84.8102 162.54 88.2767V191.774C162.54 195.24 159.73 198.05 156.264 198.05H100.552C97.0856 198.05 94.2754 195.24 94.2754 191.774V88.2767Z" fill="white"/>
<path fill-rule="evenodd" clip-rule="evenodd" d="M156.264 84.0922H100.552C98.2411 84.0922 96.3676 85.9657 96.3676 88.2767V191.774C96.3676 194.085 98.2411 195.958 100.552 195.958H156.264C158.575 195.958 160.448 194.085 160.448 191.774V88.2767C160.448 85.9657 158.575 84.0922 156.264 84.0922ZM100.552 82C97.0856 82 94.2754 84.8102 94.2754 88.2767V191.774C94.2754 195.24 97.0856 198.05 100.552 198.05H156.264C159.73 198.05 162.54 195.24 162.54 191.774V88.2767C162.54 84.8102 159.73 82 156.264 82H100.552Z" fill="black"/>
<path d="M103.377 105.34C103.377 101.873 106.187 99.063 109.654 99.063H147.161C150.628 99.063 153.438 101.873 153.438 105.34V142.847C153.438 146.314 150.628 149.124 147.161 149.124H109.654C106.187 149.124 103.377 146.314 103.377 142.847V105.34Z" fill="black"/>
<path fill-rule="evenodd" clip-rule="evenodd" d="M147.161 101.155H109.654C107.343 101.155 105.469 103.029 105.469 105.34V142.847C105.469 145.158 107.343 147.032 109.654 147.032H147.161C149.472 147.032 151.346 145.158 151.346 142.847V105.34C151.346 103.029 149.472 101.155 147.161 101.155ZM109.654 99.063C106.187 99.063 103.377 101.873 103.377 105.34V142.847C103.377 146.314 106.187 149.124 109.654 149.124H147.161C150.628 149.124 153.438 146.314 153.438 142.847V105.34C153.438 101.873 150.628 99.063 147.161 99.063H109.654Z" fill="black"/>
<path d="M137.51 90.5343C137.51 89.5917 138.274 88.8276 139.216 88.8276H151.732C152.674 88.8276 153.438 89.5917 153.438 90.5343C153.438 91.4768 152.674 92.2409 151.732 92.2409H139.216C138.274 92.2409 137.51 91.4768 137.51 90.5343Z" fill="black"/>
<path d="M103.377 160.496C103.377 159.239 104.396 158.22 105.652 158.22H148.887C150.144 158.22 151.162 159.239 151.162 160.496C151.162 161.752 150.144 162.771 148.887 162.771H105.652C104.396 162.771 103.377 161.752 103.377 160.496Z" fill="black"/>
<path d="M103.348 169.609C103.348 168.353 104.366 167.334 105.623 167.334H148.858C150.114 167.334 151.133 168.353 151.133 169.609C151.133 170.866 150.114 171.885 148.858 171.885H105.623C104.366 171.885 103.348 170.866 103.348 169.609Z" fill="black"/>
<path d="M103.377 178.712C103.377 177.455 104.396 176.436 105.652 176.436H135.234C136.491 176.436 137.509 177.455 137.509 178.712C137.509 179.968 136.491 180.987 135.234 180.987H105.652C104.396 180.987 103.377 179.968 103.377 178.712Z" fill="black"/>
<path d="M103.377 90.5343C103.377 89.5917 104.141 88.8276 105.084 88.8276H113.048C113.99 88.8276 114.754 89.5917 114.754 90.5343C114.754 91.4768 113.99 92.2409 113.048 92.2409H105.084C104.141 92.2409 103.377 91.4768 103.377 90.5343Z" fill="black"/>
<path d="M55.5685 134.499C55.2088 136.524 52.4141 137.45 49.3447 136.554C46.2754 135.657 44.072 133.289 44.4437 131.247C44.8033 129.222 47.5981 128.296 50.6674 129.192C53.7367 130.088 55.9282 132.474 55.5685 134.499Z" fill="white"/>
<path d="M55.89 135.989C55.4473 136.616 54.7521 137.109 53.8523 137.399C52.5276 137.84 50.8915 137.82 49.2302 137.344C45.7004 136.315 43.2146 133.48 43.6376 131.035C43.8456 129.798 44.7518 128.842 46.1815 128.375C47.5062 127.934 49.1423 127.954 50.8036 128.431C52.4648 128.907 53.951 129.796 55.0025 130.931C56.1374 132.153 56.6351 133.498 56.3961 134.739C56.3092 135.19 56.1532 135.616 55.89 135.989ZM45.5462 130.792C45.4027 130.996 45.2972 131.227 45.2608 131.484C44.9877 133.06 46.9269 135.029 49.4914 135.785C50.8142 136.166 52.1021 136.187 53.1189 135.854C54.0497 135.561 54.6306 134.984 54.7468 134.246C54.8821 133.521 54.5477 132.682 53.8293 131.896C53.0275 131.022 51.839 130.327 50.5162 129.945C49.1934 129.563 47.9055 129.542 46.8888 129.875C46.292 130.105 45.8214 130.403 45.5462 130.792Z" fill="black"/>
<path d="M58.3419 120.992C58.3419 120.992 60.4989 117.552 68.822 120.199C77.1451 122.846 79.8553 119.337 79.8553 119.337L81.0214 112.836C81.0934 112.439 80.6244 112.092 80.2789 112.288C78.4313 113.308 74.0713 115.069 69.3271 112.865C63.9107 110.351 59.8282 112.687 59.672 113.499L56.1284 133.448L58.3419 120.992Z" fill="white"/>
<path d="M80.6587 119.782L80.5607 119.921C80.4504 120.077 77.4513 123.786 68.6863 120.992C61.8105 118.799 59.5579 120.944 59.1634 121.419L56.9935 133.672L55.3239 133.18L58.861 113.264C58.9801 112.506 60.0343 111.936 60.6506 111.651C61.5945 111.237 65.0443 110.002 69.6192 112.136C74.0648 114.201 78.2194 112.429 79.7946 111.582C80.2275 111.347 80.8088 111.406 81.2574 111.737C81.7061 112.068 81.9441 112.614 81.8623 113.109L80.6587 119.782ZM59.5943 119.041C61.262 118.315 64.1993 117.892 69.0126 119.435C75.8371 121.617 78.5294 119.479 79.0682 118.925L80.049 113.409C77.9116 114.423 73.675 115.764 69.0683 113.633C64.2738 111.39 60.7295 113.348 60.5206 113.855L59.5943 119.041Z" fill="black"/>
<path d="M75.3565 159.363H73.502V166.895H75.3565V159.363Z" fill="black"/>
<path d="M78.1895 162.214H70.6572V164.068H78.1895V162.214Z" fill="black"/>
<path d="M189.767 119.742C191.798 119.742 193.445 118.095 193.445 116.064C193.445 114.032 191.798 112.386 189.767 112.386C187.736 112.386 186.089 114.032 186.089 116.064C186.089 118.095 187.736 119.742 189.767 119.742Z" fill="white"/>
<path d="M189.771 120.678C187.234 120.678 185.154 118.598 185.154 116.062C185.154 113.525 187.234 111.445 189.771 111.445C192.307 111.445 194.387 113.525 194.387 116.062C194.387 118.598 192.307 120.678 189.771 120.678ZM189.771 113.322C188.249 113.322 187.031 114.565 187.031 116.087C187.031 117.609 188.274 118.827 189.771 118.827C191.293 118.827 192.536 117.584 192.536 116.087C192.51 114.54 191.293 113.322 189.771 113.322Z" fill="black"/>
<path d="M193.378 214.834L186.056 186.26C185.623 184.57 186.641 182.837 188.331 182.404L202.65 178.721C204.34 178.288 206.073 179.306 206.506 180.996L213.829 209.57C214.262 211.26 213.244 212.993 211.554 213.426L197.234 217.109C195.545 217.542 193.811 216.524 193.378 214.834Z" fill="white"/>
<path d="M196.455 218C195.762 218 195.069 217.805 194.44 217.437C193.53 216.895 192.88 216.029 192.621 215.011L185.298 186.436C184.757 184.313 186.035 182.168 188.158 181.605L202.478 177.922C204.601 177.381 206.745 178.659 207.309 180.782L214.631 209.356C215.173 211.479 213.894 213.646 211.771 214.187L197.452 217.87C197.105 217.957 196.78 218 196.455 218ZM203.452 179.417C203.257 179.417 203.062 179.439 202.868 179.482L188.548 183.165C187.291 183.49 186.511 184.79 186.836 186.046L194.159 214.621C194.31 215.227 194.7 215.747 195.242 216.072C195.783 216.397 196.433 216.484 197.04 216.332L211.36 212.649C212.616 212.324 213.396 211.025 213.071 209.768L205.749 181.193C205.489 180.132 204.514 179.417 203.452 179.417Z" fill="black"/>
<path d="M207.963 210.283L207.595 208.853L209.133 208.464L209.502 209.893L207.963 210.283ZM206.555 204.737L205.494 200.643L207.032 200.253L208.093 204.347L206.555 204.737ZM204.454 196.548L203.392 192.454L204.931 192.064L205.992 196.159L204.454 196.548ZM202.353 188.338L201.291 184.243L202.829 183.854L203.891 187.948L202.353 188.338Z" fill="black"/>
<path d="M197.502 212.995L197.133 211.565L198.671 211.175L199.04 212.605L197.502 212.995ZM196.093 207.449L195.032 203.355L196.57 202.965L197.632 207.059L196.093 207.449ZM193.992 199.239L192.931 195.144L194.469 194.754L195.53 198.849L193.992 199.239ZM191.891 191.05L190.829 186.955L192.367 186.565L193.429 190.66L191.891 191.05Z" fill="black"/>
<path d="M130.927 135.758C130.152 135.758 129.377 135.437 128.843 134.823L126.117 131.75C125.93 131.536 125.663 131.456 125.396 131.483L121.335 131.991C120.266 132.124 119.251 131.643 118.663 130.762C118.075 129.88 118.048 128.731 118.583 127.823L120.694 124.269C120.827 124.029 120.854 123.735 120.72 123.494L118.984 119.78C118.529 118.819 118.663 117.697 119.331 116.868C119.999 116.04 121.068 115.666 122.11 115.88L126.117 116.761C126.385 116.815 126.652 116.735 126.865 116.548L129.858 113.742C130.633 113.021 131.755 112.807 132.743 113.181C133.732 113.555 134.427 114.464 134.534 115.506L134.934 119.593C134.961 119.861 135.121 120.101 135.362 120.235L138.942 122.212C139.877 122.719 140.411 123.708 140.385 124.777C140.331 125.845 139.69 126.754 138.728 127.181L134.961 128.811C134.721 128.918 134.533 129.132 134.48 129.399L133.705 133.433C133.491 134.475 132.743 135.304 131.701 135.597C131.434 135.731 131.167 135.758 130.927 135.758ZM125.53 129.506C126.331 129.506 127.079 129.853 127.614 130.441L130.339 133.513C130.633 133.861 131.033 133.807 131.167 133.754C131.327 133.7 131.675 133.567 131.755 133.113L132.53 129.078C132.717 128.17 133.304 127.422 134.159 127.048L137.927 125.418C138.354 125.231 138.408 124.857 138.408 124.697C138.408 124.536 138.381 124.162 137.98 123.922L134.4 121.945C133.598 121.49 133.064 120.689 132.984 119.78L132.583 115.693C132.53 115.238 132.209 115.051 132.049 114.998C131.888 114.945 131.541 114.838 131.194 115.158L128.201 117.964C127.533 118.578 126.598 118.845 125.717 118.632L121.709 117.75C121.255 117.643 120.987 117.91 120.881 118.044C120.774 118.177 120.587 118.498 120.774 118.899L122.51 122.613C122.884 123.441 122.858 124.403 122.377 125.204L120.293 128.731C120.052 129.132 120.239 129.479 120.32 129.613C120.4 129.746 120.64 130.04 121.094 129.987L125.155 129.479C125.289 129.533 125.423 129.506 125.53 129.506Z" fill="white"/>
</svg>
