<svg width="16" height="16" viewBox="0 0 16 16" fill="none" xmlns="http://www.w3.org/2000/svg">
<path opacity="1" d="M8.12257 14.9432L8.12259 14.9431L8.11862 14.9388L6.15583 12.7816C6.15531 12.781 6.1548 12.7804 6.15428 12.7799C5.86847 12.4627 5.47465 12.3639 5.13083 12.3974L5.12364 12.3981L5.11647 12.3989L2.18748 12.7558C1.63884 12.8227 1.12566 12.5834 0.828345 12.1487C0.538167 11.7244 0.524228 11.1708 0.788376 10.7321C0.788582 10.7318 0.788789 10.7315 0.788996 10.7311L2.30996 8.23502L2.31453 8.22753L2.31887 8.2199C2.49246 7.91532 2.55923 7.48962 2.3504 7.10307L1.1053 4.50756L1.1053 4.50756L1.1043 4.5055C0.8798 4.04206 0.944103 3.50462 1.27713 3.10206C1.61224 2.697 2.15565 2.50524 2.69746 2.6122L5.58351 3.23113L5.58349 3.23123L5.59451 3.23338C5.98222 3.30897 6.3575 3.19015 6.63824 2.95069L6.64606 2.94403L6.65364 2.9371L8.81031 0.966159C8.81052 0.965969 8.81073 0.965779 8.81094 0.965588C9.20033 0.612627 9.7728 0.503031 10.2806 0.690316L10.4882 0.127388L10.2806 0.690316C10.7846 0.876223 11.1294 1.32432 11.1824 1.82312C11.1825 1.82354 11.1825 1.82397 11.1826 1.8244L11.4713 4.69563L11.4714 4.69682C11.512 5.09221 11.7523 5.43062 12.0909 5.61401L12.0922 5.61472L14.6744 7.00475L14.6744 7.00476L14.6781 7.00676C15.1402 7.25129 15.4106 7.72605 15.3997 8.25659C15.3707 8.76516 15.0594 9.20496 14.5686 9.41865L11.8544 10.5633L11.8544 10.5632L11.849 10.5656C11.5174 10.7093 11.2353 11.0076 11.153 11.4088L11.1529 11.4088L11.152 11.4134L10.594 14.2457C10.4854 14.7556 10.1125 15.1617 9.57762 15.3088L9.52389 15.3235L9.4738 15.348C9.39791 15.3849 9.30925 15.4 9.17786 15.4C8.7752 15.4 8.3846 15.2369 8.12257 14.9432Z" stroke="black" stroke-width="1.2"/>
</svg>
