<svg width="24" height="24" viewBox="0 0 24 24" fill="none" xmlns="http://www.w3.org/2000/svg">
<circle cx="12" cy="12" r="12" fill="#F3BA2F"/>
<path d="M9.03148 10.7787L11.9962 7.81388L14.9624 10.7799L16.6875 9.05489L11.9962 4.36377L7.30655 9.05348L9.03154 10.7785L9.03148 10.7787ZM4.36328 11.9968L6.08839 10.2714L7.81338 11.9964L6.08827 13.7215L4.36328 11.9968ZM9.03148 13.2151L11.9962 16.1796L14.9624 13.2136L16.6883 14.9378L16.6875 14.9387L11.9962 19.6298L7.30655 14.94L7.30411 14.9376L9.03166 13.2149L9.03148 13.2151ZM16.1791 11.9975L17.9042 10.2724L19.6292 11.9974L17.9042 13.7225L16.1791 11.9975Z" fill="white"/>
<path d="M13.7471 11.9956H13.7478L11.9975 10.2451L10.7037 11.5385L10.5551 11.6872L10.2485 11.9938L10.2461 11.9962L10.2485 11.9987L11.9975 13.7479L13.7479 11.9974L13.7488 11.9964L13.7472 11.9956" fill="white"/>
</svg>
