<svg width="24" height="24" viewBox="0 0 24 24" fill="none" xmlns="http://www.w3.org/2000/svg">
<circle cx="12" cy="12" r="11.5" stroke="black"/>
<path d="M9.36 13.4101H8C8.08533 14.4268 8.44267 15.2257 9.072 15.8067C9.70133 16.378 10.5493 16.7121 11.616 16.8089V18H12.496V16.8089C13.008 16.7702 13.4773 16.6734 13.904 16.5184C14.3307 16.3635 14.6987 16.1553 15.008 15.8939C15.3173 15.6227 15.5573 15.3032 15.728 14.9352C15.9093 14.5672 16 14.146 16 13.6715C16 13.2261 15.904 12.8436 15.712 12.524C15.5307 12.2045 15.3067 11.9382 15.04 11.7251C14.7733 11.5121 14.496 11.3475 14.208 11.2313C13.92 11.1054 13.6693 11.0182 13.456 10.9698L12.496 10.7374V7.16425C13.4773 7.32886 14.0747 7.8905 14.288 8.84916H15.648C15.4347 7.99702 15.072 7.32886 14.56 6.84469C14.048 6.36052 13.36 6.07002 12.496 5.97318V5H11.616V5.95866C11.1573 5.98771 10.7253 6.0797 10.32 6.23464C9.92533 6.38957 9.57867 6.60261 9.28 6.87374C8.992 7.1352 8.76267 7.44991 8.592 7.81788C8.42133 8.17616 8.336 8.57318 8.336 9.00894C8.336 9.43501 8.4 9.79814 8.528 10.0983C8.656 10.3985 8.85333 10.6551 9.12 10.8682C9.39733 11.0715 9.73867 11.2507 10.144 11.4056C10.56 11.5508 11.0507 11.6864 11.616 11.8123V15.6615C10.976 15.5646 10.4427 15.3274 10.016 14.9497C9.6 14.5721 9.38133 14.0588 9.36 13.4101ZM12.496 15.6615V12.0156C12.784 12.0931 13.056 12.1803 13.312 12.2771C13.568 12.3642 13.7867 12.4756 13.968 12.6112C14.1493 12.7467 14.2933 12.9114 14.4 13.105C14.5067 13.289 14.56 13.5214 14.56 13.8022C14.56 14.1121 14.5067 14.3832 14.4 14.6156C14.304 14.8384 14.16 15.0272 13.968 15.1821C13.7867 15.3274 13.568 15.4387 13.312 15.5162C13.0667 15.5937 12.7947 15.6421 12.496 15.6615ZM11.616 7.12067V10.5196C11.3493 10.4518 11.104 10.3743 10.88 10.2872C10.656 10.2 10.4587 10.0983 10.288 9.98212C10.128 9.85624 10 9.70615 9.904 9.53184C9.81867 9.34786 9.776 9.12998 9.776 8.87821C9.776 8.32626 9.952 7.90987 10.304 7.62905C10.6667 7.33855 11.104 7.16909 11.616 7.12067Z" fill="black"/>
</svg>
