<svg width="17" height="16" viewBox="0 0 17 16" fill="none" xmlns="http://www.w3.org/2000/svg">
<path fill-rule="evenodd" clip-rule="evenodd" d="M11.7653 8.76061e-08C13.1701 -0.000262173 14.5032 0.58832 15.4756 1.61294C16.446 2.63541 16.9806 4.00904 16.9808 5.42866C16.9812 7.29732 16.0146 8.47961 15.2386 9.42892L15.2103 9.46358C15.0526 9.65653 14.9053 9.83684 14.7678 10.0172L14.7289 10.0684L9.74948 15.3168L9.73477 15.3323L9.72466 15.3429C9.64662 15.4254 9.5329 15.5454 9.41942 15.6412C9.30659 15.7364 8.97927 16.0001 8.49019 16C8.00108 15.9999 7.67384 15.7361 7.56103 15.6409C7.44758 15.5451 7.33389 15.425 7.25588 15.3425L7.24623 15.3323L2.26351 10.0804L2.23369 10.0435C2.12425 9.90797 2.01074 9.77202 1.89217 9.63003C1.88167 9.61745 1.87113 9.60483 1.86055 9.59217C1.02971 8.59753 0.000675864 7.36564 3.4522e-07 5.43198C-0.00049562 4.01233 0.533426 2.63837 1.50325 1.61534C2.47512 0.590158 3.80796 0.000798324 5.21275 0.000253085C6.58233 -0.000278561 7.64171 0.555806 8.49035 1.25278C9.33826 0.556319 10.3967 0.000255607 11.7653 8.76061e-08ZM14.5418 2.49913C13.805 1.72271 12.8063 1.28716 11.7656 1.28736C10.6088 1.28757 9.72626 1.82763 8.93305 2.57909L8.49036 2.99847L8.04768 2.57909C7.25404 1.82721 6.37073 1.28716 5.21325 1.28761C4.17252 1.28801 3.17399 1.72415 2.43752 2.50102C1.70101 3.27793 1.28697 4.332 1.28736 5.43153C1.28786 6.87258 2.02708 7.78312 2.88031 8.80488L2.88182 8.80669C2.99789 8.94568 3.11686 9.08815 3.23279 9.23165L8.18015 14.4463C8.27229 14.5436 8.33909 14.613 8.39149 14.6572C8.41745 14.6791 8.43742 14.6934 8.45663 14.7029C8.47355 14.7113 8.48318 14.7126 8.49037 14.7126C8.49757 14.7126 8.50721 14.7113 8.52412 14.7029C8.54334 14.6934 8.56332 14.6791 8.58928 14.6572C8.6417 14.613 8.70809 14.5441 8.80028 14.4468C8.80028 14.4468 8.80027 14.4468 8.80028 14.4468L8.81531 14.431L13.7471 9.23276C13.898 9.03489 14.057 8.84039 14.21 8.65319L14.2134 8.64894C15.0058 7.67934 15.6937 6.8142 15.6935 5.42888C15.6933 4.32939 15.2787 3.27559 14.5418 2.49913Z" fill="black"/>
</svg>
