<svg width="16" height="16" viewBox="0 0 16 16" fill="none" xmlns="http://www.w3.org/2000/svg">
<path fill-rule="evenodd" clip-rule="evenodd" d="M7.27212 4.37593e-05H8.71071C8.96585 -0.00225237 9.21363 0.0858788 9.41006 0.248916C9.58224 0.391824 9.70512 0.584113 9.76297 0.798582L10.152 1.68547C10.2161 1.83292 10.3347 1.94988 10.483 2.01205C10.6316 2.07127 10.7974 2.07115 10.946 2.0117C10.9466 2.01145 10.9472 2.01121 10.9478 2.01096L11.8427 1.64212C12.0346 1.52978 12.2573 1.47903 12.4803 1.49812C12.7341 1.51984 12.972 1.63056 13.152 1.8107M13.152 1.8107L14.1845 2.84316C14.1846 2.84329 14.1843 2.84304 14.1845 2.84316C14.3646 3.02319 14.4757 3.26148 14.4974 3.51524C14.5163 3.73612 14.4668 3.95663 14.3567 4.14725L14.0011 5.04982C13.9409 5.19889 13.9406 5.36539 14 5.51467C14.0622 5.66289 14.1792 5.78147 14.3266 5.84566L14.3283 5.84638L15.2207 6.23779C15.4277 6.29783 15.6127 6.41872 15.7512 6.5857C15.9083 6.77521 15.9959 7.01272 15.9996 7.25886L15.9996 7.2638V8.71097C16.0019 8.96613 15.9138 9.21394 15.7508 9.41038C15.6079 9.58256 15.4156 9.70544 15.2011 9.76329L14.3159 10.1515L14.3131 10.1527C14.1663 10.2164 14.0495 10.3339 13.9869 10.481C13.928 10.6286 13.9277 10.7931 13.9859 10.941L14.3681 11.822C14.4832 12.0153 14.5353 12.2406 14.516 12.4662C14.4943 12.7199 14.3836 12.9578 14.2034 13.1379C14.2033 13.138 14.2036 13.1377 14.2034 13.1379L13.171 14.1703C12.9909 14.3507 12.7528 14.4615 12.4989 14.4833C12.278 14.5022 12.0575 14.4526 11.8669 14.3425L10.9649 13.9872C10.816 13.9273 10.6499 13.9269 10.5009 13.9861C10.3521 14.0483 10.233 14.1657 10.1688 14.3138L10.1678 14.3162L9.77949 15.2014C9.72165 15.4159 9.59877 15.6082 9.42659 15.7511C9.23014 15.9141 8.98234 16.0023 8.72718 16H7.2887C7.03355 16.0023 6.78574 15.9141 6.58929 15.7511C6.41711 15.6082 6.29424 15.4159 6.23639 15.2014L5.84813 14.3162L5.8474 14.3145C5.78321 14.1671 5.66464 14.0501 5.51641 13.988C5.36786 13.9288 5.20224 13.9288 5.05373 13.9882L4.16538 14.3556C3.97338 14.4681 3.75054 14.5189 3.52731 14.4998C3.27337 14.4781 3.03531 14.3672 2.85524 14.1868L1.82316 13.1548C1.82303 13.1546 1.82329 13.1549 1.82316 13.1548C1.64302 12.9747 1.53192 12.7365 1.51019 12.4827C1.49117 12.2605 1.54148 12.0386 1.65297 11.8472L2.01064 10.9647C2.01069 10.9645 2.01059 10.9648 2.01064 10.9647C2.07069 10.8157 2.07114 10.649 2.01172 10.4998C1.94956 10.3516 1.8326 10.233 1.68516 10.1688L1.68349 10.1681L0.798258 9.77981C0.583788 9.72196 0.391501 9.59908 0.248596 9.42691C0.0855592 9.23048 -0.00257281 8.98269 -0.000276675 8.72756V7.28897C-0.00257281 7.03383 0.0855588 6.78604 0.248596 6.58961C0.391503 6.41744 0.583792 6.29456 0.798261 6.23671L1.68624 5.84725C1.83305 5.78364 1.9498 5.66613 2.01247 5.51902C2.07194 5.36991 2.0717 5.2036 2.01176 5.05463L1.64412 4.1657C1.5316 3.9737 1.48076 3.75086 1.49987 3.52763C1.52159 3.27387 1.6323 3.03597 1.81244 2.85595L2.84491 1.82348C3.02493 1.64334 3.26323 1.53224 3.51698 1.51051C3.74005 1.49142 3.96274 1.54218 4.15465 1.65454L5.0368 2.01823C5.18581 2.07499 5.35097 2.0726 5.49837 2.01143C5.64736 1.9496 5.76664 1.83251 5.83122 1.68469L6.21986 0.798582C6.27771 0.584111 6.40059 0.391822 6.57277 0.248916C6.7692 0.0858796 7.01698 -0.00225237 7.27212 4.37593e-05M7.44124 1.33338L7.05304 2.21848C7.05299 2.2186 7.05309 2.21836 7.05304 2.21848C6.85053 2.68177 6.47646 3.04912 6.00944 3.24293C5.54231 3.43679 5.01827 3.44234 4.54713 3.25843L4.54127 3.25614L3.66085 2.89316L2.88257 3.67143L3.24658 4.5516C3.43813 5.02365 3.43811 5.55178 3.24657 6.02383L3.24375 6.03077C3.04862 6.49655 2.68102 6.86888 2.21784 7.07003C2.21732 7.07025 2.21681 7.07048 2.21629 7.0707L1.33306 7.45809V8.55843L2.21737 8.9463C2.21763 8.94641 2.21788 8.94652 2.21813 8.94663C2.68285 9.14917 3.05089 9.5241 3.2448 9.99251L3.24702 9.99789C3.43688 10.4681 3.43685 10.9936 3.247 11.4639L2.89251 12.3385L3.67111 13.1171L4.55234 12.7527C5.02255 12.5628 5.5481 12.5628 6.01831 12.7527L6.0237 12.7549C6.49214 12.9488 6.86707 13.3169 7.06961 13.7816C7.06971 13.7818 7.06981 13.7821 7.06991 13.7823L7.45777 14.6666H8.55811L8.94564 13.7831C8.94583 13.7826 8.94601 13.7822 8.94619 13.7818C9.14887 13.3156 9.52499 12.9464 9.99499 12.7525L10.0002 12.7504C10.4686 12.5617 10.9918 12.5614 11.4604 12.7493C11.4612 12.7497 11.4621 12.75 11.463 12.7504L12.3542 13.1015L13.1323 12.3234L12.7558 11.4558L12.7528 11.4484C12.5612 10.9763 12.5612 10.4482 12.7528 9.97617L12.7556 9.96923C12.9507 9.50343 13.3184 9.13109 13.7816 8.92995C13.7821 8.92973 13.7826 8.92952 13.7831 8.9293L14.6663 8.54191V7.45059L13.7944 7.06816C13.7941 7.06803 13.7938 7.0679 13.7935 7.06776C13.3288 6.8652 12.9608 6.49031 12.767 6.02195L12.7647 6.01657C12.5753 5.54733 12.5749 5.02299 12.7636 4.55353L13.1156 3.65992L12.3364 2.88076L11.447 3.24733C10.9768 3.43719 10.4513 3.43717 9.98105 3.24732L9.97566 3.24514C9.50732 3.05127 9.13246 2.6833 8.92988 2.21869C8.92974 2.21836 8.92959 2.21803 8.92945 2.21769L8.54159 1.33338H7.44124ZM13.2424 3.78675C13.2426 3.78688 13.2423 3.78662 13.2424 3.78675V3.78675ZM12.2274 13.2283C12.2273 13.2284 12.2275 13.2282 12.2274 13.2283V13.2283ZM3.7885 2.76551C3.78862 2.76538 3.78837 2.76564 3.7885 2.76551V2.76551Z" fill="black"/>
<path fill-rule="evenodd" clip-rule="evenodd" d="M8.00023 6.00002C6.89566 6.00002 6.00023 6.89545 6.00023 8.00002C6.00023 9.10459 6.89566 10 8.00023 10C9.1048 10 10.0002 9.10459 10.0002 8.00002C10.0002 6.89545 9.1048 6.00002 8.00023 6.00002ZM4.66689 8.00002C4.66689 6.15907 6.15928 4.66669 8.00023 4.66669C9.84118 4.66669 11.3336 6.15907 11.3336 8.00002C11.3336 9.84097 9.84118 11.3334 8.00023 11.3334C6.15928 11.3334 4.66689 9.84097 4.66689 8.00002Z" fill="black"/>
</svg>
