<svg width="15" height="16" viewBox="0 0 15 16" fill="none" xmlns="http://www.w3.org/2000/svg">
<path fill-rule="evenodd" clip-rule="evenodd" d="M3.28425 4.71613C4.19062 4.71613 5.01168 5.08401 5.60577 5.6781C5.66061 5.73294 5.71393 5.7893 5.76496 5.84871L8.35077 4.35511C8.13142 3.72293 8.11618 3.0542 8.28222 2.43421C8.49929 1.62305 9.02636 0.894912 9.81086 0.441728L9.81162 0.440966C10.5977 -0.0122177 11.4918 -0.105139 12.3022 0.111932C13.1134 0.329765 13.8423 0.856829 14.2955 1.64133C14.7494 2.42736 14.8416 3.3223 14.6245 4.1327C14.4082 4.94234 13.8804 5.67048 13.0951 6.12443V6.12519C12.3098 6.57913 11.4149 6.67206 10.6045 6.45422C9.98376 6.28818 9.41099 5.94011 8.97304 5.43437L6.38875 6.92721C6.50452 7.26386 6.56774 7.62412 6.56774 7.99962C6.56774 8.37588 6.50452 8.7369 6.38875 9.07279L8.97304 10.5656C9.41099 10.0591 9.98376 9.71182 10.6045 9.54502C11.4149 9.32794 12.3098 9.42087 13.0951 9.87481V9.87557C13.8804 10.3295 14.4082 11.0577 14.6245 11.8673C14.8416 12.6777 14.7494 13.5726 14.2955 14.3587C13.8423 15.1432 13.1134 15.6702 12.3022 15.8881C11.4918 16.1051 10.5977 16.0122 9.81162 15.559L9.81086 15.5583C9.02636 15.1059 8.49929 14.3769 8.28222 13.5658C8.11618 12.9466 8.13142 12.2771 8.35077 11.6449L5.76496 10.1513C5.71393 10.2099 5.66061 10.2671 5.60577 10.3219C5.01168 10.916 4.19062 11.2839 3.28425 11.2839C2.37712 11.2839 1.55606 10.916 0.961969 10.3219C0.367879 9.72781 0 8.90675 0 7.99962C0 7.09325 0.367879 6.27219 0.961969 5.6781C1.55606 5.08401 2.37712 4.71613 3.28425 4.71613ZM4.72301 6.56086C4.35437 6.19298 3.84559 5.96524 3.28425 5.96524C2.72215 5.96524 2.21337 6.19298 1.84473 6.56086C1.47685 6.9295 1.24911 7.43828 1.24911 7.99962C1.24911 8.56172 1.47685 9.07051 1.84473 9.43915C2.21337 9.80702 2.72215 10.0348 3.28425 10.0348C3.84559 10.0348 4.35437 9.80702 4.72301 9.43915C5.09089 9.07051 5.31863 8.56172 5.31863 7.99962C5.31863 7.43828 5.09089 6.9295 4.72301 6.56086ZM9.67224 4.27361L9.689 4.30027C9.97005 4.78772 10.4225 5.11447 10.9259 5.24929C11.4301 5.38486 11.9846 5.32774 12.4706 5.04745H12.4736C12.958 4.76792 13.2848 4.31474 13.4196 3.81052C13.5544 3.30707 13.498 2.75182 13.2177 2.26589C12.9367 1.77919 12.4843 1.45168 11.9808 1.31687C11.4774 1.18206 10.9221 1.23918 10.4362 1.51947C9.94872 1.80052 9.62197 2.25294 9.48716 2.75639C9.35463 3.25071 9.40642 3.79453 9.67224 4.27361ZM9.689 11.699L9.67224 11.7264C9.40642 12.2055 9.35463 12.7493 9.48716 13.2436C9.62197 13.7471 9.94872 14.1995 10.4362 14.4805C10.9221 14.7608 11.4774 14.8179 11.9808 14.6831C12.4843 14.5483 12.9367 14.2208 13.2177 13.7341C13.498 13.2482 13.5544 12.6929 13.4196 12.1895C13.2848 11.6845 12.958 11.2321 12.4736 10.9526H12.4706C11.9846 10.6723 11.4301 10.6151 10.9259 10.7507C10.4225 10.8855 9.97005 11.2123 9.689 11.699Z" fill="black"/>
</svg>
