<svg width="354" height="220" viewBox="0 0 354 220" fill="none" xmlns="http://www.w3.org/2000/svg">
<rect width="354" height="220" fill="#E6E6E6"/>
<path d="M151.83 66.0644C151.83 62.5979 154.64 59.7877 158.106 59.7877H211.542C215.009 59.7877 217.819 62.5979 217.819 66.0644V169.561C217.819 173.028 215.009 175.838 211.542 175.838H158.106C154.64 175.838 151.83 173.028 151.83 169.561V66.0644Z" fill="white"/>
<path fill-rule="evenodd" clip-rule="evenodd" d="M211.542 61.8799H158.106C155.795 61.8799 153.922 63.7534 153.922 66.0644V169.561C153.922 171.872 155.795 173.746 158.106 173.746H211.542C213.853 173.746 215.727 171.872 215.727 169.561V66.0644C215.727 63.7534 213.853 61.8799 211.542 61.8799ZM158.106 59.7877C154.64 59.7877 151.83 62.5979 151.83 66.0644V169.561C151.83 173.028 154.64 175.838 158.106 175.838H211.542C215.009 175.838 217.819 173.028 217.819 169.561V66.0644C217.819 62.5979 215.009 59.7877 211.542 59.7877H158.106Z" fill="black"/>
<path d="M140.269 58.2767C140.269 54.8102 143.079 52 146.545 52H202.257C205.723 52 208.534 54.8102 208.534 58.2767V161.774C208.534 165.24 205.723 168.05 202.257 168.05H146.545C143.079 168.05 140.269 165.24 140.269 161.774V58.2767Z" fill="white"/>
<path fill-rule="evenodd" clip-rule="evenodd" d="M202.257 54.0922H146.545C144.234 54.0922 142.361 55.9657 142.361 58.2767V161.774C142.361 164.085 144.234 165.958 146.545 165.958H202.257C204.568 165.958 206.441 164.085 206.441 161.774V58.2767C206.441 55.9657 204.568 54.0922 202.257 54.0922ZM146.545 52C143.079 52 140.269 54.8102 140.269 58.2767V161.774C140.269 165.24 143.079 168.05 146.545 168.05H202.257C205.723 168.05 208.534 165.24 208.534 161.774V58.2767C208.534 54.8102 205.723 52 202.257 52H146.545Z" fill="black"/>
<path d="M149.37 75.3396C149.37 71.8731 152.18 69.0629 155.647 69.0629H193.154C196.621 69.0629 199.431 71.8731 199.431 75.3396V112.847C199.431 116.314 196.621 119.124 193.154 119.124H155.647C152.18 119.124 149.37 116.314 149.37 112.847V75.3396Z" fill="black"/>
<path fill-rule="evenodd" clip-rule="evenodd" d="M193.154 71.1552H155.647C153.336 71.1552 151.462 73.0286 151.462 75.3396V112.847C151.462 115.158 153.336 117.032 155.647 117.032H193.154C195.465 117.032 197.339 115.158 197.339 112.847V75.3396C197.339 73.0286 195.465 71.1552 193.154 71.1552ZM155.647 69.0629C152.18 69.0629 149.37 71.8731 149.37 75.3396V112.847C149.37 116.314 152.18 119.124 155.647 119.124H193.154C196.621 119.124 199.431 116.314 199.431 112.847V75.3396C199.431 71.8731 196.621 69.0629 193.154 69.0629H155.647Z" fill="black"/>
<path d="M183.503 60.5341C183.503 59.5916 184.267 58.8275 185.21 58.8275H197.725C198.667 58.8275 199.431 59.5916 199.431 60.5341C199.431 61.4767 198.667 62.2408 197.725 62.2408H185.21C184.267 62.2408 183.503 61.4767 183.503 60.5341Z" fill="black"/>
<path d="M149.37 130.496C149.37 129.239 150.389 128.22 151.646 128.22H194.88C196.137 128.22 197.156 129.239 197.156 130.496C197.156 131.753 196.137 132.771 194.88 132.771H151.646C150.389 132.771 149.37 131.753 149.37 130.496Z" fill="black"/>
<path d="M149.341 139.61C149.341 138.353 150.36 137.334 151.616 137.334H194.851C196.107 137.334 197.126 138.353 197.126 139.61C197.126 140.866 196.107 141.885 194.851 141.885H151.616C150.36 141.885 149.341 140.866 149.341 139.61Z" fill="black"/>
<path d="M149.37 148.712C149.37 147.455 150.389 146.436 151.646 146.436H181.227C182.484 146.436 183.503 147.455 183.503 148.712C183.503 149.968 182.484 150.987 181.227 150.987H151.646C150.389 150.987 149.37 149.968 149.37 148.712Z" fill="black"/>
<path d="M149.37 60.5341C149.37 59.5916 150.134 58.8275 151.077 58.8275H159.041C159.984 58.8275 160.748 59.5916 160.748 60.5341C160.748 61.4767 159.984 62.2408 159.041 62.2408H151.077C150.134 62.2408 149.37 61.4767 149.37 60.5341Z" fill="black"/>
<path d="M101.49 104.189C101.029 106.281 98.1842 107.402 95.1551 106.676C92.126 105.951 90.0373 103.667 90.5111 101.557C90.9721 99.4646 93.817 98.3435 96.8461 99.0689C99.8752 99.7943 101.951 102.096 101.49 104.189Z" fill="white"/>
<path d="M101.733 105.69C101.259 106.358 100.539 106.904 99.6239 107.256C98.2764 107.789 96.6404 107.87 95.0018 107.487C91.521 106.657 89.1747 103.916 89.7195 101.394C89.9892 100.117 90.9434 99.085 92.3972 98.5195C93.7446 97.9868 95.3807 97.9055 97.0192 98.2888C98.6578 98.672 100.101 99.4868 101.096 100.58C102.171 101.758 102.602 103.101 102.301 104.382C102.192 104.848 102.015 105.293 101.733 105.69ZM91.6413 101.027C91.4876 101.244 91.3705 101.486 91.3214 101.751C90.9697 103.377 92.8122 105.267 95.3407 105.879C96.6453 106.186 97.9329 106.128 98.9668 105.725C99.9128 105.367 100.523 104.742 100.676 103.981C100.847 103.233 100.554 102.397 99.8745 101.638C99.1157 100.796 97.961 100.16 96.6564 99.8528C95.3518 99.5452 94.0642 99.6036 93.0303 100.007C92.4217 100.279 91.9361 100.612 91.6413 101.027Z" fill="black"/>
<path d="M104.509 91.4778C104.509 91.4778 106.79 87.919 114.819 90.0502C122.848 92.1813 125.674 88.5206 125.674 88.5206L127.133 81.9712C127.222 81.5712 126.779 81.2548 126.431 81.4703C124.571 82.599 120.212 84.619 115.669 82.7118C110.483 80.5359 106.368 83.1125 106.176 83.9307L101.735 104.023L104.509 91.4778Z" fill="white"/>
<path d="M126.454 88.9201L126.351 89.065C126.235 89.2279 123.111 93.1116 114.644 90.8571C108.002 89.0875 105.687 91.3648 105.277 91.8634L102.552 104.222L100.937 103.833L105.376 83.7441C105.529 82.9803 106.592 82.347 107.211 82.0246C108.157 81.5543 111.603 80.1122 115.99 81.963C120.253 83.7529 124.416 81.7316 126.004 80.7907C126.44 80.5292 127.008 80.5525 127.432 80.8556C127.856 81.1587 128.063 81.6889 127.959 82.1877L126.454 88.9201ZM105.815 89.4634C107.487 88.6378 110.391 88.0367 115.04 89.2834C121.632 91.0448 124.378 88.7479 124.934 88.1621L126.165 82.5984C124.018 83.7398 119.794 85.3364 115.376 83.4904C110.779 81.544 107.206 83.7137 106.976 84.2322L105.815 89.4634Z" fill="black"/>
<path d="M121.35 129.363H119.495V136.895H121.35V129.363Z" fill="black"/>
<path d="M124.183 132.214H116.651V134.069H124.183V132.214Z" fill="black"/>
<path d="M235.761 89.7418C237.792 89.7418 239.439 88.0951 239.439 86.0638C239.439 84.0325 237.792 82.3858 235.761 82.3858C233.73 82.3858 232.083 84.0325 232.083 86.0638C232.083 88.0951 233.73 89.7418 235.761 89.7418Z" fill="white"/>
<path d="M235.765 90.6783C233.228 90.6783 231.148 88.5983 231.148 86.0618C231.148 83.5253 233.228 81.4453 235.765 81.4453C238.301 81.4453 240.381 83.5253 240.381 86.0618C240.381 88.5983 238.301 90.6783 235.765 90.6783ZM235.765 83.3223C234.243 83.3223 233.025 84.5652 233.025 86.0872C233.025 87.6091 234.268 88.8266 235.765 88.8266C237.287 88.8266 238.53 87.5837 238.53 86.0872C238.504 84.5399 237.287 83.3223 235.765 83.3223Z" fill="black"/>
<path d="M239.372 184.835L232.05 156.26C231.616 154.57 232.635 152.837 234.324 152.404L248.644 148.721C250.334 148.288 252.067 149.306 252.5 150.996L259.823 179.57C260.256 181.26 259.238 182.993 257.548 183.426L243.228 187.109C241.538 187.543 239.805 186.524 239.372 184.835Z" fill="white"/>
<path d="M242.448 188C241.755 188 241.062 187.805 240.434 187.437C239.524 186.895 238.874 186.029 238.614 185.011L231.292 156.436C230.75 154.313 232.028 152.168 234.151 151.605L248.471 147.922C250.594 147.381 252.739 148.659 253.302 150.782L260.624 179.356C261.166 181.479 259.888 183.646 257.765 184.187L243.445 187.87C243.098 187.957 242.773 188 242.448 188ZM249.446 149.417C249.251 149.417 249.056 149.439 248.861 149.482L234.541 153.165C233.285 153.49 232.505 154.79 232.83 156.046L240.152 184.621C240.304 185.227 240.694 185.747 241.235 186.072C241.777 186.397 242.427 186.484 243.033 186.332L257.353 182.649C258.61 182.324 259.39 181.024 259.065 179.768L251.742 151.193C251.482 150.132 250.507 149.417 249.446 149.417Z" fill="black"/>
<path d="M253.956 180.283L253.588 178.853L255.126 178.464L255.495 179.893L253.956 180.283ZM252.548 174.737L251.487 170.643L253.025 170.253L254.086 174.347L252.548 174.737ZM250.447 166.548L249.385 162.454L250.924 162.064L251.985 166.159L250.447 166.548ZM248.346 158.338L247.284 154.243L248.822 153.854L249.884 157.948L248.346 158.338Z" fill="black"/>
<path d="M243.495 182.995L243.127 181.565L244.665 181.175L245.033 182.605L243.495 182.995ZM242.087 177.449L241.025 173.355L242.564 172.965L243.625 177.059L242.087 177.449ZM239.986 169.239L238.924 165.144L240.462 164.754L241.524 168.849L239.986 169.239ZM237.884 161.05L236.823 156.955L238.361 156.565L239.422 160.66L237.884 161.05Z" fill="black"/>
<path d="M176.92 105.758C176.145 105.758 175.37 105.437 174.836 104.823L172.11 101.75C171.923 101.536 171.656 101.456 171.389 101.483L167.328 101.991C166.259 102.124 165.244 101.643 164.656 100.762C164.068 99.8798 164.041 98.731 164.576 97.8226L166.687 94.2691C166.82 94.0286 166.847 93.7347 166.713 93.4943L164.977 89.7805C164.522 88.8187 164.656 87.6965 165.324 86.8683C165.992 86.04 167.061 85.666 168.103 85.8797L172.11 86.7614C172.377 86.8148 172.645 86.7347 172.858 86.5476L175.851 83.7423C176.626 83.0209 177.748 82.8071 178.736 83.1812C179.725 83.5552 180.42 84.4637 180.526 85.5057L180.927 89.5935C180.954 89.8607 181.114 90.1011 181.355 90.2347L184.935 92.2118C185.87 92.7195 186.404 93.708 186.378 94.7767C186.324 95.8454 185.683 96.7539 184.721 97.1813L180.954 98.8111C180.714 98.918 180.526 99.1317 180.473 99.3989L179.698 103.433C179.484 104.475 178.736 105.304 177.694 105.597C177.427 105.731 177.16 105.758 176.92 105.758ZM171.523 99.5058C172.324 99.5058 173.072 99.8531 173.607 100.441L176.332 103.513C176.626 103.861 177.026 103.807 177.16 103.754C177.32 103.7 177.668 103.567 177.748 103.113L178.523 99.0783C178.71 98.1699 179.297 97.4218 180.152 97.0478L183.92 95.418C184.347 95.2309 184.401 94.8569 184.401 94.6966C184.401 94.5363 184.374 94.1622 183.973 93.9218L180.393 91.9446C179.591 91.4904 179.057 90.6889 178.977 89.7805L178.576 85.6927C178.523 85.2385 178.202 85.0514 178.042 84.998C177.881 84.9446 177.534 84.8377 177.187 85.1583L174.194 87.9637C173.526 88.5782 172.591 88.8454 171.71 88.6316L167.702 87.7499C167.248 87.6431 166.98 87.9102 166.874 88.0438C166.767 88.1774 166.58 88.498 166.767 88.8988L168.503 92.6126C168.877 93.4408 168.851 94.4027 168.37 95.2042L166.286 98.731C166.045 99.1317 166.232 99.4791 166.313 99.6127C166.393 99.7463 166.633 100.04 167.087 99.9867L171.148 99.4791C171.282 99.5325 171.416 99.5058 171.523 99.5058Z" fill="white"/>
</svg>
