<svg width="354" height="220" viewBox="0 0 354 220" fill="none" xmlns="http://www.w3.org/2000/svg">
<rect width="354" height="220" fill="#E6E6E6"/>
<path d="M105.244 153H103.348V165.025H105.244V153Z" fill="black"/>
<path d="M110.596 158.021H98V159.916H110.596V158.021Z" fill="black"/>
<path d="M241.95 99.4502H240.075V107.063H241.95V99.4502Z" fill="black"/>
<path d="M244.813 102.325H237.199V104.199H244.813V102.325Z" fill="black"/>
<path d="M117.597 136.464C119.621 136.464 121.262 134.823 121.262 132.799C121.262 130.775 119.621 129.135 117.597 129.135C115.573 129.135 113.932 130.775 113.932 132.799C113.932 134.823 115.573 136.464 117.597 136.464Z" fill="white"/>
<path d="M117.6 137.4C115.073 137.4 113 135.327 113 132.8C113 130.272 115.073 128.2 117.6 128.2C120.127 128.2 122.2 130.272 122.2 132.8C122.2 135.327 120.127 137.4 117.6 137.4ZM117.6 130.07C116.083 130.07 114.87 131.308 114.87 132.825C114.87 134.341 116.109 135.555 117.6 135.555C119.116 135.555 120.355 134.316 120.355 132.825C120.33 131.283 119.116 130.07 117.6 130.07Z" fill="black"/>
<path d="M246.995 149.78C249.635 149.78 251.776 147.64 251.776 145C251.776 142.36 249.635 140.22 246.995 140.22C244.355 140.22 242.215 142.36 242.215 145C242.215 147.64 244.355 149.78 246.995 149.78Z" fill="white"/>
<path d="M247 151C243.703 151 241 148.297 241 145C241 141.703 243.703 139 247 139C250.297 139 253 141.703 253 145C253 148.297 250.297 151 247 151ZM247 141.44C245.022 141.44 243.44 143.055 243.44 145.033C243.44 147.011 245.055 148.593 247 148.593C248.978 148.593 250.593 146.978 250.593 145.033C250.56 143.022 248.978 141.44 247 141.44Z" fill="black"/>
<path d="M147 57.5918C147 53.399 150.089 50 153.9 50H209.1C212.911 50 216 53.399 216 57.5918V166.408C216 170.601 212.911 174 209.1 174H153.9C150.089 174 147 170.601 147 166.408V57.5918Z" fill="white"/>
<path fill-rule="evenodd" clip-rule="evenodd" d="M210 52.5306H154C151.423 52.5306 149.333 54.7966 149.333 57.5918V166.408C149.333 169.203 151.423 171.469 154 171.469H210C212.577 171.469 214.667 169.203 214.667 166.408V57.5918C214.667 54.7966 212.577 52.5306 210 52.5306ZM154 50C150.134 50 147 53.399 147 57.5918V166.408C147 170.601 150.134 174 154 174H210C213.866 174 217 170.601 217 166.408V57.5918C217 53.399 213.866 50 210 50H154Z" fill="black"/>
<path d="M141 57.5918C141 53.399 144.089 50 147.9 50H203.1C206.911 50 210 53.399 210 57.5918V166.408C210 170.601 206.911 174 203.1 174H147.9C144.089 174 141 170.601 141 166.408V57.5918Z" fill="white"/>
<path fill-rule="evenodd" clip-rule="evenodd" d="M203 52.5306H147C144.423 52.5306 142.333 54.7966 142.333 57.5918V166.408C142.333 169.203 144.423 171.469 147 171.469H203C205.577 171.469 207.667 169.203 207.667 166.408V57.5918C207.667 54.7966 205.577 52.5306 203 52.5306ZM147 50C143.134 50 140 53.399 140 57.5918V166.408C140 170.601 143.134 174 147 174H203C206.866 174 210 170.601 210 166.408V57.5918C210 53.399 206.866 50 203 50H147Z" fill="black"/>
<path d="M149.8 69.5502C149.8 65.7394 152.889 62.6502 156.7 62.6502H193.5C197.311 62.6502 200.4 65.7394 200.4 69.5502V158.1C200.4 161.911 197.311 165 193.5 165H156.7C152.889 165 149.8 161.911 149.8 158.1V69.5502Z" fill="#0A0A0A"/>
<path fill-rule="evenodd" clip-rule="evenodd" d="M193.5 64.9502H156.7C154.16 64.9502 152.1 67.0097 152.1 69.5502V158.1C152.1 160.641 154.16 162.7 156.7 162.7H193.5C196.041 162.7 198.1 160.641 198.1 158.1V69.5502C198.1 67.0097 196.041 64.9502 193.5 64.9502ZM156.7 62.6502C152.889 62.6502 149.8 65.7394 149.8 69.5502V158.1C149.8 161.911 152.889 165 156.7 165H193.5C197.311 165 200.4 161.911 200.4 158.1V69.5502C200.4 65.7394 197.311 62.6502 193.5 62.6502H156.7Z" fill="black"/>
<path d="M168.199 57.475C168.199 56.5223 168.972 55.75 169.924 55.75H177.974C178.927 55.75 179.699 56.5223 179.699 57.475C179.699 58.4277 178.927 59.2 177.974 59.2H169.924C168.972 59.2 168.199 58.4277 168.199 57.475Z" fill="black"/>
<path d="M180.85 57.475C180.85 56.5223 181.622 55.75 182.575 55.75C183.527 55.75 184.3 56.5223 184.3 57.475C184.3 58.4277 183.527 59.2 182.575 59.2C181.622 59.2 180.85 58.4277 180.85 57.475Z" fill="black"/>
<path fill-rule="evenodd" clip-rule="evenodd" d="M184.299 74.1499C188.11 74.1499 191.199 77.2391 191.199 81.0499V117.85V120.15V129.435C191.199 131.636 188.404 132.58 187.07 130.828L178.936 120.15H129.099C125.288 120.15 122.199 117.061 122.199 113.25V81.0499C122.199 77.2391 125.288 74.1499 129.099 74.1499H184.299Z" fill="white"/>
<path fill-rule="evenodd" clip-rule="evenodd" d="M180.075 117.85H129.099C126.559 117.85 124.499 115.79 124.499 113.25V81.0499C124.499 78.5094 126.559 76.4499 129.099 76.4499H184.299C186.84 76.4499 188.899 78.5094 188.899 81.0499L188.899 129.435L180.075 117.85ZM191.199 81.0499C191.199 77.2391 188.11 74.1499 184.299 74.1499H129.099C125.288 74.1499 122.199 77.2391 122.199 81.0499V113.25C122.199 117.061 125.288 120.15 129.099 120.15H178.936L187.07 130.828C188.404 132.58 191.199 131.636 191.199 129.435V81.0499Z" fill="black"/>
<path d="M231.292 91.2044H226.574C225.985 91.2044 225.497 90.7173 225.497 90.1277V85.4102C225.497 84.8206 225.985 84.3334 226.574 84.3334H231.292C231.881 84.3334 232.369 84.8206 232.369 85.4102V90.1277C232.369 90.7173 231.881 91.2044 231.292 91.2044Z" fill="white"/>
<path d="M231.292 92.1184H226.574C225.472 92.1184 224.549 91.2211 224.549 90.093V85.3755C224.549 84.2731 225.446 83.3501 226.574 83.3501H231.292C232.394 83.3501 233.317 84.2474 233.317 85.3755V90.093C233.317 91.2211 232.394 92.1184 231.292 92.1184ZM226.574 85.2473L226.446 90.1186L231.317 90.2468C231.394 90.2468 231.446 90.1955 231.446 90.1186V85.4012L226.574 85.2473Z" fill="black"/>
<path fill-rule="evenodd" clip-rule="evenodd" d="M156 85.0999C149.428 85.0999 144.1 90.4277 144.1 96.9999C144.1 103.572 149.428 108.9 156 108.9C162.573 108.9 167.9 103.572 167.9 96.9999C167.9 96.3762 167.852 95.7644 167.76 95.1678C167.668 94.5674 168.079 94.0055 168.68 93.9128C169.28 93.8201 169.842 94.2316 169.935 94.832C170.044 95.5393 170.1 96.2634 170.1 96.9999C170.1 104.787 163.788 111.1 156 111.1C148.213 111.1 141.9 104.787 141.9 96.9999C141.9 89.2127 148.213 82.8999 156 82.8999C158.13 82.8999 160.153 83.373 161.966 84.2208C162.517 84.4781 162.754 85.1329 162.497 85.6832C162.24 86.2335 161.585 86.471 161.034 86.2137C159.507 85.4994 157.802 85.0999 156 85.0999Z" fill="black"/>
<path fill-rule="evenodd" clip-rule="evenodd" d="M169.835 86.137C170.311 86.5976 170.324 87.3573 169.864 87.8338L155.659 102.528C155.018 103.191 153.952 103.177 153.329 102.497L148.116 96.8107C147.668 96.3221 147.701 95.5631 148.19 95.1152C148.678 94.6674 149.438 94.7004 149.885 95.1889L154.524 100.249L168.138 86.1658C168.599 85.6893 169.358 85.6764 169.835 86.137Z" fill="black"/>
</svg>
