<svg width="352" height="220" viewBox="0 0 352 220" fill="none" xmlns="http://www.w3.org/2000/svg">
<rect width="352" height="220" fill="#E6E6E6"/>
<path d="M146 57.8316C146 53.5063 149.134 50 153 50H209C212.866 50 216 53.5063 216 57.8316V166.168C216 170.494 212.866 174 209 174H153C149.134 174 146 170.494 146 166.168V57.8316Z" fill="white"/>
<path fill-rule="evenodd" clip-rule="evenodd" d="M209 52.6105H153C150.423 52.6105 148.333 54.9481 148.333 57.8316V166.168C148.333 169.052 150.423 171.389 153 171.389H209C211.577 171.389 213.667 169.052 213.667 166.168V57.8316C213.667 54.9481 211.577 52.6105 209 52.6105ZM153 50C149.134 50 146 53.5063 146 57.8316V166.168C146 170.494 149.134 174 153 174H209C212.866 174 216 170.494 216 166.168V57.8316C216 53.5063 212.866 50 209 50H153Z" fill="black"/>
<path d="M139 57.6701C139 53.434 142.134 50 146 50H202C205.866 50 209 53.434 209 57.6701V166.33C209 170.566 205.866 174 202 174H146C142.134 174 139 170.566 139 166.33V57.6701Z" fill="white"/>
<path fill-rule="evenodd" clip-rule="evenodd" d="M202 52.5567H146C143.423 52.5567 141.333 54.846 141.333 57.6701V166.33C141.333 169.154 143.423 171.443 146 171.443H202C204.577 171.443 206.667 169.154 206.667 166.33V57.6701C206.667 54.846 204.577 52.5567 202 52.5567ZM146 50C142.134 50 139 53.434 139 57.6701V166.33C139 170.566 142.134 174 146 174H202C205.866 174 209 170.566 209 166.33V57.6701C209 53.434 205.866 50 202 50H146Z" fill="black"/>
<path d="M148.607 69.8041C148.607 65.9438 151.737 62.8145 155.597 62.8145H196.37C198.3 62.8145 199.865 64.3791 199.865 66.3093V153.68C199.865 157.541 196.736 160.67 192.875 160.67H155.597C151.737 160.67 148.607 157.541 148.607 153.68V69.8041Z" fill="#0A0A0A"/>
<path fill-rule="evenodd" clip-rule="evenodd" d="M196.37 65.1444H155.597C153.024 65.1444 150.937 67.2306 150.937 69.8041V153.68C150.937 156.254 153.024 158.34 155.597 158.34H192.875C195.449 158.34 197.535 156.254 197.535 153.68V66.3093C197.535 65.6659 197.014 65.1444 196.37 65.1444ZM155.597 62.8145C151.737 62.8145 148.607 65.9438 148.607 69.8041V153.68C148.607 157.541 151.737 160.67 155.597 160.67H192.875C196.736 160.67 199.865 157.541 199.865 153.68V66.3093C199.865 64.3791 198.3 62.8145 196.37 62.8145H155.597Z" fill="black"/>
<path d="M150.201 63.1797C150.536 62.2607 151.411 61.6494 152.389 61.6494H196.505C198.131 61.6494 199.257 63.2742 198.686 64.7974L193.444 78.7768C193.103 79.6861 192.234 80.2886 191.262 80.2886H145.615C144.806 80.2886 144.243 79.4839 144.521 78.7238L150.201 63.1797Z" fill="white"/>
<path fill-rule="evenodd" clip-rule="evenodd" d="M196.505 63.9793H152.389L147.281 77.9587L191.262 77.9587L196.505 63.9793ZM152.389 61.6494C151.411 61.6494 150.536 62.2607 150.201 63.1797L144.521 78.7238C144.243 79.4839 144.806 80.2886 145.615 80.2886H191.262C192.234 80.2886 193.103 79.6861 193.444 78.7768L198.686 64.7974C199.257 63.2742 198.131 61.6494 196.505 61.6494H152.389Z" fill="black"/>
<path fill-rule="evenodd" clip-rule="evenodd" d="M160.326 78.7316L166.151 62.4224L168.345 63.206L162.52 79.5153L160.326 78.7316Z" fill="black"/>
<path fill-rule="evenodd" clip-rule="evenodd" d="M176.041 78.7673L181.283 62.458L183.501 63.171L178.259 79.4803L176.041 78.7673Z" fill="black"/>
<path d="M177.148 77.959H193.458V82.6188C193.458 85.1923 191.371 87.2786 188.798 87.2786H181.808C179.235 87.2786 177.148 85.1923 177.148 82.6188V77.959Z" fill="white"/>
<path fill-rule="evenodd" clip-rule="evenodd" d="M191.128 80.2889H179.478V82.6188C179.478 83.9055 180.521 84.9487 181.808 84.9487H188.798C190.085 84.9487 191.128 83.9055 191.128 82.6188V80.2889ZM177.148 77.959V82.6188C177.148 85.1923 179.235 87.2786 181.808 87.2786H188.798C191.371 87.2786 193.458 85.1923 193.458 82.6188V77.959H177.148Z" fill="black"/>
<path d="M160.84 77.959H177.149V82.6188C177.149 85.1923 175.063 87.2786 172.489 87.2786H165.5C162.926 87.2786 160.84 85.1923 160.84 82.6188V77.959Z" fill="white"/>
<path fill-rule="evenodd" clip-rule="evenodd" d="M174.819 80.2889H163.17V82.6188C163.17 83.9055 164.213 84.9487 165.5 84.9487H172.489C173.776 84.9487 174.819 83.9055 174.819 82.6188V80.2889ZM160.84 77.959V82.6188C160.84 85.1923 162.926 87.2786 165.5 87.2786H172.489C175.063 87.2786 177.149 85.1923 177.149 82.6188V77.959H160.84Z" fill="black"/>
<path d="M144.531 79.1239C144.531 78.4805 145.053 77.959 145.696 77.959H160.841V82.6188C160.841 85.1923 158.754 87.2786 156.181 87.2786H149.191C146.618 87.2786 144.531 85.1923 144.531 82.6188V79.1239Z" fill="white"/>
<path fill-rule="evenodd" clip-rule="evenodd" d="M146.861 80.2889V82.6188C146.861 83.9055 147.904 84.9487 149.191 84.9487H156.181C157.468 84.9487 158.511 83.9055 158.511 82.6188V80.2889H146.861ZM145.696 77.959C145.053 77.959 144.531 78.4805 144.531 79.1239V82.6188C144.531 85.1923 146.618 87.2786 149.191 87.2786H156.181C158.754 87.2786 160.841 85.1923 160.841 82.6188V77.959H145.696Z" fill="black"/>
<path d="M175.953 127.488C175.139 127.488 174.325 127.152 173.764 126.506L170.902 123.279C170.705 123.055 170.425 122.971 170.144 122.999L165.879 123.532C164.757 123.672 163.69 123.167 163.073 122.241C162.456 121.315 162.428 120.109 162.989 119.155L165.206 115.423C165.346 115.17 165.374 114.861 165.234 114.609L163.41 110.709C162.933 109.698 163.073 108.52 163.774 107.65C164.476 106.78 165.598 106.387 166.693 106.612L170.902 107.538C171.182 107.594 171.463 107.51 171.687 107.313L174.83 104.367C175.644 103.609 176.822 103.385 177.861 103.778C178.899 104.171 179.628 105.125 179.741 106.219L180.162 110.512C180.19 110.793 180.358 111.045 180.611 111.186L184.371 113.262C185.353 113.795 185.914 114.833 185.886 115.956C185.83 117.078 185.156 118.032 184.146 118.481L180.19 120.193C179.937 120.305 179.741 120.53 179.685 120.81L178.871 125.047C178.646 126.142 177.861 127.011 176.766 127.32C176.486 127.46 176.205 127.488 175.953 127.488ZM170.284 120.922C171.126 120.922 171.912 121.287 172.473 121.904L175.335 125.131C175.644 125.496 176.065 125.44 176.205 125.384C176.373 125.328 176.738 125.187 176.822 124.71L177.636 120.473C177.833 119.519 178.45 118.734 179.348 118.341L183.304 116.629C183.753 116.433 183.809 116.04 183.809 115.872C183.809 115.703 183.781 115.31 183.36 115.058L179.6 112.981C178.759 112.504 178.197 111.663 178.113 110.709L177.692 106.415C177.636 105.938 177.299 105.742 177.131 105.686C176.963 105.63 176.598 105.517 176.233 105.854L173.09 108.8C172.389 109.446 171.407 109.726 170.481 109.502L166.272 108.576C165.795 108.464 165.514 108.744 165.402 108.885C165.29 109.025 165.093 109.362 165.29 109.783L167.114 113.683C167.506 114.553 167.478 115.563 166.973 116.405L164.785 120.109C164.532 120.53 164.728 120.894 164.813 121.035C164.897 121.175 165.149 121.484 165.626 121.427L169.892 120.894C170.032 120.95 170.172 120.922 170.284 120.922Z" fill="white"/>
<path d="M250.873 145.791C250.506 146.364 249.901 146.785 249.193 146.889L245.627 147.448C245.38 147.485 245.194 147.645 245.087 147.855L243.537 151.101C243.129 151.955 242.292 152.478 241.361 152.495C240.43 152.512 239.567 151.987 239.148 151.161L237.52 147.914C237.405 147.701 237.201 147.542 236.959 147.527L233.388 147.051C232.461 146.93 231.694 146.299 231.398 145.413C231.102 144.526 231.332 143.557 231.984 142.888L234.537 140.341C234.703 140.168 234.771 139.933 234.734 139.686L234.077 136.141C233.911 135.226 234.285 134.294 235.03 133.74C235.776 133.186 236.777 133.103 237.599 133.518L240.814 135.16C241.024 135.267 241.278 135.262 241.491 135.148L244.651 133.436C245.47 132.985 246.455 133.059 247.233 133.585C247.999 134.131 248.367 135.037 248.227 135.951L247.646 139.511C247.611 139.74 247.681 139.98 247.853 140.146L250.471 142.632C251.14 143.285 251.398 144.231 251.122 145.141C251.094 145.402 250.987 145.613 250.873 145.791Z" fill="white"/>
<path d="M250.873 145.791C250.506 146.364 249.901 146.785 249.193 146.889L245.627 147.448C245.38 147.485 245.194 147.645 245.087 147.855L243.537 151.101C243.129 151.955 242.292 152.478 241.361 152.495C240.43 152.512 239.567 151.987 239.148 151.161L237.52 147.914C237.405 147.701 237.201 147.542 236.959 147.527L233.388 147.051C232.461 146.93 231.694 146.299 231.398 145.413C231.102 144.526 231.332 143.557 231.984 142.888L234.537 140.341C234.703 140.168 234.771 139.933 234.734 139.686L234.077 136.141C233.911 135.226 234.285 134.294 235.03 133.74C235.776 133.186 236.777 133.103 237.599 133.518L240.814 135.16C241.024 135.267 241.278 135.262 241.491 135.148L244.651 133.436C245.47 132.985 246.455 133.059 247.233 133.585C247.999 134.131 248.367 135.037 248.227 135.951L247.646 139.511C247.611 139.74 247.681 139.98 247.853 140.146L250.471 142.632C251.14 143.285 251.398 144.231 251.122 145.141C251.094 145.402 250.987 145.613 250.873 145.791ZM243.688 146.819C244.068 146.226 244.68 145.837 245.368 145.721L248.934 145.161C249.33 145.108 249.481 144.787 249.504 144.662C249.541 144.518 249.607 144.198 249.309 143.923L246.691 141.437C246.108 140.868 245.833 140.078 245.962 139.268L246.542 135.708C246.606 135.303 246.355 135.086 246.236 135.01C246.118 134.934 245.828 134.776 245.46 134.959L242.3 136.67C241.584 137.048 240.737 137.063 240.027 136.692L236.812 135.05C236.451 134.874 236.161 135.022 236.045 135.116C235.929 135.209 235.686 135.415 235.758 135.824L236.415 139.369C236.553 140.154 236.307 140.973 235.731 141.524L233.178 144.071C232.883 144.357 232.954 144.681 233.003 144.823C233.051 144.966 233.199 145.256 233.584 145.308L237.156 145.784C237.946 145.9 238.645 146.376 239.01 147.112L240.631 150.326C240.814 150.694 241.159 150.721 241.296 150.725C241.433 150.729 241.765 150.69 241.94 150.329L243.491 147.083C243.594 147.01 243.637 146.898 243.688 146.819Z" fill="black"/>
<path d="M116.759 98.0092C116.832 98.5833 116.668 99.1878 116.263 99.6419L114.244 101.952C114.104 102.111 114.069 102.316 114.115 102.512L114.875 105.473C115.075 106.252 114.815 107.05 114.217 107.569C113.62 108.088 112.771 108.217 112.047 107.907L109.214 106.679C109.024 106.603 108.803 106.611 108.638 106.733L106.05 108.371C105.381 108.799 104.537 108.806 103.86 108.389C103.183 107.973 102.804 107.216 102.864 106.424L103.138 103.371C103.152 103.168 103.068 102.978 102.909 102.837L100.547 100.885C99.939 100.379 99.6743 99.568 99.8579 98.8001C100.042 98.0321 100.649 97.4314 101.411 97.2536L104.402 96.5697C104.597 96.5246 104.76 96.3831 104.837 96.1922L105.963 93.3522C106.25 92.6113 106.932 92.1218 107.727 92.0404C108.524 91.9788 109.257 92.368 109.665 93.0402L111.229 95.6774C111.331 95.8454 111.507 95.9638 111.71 95.9781L114.773 96.1703C115.566 96.2301 116.25 96.706 116.566 97.4503C116.691 97.6356 116.736 97.831 116.759 98.0092Z" fill="white"/>
<path d="M116.758 98.009C116.832 98.5831 116.668 99.1876 116.263 99.6417L114.244 101.952C114.103 102.111 114.069 102.316 114.114 102.512L114.875 105.473C115.075 106.252 114.815 107.05 114.217 107.569C113.62 108.088 112.771 108.217 112.047 107.907L109.214 106.679C109.024 106.603 108.803 106.611 108.638 106.733L106.05 108.371C105.381 108.799 104.536 108.806 103.86 108.389C103.183 107.973 102.804 107.216 102.864 106.424L103.138 103.371C103.152 103.168 103.067 102.977 102.909 102.837L100.547 100.885C99.9388 100.379 99.6742 99.568 99.8578 98.8001C100.041 98.0322 100.649 97.4314 101.411 97.2536L104.402 96.5696C104.597 96.5245 104.76 96.383 104.836 96.1922L105.962 93.3521C106.25 92.6112 106.932 92.1217 107.726 92.0403C108.523 91.9787 109.257 92.3678 109.665 93.0401L111.229 95.6772C111.331 95.8453 111.507 95.9636 111.71 95.9779L114.773 96.1701C115.565 96.2298 116.25 96.7057 116.566 97.45C116.691 97.6353 116.736 97.8308 116.758 98.009ZM112.637 102.6C112.561 102.006 112.747 101.419 113.132 100.967L115.151 98.657C115.381 98.4063 115.303 98.1144 115.251 98.0205C115.196 97.9068 115.064 97.662 114.72 97.6457L111.657 97.4535C110.967 97.4009 110.357 97.0362 109.998 96.4381L108.434 93.8009C108.255 93.5019 107.973 93.4977 107.854 93.5129C107.735 93.528 107.461 93.5832 107.32 93.903L106.194 96.743C105.934 97.3799 105.39 97.8517 104.725 97.9971L101.734 98.6811C101.402 98.7637 101.294 99.019 101.27 99.1428C101.245 99.2666 101.199 99.5341 101.469 99.7612L103.831 101.713C104.35 102.15 104.637 102.817 104.562 103.491L104.288 106.544C104.252 106.891 104.475 107.063 104.584 107.13C104.693 107.196 104.948 107.305 105.228 107.128L107.815 105.49C108.393 105.134 109.108 105.063 109.748 105.343L112.558 106.554C112.878 106.694 113.118 106.522 113.209 106.45C113.301 106.378 113.496 106.172 113.413 105.841L112.652 102.88C112.679 102.776 112.647 102.679 112.637 102.6Z" fill="black"/>
<path d="M117.244 142H115.348V154.025H117.244V142Z" fill="black"/>
<path d="M122.596 147.021H110V148.916H122.596V147.021Z" fill="black"/>
<path d="M232.811 80H230.912V87.712H232.811V80Z" fill="black"/>
<path d="M235.712 82.9121H228V84.811H235.712V82.9121Z" fill="black"/>
<path d="M241.703 101.759C243.783 101.759 245.469 100.073 245.469 97.9934C245.469 95.9136 243.783 94.2275 241.703 94.2275C239.624 94.2275 237.938 95.9136 237.938 97.9934C237.938 100.073 239.624 101.759 241.703 101.759Z" fill="white"/>
<path d="M242.705 102.722C240.108 102.722 237.979 100.592 237.979 97.9949C237.979 95.3978 240.108 93.2681 242.705 93.2681C245.303 93.2681 247.432 95.3978 247.432 97.9949C247.432 100.592 245.303 102.722 242.705 102.722ZM242.705 95.19C241.147 95.19 239.9 96.4626 239.9 98.0209C239.9 99.5792 241.173 100.826 242.705 100.826C244.264 100.826 245.536 99.5532 245.536 98.0209C245.51 96.4366 244.264 95.19 242.705 95.19Z" fill="black"/>
<path d="M167.248 57.5721C167.248 56.6071 168.03 55.8247 168.995 55.8247H177.15C178.115 55.8247 178.898 56.6071 178.898 57.5721C178.898 58.5372 178.115 59.3196 177.15 59.3196H168.995C168.03 59.3196 167.248 58.5372 167.248 57.5721Z" fill="black"/>
<path d="M180.062 57.5721C180.062 56.6071 180.845 55.8247 181.81 55.8247C182.775 55.8247 183.557 56.6071 183.557 57.5721C183.557 58.5372 182.775 59.3196 181.81 59.3196C180.845 59.3196 180.062 58.5372 180.062 57.5721Z" fill="black"/>
</svg>
