<svg width="240" height="160" viewBox="0 0 240 160" fill="none" xmlns="http://www.w3.org/2000/svg">
<rect opacity="0.3" x="0.5" y="0.5" width="239" height="159" stroke="black" stroke-dasharray="5 8"/>
<g opacity="0.4">
<path d="M81.268 100.72V91.856H83.828C84.532 91.856 85.124 91.9573 85.604 92.16C86.084 92.352 86.4733 92.64 86.772 93.024C87.0813 93.3973 87.3 93.856 87.428 94.4C87.5667 94.9333 87.636 95.5413 87.636 96.224C87.636 96.928 87.5613 97.5307 87.412 98.032C87.2733 98.5227 87.092 98.9333 86.868 99.264C86.644 99.5947 86.388 99.856 86.1 100.048C85.8227 100.24 85.54 100.389 85.252 100.496C84.964 100.592 84.692 100.656 84.436 100.688C84.18 100.709 83.9667 100.72 83.796 100.72H81.268ZM79.748 90.576V102H83.668C84.6173 102 85.4387 101.867 86.132 101.6C86.8253 101.333 87.396 100.949 87.844 100.448C88.292 99.936 88.6227 99.312 88.836 98.576C89.0493 97.8293 89.156 96.976 89.156 96.016C89.156 94.1813 88.6813 92.816 87.732 91.92C86.7827 91.024 85.428 90.576 83.668 90.576H79.748ZM90.7416 93.728V102H92.1016V98.32C92.1016 97.7867 92.155 97.3173 92.2616 96.912C92.3683 96.496 92.539 96.144 92.7736 95.856C93.0083 95.568 93.3176 95.3493 93.7016 95.2C94.0856 95.0507 94.5496 94.976 95.0936 94.976V93.536C94.3576 93.5147 93.7496 93.664 93.2696 93.984C92.7896 94.304 92.3843 94.8 92.0536 95.472H92.0216V93.728H90.7416ZM96.8285 97.872C96.8285 97.3707 96.8925 96.928 97.0205 96.544C97.1592 96.1493 97.3458 95.8187 97.5805 95.552C97.8152 95.2853 98.0872 95.0827 98.3965 94.944C98.7165 94.8053 99.0525 94.736 99.4045 94.736C99.7565 94.736 100.087 94.8053 100.397 94.944C100.717 95.0827 100.994 95.2853 101.229 95.552C101.463 95.8187 101.645 96.1493 101.773 96.544C101.911 96.928 101.981 97.3707 101.981 97.872C101.981 98.3733 101.911 98.8213 101.773 99.216C101.645 99.6 101.463 99.9253 101.229 100.192C100.994 100.448 100.717 100.645 100.397 100.784C100.087 100.923 99.7565 100.992 99.4045 100.992C99.0525 100.992 98.7165 100.923 98.3965 100.784C98.0872 100.645 97.8152 100.448 97.5805 100.192C97.3458 99.9253 97.1592 99.6 97.0205 99.216C96.8925 98.8213 96.8285 98.3733 96.8285 97.872ZM95.3885 97.872C95.3885 98.48 95.4738 99.0453 95.6445 99.568C95.8152 100.091 96.0712 100.549 96.4125 100.944C96.7538 101.328 97.1752 101.632 97.6765 101.856C98.1778 102.069 98.7538 102.176 99.4045 102.176C100.066 102.176 100.642 102.069 101.133 101.856C101.634 101.632 102.055 101.328 102.397 100.944C102.738 100.549 102.994 100.091 103.165 99.568C103.335 99.0453 103.421 98.48 103.421 97.872C103.421 97.264 103.335 96.6987 103.165 96.176C102.994 95.6427 102.738 95.184 102.397 94.8C102.055 94.4053 101.634 94.096 101.133 93.872C100.642 93.648 100.066 93.536 99.4045 93.536C98.7538 93.536 98.1778 93.648 97.6765 93.872C97.1752 94.096 96.7538 94.4053 96.4125 94.8C96.0712 95.184 95.8152 95.6427 95.6445 96.176C95.4738 96.6987 95.3885 97.264 95.3885 97.872ZM105.072 93.728V105.152H106.432V100.896H106.464C106.613 101.141 106.795 101.349 107.008 101.52C107.232 101.68 107.467 101.808 107.712 101.904C107.957 102 108.203 102.069 108.448 102.112C108.704 102.155 108.933 102.176 109.136 102.176C109.765 102.176 110.315 102.064 110.784 101.84C111.264 101.616 111.659 101.312 111.968 100.928C112.288 100.533 112.523 100.075 112.672 99.552C112.832 99.0293 112.912 98.4747 112.912 97.888C112.912 97.3013 112.832 96.7467 112.672 96.224C112.512 95.7013 112.272 95.2427 111.952 94.848C111.643 94.4427 111.248 94.1227 110.768 93.888C110.299 93.6533 109.744 93.536 109.104 93.536C108.528 93.536 108 93.6427 107.52 93.856C107.04 94.0587 106.688 94.3893 106.464 94.848H106.432V93.728H105.072ZM111.472 97.792C111.472 98.1973 111.429 98.592 111.344 98.976C111.259 99.36 111.12 99.7013 110.928 100C110.736 100.299 110.48 100.539 110.16 100.72C109.851 100.901 109.461 100.992 108.992 100.992C108.523 100.992 108.123 100.907 107.792 100.736C107.461 100.555 107.189 100.32 106.976 100.032C106.773 99.744 106.624 99.4133 106.528 99.04C106.432 98.656 106.384 98.2613 106.384 97.856C106.384 97.472 106.427 97.0933 106.512 96.72C106.608 96.3467 106.757 96.016 106.96 95.728C107.163 95.4293 107.424 95.1893 107.744 95.008C108.064 94.8267 108.453 94.736 108.912 94.736C109.349 94.736 109.728 94.8213 110.048 94.992C110.379 95.1627 110.645 95.392 110.848 95.68C111.061 95.968 111.216 96.2987 111.312 96.672C111.419 97.0347 111.472 97.408 111.472 97.792ZM120.402 92.24V90.576H119.042V92.24H120.402ZM119.042 93.728V102H120.402V93.728H119.042ZM122.508 93.728V102H123.868V96.848C123.868 96.688 123.906 96.4907 123.98 96.256C124.066 96.0107 124.194 95.776 124.364 95.552C124.546 95.328 124.775 95.136 125.052 94.976C125.34 94.816 125.682 94.736 126.076 94.736C126.386 94.736 126.636 94.784 126.828 94.88C127.031 94.9653 127.191 95.0933 127.308 95.264C127.426 95.424 127.506 95.616 127.548 95.84C127.602 96.064 127.628 96.3093 127.628 96.576V102H128.988V96.848C128.988 96.208 129.18 95.696 129.564 95.312C129.948 94.928 130.476 94.736 131.148 94.736C131.479 94.736 131.746 94.784 131.948 94.88C132.162 94.976 132.327 95.1093 132.444 95.28C132.562 95.44 132.642 95.632 132.684 95.856C132.727 96.08 132.748 96.32 132.748 96.576V102H134.108V95.936C134.108 95.5093 134.039 95.1467 133.9 94.848C133.772 94.5387 133.586 94.288 133.34 94.096C133.106 93.904 132.818 93.7653 132.476 93.68C132.146 93.584 131.772 93.536 131.356 93.536C130.812 93.536 130.311 93.6587 129.852 93.904C129.404 94.1493 129.042 94.496 128.764 94.944C128.594 94.432 128.3 94.0693 127.884 93.856C127.468 93.6427 127.004 93.536 126.492 93.536C125.33 93.536 124.439 94.0053 123.82 94.944H123.788V93.728H122.508ZM143.477 101.968C143.242 102.107 142.917 102.176 142.501 102.176C142.149 102.176 141.866 102.08 141.653 101.888C141.45 101.685 141.349 101.36 141.349 100.912C140.976 101.36 140.538 101.685 140.037 101.888C139.546 102.08 139.013 102.176 138.437 102.176C138.064 102.176 137.706 102.133 137.365 102.048C137.034 101.963 136.746 101.829 136.501 101.648C136.256 101.467 136.058 101.232 135.909 100.944C135.77 100.645 135.701 100.288 135.701 99.872C135.701 99.4027 135.781 99.0187 135.941 98.72C136.101 98.4213 136.309 98.1813 136.565 98C136.832 97.808 137.13 97.664 137.461 97.568C137.802 97.472 138.149 97.392 138.501 97.328C138.874 97.2533 139.226 97.2 139.557 97.168C139.898 97.1253 140.197 97.072 140.453 97.008C140.709 96.9333 140.912 96.832 141.061 96.704C141.21 96.5653 141.285 96.368 141.285 96.112C141.285 95.8133 141.226 95.5733 141.109 95.392C141.002 95.2107 140.858 95.072 140.677 94.976C140.506 94.88 140.309 94.816 140.085 94.784C139.872 94.752 139.658 94.736 139.445 94.736C138.869 94.736 138.389 94.848 138.005 95.072C137.621 95.2853 137.413 95.696 137.381 96.304H136.021C136.042 95.792 136.149 95.36 136.341 95.008C136.533 94.656 136.789 94.3733 137.109 94.16C137.429 93.936 137.792 93.776 138.197 93.68C138.613 93.584 139.056 93.536 139.525 93.536C139.898 93.536 140.266 93.5627 140.629 93.616C141.002 93.6693 141.338 93.7813 141.637 93.952C141.936 94.112 142.176 94.3413 142.357 94.64C142.538 94.9387 142.629 95.328 142.629 95.808V100.064C142.629 100.384 142.645 100.619 142.677 100.768C142.72 100.917 142.848 100.992 143.061 100.992C143.178 100.992 143.317 100.965 143.477 100.912V101.968ZM141.269 97.728C141.098 97.856 140.874 97.952 140.597 98.016C140.32 98.0693 140.026 98.1173 139.717 98.16C139.418 98.192 139.114 98.2347 138.805 98.288C138.496 98.3307 138.218 98.4053 137.973 98.512C137.728 98.6187 137.525 98.7733 137.365 98.976C137.216 99.168 137.141 99.4347 137.141 99.776C137.141 100 137.184 100.192 137.269 100.352C137.365 100.501 137.482 100.624 137.621 100.72C137.77 100.816 137.941 100.885 138.133 100.928C138.325 100.971 138.528 100.992 138.741 100.992C139.189 100.992 139.573 100.933 139.893 100.816C140.213 100.688 140.474 100.533 140.677 100.352C140.88 100.16 141.029 99.9573 141.125 99.744C141.221 99.52 141.269 99.312 141.269 99.12V97.728ZM151.879 101.296V93.728H150.599V94.912H150.583C150.337 94.4533 149.996 94.112 149.559 93.888C149.121 93.6533 148.641 93.536 148.119 93.536C147.404 93.536 146.801 93.6747 146.311 93.952C145.82 94.2187 145.425 94.5653 145.127 94.992C144.828 95.408 144.615 95.8773 144.487 96.4C144.359 96.912 144.295 97.4133 144.295 97.904C144.295 98.4693 144.369 99.008 144.519 99.52C144.679 100.021 144.913 100.464 145.223 100.848C145.532 101.221 145.916 101.52 146.375 101.744C146.833 101.968 147.372 102.08 147.991 102.08C148.524 102.08 149.025 101.963 149.495 101.728C149.975 101.483 150.332 101.104 150.567 100.592H150.599V101.136C150.599 101.595 150.551 102.016 150.455 102.4C150.369 102.784 150.225 103.109 150.023 103.376C149.82 103.653 149.564 103.867 149.255 104.016C148.945 104.176 148.567 104.256 148.119 104.256C147.895 104.256 147.66 104.229 147.415 104.176C147.169 104.133 146.94 104.059 146.727 103.952C146.524 103.845 146.348 103.707 146.199 103.536C146.06 103.365 145.985 103.157 145.975 102.912H144.615C144.636 103.36 144.753 103.739 144.967 104.048C145.18 104.357 145.447 104.608 145.767 104.8C146.097 104.992 146.46 105.131 146.855 105.216C147.26 105.301 147.655 105.344 148.039 105.344C149.361 105.344 150.332 105.008 150.951 104.336C151.569 103.664 151.879 102.651 151.879 101.296ZM148.071 100.896C147.623 100.896 147.249 100.805 146.951 100.624C146.652 100.432 146.412 100.187 146.231 99.888C146.049 99.5787 145.921 99.2373 145.847 98.864C145.772 98.4907 145.735 98.1173 145.735 97.744C145.735 97.3493 145.777 96.9707 145.863 96.608C145.959 96.2453 146.103 95.9253 146.295 95.648C146.497 95.3707 146.753 95.152 147.063 94.992C147.372 94.8213 147.745 94.736 148.183 94.736C148.609 94.736 148.972 94.8213 149.271 94.992C149.569 95.1627 149.809 95.392 149.991 95.68C150.183 95.9573 150.321 96.272 150.407 96.624C150.492 96.976 150.535 97.3333 150.535 97.696C150.535 98.08 150.487 98.464 150.391 98.848C150.305 99.232 150.167 99.5787 149.975 99.888C149.783 100.187 149.527 100.432 149.207 100.624C148.897 100.805 148.519 100.896 148.071 100.896ZM159.674 97.072H154.922C154.944 96.752 155.013 96.4533 155.13 96.176C155.248 95.888 155.408 95.6373 155.61 95.424C155.813 95.2107 156.053 95.0453 156.33 94.928C156.618 94.8 156.938 94.736 157.29 94.736C157.632 94.736 157.941 94.8 158.218 94.928C158.506 95.0453 158.752 95.2107 158.954 95.424C159.168 95.6267 159.333 95.872 159.45 96.16C159.578 96.448 159.653 96.752 159.674 97.072ZM160.986 99.376H159.642C159.525 99.92 159.28 100.325 158.906 100.592C158.544 100.859 158.074 100.992 157.498 100.992C157.05 100.992 156.661 100.917 156.33 100.768C156 100.619 155.728 100.421 155.514 100.176C155.301 99.92 155.146 99.632 155.05 99.312C154.954 98.9813 154.912 98.6347 154.922 98.272H161.114C161.136 97.7707 161.088 97.2427 160.97 96.688C160.864 96.1333 160.661 95.6213 160.362 95.152C160.074 94.6827 159.685 94.2987 159.194 94C158.714 93.6907 158.106 93.536 157.37 93.536C156.805 93.536 156.282 93.6427 155.802 93.856C155.333 94.0693 154.922 94.368 154.57 94.752C154.229 95.136 153.962 95.5893 153.77 96.112C153.578 96.6347 153.482 97.2107 153.482 97.84C153.504 98.4693 153.594 99.0507 153.754 99.584C153.925 100.117 154.176 100.576 154.506 100.96C154.837 101.344 155.242 101.643 155.722 101.856C156.213 102.069 156.789 102.176 157.45 102.176C158.389 102.176 159.168 101.941 159.786 101.472C160.405 101.003 160.805 100.304 160.986 99.376ZM67.5318 109.576V121H68.8918V116.328C68.8918 115.955 68.9398 115.613 69.0358 115.304C69.1425 114.984 69.2971 114.707 69.4998 114.472C69.7025 114.237 69.9531 114.056 70.2518 113.928C70.5611 113.8 70.9238 113.736 71.3398 113.736C71.8625 113.736 72.2731 113.885 72.5718 114.184C72.8705 114.483 73.0198 114.888 73.0198 115.4V121H74.3798V115.56C74.3798 115.112 74.3318 114.707 74.2358 114.344C74.1505 113.971 73.9958 113.651 73.7718 113.384C73.5478 113.117 73.2545 112.909 72.8918 112.76C72.5291 112.611 72.0758 112.536 71.5318 112.536C71.2865 112.536 71.0305 112.563 70.7638 112.616C70.5078 112.669 70.2571 112.755 70.0118 112.872C69.7771 112.979 69.5638 113.123 69.3718 113.304C69.1798 113.475 69.0305 113.688 68.9238 113.944H68.8918V109.576H67.5318ZM82.1664 116.072H77.4144C77.4358 115.752 77.5051 115.453 77.6224 115.176C77.7398 114.888 77.8998 114.637 78.1024 114.424C78.3051 114.211 78.5451 114.045 78.8224 113.928C79.1104 113.8 79.4304 113.736 79.7824 113.736C80.1238 113.736 80.4331 113.8 80.7104 113.928C80.9984 114.045 81.2438 114.211 81.4464 114.424C81.6598 114.627 81.8251 114.872 81.9424 115.16C82.0704 115.448 82.1451 115.752 82.1664 116.072ZM83.4784 118.376H82.1344C82.0171 118.92 81.7718 119.325 81.3984 119.592C81.0358 119.859 80.5664 119.992 79.9904 119.992C79.5424 119.992 79.1531 119.917 78.8224 119.768C78.4918 119.619 78.2198 119.421 78.0064 119.176C77.7931 118.92 77.6384 118.632 77.5424 118.312C77.4464 117.981 77.4038 117.635 77.4144 117.272H83.6064C83.6278 116.771 83.5798 116.243 83.4624 115.688C83.3558 115.133 83.1531 114.621 82.8544 114.152C82.5664 113.683 82.1771 113.299 81.6864 113C81.2064 112.691 80.5984 112.536 79.8624 112.536C79.2971 112.536 78.7744 112.643 78.2944 112.856C77.8251 113.069 77.4144 113.368 77.0624 113.752C76.7211 114.136 76.4544 114.589 76.2624 115.112C76.0704 115.635 75.9744 116.211 75.9744 116.84C75.9958 117.469 76.0864 118.051 76.2464 118.584C76.4171 119.117 76.6678 119.576 76.9984 119.96C77.3291 120.344 77.7344 120.643 78.2144 120.856C78.7051 121.069 79.2811 121.176 79.9424 121.176C80.8811 121.176 81.6598 120.941 82.2784 120.472C82.8971 120.003 83.2971 119.304 83.4784 118.376ZM84.9682 112.728V121H86.3282V117.32C86.3282 116.787 86.3815 116.317 86.4882 115.912C86.5949 115.496 86.7655 115.144 87.0002 114.856C87.2349 114.568 87.5442 114.349 87.9282 114.2C88.3122 114.051 88.7762 113.976 89.3202 113.976V112.536C88.5842 112.515 87.9762 112.664 87.4962 112.984C87.0162 113.304 86.6109 113.8 86.2802 114.472H86.2482V112.728H84.9682ZM95.8071 116.072H91.0551C91.0764 115.752 91.1457 115.453 91.2631 115.176C91.3804 114.888 91.5404 114.637 91.7431 114.424C91.9457 114.211 92.1857 114.045 92.4631 113.928C92.7511 113.8 93.0711 113.736 93.4231 113.736C93.7644 113.736 94.0737 113.8 94.3511 113.928C94.6391 114.045 94.8844 114.211 95.0871 114.424C95.3004 114.627 95.4657 114.872 95.5831 115.16C95.7111 115.448 95.7857 115.752 95.8071 116.072ZM97.1191 118.376H95.7751C95.6577 118.92 95.4124 119.325 95.0391 119.592C94.6764 119.859 94.2071 119.992 93.6311 119.992C93.1831 119.992 92.7937 119.917 92.4631 119.768C92.1324 119.619 91.8604 119.421 91.6471 119.176C91.4337 118.92 91.2791 118.632 91.1831 118.312C91.0871 117.981 91.0444 117.635 91.0551 117.272H97.2471C97.2684 116.771 97.2204 116.243 97.1031 115.688C96.9964 115.133 96.7937 114.621 96.4951 114.152C96.2071 113.683 95.8177 113.299 95.3271 113C94.8471 112.691 94.2391 112.536 93.5031 112.536C92.9377 112.536 92.4151 112.643 91.9351 112.856C91.4657 113.069 91.0551 113.368 90.7031 113.752C90.3617 114.136 90.0951 114.589 89.9031 115.112C89.7111 115.635 89.6151 116.211 89.6151 116.84C89.6364 117.469 89.7271 118.051 89.8871 118.584C90.0577 119.117 90.3084 119.576 90.6391 119.96C90.9697 120.344 91.3751 120.643 91.8551 120.856C92.3457 121.069 92.9217 121.176 93.5831 121.176C94.5217 121.176 95.3004 120.941 95.9191 120.472C96.5377 120.003 96.9377 119.304 97.1191 118.376ZM104.102 116.872C104.102 116.371 104.166 115.928 104.294 115.544C104.433 115.149 104.619 114.819 104.854 114.552C105.089 114.285 105.361 114.083 105.67 113.944C105.99 113.805 106.326 113.736 106.678 113.736C107.03 113.736 107.361 113.805 107.67 113.944C107.99 114.083 108.267 114.285 108.502 114.552C108.737 114.819 108.918 115.149 109.046 115.544C109.185 115.928 109.254 116.371 109.254 116.872C109.254 117.373 109.185 117.821 109.046 118.216C108.918 118.6 108.737 118.925 108.502 119.192C108.267 119.448 107.99 119.645 107.67 119.784C107.361 119.923 107.03 119.992 106.678 119.992C106.326 119.992 105.99 119.923 105.67 119.784C105.361 119.645 105.089 119.448 104.854 119.192C104.619 118.925 104.433 118.6 104.294 118.216C104.166 117.821 104.102 117.373 104.102 116.872ZM102.662 116.872C102.662 117.48 102.747 118.045 102.918 118.568C103.089 119.091 103.345 119.549 103.686 119.944C104.027 120.328 104.449 120.632 104.95 120.856C105.451 121.069 106.027 121.176 106.678 121.176C107.339 121.176 107.915 121.069 108.406 120.856C108.907 120.632 109.329 120.328 109.67 119.944C110.011 119.549 110.267 119.091 110.438 118.568C110.609 118.045 110.694 117.48 110.694 116.872C110.694 116.264 110.609 115.699 110.438 115.176C110.267 114.643 110.011 114.184 109.67 113.8C109.329 113.405 108.907 113.096 108.406 112.872C107.915 112.648 107.339 112.536 106.678 112.536C106.027 112.536 105.451 112.648 104.95 112.872C104.449 113.096 104.027 113.405 103.686 113.8C103.345 114.184 103.089 114.643 102.918 115.176C102.747 115.699 102.662 116.264 102.662 116.872ZM112.249 112.728V121H113.609V117.32C113.609 116.787 113.663 116.317 113.769 115.912C113.876 115.496 114.047 115.144 114.281 114.856C114.516 114.568 114.825 114.349 115.209 114.2C115.593 114.051 116.057 113.976 116.601 113.976V112.536C115.865 112.515 115.257 112.664 114.777 112.984C114.297 113.304 113.892 113.8 113.561 114.472H113.529V112.728H112.249ZM122.127 109.576V121H123.487V119.896H123.519C123.668 120.141 123.849 120.349 124.063 120.52C124.287 120.68 124.521 120.808 124.767 120.904C125.012 121 125.257 121.069 125.503 121.112C125.759 121.155 125.988 121.176 126.191 121.176C126.82 121.176 127.369 121.064 127.839 120.84C128.319 120.616 128.713 120.312 129.023 119.928C129.343 119.533 129.577 119.075 129.727 118.552C129.887 118.029 129.967 117.475 129.967 116.888C129.967 116.301 129.887 115.747 129.727 115.224C129.567 114.701 129.327 114.243 129.007 113.848C128.697 113.443 128.303 113.123 127.823 112.888C127.353 112.653 126.799 112.536 126.159 112.536C125.583 112.536 125.055 112.643 124.575 112.856C124.095 113.059 123.743 113.389 123.519 113.848H123.487V109.576H122.127ZM128.527 116.792C128.527 117.197 128.484 117.592 128.399 117.976C128.313 118.36 128.175 118.701 127.983 119C127.791 119.299 127.535 119.539 127.215 119.72C126.905 119.901 126.516 119.992 126.047 119.992C125.577 119.992 125.177 119.907 124.847 119.736C124.516 119.555 124.244 119.32 124.031 119.032C123.828 118.744 123.679 118.413 123.583 118.04C123.487 117.656 123.439 117.261 123.439 116.856C123.439 116.472 123.481 116.093 123.567 115.72C123.663 115.347 123.812 115.016 124.015 114.728C124.217 114.429 124.479 114.189 124.799 114.008C125.119 113.827 125.508 113.736 125.967 113.736C126.404 113.736 126.783 113.821 127.103 113.992C127.433 114.163 127.7 114.392 127.903 114.68C128.116 114.968 128.271 115.299 128.367 115.672C128.473 116.035 128.527 116.408 128.527 116.792ZM131.515 112.728V121H132.875V117.32C132.875 116.787 132.928 116.317 133.035 115.912C133.142 115.496 133.312 115.144 133.547 114.856C133.782 114.568 134.091 114.349 134.475 114.2C134.859 114.051 135.323 113.976 135.867 113.976V112.536C135.131 112.515 134.523 112.664 134.043 112.984C133.563 113.304 133.158 113.8 132.827 114.472H132.795V112.728H131.515ZM137.602 116.872C137.602 116.371 137.666 115.928 137.794 115.544C137.933 115.149 138.119 114.819 138.354 114.552C138.589 114.285 138.861 114.083 139.17 113.944C139.49 113.805 139.826 113.736 140.178 113.736C140.53 113.736 140.861 113.805 141.17 113.944C141.49 114.083 141.767 114.285 142.002 114.552C142.237 114.819 142.418 115.149 142.546 115.544C142.685 115.928 142.754 116.371 142.754 116.872C142.754 117.373 142.685 117.821 142.546 118.216C142.418 118.6 142.237 118.925 142.002 119.192C141.767 119.448 141.49 119.645 141.17 119.784C140.861 119.923 140.53 119.992 140.178 119.992C139.826 119.992 139.49 119.923 139.17 119.784C138.861 119.645 138.589 119.448 138.354 119.192C138.119 118.925 137.933 118.6 137.794 118.216C137.666 117.821 137.602 117.373 137.602 116.872ZM136.162 116.872C136.162 117.48 136.247 118.045 136.418 118.568C136.589 119.091 136.845 119.549 137.186 119.944C137.527 120.328 137.949 120.632 138.45 120.856C138.951 121.069 139.527 121.176 140.178 121.176C140.839 121.176 141.415 121.069 141.906 120.856C142.407 120.632 142.829 120.328 143.17 119.944C143.511 119.549 143.767 119.091 143.938 118.568C144.109 118.045 144.194 117.48 144.194 116.872C144.194 116.264 144.109 115.699 143.938 115.176C143.767 114.643 143.511 114.184 143.17 113.8C142.829 113.405 142.407 113.096 141.906 112.872C141.415 112.648 140.839 112.536 140.178 112.536C139.527 112.536 138.951 112.648 138.45 112.872C137.949 113.096 137.527 113.405 137.186 113.8C136.845 114.184 136.589 114.643 136.418 115.176C136.247 115.699 136.162 116.264 136.162 116.872ZM153.989 121L156.629 112.728H155.221L153.365 119.496H153.333L151.605 112.728H150.117L148.453 119.496H148.421L146.549 112.728H145.045L147.701 121H149.173L150.837 114.424H150.869L152.549 121H153.989ZM158.754 118.392H157.394C157.416 118.904 157.522 119.341 157.714 119.704C157.906 120.056 158.162 120.344 158.482 120.568C158.802 120.781 159.17 120.936 159.586 121.032C160.002 121.128 160.44 121.176 160.898 121.176C161.314 121.176 161.73 121.133 162.146 121.048C162.573 120.973 162.952 120.835 163.282 120.632C163.624 120.429 163.896 120.163 164.098 119.832C164.312 119.501 164.418 119.085 164.418 118.584C164.418 118.189 164.338 117.859 164.178 117.592C164.029 117.325 163.826 117.107 163.57 116.936C163.325 116.755 163.037 116.611 162.706 116.504C162.386 116.397 162.056 116.307 161.714 116.232C161.394 116.157 161.074 116.088 160.754 116.024C160.434 115.949 160.146 115.864 159.89 115.768C159.634 115.661 159.421 115.533 159.25 115.384C159.09 115.224 159.01 115.027 159.01 114.792C159.01 114.579 159.064 114.408 159.17 114.28C159.277 114.141 159.416 114.035 159.586 113.96C159.757 113.875 159.944 113.816 160.146 113.784C160.36 113.752 160.568 113.736 160.77 113.736C160.994 113.736 161.213 113.763 161.426 113.816C161.65 113.859 161.853 113.933 162.034 114.04C162.216 114.147 162.365 114.291 162.482 114.472C162.6 114.643 162.669 114.861 162.69 115.128H164.05C164.018 114.627 163.912 114.211 163.73 113.88C163.549 113.539 163.304 113.272 162.994 113.08C162.696 112.877 162.349 112.739 161.954 112.664C161.56 112.579 161.128 112.536 160.658 112.536C160.296 112.536 159.928 112.584 159.554 112.68C159.192 112.765 158.861 112.904 158.562 113.096C158.274 113.277 158.034 113.517 157.842 113.816C157.661 114.115 157.57 114.472 157.57 114.888C157.57 115.421 157.704 115.837 157.97 116.136C158.237 116.435 158.568 116.669 158.962 116.84C159.368 117 159.805 117.128 160.274 117.224C160.744 117.309 161.176 117.411 161.57 117.528C161.976 117.635 162.312 117.779 162.578 117.96C162.845 118.141 162.978 118.408 162.978 118.76C162.978 119.016 162.914 119.229 162.786 119.4C162.658 119.56 162.493 119.683 162.29 119.768C162.098 119.853 161.885 119.912 161.65 119.944C161.416 119.976 161.192 119.992 160.978 119.992C160.701 119.992 160.429 119.965 160.162 119.912C159.906 119.859 159.672 119.773 159.458 119.656C159.256 119.528 159.09 119.363 158.962 119.16C158.834 118.947 158.765 118.691 158.754 118.392ZM171.666 116.072H166.914C166.936 115.752 167.005 115.453 167.122 115.176C167.24 114.888 167.4 114.637 167.602 114.424C167.805 114.211 168.045 114.045 168.322 113.928C168.61 113.8 168.93 113.736 169.282 113.736C169.624 113.736 169.933 113.8 170.21 113.928C170.498 114.045 170.744 114.211 170.946 114.424C171.16 114.627 171.325 114.872 171.442 115.16C171.57 115.448 171.645 115.752 171.666 116.072ZM172.978 118.376H171.634C171.517 118.92 171.272 119.325 170.898 119.592C170.536 119.859 170.066 119.992 169.49 119.992C169.042 119.992 168.653 119.917 168.322 119.768C167.992 119.619 167.72 119.421 167.506 119.176C167.293 118.92 167.138 118.632 167.042 118.312C166.946 117.981 166.904 117.635 166.914 117.272H173.106C173.128 116.771 173.08 116.243 172.962 115.688C172.856 115.133 172.653 114.621 172.354 114.152C172.066 113.683 171.677 113.299 171.186 113C170.706 112.691 170.098 112.536 169.362 112.536C168.797 112.536 168.274 112.643 167.794 112.856C167.325 113.069 166.914 113.368 166.562 113.752C166.221 114.136 165.954 114.589 165.762 115.112C165.57 115.635 165.474 116.211 165.474 116.84C165.496 117.469 165.586 118.051 165.746 118.584C165.917 119.117 166.168 119.576 166.498 119.96C166.829 120.344 167.234 120.643 167.714 120.856C168.205 121.069 168.781 121.176 169.442 121.176C170.381 121.176 171.16 120.941 171.778 120.472C172.397 120.003 172.797 119.304 172.978 118.376Z" fill="black"/>
<path d="M121.055 123H173.49V123.8H121.055V123Z" fill="black"/>
</g>
<path opacity="0.3" d="M140 36.0004H103.556C101.596 36.0004 101 36 100 36V64C100.797 64 101.596 64 103.556 64H136.444C138.404 64 139.422 64 140 64V39.4732C140 37.5588 140 36.9767 140 36.0004ZM101.778 37.7368C102.125 37.7368 102.573 37.7368 103.556 37.7368H138.222C138.222 37.9535 138.222 38.5139 138.222 39.4732V48.355L131.649 41.5916C131.64 41.583 131.636 41.5786 131.627 41.5743C131.618 41.5656 131.613 41.5613 131.609 41.5526C131.596 41.5395 131.578 41.5309 131.56 41.5178C131.538 41.5005 131.511 41.4788 131.489 41.4614C131.467 41.444 131.44 41.431 131.413 41.418C131.387 41.405 131.36 41.392 131.333 41.3789C131.307 41.3702 131.28 41.3616 131.253 41.3529C131.227 41.3442 131.2 41.3355 131.173 41.3312C131.147 41.3268 131.116 41.3225 131.089 41.3225C131.062 41.3182 131.036 41.3182 131.004 41.3182C130.973 41.3182 130.947 41.3225 130.92 41.3225C130.893 41.3268 130.867 41.3268 130.836 41.3312C130.809 41.3355 130.778 41.3442 130.751 41.3529C130.724 41.3616 130.698 41.3702 130.671 41.3789C130.644 41.392 130.618 41.405 130.591 41.418C130.564 41.431 130.542 41.444 130.516 41.4571C130.489 41.4744 130.467 41.4918 130.444 41.5092C130.427 41.5222 130.409 41.5309 130.396 41.5439C130.387 41.5526 130.382 41.5569 130.378 41.5656C130.373 41.5699 130.364 41.5786 130.356 41.583L119.422 53.0997L113.396 50.1521L113.387 50.1435C113.369 50.1304 113.347 50.1218 113.329 50.1131C113.298 50.0957 113.267 50.0783 113.236 50.0653C113.204 50.0523 113.173 50.0436 113.142 50.0349C113.12 50.0263 113.093 50.0176 113.071 50.0132C113.036 50.0045 113 50.0045 112.969 50.0002C112.947 50.0002 112.924 49.9959 112.902 49.9959C112.871 49.9959 112.836 50.0002 112.804 50.0045C112.778 50.0089 112.756 50.0089 112.733 50.0132C112.702 50.0176 112.676 50.0263 112.649 50.0349C112.622 50.0436 112.596 50.048 112.569 50.0566C112.542 50.0653 112.516 50.0827 112.489 50.0957C112.462 50.1087 112.44 50.1174 112.413 50.1348C112.387 50.1521 112.36 50.1738 112.333 50.1956C112.316 50.2086 112.293 50.2216 112.28 50.239L101.849 60.9917C101.809 60.8441 101.778 60.6878 101.778 60.5272V37.7368ZM136.444 62.2636H103.556C103.404 62.2636 103.262 62.2419 103.124 62.2072L112.991 51.9797L119.062 54.9576C119.067 54.9576 119.067 54.962 119.071 54.962C119.138 55.0054 119.209 55.0358 119.28 55.0575C119.298 55.0618 119.311 55.0662 119.329 55.0705C119.404 55.0879 119.48 55.1009 119.556 55.1009C119.622 55.1009 119.689 55.0922 119.751 55.0792C119.769 55.0749 119.787 55.0662 119.809 55.0618C119.853 55.0488 119.898 55.0314 119.938 55.0141C119.96 55.0054 119.982 54.9924 120 54.9794C120.036 54.9576 120.071 54.9359 120.107 54.9099C120.129 54.8925 120.147 54.8752 120.169 54.8578C120.178 54.8491 120.191 54.8404 120.204 54.8274L131 43.4583L138.222 50.8858V62.2636C138 62.2636 137.427 62.2636 136.444 62.2636ZM112.889 46.4189C114.604 46.4189 116 45.0558 116 43.3801C116 41.7045 114.604 40.3414 112.889 40.3414C111.173 40.3414 109.778 41.7045 109.778 43.3801C109.778 45.0558 111.173 46.4189 112.889 46.4189ZM112.889 42.0778C113.622 42.0778 114.222 42.6639 114.222 43.3801C114.222 44.0964 113.622 44.6825 112.889 44.6825C112.156 44.6825 111.556 44.0964 111.556 43.3801C111.556 42.6639 112.156 42.0778 112.889 42.0778Z" fill="#1F191B"/>
</svg>
