<svg width="240" height="160" viewBox="0 0 240 160" fill="none" xmlns="http://www.w3.org/2000/svg">
<rect opacity="0.3" x="0.5" y="0.5" width="239" height="159" stroke="black" stroke-dasharray="5 8"/>
<g opacity="0.4">
<path d="M81.268 100.72V91.856H83.828C84.532 91.856 85.124 91.9573 85.604 92.16C86.084 92.352 86.4733 92.64 86.772 93.024C87.0813 93.3973 87.3 93.856 87.428 94.4C87.5667 94.9333 87.636 95.5413 87.636 96.224C87.636 96.928 87.5613 97.5307 87.412 98.032C87.2733 98.5227 87.092 98.9333 86.868 99.264C86.644 99.5947 86.388 99.856 86.1 100.048C85.8227 100.24 85.54 100.389 85.252 100.496C84.964 100.592 84.692 100.656 84.436 100.688C84.18 100.709 83.9667 100.72 83.796 100.72H81.268ZM79.748 90.576V102H83.668C84.6173 102 85.4387 101.867 86.132 101.6C86.8253 101.333 87.396 100.949 87.844 100.448C88.292 99.936 88.6227 99.312 88.836 98.576C89.0493 97.8293 89.156 96.976 89.156 96.016C89.156 94.1813 88.6813 92.816 87.732 91.92C86.7827 91.024 85.428 90.576 83.668 90.576H79.748ZM90.7416 93.728V102H92.1016V98.32C92.1016 97.7867 92.155 97.3173 92.2616 96.912C92.3683 96.496 92.539 96.144 92.7736 95.856C93.0083 95.568 93.3176 95.3493 93.7016 95.2C94.0856 95.0507 94.5496 94.976 95.0936 94.976V93.536C94.3576 93.5147 93.7496 93.664 93.2696 93.984C92.7896 94.304 92.3843 94.8 92.0536 95.472H92.0216V93.728H90.7416ZM96.8285 97.872C96.8285 97.3707 96.8925 96.928 97.0205 96.544C97.1592 96.1493 97.3458 95.8187 97.5805 95.552C97.8152 95.2853 98.0872 95.0827 98.3965 94.944C98.7165 94.8053 99.0525 94.736 99.4045 94.736C99.7565 94.736 100.087 94.8053 100.397 94.944C100.717 95.0827 100.994 95.2853 101.229 95.552C101.463 95.8187 101.645 96.1493 101.773 96.544C101.911 96.928 101.981 97.3707 101.981 97.872C101.981 98.3733 101.911 98.8213 101.773 99.216C101.645 99.6 101.463 99.9253 101.229 100.192C100.994 100.448 100.717 100.645 100.397 100.784C100.087 100.923 99.7565 100.992 99.4045 100.992C99.0525 100.992 98.7165 100.923 98.3965 100.784C98.0872 100.645 97.8152 100.448 97.5805 100.192C97.3458 99.9253 97.1592 99.6 97.0205 99.216C96.8925 98.8213 96.8285 98.3733 96.8285 97.872ZM95.3885 97.872C95.3885 98.48 95.4738 99.0453 95.6445 99.568C95.8152 100.091 96.0712 100.549 96.4125 100.944C96.7538 101.328 97.1752 101.632 97.6765 101.856C98.1778 102.069 98.7538 102.176 99.4045 102.176C100.066 102.176 100.642 102.069 101.133 101.856C101.634 101.632 102.055 101.328 102.397 100.944C102.738 100.549 102.994 100.091 103.165 99.568C103.335 99.0453 103.421 98.48 103.421 97.872C103.421 97.264 103.335 96.6987 103.165 96.176C102.994 95.6427 102.738 95.184 102.397 94.8C102.055 94.4053 101.634 94.096 101.133 93.872C100.642 93.648 100.066 93.536 99.4045 93.536C98.7538 93.536 98.1778 93.648 97.6765 93.872C97.1752 94.096 96.7538 94.4053 96.4125 94.8C96.0712 95.184 95.8152 95.6427 95.6445 96.176C95.4738 96.6987 95.3885 97.264 95.3885 97.872ZM105.072 93.728V105.152H106.432V100.896H106.464C106.613 101.141 106.795 101.349 107.008 101.52C107.232 101.68 107.467 101.808 107.712 101.904C107.957 102 108.203 102.069 108.448 102.112C108.704 102.155 108.933 102.176 109.136 102.176C109.765 102.176 110.315 102.064 110.784 101.84C111.264 101.616 111.659 101.312 111.968 100.928C112.288 100.533 112.523 100.075 112.672 99.552C112.832 99.0293 112.912 98.4747 112.912 97.888C112.912 97.3013 112.832 96.7467 112.672 96.224C112.512 95.7013 112.272 95.2427 111.952 94.848C111.643 94.4427 111.248 94.1227 110.768 93.888C110.299 93.6533 109.744 93.536 109.104 93.536C108.528 93.536 108 93.6427 107.52 93.856C107.04 94.0587 106.688 94.3893 106.464 94.848H106.432V93.728H105.072ZM111.472 97.792C111.472 98.1973 111.429 98.592 111.344 98.976C111.259 99.36 111.12 99.7013 110.928 100C110.736 100.299 110.48 100.539 110.16 100.72C109.851 100.901 109.461 100.992 108.992 100.992C108.523 100.992 108.123 100.907 107.792 100.736C107.461 100.555 107.189 100.32 106.976 100.032C106.773 99.744 106.624 99.4133 106.528 99.04C106.432 98.656 106.384 98.2613 106.384 97.856C106.384 97.472 106.427 97.0933 106.512 96.72C106.608 96.3467 106.757 96.016 106.96 95.728C107.163 95.4293 107.424 95.1893 107.744 95.008C108.064 94.8267 108.453 94.736 108.912 94.736C109.349 94.736 109.728 94.8213 110.048 94.992C110.379 95.1627 110.645 95.392 110.848 95.68C111.061 95.968 111.216 96.2987 111.312 96.672C111.419 97.0347 111.472 97.408 111.472 97.792ZM120.402 92.24V90.576H119.042V92.24H120.402ZM119.042 93.728V102H120.402V93.728H119.042ZM122.508 93.728V102H123.868V96.848C123.868 96.688 123.906 96.4907 123.98 96.256C124.066 96.0107 124.194 95.776 124.364 95.552C124.546 95.328 124.775 95.136 125.052 94.976C125.34 94.816 125.682 94.736 126.076 94.736C126.386 94.736 126.636 94.784 126.828 94.88C127.031 94.9653 127.191 95.0933 127.308 95.264C127.426 95.424 127.506 95.616 127.548 95.84C127.602 96.064 127.628 96.3093 127.628 96.576V102H128.988V96.848C128.988 96.208 129.18 95.696 129.564 95.312C129.948 94.928 130.476 94.736 131.148 94.736C131.479 94.736 131.746 94.784 131.948 94.88C132.162 94.976 132.327 95.1093 132.444 95.28C132.562 95.44 132.642 95.632 132.684 95.856C132.727 96.08 132.748 96.32 132.748 96.576V102H134.108V95.936C134.108 95.5093 134.039 95.1467 133.9 94.848C133.772 94.5387 133.586 94.288 133.34 94.096C133.106 93.904 132.818 93.7653 132.476 93.68C132.146 93.584 131.772 93.536 131.356 93.536C130.812 93.536 130.311 93.6587 129.852 93.904C129.404 94.1493 129.042 94.496 128.764 94.944C128.594 94.432 128.3 94.0693 127.884 93.856C127.468 93.6427 127.004 93.536 126.492 93.536C125.33 93.536 124.439 94.0053 123.82 94.944H123.788V93.728H122.508ZM143.477 101.968C143.242 102.107 142.917 102.176 142.501 102.176C142.149 102.176 141.866 102.08 141.653 101.888C141.45 101.685 141.349 101.36 141.349 100.912C140.976 101.36 140.538 101.685 140.037 101.888C139.546 102.08 139.013 102.176 138.437 102.176C138.064 102.176 137.706 102.133 137.365 102.048C137.034 101.963 136.746 101.829 136.501 101.648C136.256 101.467 136.058 101.232 135.909 100.944C135.77 100.645 135.701 100.288 135.701 99.872C135.701 99.4027 135.781 99.0187 135.941 98.72C136.101 98.4213 136.309 98.1813 136.565 98C136.832 97.808 137.13 97.664 137.461 97.568C137.802 97.472 138.149 97.392 138.501 97.328C138.874 97.2533 139.226 97.2 139.557 97.168C139.898 97.1253 140.197 97.072 140.453 97.008C140.709 96.9333 140.912 96.832 141.061 96.704C141.21 96.5653 141.285 96.368 141.285 96.112C141.285 95.8133 141.226 95.5733 141.109 95.392C141.002 95.2107 140.858 95.072 140.677 94.976C140.506 94.88 140.309 94.816 140.085 94.784C139.872 94.752 139.658 94.736 139.445 94.736C138.869 94.736 138.389 94.848 138.005 95.072C137.621 95.2853 137.413 95.696 137.381 96.304H136.021C136.042 95.792 136.149 95.36 136.341 95.008C136.533 94.656 136.789 94.3733 137.109 94.16C137.429 93.936 137.792 93.776 138.197 93.68C138.613 93.584 139.056 93.536 139.525 93.536C139.898 93.536 140.266 93.5627 140.629 93.616C141.002 93.6693 141.338 93.7813 141.637 93.952C141.936 94.112 142.176 94.3413 142.357 94.64C142.538 94.9387 142.629 95.328 142.629 95.808V100.064C142.629 100.384 142.645 100.619 142.677 100.768C142.72 100.917 142.848 100.992 143.061 100.992C143.178 100.992 143.317 100.965 143.477 100.912V101.968ZM141.269 97.728C141.098 97.856 140.874 97.952 140.597 98.016C140.32 98.0693 140.026 98.1173 139.717 98.16C139.418 98.192 139.114 98.2347 138.805 98.288C138.496 98.3307 138.218 98.4053 137.973 98.512C137.728 98.6187 137.525 98.7733 137.365 98.976C137.216 99.168 137.141 99.4347 137.141 99.776C137.141 100 137.184 100.192 137.269 100.352C137.365 100.501 137.482 100.624 137.621 100.72C137.77 100.816 137.941 100.885 138.133 100.928C138.325 100.971 138.528 100.992 138.741 100.992C139.189 100.992 139.573 100.933 139.893 100.816C140.213 100.688 140.474 100.533 140.677 100.352C140.88 100.16 141.029 99.9573 141.125 99.744C141.221 99.52 141.269 99.312 141.269 99.12V97.728ZM151.879 101.296V93.728H150.599V94.912H150.583C150.337 94.4533 149.996 94.112 149.559 93.888C149.121 93.6533 148.641 93.536 148.119 93.536C147.404 93.536 146.801 93.6747 146.311 93.952C145.82 94.2187 145.425 94.5653 145.127 94.992C144.828 95.408 144.615 95.8773 144.487 96.4C144.359 96.912 144.295 97.4133 144.295 97.904C144.295 98.4693 144.369 99.008 144.519 99.52C144.679 100.021 144.913 100.464 145.223 100.848C145.532 101.221 145.916 101.52 146.375 101.744C146.833 101.968 147.372 102.08 147.991 102.08C148.524 102.08 149.025 101.963 149.495 101.728C149.975 101.483 150.332 101.104 150.567 100.592H150.599V101.136C150.599 101.595 150.551 102.016 150.455 102.4C150.369 102.784 150.225 103.109 150.023 103.376C149.82 103.653 149.564 103.867 149.255 104.016C148.945 104.176 148.567 104.256 148.119 104.256C147.895 104.256 147.66 104.229 147.415 104.176C147.169 104.133 146.94 104.059 146.727 103.952C146.524 103.845 146.348 103.707 146.199 103.536C146.06 103.365 145.985 103.157 145.975 102.912H144.615C144.636 103.36 144.753 103.739 144.967 104.048C145.18 104.357 145.447 104.608 145.767 104.8C146.097 104.992 146.46 105.131 146.855 105.216C147.26 105.301 147.655 105.344 148.039 105.344C149.361 105.344 150.332 105.008 150.951 104.336C151.569 103.664 151.879 102.651 151.879 101.296ZM148.071 100.896C147.623 100.896 147.249 100.805 146.951 100.624C146.652 100.432 146.412 100.187 146.231 99.888C146.049 99.5787 145.921 99.2373 145.847 98.864C145.772 98.4907 145.735 98.1173 145.735 97.744C145.735 97.3493 145.777 96.9707 145.863 96.608C145.959 96.2453 146.103 95.9253 146.295 95.648C146.497 95.3707 146.753 95.152 147.063 94.992C147.372 94.8213 147.745 94.736 148.183 94.736C148.609 94.736 148.972 94.8213 149.271 94.992C149.569 95.1627 149.809 95.392 149.991 95.68C150.183 95.9573 150.321 96.272 150.407 96.624C150.492 96.976 150.535 97.3333 150.535 97.696C150.535 98.08 150.487 98.464 150.391 98.848C150.305 99.232 150.167 99.5787 149.975 99.888C149.783 100.187 149.527 100.432 149.207 100.624C148.897 100.805 148.519 100.896 148.071 100.896ZM159.674 97.072H154.922C154.944 96.752 155.013 96.4533 155.13 96.176C155.248 95.888 155.408 95.6373 155.61 95.424C155.813 95.2107 156.053 95.0453 156.33 94.928C156.618 94.8 156.938 94.736 157.29 94.736C157.632 94.736 157.941 94.8 158.218 94.928C158.506 95.0453 158.752 95.2107 158.954 95.424C159.168 95.6267 159.333 95.872 159.45 96.16C159.578 96.448 159.653 96.752 159.674 97.072ZM160.986 99.376H159.642C159.525 99.92 159.28 100.325 158.906 100.592C158.544 100.859 158.074 100.992 157.498 100.992C157.05 100.992 156.661 100.917 156.33 100.768C156 100.619 155.728 100.421 155.514 100.176C155.301 99.92 155.146 99.632 155.05 99.312C154.954 98.9813 154.912 98.6347 154.922 98.272H161.114C161.136 97.7707 161.088 97.2427 160.97 96.688C160.864 96.1333 160.661 95.6213 160.362 95.152C160.074 94.6827 159.685 94.2987 159.194 94C158.714 93.6907 158.106 93.536 157.37 93.536C156.805 93.536 156.282 93.6427 155.802 93.856C155.333 94.0693 154.922 94.368 154.57 94.752C154.229 95.136 153.962 95.5893 153.77 96.112C153.578 96.6347 153.482 97.2107 153.482 97.84C153.504 98.4693 153.594 99.0507 153.754 99.584C153.925 100.117 154.176 100.576 154.506 100.96C154.837 101.344 155.242 101.643 155.722 101.856C156.213 102.069 156.789 102.176 157.45 102.176C158.389 102.176 159.168 101.941 159.786 101.472C160.405 101.003 160.805 100.304 160.986 99.376ZM69.1568 109.576V121H70.5168V116.328C70.5168 115.955 70.5648 115.613 70.6608 115.304C70.7675 114.984 70.9221 114.707 71.1248 114.472C71.3275 114.237 71.5781 114.056 71.8768 113.928C72.1861 113.8 72.5488 113.736 72.9648 113.736C73.4875 113.736 73.8981 113.885 74.1968 114.184C74.4955 114.483 74.6448 114.888 74.6448 115.4V121H76.0048V115.56C76.0048 115.112 75.9568 114.707 75.8608 114.344C75.7755 113.971 75.6208 113.651 75.3968 113.384C75.1728 113.117 74.8795 112.909 74.5168 112.76C74.1541 112.611 73.7008 112.536 73.1568 112.536C72.9115 112.536 72.6555 112.563 72.3888 112.616C72.1328 112.669 71.8821 112.755 71.6368 112.872C71.4021 112.979 71.1888 113.123 70.9968 113.304C70.8048 113.475 70.6555 113.688 70.5488 113.944H70.5168V109.576H69.1568ZM83.7914 116.072H79.0394C79.0608 115.752 79.1301 115.453 79.2474 115.176C79.3648 114.888 79.5248 114.637 79.7274 114.424C79.9301 114.211 80.1701 114.045 80.4474 113.928C80.7354 113.8 81.0554 113.736 81.4074 113.736C81.7488 113.736 82.0581 113.8 82.3354 113.928C82.6234 114.045 82.8688 114.211 83.0714 114.424C83.2848 114.627 83.4501 114.872 83.5674 115.16C83.6954 115.448 83.7701 115.752 83.7914 116.072ZM85.1034 118.376H83.7594C83.6421 118.92 83.3968 119.325 83.0234 119.592C82.6608 119.859 82.1914 119.992 81.6154 119.992C81.1674 119.992 80.7781 119.917 80.4474 119.768C80.1168 119.619 79.8448 119.421 79.6314 119.176C79.4181 118.92 79.2634 118.632 79.1674 118.312C79.0714 117.981 79.0288 117.635 79.0394 117.272H85.2314C85.2528 116.771 85.2048 116.243 85.0874 115.688C84.9808 115.133 84.7781 114.621 84.4794 114.152C84.1914 113.683 83.8021 113.299 83.3114 113C82.8314 112.691 82.2234 112.536 81.4874 112.536C80.9221 112.536 80.3994 112.643 79.9194 112.856C79.4501 113.069 79.0394 113.368 78.6874 113.752C78.3461 114.136 78.0794 114.589 77.8874 115.112C77.6954 115.635 77.5994 116.211 77.5994 116.84C77.6208 117.469 77.7114 118.051 77.8714 118.584C78.0421 119.117 78.2928 119.576 78.6234 119.96C78.9541 120.344 79.3594 120.643 79.8394 120.856C80.3301 121.069 80.9061 121.176 81.5674 121.176C82.5061 121.176 83.2848 120.941 83.9034 120.472C84.5221 120.003 84.9221 119.304 85.1034 118.376ZM86.5932 112.728V121H87.9532V117.32C87.9532 116.787 88.0065 116.317 88.1132 115.912C88.2199 115.496 88.3905 115.144 88.6252 114.856C88.8599 114.568 89.1692 114.349 89.5532 114.2C89.9372 114.051 90.4012 113.976 90.9452 113.976V112.536C90.2092 112.515 89.6012 112.664 89.1212 112.984C88.6412 113.304 88.2359 113.8 87.9052 114.472H87.8732V112.728H86.5932ZM97.4321 116.072H92.6801C92.7014 115.752 92.7707 115.453 92.8881 115.176C93.0054 114.888 93.1654 114.637 93.3681 114.424C93.5707 114.211 93.8107 114.045 94.0881 113.928C94.3761 113.8 94.6961 113.736 95.0481 113.736C95.3894 113.736 95.6987 113.8 95.9761 113.928C96.2641 114.045 96.5094 114.211 96.7121 114.424C96.9254 114.627 97.0907 114.872 97.2081 115.16C97.3361 115.448 97.4107 115.752 97.4321 116.072ZM98.7441 118.376H97.4001C97.2827 118.92 97.0374 119.325 96.6641 119.592C96.3014 119.859 95.8321 119.992 95.2561 119.992C94.8081 119.992 94.4187 119.917 94.0881 119.768C93.7574 119.619 93.4854 119.421 93.2721 119.176C93.0587 118.92 92.9041 118.632 92.8081 118.312C92.7121 117.981 92.6694 117.635 92.6801 117.272H98.8721C98.8934 116.771 98.8454 116.243 98.7281 115.688C98.6214 115.133 98.4187 114.621 98.1201 114.152C97.8321 113.683 97.4427 113.299 96.9521 113C96.4721 112.691 95.8641 112.536 95.1281 112.536C94.5627 112.536 94.0401 112.643 93.5601 112.856C93.0907 113.069 92.6801 113.368 92.3281 113.752C91.9867 114.136 91.7201 114.589 91.5281 115.112C91.3361 115.635 91.2401 116.211 91.2401 116.84C91.2614 117.469 91.3521 118.051 91.5121 118.584C91.6827 119.117 91.9334 119.576 92.2641 119.96C92.5947 120.344 93.0001 120.643 93.4801 120.856C93.9707 121.069 94.5467 121.176 95.2081 121.176C96.1467 121.176 96.9254 120.941 97.5441 120.472C98.1627 120.003 98.5627 119.304 98.7441 118.376ZM105.727 116.872C105.727 116.371 105.791 115.928 105.919 115.544C106.058 115.149 106.244 114.819 106.479 114.552C106.714 114.285 106.986 114.083 107.295 113.944C107.615 113.805 107.951 113.736 108.303 113.736C108.655 113.736 108.986 113.805 109.295 113.944C109.615 114.083 109.892 114.285 110.127 114.552C110.362 114.819 110.543 115.149 110.671 115.544C110.81 115.928 110.879 116.371 110.879 116.872C110.879 117.373 110.81 117.821 110.671 118.216C110.543 118.6 110.362 118.925 110.127 119.192C109.892 119.448 109.615 119.645 109.295 119.784C108.986 119.923 108.655 119.992 108.303 119.992C107.951 119.992 107.615 119.923 107.295 119.784C106.986 119.645 106.714 119.448 106.479 119.192C106.244 118.925 106.058 118.6 105.919 118.216C105.791 117.821 105.727 117.373 105.727 116.872ZM104.287 116.872C104.287 117.48 104.372 118.045 104.543 118.568C104.714 119.091 104.97 119.549 105.311 119.944C105.652 120.328 106.074 120.632 106.575 120.856C107.076 121.069 107.652 121.176 108.303 121.176C108.964 121.176 109.54 121.069 110.031 120.856C110.532 120.632 110.954 120.328 111.295 119.944C111.636 119.549 111.892 119.091 112.063 118.568C112.234 118.045 112.319 117.48 112.319 116.872C112.319 116.264 112.234 115.699 112.063 115.176C111.892 114.643 111.636 114.184 111.295 113.8C110.954 113.405 110.532 113.096 110.031 112.872C109.54 112.648 108.964 112.536 108.303 112.536C107.652 112.536 107.076 112.648 106.575 112.872C106.074 113.096 105.652 113.405 105.311 113.8C104.97 114.184 104.714 114.643 104.543 115.176C104.372 115.699 104.287 116.264 104.287 116.872ZM113.874 112.728V121H115.234V117.32C115.234 116.787 115.288 116.317 115.394 115.912C115.501 115.496 115.672 115.144 115.906 114.856C116.141 114.568 116.45 114.349 116.834 114.2C117.218 114.051 117.682 113.976 118.226 113.976V112.536C117.49 112.515 116.882 112.664 116.402 112.984C115.922 113.304 115.517 113.8 115.186 114.472H115.154V112.728H113.874ZM130.552 121V112.728H129.192V117.4C129.192 117.773 129.138 118.12 129.032 118.44C128.936 118.749 128.786 119.021 128.584 119.256C128.381 119.491 128.125 119.672 127.816 119.8C127.517 119.928 127.16 119.992 126.744 119.992C126.221 119.992 125.81 119.843 125.512 119.544C125.213 119.245 125.064 118.84 125.064 118.328V112.728H123.704V118.168C123.704 118.616 123.746 119.027 123.832 119.4C123.928 119.763 124.088 120.077 124.312 120.344C124.536 120.611 124.829 120.819 125.192 120.968C125.554 121.107 126.008 121.176 126.552 121.176C127.16 121.176 127.688 121.059 128.136 120.824C128.584 120.579 128.952 120.2 129.24 119.688H129.272V121H130.552ZM132.642 112.728V124.152H134.002V119.896H134.034C134.184 120.141 134.365 120.349 134.578 120.52C134.802 120.68 135.037 120.808 135.282 120.904C135.528 121 135.773 121.069 136.018 121.112C136.274 121.155 136.504 121.176 136.706 121.176C137.336 121.176 137.885 121.064 138.354 120.84C138.834 120.616 139.229 120.312 139.538 119.928C139.858 119.533 140.093 119.075 140.242 118.552C140.402 118.029 140.482 117.475 140.482 116.888C140.482 116.301 140.402 115.747 140.242 115.224C140.082 114.701 139.842 114.243 139.522 113.848C139.213 113.443 138.818 113.123 138.338 112.888C137.869 112.653 137.314 112.536 136.674 112.536C136.098 112.536 135.57 112.643 135.09 112.856C134.61 113.059 134.258 113.389 134.034 113.848H134.002V112.728H132.642ZM139.042 116.792C139.042 117.197 139 117.592 138.914 117.976C138.829 118.36 138.69 118.701 138.498 119C138.306 119.299 138.05 119.539 137.73 119.72C137.421 119.901 137.032 119.992 136.562 119.992C136.093 119.992 135.693 119.907 135.362 119.736C135.032 119.555 134.76 119.32 134.546 119.032C134.344 118.744 134.194 118.413 134.098 118.04C134.002 117.656 133.954 117.261 133.954 116.856C133.954 116.472 133.997 116.093 134.082 115.72C134.178 115.347 134.328 115.016 134.53 114.728C134.733 114.429 134.994 114.189 135.314 114.008C135.634 113.827 136.024 113.736 136.482 113.736C136.92 113.736 137.298 113.821 137.618 113.992C137.949 114.163 138.216 114.392 138.418 114.68C138.632 114.968 138.786 115.299 138.882 115.672C138.989 116.035 139.042 116.408 139.042 116.792ZM142.159 109.576V121H143.519V109.576H142.159ZM146.618 116.872C146.618 116.371 146.682 115.928 146.81 115.544C146.948 115.149 147.135 114.819 147.37 114.552C147.604 114.285 147.876 114.083 148.186 113.944C148.506 113.805 148.842 113.736 149.194 113.736C149.546 113.736 149.876 113.805 150.186 113.944C150.506 114.083 150.783 114.285 151.018 114.552C151.252 114.819 151.434 115.149 151.562 115.544C151.7 115.928 151.77 116.371 151.77 116.872C151.77 117.373 151.7 117.821 151.562 118.216C151.434 118.6 151.252 118.925 151.018 119.192C150.783 119.448 150.506 119.645 150.186 119.784C149.876 119.923 149.546 119.992 149.194 119.992C148.842 119.992 148.506 119.923 148.186 119.784C147.876 119.645 147.604 119.448 147.37 119.192C147.135 118.925 146.948 118.6 146.81 118.216C146.682 117.821 146.618 117.373 146.618 116.872ZM145.178 116.872C145.178 117.48 145.263 118.045 145.434 118.568C145.604 119.091 145.86 119.549 146.202 119.944C146.543 120.328 146.964 120.632 147.466 120.856C147.967 121.069 148.543 121.176 149.194 121.176C149.855 121.176 150.431 121.069 150.922 120.856C151.423 120.632 151.844 120.328 152.186 119.944C152.527 119.549 152.783 119.091 152.954 118.568C153.124 118.045 153.21 117.48 153.21 116.872C153.21 116.264 153.124 115.699 152.954 115.176C152.783 114.643 152.527 114.184 152.186 113.8C151.844 113.405 151.423 113.096 150.922 112.872C150.431 112.648 149.855 112.536 149.194 112.536C148.543 112.536 147.967 112.648 147.466 112.872C146.964 113.096 146.543 113.405 146.202 113.8C145.86 114.184 145.604 114.643 145.434 115.176C145.263 115.699 145.178 116.264 145.178 116.872ZM162.141 120.968C161.906 121.107 161.581 121.176 161.165 121.176C160.813 121.176 160.53 121.08 160.317 120.888C160.114 120.685 160.013 120.36 160.013 119.912C159.64 120.36 159.202 120.685 158.701 120.888C158.21 121.08 157.677 121.176 157.101 121.176C156.728 121.176 156.37 121.133 156.029 121.048C155.698 120.963 155.41 120.829 155.165 120.648C154.92 120.467 154.722 120.232 154.573 119.944C154.434 119.645 154.365 119.288 154.365 118.872C154.365 118.403 154.445 118.019 154.605 117.72C154.765 117.421 154.973 117.181 155.229 117C155.496 116.808 155.794 116.664 156.125 116.568C156.466 116.472 156.813 116.392 157.165 116.328C157.538 116.253 157.89 116.2 158.221 116.168C158.562 116.125 158.861 116.072 159.117 116.008C159.373 115.933 159.576 115.832 159.725 115.704C159.874 115.565 159.949 115.368 159.949 115.112C159.949 114.813 159.89 114.573 159.773 114.392C159.666 114.211 159.522 114.072 159.341 113.976C159.17 113.88 158.973 113.816 158.749 113.784C158.536 113.752 158.322 113.736 158.109 113.736C157.533 113.736 157.053 113.848 156.669 114.072C156.285 114.285 156.077 114.696 156.045 115.304H154.685C154.706 114.792 154.813 114.36 155.005 114.008C155.197 113.656 155.453 113.373 155.773 113.16C156.093 112.936 156.456 112.776 156.861 112.68C157.277 112.584 157.72 112.536 158.189 112.536C158.562 112.536 158.93 112.563 159.293 112.616C159.666 112.669 160.002 112.781 160.301 112.952C160.6 113.112 160.84 113.341 161.021 113.64C161.202 113.939 161.293 114.328 161.293 114.808V119.064C161.293 119.384 161.309 119.619 161.341 119.768C161.384 119.917 161.512 119.992 161.725 119.992C161.842 119.992 161.981 119.965 162.141 119.912V120.968ZM159.933 116.728C159.762 116.856 159.538 116.952 159.261 117.016C158.984 117.069 158.69 117.117 158.381 117.16C158.082 117.192 157.778 117.235 157.469 117.288C157.16 117.331 156.882 117.405 156.637 117.512C156.392 117.619 156.189 117.773 156.029 117.976C155.88 118.168 155.805 118.435 155.805 118.776C155.805 119 155.848 119.192 155.933 119.352C156.029 119.501 156.146 119.624 156.285 119.72C156.434 119.816 156.605 119.885 156.797 119.928C156.989 119.971 157.192 119.992 157.405 119.992C157.853 119.992 158.237 119.933 158.557 119.816C158.877 119.688 159.138 119.533 159.341 119.352C159.544 119.16 159.693 118.957 159.789 118.744C159.885 118.52 159.933 118.312 159.933 118.12V116.728ZM164.399 116.936C164.399 116.531 164.441 116.136 164.527 115.752C164.612 115.368 164.751 115.027 164.943 114.728C165.135 114.429 165.391 114.189 165.711 114.008C166.031 113.827 166.42 113.736 166.879 113.736C167.348 113.736 167.748 113.827 168.079 114.008C168.409 114.179 168.676 114.408 168.879 114.696C169.092 114.984 169.247 115.32 169.343 115.704C169.439 116.077 169.487 116.467 169.487 116.872C169.487 117.256 169.439 117.635 169.343 118.008C169.257 118.381 169.113 118.717 168.911 119.016C168.708 119.304 168.447 119.539 168.127 119.72C167.807 119.901 167.417 119.992 166.959 119.992C166.521 119.992 166.137 119.907 165.807 119.736C165.487 119.565 165.22 119.336 165.007 119.048C164.804 118.76 164.649 118.435 164.543 118.072C164.447 117.699 164.399 117.32 164.399 116.936ZM170.799 121V109.576H169.439V113.832H169.407C169.257 113.587 169.071 113.384 168.847 113.224C168.633 113.053 168.404 112.92 168.159 112.824C167.913 112.717 167.668 112.643 167.423 112.6C167.177 112.557 166.948 112.536 166.735 112.536C166.105 112.536 165.551 112.653 165.071 112.888C164.601 113.112 164.207 113.421 163.887 113.816C163.577 114.2 163.343 114.653 163.183 115.176C163.033 115.699 162.959 116.253 162.959 116.84C162.959 117.427 163.039 117.981 163.199 118.504C163.359 119.027 163.593 119.485 163.903 119.88C164.223 120.275 164.617 120.589 165.087 120.824C165.567 121.059 166.127 121.176 166.767 121.176C167.343 121.176 167.871 121.075 168.351 120.872C168.831 120.669 169.183 120.339 169.407 119.88H169.439V121H170.799Z" fill="black"/>
<path d="M122.68 123H171.871V123.8H122.68V123Z" fill="black"/>
</g>
<path opacity="0.3" d="M140 36.0004H103.556C101.596 36.0004 101 36 100 36V64C100.797 64 101.596 64 103.556 64H136.444C138.404 64 139.422 64 140 64V39.4732C140 37.5588 140 36.9767 140 36.0004ZM101.778 37.7368C102.125 37.7368 102.573 37.7368 103.556 37.7368H138.222C138.222 37.9535 138.222 38.5139 138.222 39.4732V48.355L131.649 41.5916C131.64 41.583 131.636 41.5786 131.627 41.5743C131.618 41.5656 131.613 41.5613 131.609 41.5526C131.596 41.5395 131.578 41.5309 131.56 41.5178C131.538 41.5005 131.511 41.4788 131.489 41.4614C131.467 41.444 131.44 41.431 131.413 41.418C131.387 41.405 131.36 41.392 131.333 41.3789C131.307 41.3702 131.28 41.3616 131.253 41.3529C131.227 41.3442 131.2 41.3355 131.173 41.3312C131.147 41.3268 131.116 41.3225 131.089 41.3225C131.062 41.3182 131.036 41.3182 131.004 41.3182C130.973 41.3182 130.947 41.3225 130.92 41.3225C130.893 41.3268 130.867 41.3268 130.836 41.3312C130.809 41.3355 130.778 41.3442 130.751 41.3529C130.724 41.3616 130.698 41.3702 130.671 41.3789C130.644 41.392 130.618 41.405 130.591 41.418C130.564 41.431 130.542 41.444 130.516 41.4571C130.489 41.4744 130.467 41.4918 130.444 41.5092C130.427 41.5222 130.409 41.5309 130.396 41.5439C130.387 41.5526 130.382 41.5569 130.378 41.5656C130.373 41.5699 130.364 41.5786 130.356 41.583L119.422 53.0997L113.396 50.1521L113.387 50.1435C113.369 50.1304 113.347 50.1218 113.329 50.1131C113.298 50.0957 113.267 50.0783 113.236 50.0653C113.204 50.0523 113.173 50.0436 113.142 50.0349C113.12 50.0263 113.093 50.0176 113.071 50.0132C113.036 50.0045 113 50.0045 112.969 50.0002C112.947 50.0002 112.924 49.9959 112.902 49.9959C112.871 49.9959 112.836 50.0002 112.804 50.0045C112.778 50.0089 112.756 50.0089 112.733 50.0132C112.702 50.0176 112.676 50.0263 112.649 50.0349C112.622 50.0436 112.596 50.048 112.569 50.0566C112.542 50.0653 112.516 50.0827 112.489 50.0957C112.462 50.1087 112.44 50.1174 112.413 50.1348C112.387 50.1521 112.36 50.1738 112.333 50.1956C112.316 50.2086 112.293 50.2216 112.28 50.239L101.849 60.9917C101.809 60.8441 101.778 60.6878 101.778 60.5272V37.7368ZM136.444 62.2636H103.556C103.404 62.2636 103.262 62.2419 103.124 62.2072L112.991 51.9797L119.062 54.9576C119.067 54.9576 119.067 54.962 119.071 54.962C119.138 55.0054 119.209 55.0358 119.28 55.0575C119.298 55.0618 119.311 55.0662 119.329 55.0705C119.404 55.0879 119.48 55.1009 119.556 55.1009C119.622 55.1009 119.689 55.0922 119.751 55.0792C119.769 55.0749 119.787 55.0662 119.809 55.0618C119.853 55.0488 119.898 55.0314 119.938 55.0141C119.96 55.0054 119.982 54.9924 120 54.9794C120.036 54.9576 120.071 54.9359 120.107 54.9099C120.129 54.8925 120.147 54.8752 120.169 54.8578C120.178 54.8491 120.191 54.8404 120.204 54.8274L131 43.4583L138.222 50.8858V62.2636C138 62.2636 137.427 62.2636 136.444 62.2636ZM112.889 46.4189C114.604 46.4189 116 45.0558 116 43.3801C116 41.7045 114.604 40.3414 112.889 40.3414C111.173 40.3414 109.778 41.7045 109.778 43.3801C109.778 45.0558 111.173 46.4189 112.889 46.4189ZM112.889 42.0778C113.622 42.0778 114.222 42.6639 114.222 43.3801C114.222 44.0964 113.622 44.6825 112.889 44.6825C112.156 44.6825 111.556 44.0964 111.556 43.3801C111.556 42.6639 112.156 42.0778 112.889 42.0778Z" fill="#1F191B"/>
</svg>
