<svg width="240" height="160" viewBox="0 0 240 160" fill="none" xmlns="http://www.w3.org/2000/svg">
<rect opacity="0.3" x="0.5" y="0.5" width="239" height="159" stroke="black" stroke-dasharray="5 8"/>
<g opacity="0.4">
<path d="M75.0493 100.72V91.856H77.6093C78.3133 91.856 78.9053 91.9573 79.3853 92.16C79.8653 92.352 80.2546 92.64 80.5533 93.024C80.8626 93.3973 81.0813 93.856 81.2093 94.4C81.3479 94.9333 81.4173 95.5413 81.4173 96.224C81.4173 96.928 81.3426 97.5307 81.1933 98.032C81.0546 98.5227 80.8733 98.9333 80.6493 99.264C80.4253 99.5947 80.1693 99.856 79.8813 100.048C79.6039 100.24 79.3213 100.389 79.0333 100.496C78.7453 100.592 78.4733 100.656 78.2173 100.688C77.9613 100.709 77.7479 100.72 77.5773 100.72H75.0493ZM73.5293 90.576V102H77.4493C78.3986 102 79.2199 101.867 79.9133 101.6C80.6066 101.333 81.1773 100.949 81.6253 100.448C82.0733 99.936 82.4039 99.312 82.6173 98.576C82.8306 97.8293 82.9373 96.976 82.9373 96.016C82.9373 94.1813 82.4626 92.816 81.5133 91.92C80.5639 91.024 79.2093 90.576 77.4493 90.576H73.5293ZM84.5229 93.728V102H85.8829V98.32C85.8829 97.7867 85.9362 97.3173 86.0429 96.912C86.1495 96.496 86.3202 96.144 86.5549 95.856C86.7895 95.568 87.0989 95.3493 87.4829 95.2C87.8669 95.0507 88.3309 94.976 88.8749 94.976V93.536C88.1389 93.5147 87.5309 93.664 87.0509 93.984C86.5709 94.304 86.1655 94.8 85.8349 95.472H85.8029V93.728H84.5229ZM90.6098 97.872C90.6098 97.3707 90.6738 96.928 90.8018 96.544C90.9404 96.1493 91.1271 95.8187 91.3618 95.552C91.5964 95.2853 91.8684 95.0827 92.1778 94.944C92.4978 94.8053 92.8338 94.736 93.1858 94.736C93.5378 94.736 93.8684 94.8053 94.1778 94.944C94.4978 95.0827 94.7751 95.2853 95.0098 95.552C95.2444 95.8187 95.4258 96.1493 95.5538 96.544C95.6924 96.928 95.7618 97.3707 95.7618 97.872C95.7618 98.3733 95.6924 98.8213 95.5538 99.216C95.4258 99.6 95.2444 99.9253 95.0098 100.192C94.7751 100.448 94.4978 100.645 94.1778 100.784C93.8684 100.923 93.5378 100.992 93.1858 100.992C92.8338 100.992 92.4978 100.923 92.1778 100.784C91.8684 100.645 91.5964 100.448 91.3618 100.192C91.1271 99.9253 90.9404 99.6 90.8018 99.216C90.6738 98.8213 90.6098 98.3733 90.6098 97.872ZM89.1698 97.872C89.1698 98.48 89.2551 99.0453 89.4258 99.568C89.5964 100.091 89.8524 100.549 90.1938 100.944C90.5351 101.328 90.9564 101.632 91.4578 101.856C91.9591 102.069 92.5351 102.176 93.1858 102.176C93.8471 102.176 94.4231 102.069 94.9138 101.856C95.4151 101.632 95.8364 101.328 96.1778 100.944C96.5191 100.549 96.7751 100.091 96.9458 99.568C97.1164 99.0453 97.2018 98.48 97.2018 97.872C97.2018 97.264 97.1164 96.6987 96.9458 96.176C96.7751 95.6427 96.5191 95.184 96.1778 94.8C95.8364 94.4053 95.4151 94.096 94.9138 93.872C94.4231 93.648 93.8471 93.536 93.1858 93.536C92.5351 93.536 91.9591 93.648 91.4578 93.872C90.9564 94.096 90.5351 94.4053 90.1938 94.8C89.8524 95.184 89.5964 95.6427 89.4258 96.176C89.2551 96.6987 89.1698 97.264 89.1698 97.872ZM98.8533 93.728V105.152H100.213V100.896H100.245C100.395 101.141 100.576 101.349 100.789 101.52C101.013 101.68 101.248 101.808 101.493 101.904C101.739 102 101.984 102.069 102.229 102.112C102.485 102.155 102.715 102.176 102.917 102.176C103.547 102.176 104.096 102.064 104.565 101.84C105.045 101.616 105.44 101.312 105.749 100.928C106.069 100.533 106.304 100.075 106.453 99.552C106.613 99.0293 106.693 98.4747 106.693 97.888C106.693 97.3013 106.613 96.7467 106.453 96.224C106.293 95.7013 106.053 95.2427 105.733 94.848C105.424 94.4427 105.029 94.1227 104.549 93.888C104.08 93.6533 103.525 93.536 102.885 93.536C102.309 93.536 101.781 93.6427 101.301 93.856C100.821 94.0587 100.469 94.3893 100.245 94.848H100.213V93.728H98.8533ZM105.253 97.792C105.253 98.1973 105.211 98.592 105.125 98.976C105.04 99.36 104.901 99.7013 104.709 100C104.517 100.299 104.261 100.539 103.941 100.72C103.632 100.901 103.243 100.992 102.773 100.992C102.304 100.992 101.904 100.907 101.573 100.736C101.243 100.555 100.971 100.32 100.757 100.032C100.555 99.744 100.405 99.4133 100.309 99.04C100.213 98.656 100.165 98.2613 100.165 97.856C100.165 97.472 100.208 97.0933 100.293 96.72C100.389 96.3467 100.539 96.016 100.741 95.728C100.944 95.4293 101.205 95.1893 101.525 95.008C101.845 94.8267 102.235 94.736 102.693 94.736C103.131 94.736 103.509 94.8213 103.829 94.992C104.16 95.1627 104.427 95.392 104.629 95.68C104.843 95.968 104.997 96.2987 105.093 96.672C105.2 97.0347 105.253 97.408 105.253 97.792ZM117.559 102H118.919V93.728H117.559V102ZM117.559 92.24H118.919V90.576H117.559V92.24ZM113.303 94.928V102H114.663V94.928H116.263V93.728H114.663V92.576C114.663 92.2133 114.753 91.968 114.935 91.84C115.116 91.712 115.372 91.648 115.703 91.648C115.82 91.648 115.948 91.6587 116.087 91.68C116.225 91.6907 116.353 91.7173 116.471 91.76V90.576C116.343 90.5333 116.193 90.5013 116.023 90.48C115.863 90.4587 115.719 90.448 115.591 90.448C114.844 90.448 114.273 90.624 113.879 90.976C113.495 91.3173 113.303 91.824 113.303 92.496V93.728H111.911V94.928H113.303ZM121.104 90.576V102H122.464V90.576H121.104ZM130.315 97.072H125.563C125.584 96.752 125.654 96.4533 125.771 96.176C125.888 95.888 126.048 95.6373 126.251 95.424C126.454 95.2107 126.694 95.0453 126.971 94.928C127.259 94.8 127.579 94.736 127.931 94.736C128.272 94.736 128.582 94.8 128.859 94.928C129.147 95.0453 129.392 95.2107 129.595 95.424C129.808 95.6267 129.974 95.872 130.091 96.16C130.219 96.448 130.294 96.752 130.315 97.072ZM131.627 99.376H130.283C130.166 99.92 129.92 100.325 129.547 100.592C129.184 100.859 128.715 100.992 128.139 100.992C127.691 100.992 127.302 100.917 126.971 100.768C126.64 100.619 126.368 100.421 126.155 100.176C125.942 99.92 125.787 99.632 125.691 99.312C125.595 98.9813 125.552 98.6347 125.563 98.272H131.755C131.776 97.7707 131.728 97.2427 131.611 96.688C131.504 96.1333 131.302 95.6213 131.003 95.152C130.715 94.6827 130.326 94.2987 129.835 94C129.355 93.6907 128.747 93.536 128.011 93.536C127.446 93.536 126.923 93.6427 126.443 93.856C125.974 94.0693 125.563 94.368 125.211 94.752C124.87 95.136 124.603 95.5893 124.411 96.112C124.219 96.6347 124.123 97.2107 124.123 97.84C124.144 98.4693 124.235 99.0507 124.395 99.584C124.566 100.117 124.816 100.576 125.147 100.96C125.478 101.344 125.883 101.643 126.363 101.856C126.854 102.069 127.43 102.176 128.091 102.176C129.03 102.176 129.808 101.941 130.427 101.472C131.046 101.003 131.446 100.304 131.627 99.376ZM137.618 90.576V102H138.978V97.328C138.978 96.9547 139.026 96.6133 139.122 96.304C139.228 95.984 139.383 95.7067 139.586 95.472C139.788 95.2373 140.039 95.056 140.338 94.928C140.647 94.8 141.01 94.736 141.426 94.736C141.948 94.736 142.359 94.8853 142.658 95.184C142.956 95.4827 143.106 95.888 143.106 96.4V102H144.466V96.56C144.466 96.112 144.418 95.7067 144.322 95.344C144.236 94.9707 144.082 94.6507 143.858 94.384C143.634 94.1173 143.34 93.9093 142.978 93.76C142.615 93.6107 142.162 93.536 141.618 93.536C141.372 93.536 141.116 93.5627 140.85 93.616C140.594 93.6693 140.343 93.7547 140.098 93.872C139.863 93.9787 139.65 94.1227 139.458 94.304C139.266 94.4747 139.116 94.688 139.01 94.944H138.978V90.576H137.618ZM152.252 97.072H147.5C147.522 96.752 147.591 96.4533 147.708 96.176C147.826 95.888 147.986 95.6373 148.188 95.424C148.391 95.2107 148.631 95.0453 148.908 94.928C149.196 94.8 149.516 94.736 149.868 94.736C150.21 94.736 150.519 94.8 150.796 94.928C151.084 95.0453 151.33 95.2107 151.532 95.424C151.746 95.6267 151.911 95.872 152.028 96.16C152.156 96.448 152.231 96.752 152.252 97.072ZM153.564 99.376H152.22C152.103 99.92 151.858 100.325 151.484 100.592C151.122 100.859 150.652 100.992 150.076 100.992C149.628 100.992 149.239 100.917 148.908 100.768C148.578 100.619 148.306 100.421 148.092 100.176C147.879 99.92 147.724 99.632 147.628 99.312C147.532 98.9813 147.49 98.6347 147.5 98.272H153.692C153.714 97.7707 153.666 97.2427 153.548 96.688C153.442 96.1333 153.239 95.6213 152.94 95.152C152.652 94.6827 152.263 94.2987 151.772 94C151.292 93.6907 150.684 93.536 149.948 93.536C149.383 93.536 148.86 93.6427 148.38 93.856C147.911 94.0693 147.5 94.368 147.148 94.752C146.807 95.136 146.54 95.5893 146.348 96.112C146.156 96.6347 146.06 97.2107 146.06 97.84C146.082 98.4693 146.172 99.0507 146.332 99.584C146.503 100.117 146.754 100.576 147.084 100.96C147.415 101.344 147.82 101.643 148.3 101.856C148.791 102.069 149.367 102.176 150.028 102.176C150.967 102.176 151.746 101.941 152.364 101.472C152.983 101.003 153.383 100.304 153.564 99.376ZM155.054 93.728V102H156.414V98.32C156.414 97.7867 156.467 97.3173 156.574 96.912C156.681 96.496 156.851 96.144 157.086 95.856C157.321 95.568 157.63 95.3493 158.014 95.2C158.398 95.0507 158.862 94.976 159.406 94.976V93.536C158.67 93.5147 158.062 93.664 157.582 93.984C157.102 94.304 156.697 94.8 156.366 95.472H156.334V93.728H155.054ZM165.893 97.072H161.141C161.162 96.752 161.232 96.4533 161.349 96.176C161.466 95.888 161.626 95.6373 161.829 95.424C162.032 95.2107 162.272 95.0453 162.549 94.928C162.837 94.8 163.157 94.736 163.509 94.736C163.85 94.736 164.16 94.8 164.437 94.928C164.725 95.0453 164.97 95.2107 165.173 95.424C165.386 95.6267 165.552 95.872 165.669 96.16C165.797 96.448 165.872 96.752 165.893 97.072ZM167.205 99.376H165.861C165.744 99.92 165.498 100.325 165.125 100.592C164.762 100.859 164.293 100.992 163.717 100.992C163.269 100.992 162.88 100.917 162.549 100.768C162.218 100.619 161.946 100.421 161.733 100.176C161.52 99.92 161.365 99.632 161.269 99.312C161.173 98.9813 161.13 98.6347 161.141 98.272H167.333C167.354 97.7707 167.306 97.2427 167.189 96.688C167.082 96.1333 166.88 95.6213 166.581 95.152C166.293 94.6827 165.904 94.2987 165.413 94C164.933 93.6907 164.325 93.536 163.589 93.536C163.024 93.536 162.501 93.6427 162.021 93.856C161.552 94.0693 161.141 94.368 160.789 94.752C160.448 95.136 160.181 95.5893 159.989 96.112C159.797 96.6347 159.701 97.2107 159.701 97.84C159.722 98.4693 159.813 99.0507 159.973 99.584C160.144 100.117 160.394 100.576 160.725 100.96C161.056 101.344 161.461 101.643 161.941 101.856C162.432 102.069 163.008 102.176 163.669 102.176C164.608 102.176 165.386 101.941 166.005 101.472C166.624 101.003 167.024 100.304 167.205 99.376ZM87.9379 116.872C87.9379 116.371 88.0019 115.928 88.1299 115.544C88.2685 115.149 88.4552 114.819 88.6899 114.552C88.9245 114.285 89.1965 114.083 89.5059 113.944C89.8259 113.805 90.1619 113.736 90.5139 113.736C90.8659 113.736 91.1965 113.805 91.5059 113.944C91.8259 114.083 92.1032 114.285 92.3379 114.552C92.5725 114.819 92.7539 115.149 92.8819 115.544C93.0205 115.928 93.0899 116.371 93.0899 116.872C93.0899 117.373 93.0205 117.821 92.8819 118.216C92.7539 118.6 92.5725 118.925 92.3379 119.192C92.1032 119.448 91.8259 119.645 91.5059 119.784C91.1965 119.923 90.8659 119.992 90.5139 119.992C90.1619 119.992 89.8259 119.923 89.5059 119.784C89.1965 119.645 88.9245 119.448 88.6899 119.192C88.4552 118.925 88.2685 118.6 88.1299 118.216C88.0019 117.821 87.9379 117.373 87.9379 116.872ZM86.4979 116.872C86.4979 117.48 86.5832 118.045 86.7539 118.568C86.9245 119.091 87.1805 119.549 87.5219 119.944C87.8632 120.328 88.2845 120.632 88.7859 120.856C89.2872 121.069 89.8632 121.176 90.5139 121.176C91.1752 121.176 91.7512 121.069 92.2419 120.856C92.7432 120.632 93.1645 120.328 93.5059 119.944C93.8472 119.549 94.1032 119.091 94.2739 118.568C94.4445 118.045 94.5299 117.48 94.5299 116.872C94.5299 116.264 94.4445 115.699 94.2739 115.176C94.1032 114.643 93.8472 114.184 93.5059 113.8C93.1645 113.405 92.7432 113.096 92.2419 112.872C91.7512 112.648 91.1752 112.536 90.5139 112.536C89.8632 112.536 89.2872 112.648 88.7859 112.872C88.2845 113.096 87.8632 113.405 87.5219 113.8C87.1805 114.184 86.9245 114.643 86.7539 115.176C86.5832 115.699 86.4979 116.264 86.4979 116.872ZM96.0854 112.728V121H97.4454V117.32C97.4454 116.787 97.4987 116.317 97.6054 115.912C97.712 115.496 97.8827 115.144 98.1174 114.856C98.352 114.568 98.6614 114.349 99.0454 114.2C99.4294 114.051 99.8934 113.976 100.437 113.976V112.536C99.7014 112.515 99.0934 112.664 98.6134 112.984C98.1334 113.304 97.728 113.8 97.3974 114.472H97.3654V112.728H96.0854ZM112.763 121V112.728H111.403V117.4C111.403 117.773 111.349 118.12 111.243 118.44C111.147 118.749 110.997 119.021 110.795 119.256C110.592 119.491 110.336 119.672 110.027 119.8C109.728 119.928 109.371 119.992 108.955 119.992C108.432 119.992 108.021 119.843 107.723 119.544C107.424 119.245 107.275 118.84 107.275 118.328V112.728H105.915V118.168C105.915 118.616 105.957 119.027 106.043 119.4C106.139 119.763 106.299 120.077 106.523 120.344C106.747 120.611 107.04 120.819 107.403 120.968C107.765 121.107 108.219 121.176 108.763 121.176C109.371 121.176 109.899 121.059 110.347 120.824C110.795 120.579 111.163 120.2 111.451 119.688H111.483V121H112.763ZM114.853 112.728V124.152H116.213V119.896H116.245C116.395 120.141 116.576 120.349 116.789 120.52C117.013 120.68 117.248 120.808 117.493 120.904C117.739 121 117.984 121.069 118.229 121.112C118.485 121.155 118.715 121.176 118.917 121.176C119.547 121.176 120.096 121.064 120.565 120.84C121.045 120.616 121.44 120.312 121.749 119.928C122.069 119.533 122.304 119.075 122.453 118.552C122.613 118.029 122.693 117.475 122.693 116.888C122.693 116.301 122.613 115.747 122.453 115.224C122.293 114.701 122.053 114.243 121.733 113.848C121.424 113.443 121.029 113.123 120.549 112.888C120.08 112.653 119.525 112.536 118.885 112.536C118.309 112.536 117.781 112.643 117.301 112.856C116.821 113.059 116.469 113.389 116.245 113.848H116.213V112.728H114.853ZM121.253 116.792C121.253 117.197 121.211 117.592 121.125 117.976C121.04 118.36 120.901 118.701 120.709 119C120.517 119.299 120.261 119.539 119.941 119.72C119.632 119.901 119.243 119.992 118.773 119.992C118.304 119.992 117.904 119.907 117.573 119.736C117.243 119.555 116.971 119.32 116.757 119.032C116.555 118.744 116.405 118.413 116.309 118.04C116.213 117.656 116.165 117.261 116.165 116.856C116.165 116.472 116.208 116.093 116.293 115.72C116.389 115.347 116.539 115.016 116.741 114.728C116.944 114.429 117.205 114.189 117.525 114.008C117.845 113.827 118.235 113.736 118.693 113.736C119.131 113.736 119.509 113.821 119.829 113.992C120.16 114.163 120.427 114.392 120.629 114.68C120.843 114.968 120.997 115.299 121.093 115.672C121.2 116.035 121.253 116.408 121.253 116.792ZM124.37 109.576V121H125.73V109.576H124.37ZM128.829 116.872C128.829 116.371 128.893 115.928 129.021 115.544C129.159 115.149 129.346 114.819 129.581 114.552C129.815 114.285 130.087 114.083 130.397 113.944C130.717 113.805 131.053 113.736 131.405 113.736C131.757 113.736 132.087 113.805 132.397 113.944C132.717 114.083 132.994 114.285 133.229 114.552C133.463 114.819 133.645 115.149 133.773 115.544C133.911 115.928 133.981 116.371 133.981 116.872C133.981 117.373 133.911 117.821 133.773 118.216C133.645 118.6 133.463 118.925 133.229 119.192C132.994 119.448 132.717 119.645 132.397 119.784C132.087 119.923 131.757 119.992 131.405 119.992C131.053 119.992 130.717 119.923 130.397 119.784C130.087 119.645 129.815 119.448 129.581 119.192C129.346 118.925 129.159 118.6 129.021 118.216C128.893 117.821 128.829 117.373 128.829 116.872ZM127.389 116.872C127.389 117.48 127.474 118.045 127.645 118.568C127.815 119.091 128.071 119.549 128.413 119.944C128.754 120.328 129.175 120.632 129.677 120.856C130.178 121.069 130.754 121.176 131.405 121.176C132.066 121.176 132.642 121.069 133.133 120.856C133.634 120.632 134.055 120.328 134.397 119.944C134.738 119.549 134.994 119.091 135.165 118.568C135.335 118.045 135.421 117.48 135.421 116.872C135.421 116.264 135.335 115.699 135.165 115.176C134.994 114.643 134.738 114.184 134.397 113.8C134.055 113.405 133.634 113.096 133.133 112.872C132.642 112.648 132.066 112.536 131.405 112.536C130.754 112.536 130.178 112.648 129.677 112.872C129.175 113.096 128.754 113.405 128.413 113.8C128.071 114.184 127.815 114.643 127.645 115.176C127.474 115.699 127.389 116.264 127.389 116.872ZM144.352 120.968C144.117 121.107 143.792 121.176 143.376 121.176C143.024 121.176 142.741 121.08 142.528 120.888C142.325 120.685 142.224 120.36 142.224 119.912C141.851 120.36 141.413 120.685 140.912 120.888C140.421 121.08 139.888 121.176 139.312 121.176C138.939 121.176 138.581 121.133 138.24 121.048C137.909 120.963 137.621 120.829 137.376 120.648C137.131 120.467 136.933 120.232 136.784 119.944C136.645 119.645 136.576 119.288 136.576 118.872C136.576 118.403 136.656 118.019 136.816 117.72C136.976 117.421 137.184 117.181 137.44 117C137.707 116.808 138.005 116.664 138.336 116.568C138.677 116.472 139.024 116.392 139.376 116.328C139.749 116.253 140.101 116.2 140.432 116.168C140.773 116.125 141.072 116.072 141.328 116.008C141.584 115.933 141.787 115.832 141.936 115.704C142.085 115.565 142.16 115.368 142.16 115.112C142.16 114.813 142.101 114.573 141.984 114.392C141.877 114.211 141.733 114.072 141.552 113.976C141.381 113.88 141.184 113.816 140.96 113.784C140.747 113.752 140.533 113.736 140.32 113.736C139.744 113.736 139.264 113.848 138.88 114.072C138.496 114.285 138.288 114.696 138.256 115.304H136.896C136.917 114.792 137.024 114.36 137.216 114.008C137.408 113.656 137.664 113.373 137.984 113.16C138.304 112.936 138.667 112.776 139.072 112.68C139.488 112.584 139.931 112.536 140.4 112.536C140.773 112.536 141.141 112.563 141.504 112.616C141.877 112.669 142.213 112.781 142.512 112.952C142.811 113.112 143.051 113.341 143.232 113.64C143.413 113.939 143.504 114.328 143.504 114.808V119.064C143.504 119.384 143.52 119.619 143.552 119.768C143.595 119.917 143.723 119.992 143.936 119.992C144.053 119.992 144.192 119.965 144.352 119.912V120.968ZM142.144 116.728C141.973 116.856 141.749 116.952 141.472 117.016C141.195 117.069 140.901 117.117 140.592 117.16C140.293 117.192 139.989 117.235 139.68 117.288C139.371 117.331 139.093 117.405 138.848 117.512C138.603 117.619 138.4 117.773 138.24 117.976C138.091 118.168 138.016 118.435 138.016 118.776C138.016 119 138.059 119.192 138.144 119.352C138.24 119.501 138.357 119.624 138.496 119.72C138.645 119.816 138.816 119.885 139.008 119.928C139.2 119.971 139.403 119.992 139.616 119.992C140.064 119.992 140.448 119.933 140.768 119.816C141.088 119.688 141.349 119.533 141.552 119.352C141.755 119.16 141.904 118.957 142 118.744C142.096 118.52 142.144 118.312 142.144 118.12V116.728ZM146.61 116.936C146.61 116.531 146.652 116.136 146.738 115.752C146.823 115.368 146.962 115.027 147.154 114.728C147.346 114.429 147.602 114.189 147.922 114.008C148.242 113.827 148.631 113.736 149.09 113.736C149.559 113.736 149.959 113.827 150.29 114.008C150.62 114.179 150.887 114.408 151.09 114.696C151.303 114.984 151.458 115.32 151.554 115.704C151.65 116.077 151.698 116.467 151.698 116.872C151.698 117.256 151.65 117.635 151.554 118.008C151.468 118.381 151.324 118.717 151.122 119.016C150.919 119.304 150.658 119.539 150.338 119.72C150.018 119.901 149.628 119.992 149.17 119.992C148.732 119.992 148.348 119.907 148.018 119.736C147.698 119.565 147.431 119.336 147.218 119.048C147.015 118.76 146.86 118.435 146.754 118.072C146.658 117.699 146.61 117.32 146.61 116.936ZM153.01 121V109.576H151.65V113.832H151.618C151.468 113.587 151.282 113.384 151.058 113.224C150.844 113.053 150.615 112.92 150.37 112.824C150.124 112.717 149.879 112.643 149.634 112.6C149.388 112.557 149.159 112.536 148.946 112.536C148.316 112.536 147.762 112.653 147.282 112.888C146.812 113.112 146.418 113.421 146.098 113.816C145.788 114.2 145.554 114.653 145.394 115.176C145.244 115.699 145.17 116.253 145.17 116.84C145.17 117.427 145.25 117.981 145.41 118.504C145.57 119.027 145.804 119.485 146.114 119.88C146.434 120.275 146.828 120.589 147.298 120.824C147.778 121.059 148.338 121.176 148.978 121.176C149.554 121.176 150.082 121.075 150.562 120.872C151.042 120.669 151.394 120.339 151.618 119.88H151.65V121H153.01Z" fill="black"/>
<path d="M104.891 123H154.082V123.8H104.891V123Z" fill="black"/>
</g>
<g opacity="0.3">
<path fill-rule="evenodd" clip-rule="evenodd" d="M121.5 32.9L122.945 32.1841L133.445 40.1841L132.9 41.8H121.5V32.9ZM123.3 34.7171V40H130.234L123.3 34.7171Z" fill="black"/>
<path fill-rule="evenodd" clip-rule="evenodd" d="M106 32H122.923L133.8 40.4598V69.8H106V32ZM107.8 33.8V68H132V41.3402L122.305 33.8H107.8Z" fill="black"/>
<path fill-rule="evenodd" clip-rule="evenodd" d="M117 46.2183L125.522 51.8999L117 57.5816V46.2183ZM118.8 49.5816V54.2183L122.278 51.8999L118.8 49.5816Z" fill="black"/>
</g>
</svg>
