<svg width="24" height="24" viewBox="0 0 24 24" fill="none" xmlns="http://www.w3.org/2000/svg">
    <circle cx="12" cy="12" r="12" fill="#F3BA2F"/>
    <path d="M8.79557 10.6834L12 7.479L15.2059 10.6848L17.0704 8.82032L12 3.75L6.9312 8.8188L8.79563 10.6833L8.79557 10.6834ZM3.75 12L5.61457 10.1352L7.479 11.9996L5.61443 13.8642L3.75 12ZM8.79557 13.3168L12 16.521L15.2059 13.3152L17.0714 15.1788L17.0704 15.1797L12 20.25L6.9312 15.1812L6.92856 15.1786L8.79577 13.3166L8.79557 13.3168ZM16.521 12.0008L18.3856 10.1362L20.25 12.0007L18.3855 13.8652L16.521 12.0008Z" fill="white"/>
    <path d="M13.8914 11.9994H13.8922L12.0004 10.1074L10.602 11.5054L10.4414 11.6661L10.1101 11.9974L10.1074 12L10.1101 12.0027L12.0004 13.8933L13.8923 12.0013L13.8932 12.0003L13.8915 11.9994" fill="white"/>
</svg>