<?xml version="1.0" encoding="utf-8"?>
<!-- Generator: Adobe Illustrator 21.0.0, SVG Export Plug-In . SVG Version: 6.00 Build 0)  -->
<svg version="1.1" id="图层_1" xmlns="http://www.w3.org/2000/svg" xmlns:xlink="http://www.w3.org/1999/xlink" x="0px" y="0px"
	 viewBox="0 0 512 512" style="enable-background:new 0 0 512 512;" xml:space="preserve">
<style type="text/css">
	.st0{fill:#06E594;}
</style>
<title>logo3</title>
<path class="st0" d="M361,256c-57.7,0-104.6-46.6-105-104.3c-0.4,57.5-46.9,104-104.5,104.3c57.8,0.3,104.4,47.2,104.5,105
	C256,303,303,256,361,256z M256,368.5c0,62.1-50.4,112.5-112.5,112.5S31,430.6,31,368.5c0-61.9,50-112.2,111.9-112.5
	C80.8,255.7,30.7,205,31,142.9S82,30.7,144.1,31c61.6,0.3,111.5,50.2,111.9,111.8C256.4,80.7,307.1,30.6,369.2,31
	S481.4,82.1,481,144.2C480.6,206,430.4,256,368.5,256c62.1,0,112.5,50.4,112.5,112.5S430.6,481,368.5,481
	C306.3,481,256,430.6,256,368.5z"/>
</svg>
