<svg width="493" height="493" viewBox="0 0 493 493" fill="none" xmlns="http://www.w3.org/2000/svg">
<path fill-rule="evenodd" clip-rule="evenodd" d="M140.717 0H265.758C326.994 8.66602 376.14 28.386 413.196 59.16C450.251 89.934 476.852 133.123 493 188.727V352.283C493 401.212 487.906 418.954 478.34 436.844C468.983 454.525 454.525 468.983 436.844 478.34C418.954 487.906 401.217 493 352.283 493H140.717C91.7875 493 74.0463 487.906 56.1558 478.34C38.4749 468.983 24.0168 454.525 14.66 436.844C5.09369 418.954 0 401.212 0 352.283V140.717C0 91.7875 5.09369 74.0463 14.66 56.1558C24.0168 38.4749 38.4749 24.0168 56.1558 14.66C74.0463 5.09369 91.7875 0 140.717 0Z" fill="#2D65F8"/>
<path fill-rule="evenodd" clip-rule="evenodd" d="M478.34 56.1558C468.983 38.4749 454.525 24.0168 436.844 14.66C418.959 5.09369 401.212 0 352.283 0H265.758C326.994 8.66602 376.14 28.386 413.196 59.16C450.251 89.934 476.852 133.123 493 188.727V140.717C493 91.7875 487.906 74.0463 478.34 56.1558Z" fill="#173FFF"/>
<path d="M284.92 184.254C284.92 137.347 261.811 97.0496 244.247 83.9158C244.247 83.9158 242.909 83.1792 243 85.0231C241.556 175.535 194.764 200.089 169.026 233.13C109.679 309.415 164.886 393.081 221.09 408.463C252.552 417.129 213.839 393.081 208.861 342.572C202.79 281.515 284.92 234.854 284.92 184.254Z" fill="#FCFCFF"/>
<path d="M309.877 214.575C309.502 214.33 309.006 214.142 308.659 214.729C307.663 226.159 295.872 250.559 280.894 272.984C230.165 349.048 259.056 385.686 275.343 405.464C284.703 416.893 275.343 405.464 298.934 393.788C328.071 376.331 346.982 346.149 349.784 312.607C351.325 294.278 348.513 275.845 341.578 258.809C334.643 241.773 323.781 226.617 309.877 214.575Z" fill="white"/>
</svg>
