<svg width="57" height="56" viewBox="0 0 57 56" fill="none" xmlns="http://www.w3.org/2000/svg">
<circle cx="28.5" cy="28" r="28" fill="white"/>
<circle cx="28.5" cy="28" r="27.5" stroke="black" strokeOpacity="0.1"/>
<path d="M12.5 19.6713C12.5305 19.5479 12.5401 19.4198 12.577 19.298C12.7231 18.8094 13.0168 18.4457 13.4646 18.1926C14.1307 17.8145 14.7887 17.422 15.45 17.0359C17.071 16.0891 18.6905 15.1407 20.3116 14.1971C20.5298 14.0705 20.7162 14 21.0258 14C21.1486 14 21.5811 14.0016 21.7962 14.0016C21.9454 13.9968 22.0803 14.032 22.2119 14.0961C22.4895 14.2339 22.7512 14.4005 23.0176 14.5575C24.8666 15.6405 26.7155 16.7251 28.5645 17.8113C28.7972 17.9475 29.0396 18.0692 29.2498 18.239C29.7506 18.6412 30.0331 19.1618 30.0427 19.8058C30.0555 20.7446 30.0459 21.6835 30.0475 22.6239C30.0475 22.6687 30.0298 22.6895 29.9945 22.7104C28.9802 23.2951 27.9658 23.8831 26.9498 24.4678C26.9274 24.4806 26.9033 24.4919 26.8712 24.5079C26.8712 24.4694 26.8712 24.4406 26.8712 24.4134C26.8712 23.5514 26.8744 22.6895 26.8712 21.8276C26.868 21.0314 26.5358 20.4146 25.8488 19.9997C24.6675 19.2852 23.4879 18.5707 22.3034 17.861C22.0706 17.7216 21.8074 17.6495 21.5394 17.6126C21.1349 17.5582 20.7433 17.6046 20.3774 17.7889C20.1446 17.9058 19.9215 18.0452 19.6952 18.1766C18.7049 18.7517 17.7098 19.3188 16.726 19.9036C16.0487 20.3057 15.6827 20.9065 15.6795 21.7027C15.6747 23.074 15.6731 24.4454 15.6795 25.8168C15.6827 26.6018 16.0278 27.2041 16.7019 27.6127C17.8752 28.3224 19.0484 29.0369 20.2265 29.737C20.6165 29.9693 21.0515 30.0478 21.5073 30.0061C21.8299 29.9773 22.122 29.8619 22.3981 29.6953C23.8763 28.8062 25.3529 27.9154 26.8375 27.0391C27.449 26.6787 28.0766 26.3438 28.7009 26.0074C30.2369 25.1775 31.7279 24.2676 33.235 23.388C33.7246 23.1029 34.1996 22.7953 34.7004 22.5325C35.3793 22.1769 36.0807 22.14 36.7596 22.5325C38.9039 23.7677 41.0418 25.0125 43.1845 26.2509C43.4413 26.3999 43.6997 26.5441 43.9083 26.7604C44.2791 27.1465 44.4797 27.6046 44.4973 28.1381C44.5022 28.2791 44.499 28.4217 44.499 28.5627C44.499 31.0683 44.5022 33.5739 44.4973 36.0779C44.4957 36.7988 44.1956 37.3804 43.5969 37.7873C43.3129 37.9795 43.0047 38.1398 42.7078 38.3112C41.3226 39.1138 39.9359 39.9164 38.5508 40.7191C37.9602 41.0619 37.3679 41.4031 36.7773 41.746C36.2162 42.0732 35.265 42.0892 34.7116 41.7652C32.4743 40.4675 30.2337 39.1763 27.9995 37.8722C27.319 37.4749 26.9611 36.8661 26.9563 36.0715C26.9498 35.1936 26.9563 34.3157 26.9531 33.4377C26.9531 33.3688 26.9771 33.3352 27.0349 33.3032C27.9161 32.7953 28.7972 32.2858 29.6767 31.7764C29.8244 31.6915 29.9721 31.6066 30.131 31.5153C30.131 31.5569 30.131 31.5841 30.131 31.613C30.131 32.4749 30.131 33.3368 30.131 34.1987C30.131 34.29 30.1374 34.3813 30.1518 34.4694C30.261 35.1231 30.5964 35.6245 31.1758 35.9594C32.2159 36.5617 33.2543 37.1641 34.2927 37.7681C34.6298 37.9651 34.9636 38.1638 35.3569 38.2311C35.8512 38.3176 36.3215 38.2599 36.7564 38.002C37.904 37.3243 39.0484 36.6434 40.1927 35.9626C40.4977 35.7815 40.7513 35.5428 40.9391 35.24C41.1493 34.902 41.244 34.5335 41.244 34.1378C41.244 32.7985 41.244 31.4592 41.244 30.1199C41.244 30.0398 41.2424 29.9597 41.2344 29.8796C41.1718 29.1618 40.8363 28.6123 40.212 28.2471C39.2345 27.6751 38.2555 27.108 37.2748 26.5425C37.01 26.3887 36.7564 26.2109 36.4691 26.0987C35.8416 25.8536 35.2188 25.8456 34.625 26.1884C32.9574 27.1497 31.2946 28.1189 29.6302 29.0849C27.205 30.4915 24.7831 31.9014 22.3547 33.2999C21.7368 33.6556 21.0803 33.7085 20.4159 33.4201C20.1912 33.3224 19.9857 33.183 19.7739 33.0596C17.7147 31.8677 15.657 30.6758 13.5994 29.4839C13.089 29.1891 12.7327 28.7725 12.5738 28.199C12.5417 28.0853 12.5257 27.9651 12.5032 27.8498C12.5 25.1247 12.5 22.398 12.5 19.6713Z" fill="#794EDD"/>
</svg>
