<svg width="262" height="262" viewBox="0 0 262 262" fill="none" xmlns="http://www.w3.org/2000/svg">
<rect width="262" height="262" fill="black"/>
<path d="M203 131C203 170.765 170.765 203 131 203C91.2355 203 59 170.765 59 131C59 91.2355 91.2355 59 131 59C170.765 59 203 91.2355 203 131Z" fill="white"/>
<path fill-rule="evenodd" clip-rule="evenodd" d="M131 200C169.108 200 200 169.108 200 131C200 92.8924 169.108 62 131 62C92.8924 62 62 92.8924 62 131C62 169.108 92.8924 200 131 200ZM131 203C170.765 203 203 170.765 203 131C203 91.2355 170.765 59 131 59C91.2355 59 59 91.2355 59 131C59 170.765 91.2355 203 131 203Z" fill="#E6E6E6"/>
<path d="M89 115C89 111.686 91.6863 109 95 109H104.167V153H95C91.6863 153 89 150.314 89 147V115Z" fill="#E6E6E6"/>
<path fill-rule="evenodd" clip-rule="evenodd" d="M101.567 111.6H95C93.1222 111.6 91.6 113.122 91.6 115V147C91.6 148.878 93.1222 150.4 95 150.4H101.567V111.6ZM95 109C91.6863 109 89 111.686 89 115V147C89 150.314 91.6863 153 95 153H104.167V109H95Z" fill="black"/>
<path d="M142 160.492C142 164.903 137.399 167.806 133.417 165.907L106 152.833L106 109.167L133.417 96.0927C137.399 94.1939 142 97.097 142 101.508L142 160.492Z" fill="#E6E6E6"/>
<path fill-rule="evenodd" clip-rule="evenodd" d="M108.6 151.193L134.537 163.561C136.793 164.637 139.4 162.991 139.4 160.492L139.4 101.508C139.4 99.0086 136.793 97.3635 134.537 98.4395L108.6 110.807L108.6 151.193ZM106 152.833L133.417 165.907C137.399 167.806 142 164.903 142 160.492L142 101.508C142 97.097 137.399 94.1939 133.417 96.0927L106 109.167L106 152.833Z" fill="black"/>
<path fill-rule="evenodd" clip-rule="evenodd" d="M130 120.7C130.718 120.7 131.3 121.282 131.3 122V163C131.3 163.718 130.718 164.3 130 164.3C129.282 164.3 128.7 163.718 128.7 163V122C128.7 121.282 129.282 120.7 130 120.7Z" fill="black"/>
<path fill-rule="evenodd" clip-rule="evenodd" d="M130 97.7002C130.718 97.7002 131.3 98.2822 131.3 99.0002V112C131.3 112.718 130.718 113.3 130 113.3C129.282 113.3 128.7 112.718 128.7 112V99.0002C128.7 98.2822 129.282 97.7002 130 97.7002Z" fill="black"/>
<path fill-rule="evenodd" clip-rule="evenodd" d="M150.861 107.024C151.4 106.395 152.347 106.322 152.976 106.861C154.169 107.884 155.687 109.511 157.196 111.63C157.676 112.305 157.518 113.242 156.843 113.722C156.169 114.202 155.232 114.045 154.752 113.37C153.362 111.418 152.005 109.98 151.024 109.139C150.395 108.6 150.322 107.653 150.861 107.024ZM159.469 118.601C160.242 118.302 161.11 118.687 161.409 119.46C162.722 122.865 163.623 126.805 163.623 131.138C163.623 143.249 156.596 152.779 153.021 156.099C152.414 156.663 151.465 156.628 150.901 156.021C150.337 155.414 150.372 154.465 150.979 153.901C154.153 150.954 160.623 142.167 160.623 131.138C160.623 127.224 159.809 123.651 158.61 120.54C158.311 119.767 158.696 118.899 159.469 118.601Z" fill="black"/>
<path fill-rule="evenodd" clip-rule="evenodd" d="M156.861 98.0238C157.4 97.3949 158.347 97.322 158.976 97.8611C163.875 102.06 173.5 114.445 173.5 131C173.5 147.541 163.888 160.579 159.021 165.099C158.414 165.663 157.465 165.628 156.901 165.021C156.337 164.414 156.372 163.465 156.979 162.901C161.445 158.754 170.5 146.459 170.5 131C170.5 115.555 161.458 103.94 157.024 100.139C156.395 99.5998 156.322 98.6528 156.861 98.0238Z" fill="black"/>
<path d="M101 109H109V153H101V109Z" fill="#101010"/>
</svg>
