<svg width="90" height="90" viewBox="0 0 90 90" fill="none" xmlns="http://www.w3.org/2000/svg">
<circle cx="45" cy="45" r="45" fill="white"/>
<path fill-rule="evenodd" clip-rule="evenodd" d="M61.3599 41.1981C59.9723 39.8105 59.9723 37.5608 61.3599 36.1733C62.7475 34.7857 64.9972 34.7857 66.3847 36.1733C67.7723 37.5608 67.7723 39.8105 66.3847 41.1981C64.9972 42.5857 62.7475 42.5857 61.3599 41.1981ZM49.4259 53.1321C48.3852 52.0914 48.3852 50.4041 49.4259 49.3635C50.4666 48.3228 52.1539 48.3228 53.1945 49.3635C54.2352 50.4041 54.2352 52.0914 53.1945 53.1321C52.1539 54.1728 50.4666 54.1728 49.4259 53.1321ZM68.269 46.851C67.2284 45.8104 67.2284 44.1231 68.269 43.0824C69.3097 42.0417 70.997 42.0417 72.0377 43.0824C73.0783 44.1231 73.0783 45.8104 72.0377 46.851C70.997 47.8917 69.3097 47.8917 68.269 46.851ZM61.988 53.1321C60.9473 52.0914 60.9473 50.4041 61.988 49.3635C63.0287 48.3228 64.7159 48.3228 65.7566 49.3635C66.7973 50.4041 66.7973 52.0914 65.7566 53.1321C64.7159 54.1728 63.0287 54.1728 61.988 53.1321ZM75.1782 52.504C74.4844 51.8102 74.4844 50.6854 75.1782 49.9916C75.872 49.2978 76.9968 49.2978 77.6906 49.9916C78.3844 50.6854 78.3844 51.8102 77.6906 52.504C76.9968 53.1978 75.872 53.1978 75.1782 52.504ZM68.8971 58.785C68.2034 58.0912 68.2034 56.9664 68.8971 56.2726C69.5909 55.5788 70.7158 55.5788 71.4096 56.2726C72.1033 56.9664 72.1033 58.0912 71.4096 58.785C70.7158 59.4788 69.5909 59.4788 68.8971 58.785ZM55.0789 47.4792C53.6913 46.0916 53.6913 43.8419 55.0789 42.4543C56.4664 41.0667 58.7161 41.0667 60.1037 42.4543C61.4913 43.8419 61.4913 46.0916 60.1037 47.4792C58.7161 48.8667 56.4664 48.8667 55.0789 47.4792ZM55.0789 34.9171C53.6913 33.5295 53.6913 31.2798 55.0789 29.8922C56.4664 28.5047 58.7161 28.5047 60.1037 29.8922C61.4913 31.2798 61.4913 33.5295 60.1037 34.9171C58.7161 36.3046 56.4664 36.3046 55.0789 34.9171ZM48.7978 41.1981C47.4102 39.8105 47.4102 37.5608 48.7978 36.1733C50.1854 34.7857 52.4351 34.7857 53.8227 36.1733C55.2102 37.5608 55.2102 39.8105 53.8227 41.1981C52.4351 42.5857 50.1854 42.5857 48.7978 41.1981ZM36.1774 41.1981C34.7898 39.8105 34.7898 37.5608 36.1774 36.1733C37.5649 34.7857 39.8146 34.7857 41.2022 36.1733C42.5898 37.5608 42.5898 39.8105 41.2022 41.1981C39.8146 42.5857 37.5649 42.5857 36.1774 41.1981ZM24.2434 53.1321C23.2027 52.0914 23.2027 50.4041 24.2434 49.3635C25.2841 48.3228 26.9713 48.3228 28.012 49.3635C29.0527 50.4041 29.0527 52.0914 28.012 53.1321C26.9713 54.1728 25.2841 54.1728 24.2434 53.1321ZM43.0865 46.851C42.0458 45.8104 42.0458 44.1231 43.0865 43.0824C44.1272 42.0417 45.8144 42.0417 46.8551 43.0824C47.8958 44.1231 47.8958 45.8104 46.8551 46.851C45.8144 47.8917 44.1272 47.8917 43.0865 46.851ZM36.8055 53.1321C35.7648 52.0914 35.7648 50.4041 36.8055 49.3635C37.8461 48.3228 39.5334 48.3228 40.5741 49.3635C41.6148 50.4041 41.6148 52.0914 40.5741 53.1321C39.5334 54.1728 37.8461 54.1728 36.8055 53.1321ZM12.3094 52.504C11.6156 51.8102 11.6156 50.6854 12.3094 49.9916C13.0032 49.2978 14.128 49.2978 14.8218 49.9916C15.5156 50.6854 15.5156 51.8102 14.8218 52.504C14.128 53.1978 13.0032 53.1978 12.3094 52.504ZM18.5904 58.785C17.8967 58.0912 17.8967 56.9664 18.5904 56.2726C19.2842 55.5788 20.4091 55.5788 21.1029 56.2726C21.7966 56.9664 21.7966 58.0912 21.1029 58.785C20.4091 59.4788 19.2842 59.4788 18.5904 58.785ZM43.7146 58.785C43.0208 58.0912 43.0208 56.9664 43.7146 56.2726C44.4084 55.5788 45.5332 55.5788 46.227 56.2726C46.9208 56.9664 46.9208 58.0912 46.227 58.785C45.5332 59.4788 44.4084 59.4788 43.7146 58.785ZM17.9623 46.851C16.9217 45.8104 16.9217 44.1231 17.9623 43.0824C19.003 42.0417 20.6903 42.0417 21.731 43.0824C22.7716 44.1231 22.7716 45.8104 21.731 46.851C20.6903 47.8917 19.003 47.8917 17.9623 46.851ZM29.8963 47.4792C28.5087 46.0916 28.5087 43.8419 29.8963 42.4543C31.2839 41.0667 33.5336 41.0667 34.9211 42.4543C36.3087 43.8419 36.3087 46.0916 34.9211 47.4792C33.5336 48.8667 31.2839 48.8667 29.8963 47.4792ZM29.8963 34.9171C28.5087 33.5295 28.5087 31.2798 29.8963 29.8922C31.2839 28.5047 33.5336 28.5047 34.9211 29.8922C36.3087 31.2798 36.3087 33.5295 34.9211 34.9171C33.5336 36.3046 31.2839 36.3046 29.8963 34.9171ZM23.6153 41.1981C22.2277 39.8105 22.2277 37.5608 23.6153 36.1733C25.0028 34.7857 27.2525 34.7857 28.6401 36.1733C30.0277 37.5608 30.0277 39.8105 28.6401 41.1981C27.2525 42.5857 25.0028 42.5857 23.6153 41.1981Z" fill="black"/>
</svg>
