<svg width="90" height="90" viewBox="0 0 90 90" fill="none" xmlns="http://www.w3.org/2000/svg">
<circle cx="45" cy="45" r="45" fill="white"/>
<path fill-rule="evenodd" clip-rule="evenodd" d="M43.9508 24.8149C44.7728 24.1284 45.9683 24.1284 46.7903 24.8149C52.3693 29.4743 58.731 29.4388 61.2084 29.425C61.3316 29.4243 61.4452 29.4237 61.5486 29.4237C62.1418 29.4237 62.7102 29.6616 63.1265 30.0843C63.5428 30.5069 63.7721 31.0788 63.7632 31.6719C63.6458 39.4537 63.3339 45.015 62.7204 49.0952C62.1073 53.1726 61.1647 55.9869 59.6338 58.1144C58.0915 60.258 56.1101 61.4719 54.025 62.6243C53.6628 62.8244 53.2939 63.0245 52.9167 63.2292C51.0889 64.2206 49.0655 65.3183 46.6615 67.0427C45.8899 67.5962 44.8512 67.5962 44.0796 67.0427C41.6779 65.3199 39.6572 64.2228 37.8322 63.2321C37.4532 63.0263 37.0826 62.8251 36.7188 62.6238C34.6352 61.4711 32.6564 60.2568 31.117 58.1125C29.5896 55.9848 28.6502 53.1707 28.0394 49.0941C27.4282 45.0144 27.1177 39.4535 27.0003 31.6719C26.9913 31.0788 27.2207 30.5069 27.6369 30.0843C28.0532 29.6616 28.6216 29.4237 29.2148 29.4237C29.3171 29.4237 29.4295 29.4243 29.5516 29.425C32.0089 29.4388 38.3714 29.4746 43.9508 24.8149ZM31.4699 33.8354C31.61 40.3884 31.911 45.0393 32.4202 48.4377C32.9858 52.2127 33.78 54.2261 34.7155 55.5292C35.6391 56.8157 36.8526 57.6355 38.8631 58.7477C39.1897 58.9284 39.5347 59.1155 39.8973 59.3121C41.4258 60.141 43.2675 61.1396 45.3706 62.5483C47.4767 61.1378 49.3212 60.1384 50.8523 59.3089C51.2133 59.1133 51.5569 58.9271 51.8823 58.7473C53.8954 57.6347 55.112 56.8146 56.0382 55.5273C56.9759 54.224 57.7724 52.2108 58.3399 48.4366C58.8508 45.0387 59.1532 40.3883 59.2935 33.8359C56.0913 33.7181 50.5826 33.0274 45.3706 29.3115C40.165 33.0228 34.6644 33.7163 31.4699 33.8354Z" fill="#4474B6"/>
</svg>
