<svg xmlns="http://www.w3.org/2000/svg" fill="none" viewBox="0 0 122 27">
  <path fill="currentColor" d="M32.067 12.067V22.28h3.453V12.068h2.383v-2.3H35.52v-.75c0-.516.097-.879.292-1.089.21-.225.551-.338 1.021-.338.438 0 .86.024 1.265.072V5.097a311 311 0 00-.9-.049A8.863 8.863 0 0036.274 5c-1.41 0-2.464.355-3.161 1.065-.697.71-1.046 1.621-1.046 2.735v.968H30v2.3h2.067zM39.265 13.616c.05-.807.252-1.476.608-2.009.357-.532.811-.96 1.362-1.282a5.744 5.744 0 011.848-.678 10.23 10.23 0 012.092-.218c.632 0 1.272.048 1.92.145.65.08 1.241.25 1.776.508a3.45 3.45 0 011.313 1.09c.34.451.511 1.056.511 1.815v6.51c0 .565.032 1.105.097 1.622.065.516.179.903.34 1.162h-3.501a7.857 7.857 0 01-.17-.581 8.317 8.317 0 01-.073-.63c-.551.565-1.2.96-1.946 1.186a7.843 7.843 0 01-2.286.34 6.2 6.2 0 01-1.678-.219 3.85 3.85 0 01-1.361-.677 3.274 3.274 0 01-.924-1.162c-.211-.468-.317-1.025-.317-1.67 0-.71.122-1.29.365-1.743.26-.468.584-.839.973-1.113.405-.274.86-.476 1.362-.605a13.429 13.429 0 011.556-.339c.519-.08 1.03-.145 1.532-.193a9.254 9.254 0 001.338-.218c.389-.097.697-.234.924-.412.227-.193.332-.468.316-.823 0-.37-.065-.661-.195-.87a1.14 1.14 0 00-.486-.51 1.59 1.59 0 00-.705-.241 4.649 4.649 0 00-.852-.073c-.68 0-1.215.146-1.604.436-.39.29-.617.774-.681 1.452h-3.454zm7.977 2.541c-.146.13-.332.234-.56.315a6.46 6.46 0 01-.705.17 9.894 9.894 0 01-.778.12c-.276.033-.551.073-.827.121-.26.049-.519.113-.778.194a2.3 2.3 0 00-.657.339c-.178.129-.324.298-.437.508-.114.21-.17.476-.17.799 0 .306.056.565.17.774.113.21.267.38.462.509.194.112.421.193.68.241.26.049.528.073.803.073.681 0 1.208-.113 1.58-.339.374-.226.65-.492.828-.798.178-.323.283-.646.316-.968.049-.323.073-.581.073-.775v-1.283zM53.375 9.768V22.28h3.453v-6.558c0-1.275.211-2.187.633-2.735.421-.565 1.102-.847 2.043-.847.826 0 1.402.258 1.726.774.324.5.487 1.267.487 2.3v7.066h3.453v-7.696a9.34 9.34 0 00-.22-2.105c-.129-.646-.364-1.186-.704-1.622-.34-.452-.811-.799-1.41-1.04-.584-.259-1.338-.388-2.262-.388-.73 0-1.443.17-2.14.508-.698.323-1.265.847-1.703 1.574h-.073V9.768h-3.283zM73.651 19.328c-.535 0-.98-.113-1.337-.339a2.813 2.813 0 01-.876-.871 4.023 4.023 0 01-.462-1.186 7.666 7.666 0 01-.121-1.355c0-.469.048-.912.145-1.332.114-.435.284-.814.511-1.137.243-.339.535-.605.876-.799.356-.193.778-.29 1.264-.29.568 0 1.038.105 1.41.314.374.21.673.492.9.847.227.355.39.767.487 1.235.097.452.146.936.146 1.452 0 .452-.065.887-.195 1.307a3.257 3.257 0 01-.535 1.089c-.243.323-.551.58-.924.774-.373.194-.802.29-1.289.29zm6.226 2.154V9.768h-3.283v1.67h-.049c-.421-.726-.948-1.243-1.58-1.55-.617-.306-1.338-.459-2.165-.459-.875 0-1.654.17-2.334.508a4.963 4.963 0 00-1.678 1.38 6.11 6.11 0 00-1.046 1.984 7.9 7.9 0 00-.34 2.324c0 .855.097 1.67.291 2.444.211.759.535 1.428.973 2.01a4.78 4.78 0 001.678 1.354c.68.323 1.492.485 2.432.485.762 0 1.483-.154 2.164-.46a3.469 3.469 0 001.605-1.477h.049v1.646c.016.888-.203 1.622-.657 2.203-.438.58-1.143.87-2.116.87-.616 0-1.159-.128-1.629-.386-.47-.242-.786-.686-.948-1.332h-3.43c.05.71.244 1.315.585 1.816.356.516.794.935 1.313 1.258a5.94 5.94 0 001.75.702c.65.161 1.281.242 1.897.242 1.443 0 2.594-.194 3.454-.58.859-.388 1.515-.864 1.97-1.429a4.03 4.03 0 00.875-1.79c.146-.646.219-1.219.219-1.72zM86.207 7.832V5h-3.453v2.832h3.453zm-3.453 1.936V22.28h3.453V9.768h-3.453zM98.143 16.036c0 .517-.057 1.017-.17 1.5a3.973 3.973 0 01-.535 1.284c-.243.37-.551.67-.924.895-.357.21-.795.315-1.313.315-.503 0-.94-.105-1.314-.315a2.874 2.874 0 01-.924-.895 3.973 3.973 0 01-.535-1.283 6.552 6.552 0 01-.17-1.5c0-.533.057-1.041.17-1.525.114-.485.292-.912.535-1.283.244-.371.552-.662.924-.871.373-.226.811-.34 1.314-.34.518 0 .956.114 1.313.34.373.21.68.5.924.87.243.372.421.8.535 1.284.113.484.17.992.17 1.524zM88.927 5v17.28h3.282v-1.597h.05a3.143 3.143 0 001.653 1.477c.73.29 1.556.435 2.48.435.633 0 1.257-.129 1.873-.387a4.676 4.676 0 001.653-1.186c.503-.532.908-1.21 1.216-2.033.308-.839.462-1.831.462-2.977s-.154-2.13-.462-2.953c-.308-.839-.713-1.524-1.216-2.057a4.676 4.676 0 00-1.653-1.186 4.806 4.806 0 00-1.873-.387c-.778 0-1.532.153-2.261.46-.714.29-1.281.758-1.703 1.404h-.048V5h-3.453zM103.89 5v17.28h3.453V5h-3.453zM118.525 14.681h-5.617c.016-.242.065-.516.146-.823a2.82 2.82 0 01.462-.871c.227-.274.518-.5.875-.678.373-.193.835-.29 1.386-.29.843 0 1.467.226 1.873.677.421.452.713 1.114.875 1.985zm-5.617 2.178h9.07a8.788 8.788 0 00-.243-2.783 6.692 6.692 0 00-1.118-2.372 5.362 5.362 0 00-1.946-1.646c-.794-.42-1.726-.629-2.796-.629-.957 0-1.832.17-2.627.508a6.12 6.12 0 00-2.018 1.404 5.993 5.993 0 00-1.313 2.081 7.268 7.268 0 00-.463 2.614c0 .968.146 1.856.438 2.663.308.806.738 1.5 1.289 2.081a5.69 5.69 0 002.019 1.355c.794.307 1.686.46 2.675.46 1.426 0 2.642-.322 3.647-.968 1.005-.645 1.751-1.718 2.238-3.219h-3.04c-.114.387-.422.758-.924 1.113-.503.34-1.103.509-1.8.509-.973 0-1.718-.25-2.237-.75-.519-.5-.803-1.308-.851-2.42zM12 0h6v6h-6zM0 12h18v6H0z"/>
  <path fill="currentColor" d="M6 24V6h6v18z"/>
</svg>
