<svg width="147" height="105" viewBox="0 0 147 105" fill="none" xmlns="http://www.w3.org/2000/svg">
<mask id="mask0" mask-type="alpha" maskUnits="userSpaceOnUse" x="31" y="0" width="100" height="105">
<rect x="32.0264" y="1" width="97" height="103" fill="#C4C4C4" stroke="black" stroke-width="2"/>
</mask>
<g mask="url(#mask0)">
<rect x="61.0264" y="20" width="56" height="94" rx="5" fill="white" stroke="black" stroke-width="2"/>
<rect x="49.0264" y="15" width="58" height="100" rx="5" fill="white" stroke="black" stroke-width="2"/>
<rect x="57.0264" y="30" width="42" height="42" rx="5" fill="black" stroke="black" stroke-width="2"/>
<rect x="86.0264" y="20" width="14" height="3" rx="1.5" fill="black"/>
<path d="M56.0264 83C56.0264 81.8954 56.9218 81 58.0264 81H96.0264C97.1309 81 98.0264 81.8954 98.0264 83C98.0264 84.1046 97.1309 85 96.0264 85H58.0264C56.9218 85 56.0264 84.1046 56.0264 83Z" fill="black"/>
<rect x="56.0264" y="89" width="30" height="4" rx="2" fill="black"/>
<rect x="56.0264" y="20" width="10" height="3" rx="1.5" fill="black"/>
</g>
<path d="M12.8846 88.7919C12.5092 90.6115 10.0235 91.5411 7.34932 90.8545C4.67511 90.168 2.80558 88.1363 3.19197 86.3012C3.56736 84.4815 6.05306 83.552 8.72727 84.2385C11.4015 84.9251 13.26 86.9723 12.8846 88.7919Z" fill="white"/>
<path d="M13.1202 90.1142C12.7127 90.6895 12.0871 91.1542 11.2875 91.4461C10.1099 91.8881 8.67188 91.9305 7.22503 91.567C4.15123 90.7803 2.048 88.3444 2.49108 86.1497C2.70996 85.0386 3.53452 84.1536 4.80521 83.6848C5.98284 83.2428 7.42083 83.2004 8.86768 83.564C10.3145 83.9275 11.5955 84.6648 12.4871 85.6379C13.4493 86.6855 13.8478 87.8665 13.6016 88.9813C13.5121 89.3867 13.3625 89.7722 13.1202 90.1142ZM4.17633 85.8628C4.04417 86.0494 3.9447 86.2596 3.90526 86.4896C3.61923 87.9047 5.26707 89.5886 7.50005 90.1675C8.65206 90.459 9.78384 90.4305 10.6876 90.0962C11.5146 89.8005 12.0421 89.2649 12.1658 88.6022C12.3058 87.9512 12.0362 87.2159 11.4273 86.5411C10.7478 85.7917 9.72298 85.216 8.57097 84.9244C7.41896 84.6328 6.2872 84.6613 5.38346 84.9956C4.85202 85.2228 4.42963 85.5053 4.17633 85.8628Z" fill="black"/>
<path d="M15.4697 77.4074C15.4697 77.4074 17.4385 74.313 24.5808 76.3313C31.723 78.3496 34.1735 75.1751 34.1735 75.1751L35.3706 69.432C35.4443 69.0812 35.0475 68.7948 34.7423 68.9785C33.1109 69.9399 29.2795 71.6424 25.2283 69.8826C20.6029 67.8749 16.9958 70.0719 16.8372 70.7893L13.1943 88.4087L15.4697 77.4074Z" fill="white"/>
<path d="M34.8649 75.5305L34.7758 75.6562C34.6756 75.7976 31.9663 79.1618 24.4378 77.0281C18.5321 75.3534 16.5154 77.3176 16.1594 77.7493L13.9255 88.5818L12.4903 88.2107L16.1301 70.603C16.2552 69.9333 17.1866 69.3944 17.7297 69.1215C18.5609 68.724 21.5907 67.515 25.5009 69.2216C29.3007 70.8723 32.9577 69.1661 34.3493 68.3656C34.7318 68.143 35.2347 68.1735 35.6147 68.4478C35.9946 68.7222 36.1857 69.1926 36.1005 69.6298L34.8649 75.5305ZM16.6015 75.6459C18.0699 74.9485 20.6316 74.4703 24.7656 75.6497C30.6271 77.3162 33.0252 75.3424 33.5088 74.8364L34.5179 69.9599C32.6336 70.927 28.9177 72.2583 24.9799 70.5555C20.8823 68.7611 17.7496 70.6084 17.5538 71.0608L16.6015 75.6459Z" fill="black"/>
<path d="M73.0264 56.519V44.981C73.0264 44.1605 73.96 43.6891 74.6202 44.1764L82.4363 49.9454C82.9778 50.3451 82.9778 51.1549 82.4363 51.5546L74.6202 57.3236C73.9601 57.8109 73.0264 57.3395 73.0264 56.519Z" stroke="white" stroke-width="2"/>
<path d="M34.13 48H32.5V54.62H34.13V48Z" fill="black"/>
<path d="M36.6204 50.5H30V52.13H36.6204V50.5Z" fill="black"/>
<path d="M143.33 59H141.7V68H143.33V59Z" fill="black"/>
<path d="M147 62.7H138V64.33H147V62.7Z" fill="black"/>
<path d="M131.081 46.2891C132.867 46.2891 134.314 44.8418 134.314 43.0564C134.314 41.2711 132.867 39.8237 131.081 39.8237C129.296 39.8237 127.849 41.2711 127.849 43.0564C127.849 44.8418 129.296 46.2891 131.081 46.2891Z" fill="white"/>
<path d="M134.058 41.1152C131.829 41.1152 130 39.287 130 37.0576C130 34.8281 131.829 33 134.058 33C136.287 33 138.116 34.8281 138.116 37.0576C138.116 39.287 136.287 41.1152 134.058 41.1152ZM134.058 34.6498C132.72 34.6498 131.65 35.7422 131.65 37.0799C131.65 38.4175 132.743 39.4877 134.058 39.4877C135.396 39.4877 136.488 38.3952 136.488 37.0799C136.466 35.7199 135.396 34.6498 134.058 34.6498Z" fill="black"/>
</svg>
