<svg width="144" height="104" viewBox="0 0 144 104" fill="none" xmlns="http://www.w3.org/2000/svg">
<path d="M14.6655 68.6061L8.50596 74.4165C7.94054 74.9498 7.00942 74.6625 6.84296 73.9032L5.08072 65.8651C4.91906 65.1277 5.60151 64.4839 6.32824 64.6883L14.25 66.916C14.9983 67.1264 15.2309 68.0727 14.6655 68.6061Z" stroke="black" stroke-width="1.8"/>
<path d="M27.1295 46H25.4995V52.62H27.1295V46Z" fill="black"/>
<path d="M29.6199 48.5H22.9995V50.13H29.6199V48.5Z" fill="black"/>
<mask id="mask0" mask-type="alpha" maskUnits="userSpaceOnUse" x="25" y="0" width="104" height="104">
<rect x="26" y="1" width="102" height="102" fill="#C4C4C4" stroke="black" stroke-width="2"/>
</mask>
<g mask="url(#mask0)">
<rect x="55" y="14" width="58" height="98" rx="5" fill="white" stroke="black" stroke-width="2"/>
<rect x="48" y="14" width="58" height="95" rx="5" fill="white" stroke="black" stroke-width="2"/>
<path d="M56 30C56 27.2386 58.2386 25 61 25H96C97.1046 25 98 25.8954 98 27V106C98 108.761 95.7614 111 93 111H61C58.2386 111 56 108.761 56 106V30Z" fill="#0A0A0A" stroke="black" stroke-width="2"/>
<path d="M57.3054 24.6568C57.4496 24.2624 57.8248 24 58.2447 24H96.114C96.8122 24 97.2955 24.6974 97.0503 25.3511L92.5503 37.3511C92.404 37.7414 92.0308 38 91.614 38H52.43L57.3054 24.6568Z" fill="white" stroke="black" stroke-width="2"/>
<path d="M71 24L66 38" stroke="black" stroke-width="2"/>
<path d="M84 24L79.5 38" stroke="black" stroke-width="2"/>
<path d="M80.5 38H92.5V41C92.5 42.6569 91.1569 44 89.5 44H83.5C81.8431 44 80.5 42.6569 80.5 41V38Z" fill="white" stroke="black" stroke-width="2"/>
<path d="M66.5 38H78.5V41C78.5 42.6569 77.1569 44 75.5 44H69.5C67.8431 44 66.5 42.6569 66.5 41V38Z" fill="white" stroke="black" stroke-width="2"/>
<path d="M52.5 38H64.5V41C64.5 42.6569 63.1569 44 61.5 44H55.5C53.8431 44 52.5 42.6569 52.5 41V38Z" fill="white" stroke="black" stroke-width="2"/>
<path d="M78.4723 79.5168C77.7738 79.5168 77.0753 79.2278 76.5935 78.6738L74.1367 75.9038C73.968 75.7111 73.7272 75.6388 73.4863 75.6629L69.8251 76.1205C68.8616 76.241 67.9463 75.8074 67.4164 75.0125C66.8864 74.2177 66.8624 73.1819 67.3441 72.363L69.247 69.1594C69.3674 68.9426 69.3915 68.6777 69.2711 68.4609L67.7054 65.1128C67.2959 64.2457 67.4164 63.234 68.0185 62.4873C68.6207 61.7407 69.5842 61.4034 70.5236 61.5961L74.1367 62.391C74.3775 62.4392 74.6184 62.3669 74.8111 62.1983L77.5088 59.6692C78.2074 59.0188 79.219 58.8261 80.1102 59.1633C81.0015 59.5006 81.6277 60.3195 81.7241 61.2589L82.0854 64.9442C82.1095 65.1851 82.254 65.4019 82.4708 65.5223L85.6985 67.3047C86.5415 67.7624 87.0232 68.6536 86.9991 69.6171C86.951 70.5805 86.3729 71.3995 85.5058 71.7849L82.1095 73.2542C81.8927 73.3505 81.7241 73.5432 81.6759 73.7841L80.9774 77.4212C80.7847 78.3606 80.1102 79.1073 79.1708 79.3723C78.93 79.4927 78.6891 79.5168 78.4723 79.5168ZM73.6067 73.8805C74.3293 73.8805 75.0038 74.1936 75.4855 74.7235L77.9424 77.4935C78.2074 77.8066 78.5687 77.7584 78.6891 77.7103C78.8336 77.6621 79.1468 77.5417 79.219 77.1322L79.9175 73.4951C80.0862 72.6761 80.6161 72.0017 81.3869 71.6645L84.7831 70.1952C85.1685 70.0266 85.2167 69.6893 85.2167 69.5448C85.2167 69.4003 85.1926 69.0631 84.8313 68.8463L81.6036 67.0639C80.881 66.6544 80.3993 65.9318 80.327 65.1128L79.9657 61.4275C79.9175 61.018 79.6285 60.8494 79.484 60.8013C79.3395 60.7531 79.0263 60.6567 78.7132 60.9458L76.0154 63.4749C75.4133 64.0289 74.5702 64.2698 73.7753 64.0771L70.1623 63.2822C69.7528 63.1859 69.5119 63.4267 69.4156 63.5472C69.3192 63.6676 69.1506 63.9567 69.3192 64.318L70.8849 67.666C71.2221 68.4127 71.198 69.2799 70.7645 70.0025L68.8857 73.1819C68.6689 73.5432 68.8375 73.8564 68.9098 73.9768C68.982 74.0972 69.1988 74.3622 69.6083 74.314L73.2695 73.8564C73.39 73.9045 73.5104 73.8805 73.6067 73.8805Z" fill="white"/>
<path d="M33.8634 93.6246H29.7613C28.8026 93.6246 28 92.8443 28 91.8634V87.7612C28 86.8026 28.7803 86 29.7613 86H33.8634C34.8221 86 35.6247 86.7803 35.6247 87.7612V91.8634C35.6247 92.8443 34.8221 93.6246 33.8634 93.6246ZM29.7613 87.6498L29.6498 91.8857L33.8858 91.9971C33.9526 91.9971 33.9972 91.9526 33.9972 91.8857V87.7835L29.7613 87.6498Z" fill="black"/>
</g>
<path d="M139.22 63H137.592V73.3222H139.22V63Z" fill="black"/>
<path d="M143.812 67.3097H133V68.9371H143.812V67.3097Z" fill="black"/>
<path d="M127.996 45.9822C130.196 45.9822 131.979 44.1987 131.979 41.9986C131.979 39.7986 130.196 38.0151 127.996 38.0151C125.796 38.0151 124.012 39.7986 124.012 41.9986C124.012 44.1987 125.796 45.9822 127.996 45.9822Z" fill="white"/>
<path d="M127.999 47C125.252 47 123 44.7472 123 42C123 39.2527 125.252 37 127.999 37C130.747 37 132.999 39.2527 132.999 42C132.999 44.7472 130.747 47 127.999 47ZM127.999 39.033C126.351 39.033 125.032 40.3791 125.032 42.0275C125.032 43.6758 126.379 44.9945 127.999 44.9945C129.648 44.9945 130.994 43.6483 130.994 42.0275C130.966 40.3516 129.648 39.033 127.999 39.033Z" fill="black"/>
<rect x="58" y="18" width="10" height="3" rx="1.5" fill="black"/>
<rect x="69" y="18" width="3" height="3" rx="1.5" fill="black"/>
</svg>
