<svg width="115" height="98" viewBox="0 0 115 98" fill="none" xmlns="http://www.w3.org/2000/svg">
<path d="M112.13 52H110.5V58.62H112.13V52Z" fill="black"/>
<path d="M114.62 54.5H108V56.13H114.62V54.5Z" fill="black"/>
<path d="M3.99683 84.1861C5.75684 84.1861 7.18361 82.7593 7.18361 80.9993C7.18361 79.2393 5.75684 77.8125 3.99683 77.8125C2.23683 77.8125 0.810059 79.2393 0.810059 80.9993C0.810059 82.7593 2.23683 84.1861 3.99683 84.1861Z" fill="white"/>
<path d="M3.99997 85C1.80218 85 0 83.1978 0 81C0 78.8022 1.80218 77 3.99997 77C6.19775 77 7.99993 78.8022 7.99993 81C7.99993 83.1978 6.19775 85 3.99997 85ZM3.99997 78.6264C2.6813 78.6264 1.62636 79.7033 1.62636 81.022C1.62636 82.3407 2.70327 83.3956 3.99997 83.3956C5.31864 83.3956 6.39555 82.3187 6.39555 81.022C6.37358 79.6813 5.31864 78.6264 3.99997 78.6264Z" fill="black"/>
<mask id="mask0" mask-type="alpha" maskUnits="userSpaceOnUse" x="3" y="0" width="102" height="98">
<path d="M3 0H105V98H3V0Z" fill="#C4C4C4"/>
</mask>
<g mask="url(#mask0)">
<rect x="31" y="10" width="58" height="96" rx="5" fill="white" stroke="black" stroke-width="2"/>
<rect x="25" y="10" width="58" height="96" rx="5" fill="white" stroke="black" stroke-width="2"/>
<path d="M33 26C33 23.2386 35.2386 21 38 21H70C72.7614 21 75 23.2386 75 26V103C75 105.761 72.7614 108 70 108H38C35.2386 108 33 105.761 33 103V26Z" fill="#0A0A0A" stroke="black" stroke-width="2"/>
</g>
<rect x="48" y="14" width="10" height="3" rx="1.5" fill="black"/>
<rect x="59" y="14" width="3" height="3" rx="1.5" fill="black"/>
<mask id="path-11-inside-1" fill="white">
<path fill-rule="evenodd" clip-rule="evenodd" d="M62 30C65.3137 30 68 32.6863 68 36V68V70V78.0738C68 79.9882 65.5691 80.8086 64.409 79.2857L57.3359 70H14C10.6863 70 8 67.3137 8 64V36C8 32.6863 10.6863 30 14 30H62Z"/>
</mask>
<path fill-rule="evenodd" clip-rule="evenodd" d="M62 30C65.3137 30 68 32.6863 68 36V68V70V78.0738C68 79.9882 65.5691 80.8086 64.409 79.2857L57.3359 70H14C10.6863 70 8 67.3137 8 64V36C8 32.6863 10.6863 30 14 30H62Z" fill="white"/>
<path d="M64.409 79.2857L66 78.0738H66L64.409 79.2857ZM57.3359 70V68H58.3266L58.9269 68.7881L57.3359 70ZM66 36C66 33.7909 64.2091 32 62 32V28C66.4183 28 70 31.5817 70 36H66ZM66 68V36H70V68H66ZM66 70V68H70V70H66ZM66 78.0738V70H70V78.0738H66ZM66 78.0738C66.0082 78.0845 66.0137 78.0899 66.0155 78.0917C66.0173 78.0934 66.0168 78.0927 66.0139 78.0907C66.0109 78.0887 66.0069 78.0864 66.0021 78.0842C65.9974 78.082 65.9929 78.0804 65.9889 78.0794C65.9811 78.0772 65.9781 78.0777 65.9811 78.0776C65.9845 78.0775 65.9914 78.0767 66 78.0738C66.0086 78.0709 66.0146 78.0674 66.0174 78.0654C66.0198 78.0637 66.0172 78.065 66.0122 78.0715C66.0097 78.0747 66.0071 78.0788 66.0046 78.0834C66.0021 78.088 66.0004 78.0923 65.9992 78.0956C65.9981 78.099 65.9981 78.0998 65.9985 78.0974C65.9989 78.0949 66 78.0873 66 78.0738H70C70 81.9027 65.1381 83.5435 62.818 80.4976L66 78.0738ZM58.9269 68.7881L66 78.0738L62.818 80.4976L55.7449 71.2119L58.9269 68.7881ZM14 68H57.3359V72H14V68ZM10 64C10 66.2091 11.7909 68 14 68V72C9.58172 72 6 68.4183 6 64H10ZM10 36V64H6V36H10ZM14 32C11.7909 32 10 33.7909 10 36H6C6 31.5817 9.58173 28 14 28V32ZM62 32H14V28H62V32Z" fill="black" mask="url(#path-11-inside-1)"/>
<path d="M47.5042 48.3051L46.0912 47.6854C45.6312 47.4851 45.2668 47.1141 45.0749 46.6504C44.8871 46.1853 44.8871 45.6654 45.0749 45.2003L45.6388 43.7688C45.7233 43.6493 45.7627 43.5039 45.7503 43.3581C45.7378 43.2124 45.6742 43.0758 45.5707 42.9724L44.0214 41.4231C43.918 41.3196 43.7814 41.256 43.6357 41.2435C43.4899 41.2311 43.3445 41.2705 43.225 41.355L41.7966 41.9437C41.3315 42.1315 40.8116 42.1315 40.3465 41.9437C39.8828 41.7518 39.5118 41.3874 39.3115 40.9274L38.6918 39.5144C38.6667 39.3689 38.5905 39.2372 38.4769 39.1429C38.3633 39.0486 38.2197 38.9979 38.0721 39.0001H35.9031C35.7555 38.9979 35.6119 39.0486 35.4983 39.1429C35.3847 39.2372 35.3085 39.3689 35.2834 39.5144L34.6637 40.9274C34.4634 41.3858 34.0934 41.749 33.6313 41.9408C33.1693 42.1325 32.6509 42.138 32.1848 41.9561L30.7719 41.3736C30.6524 41.2891 30.507 41.2497 30.3612 41.2621C30.2155 41.2746 30.0789 41.3382 29.9755 41.4417L28.4262 42.991C28.3227 43.0944 28.2591 43.231 28.2466 43.3767C28.2342 43.5225 28.2736 43.6679 28.3581 43.7874L28.9437 45.2034C29.1332 45.6704 29.1332 46.1928 28.9437 46.6597C28.7505 47.121 28.3863 47.4897 27.9274 47.6885L26.5144 48.3082C26.3689 48.3333 26.2372 48.4095 26.1429 48.5231C26.0486 48.6367 25.9979 48.7803 26.0001 48.9279V51.0969C25.9979 51.2445 26.0486 51.3881 26.1429 51.5017C26.2372 51.6153 26.3689 51.6915 26.5144 51.7166L27.9274 52.3363C28.3874 52.5366 28.7518 52.9076 28.9437 53.3712C29.1315 53.8364 29.1315 54.3562 28.9437 54.8214L28.3736 56.2281C28.2891 56.3476 28.2497 56.493 28.2621 56.6388C28.2746 56.7845 28.3382 56.9211 28.4417 57.0245L29.991 58.5738C30.0944 58.6773 30.231 58.7409 30.3767 58.7534C30.5225 58.7658 30.6679 58.7264 30.7874 58.6419L32.2034 58.0563C32.6685 57.8685 33.1884 57.8685 33.6535 58.0563C34.1172 58.2482 34.4882 58.6126 34.6885 59.0726L35.3082 60.4856C35.3333 60.6311 35.4095 60.7628 35.5231 60.8571C35.6367 60.9514 35.7803 61.0021 35.9279 60.9999H38.0969C38.2445 61.0021 38.3881 60.9514 38.5017 60.8571C38.6153 60.7628 38.6915 60.6311 38.7166 60.4856L39.3363 59.0726C39.5367 58.6108 39.909 58.2452 40.3743 58.0532C40.8386 57.8662 41.3572 57.8662 41.8214 58.0532L43.2529 58.6171C43.3724 58.7016 43.5178 58.7411 43.6635 58.7286C43.8093 58.7161 43.9459 58.6525 44.0493 58.549L45.5985 56.9997C45.7021 56.8963 45.7657 56.7597 45.7782 56.614C45.7906 56.4682 45.7512 56.3228 45.6667 56.2033L45.0563 54.7966C44.8668 54.3296 44.8668 53.8072 45.0563 53.3403C45.2495 52.879 45.6137 52.5103 46.0726 52.3115L47.4856 51.6918C47.6311 51.6667 47.7628 51.5905 47.8571 51.4769C47.9514 51.3633 48.0021 51.2197 47.9999 51.0721V48.9031C47.9978 48.7618 47.9475 48.6255 47.8574 48.5168C47.7672 48.408 47.6426 48.3333 47.5042 48.3051Z" stroke="black" stroke-width="2"/>
<circle cx="37" cy="50" r="4" stroke="black" stroke-width="2"/>
<path d="M102.863 44.83H98.7612C98.2484 44.83 97.8248 44.4064 97.8248 43.8937V39.7916C97.8248 39.2788 98.2484 38.8552 98.7612 38.8552H102.863C103.376 38.8552 103.8 39.2788 103.8 39.7916V43.8937C103.8 44.4064 103.376 44.83 102.863 44.83Z" fill="white"/>
<path d="M102.863 45.6246H98.7613C97.8026 45.6246 97 44.8443 97 43.8634V39.7612C97 38.8026 97.7803 38 98.7613 38H102.863C103.822 38 104.625 38.7803 104.625 39.7612V43.8634C104.625 44.8443 103.822 45.6246 102.863 45.6246ZM98.7613 39.6498L98.6498 43.8857L102.886 43.9971C102.953 43.9971 102.997 43.9526 102.997 43.8857V39.7835L98.7613 39.6498Z" fill="black"/>
</svg>
