<svg width="118" height="102" viewBox="0 0 118 102" fill="none" xmlns="http://www.w3.org/2000/svg">
<mask id="mask0" mask-type="alpha" maskUnits="userSpaceOnUse" x="8" y="0" width="98" height="102">
<rect x="9" y="1" width="96" height="100" fill="#C4C4C4" stroke="black" stroke-width="2"/>
</mask>
<g mask="url(#mask0)">
<rect x="33" y="14" width="58" height="93" rx="5" fill="white" stroke="black" stroke-width="2"/>
<rect x="27" y="14" width="58" height="95" rx="5" fill="white" stroke="black" stroke-width="2"/>
<path d="M35 30C35 27.2386 37.2386 25 40 25H75C76.1046 25 77 25.8954 77 27V102C77 104.761 74.7614 107 72 107H40C37.2386 107 35 104.761 35 102V30Z" fill="#0A0A0A" stroke="black" stroke-width="2"/>
<path d="M36.3054 24.6568C36.4496 24.2624 36.8248 24 37.2447 24H75.114C75.8122 24 76.2955 24.6974 76.0503 25.3511L71.5503 37.3511C71.404 37.7414 71.0308 38 70.614 38H31.43L36.3054 24.6568Z" fill="white" stroke="black" stroke-width="2"/>
<path d="M50 24L45 38" stroke="black" stroke-width="2"/>
<path d="M63 24L58.5 38" stroke="black" stroke-width="2"/>
<path d="M59.5 38H71.5V41C71.5 42.6569 70.1569 44 68.5 44H62.5C60.8431 44 59.5 42.6569 59.5 41V38Z" fill="white" stroke="black" stroke-width="2"/>
<path d="M45.5 38H57.5V41C57.5 42.6569 56.1569 44 54.5 44H48.5C46.8431 44 45.5 42.6569 45.5 41V38Z" fill="white" stroke="black" stroke-width="2"/>
<path d="M31.5 38H43.5V41C43.5 42.6569 42.1569 44 40.5 44H34.5C32.8431 44 31.5 42.6569 31.5 41V38Z" fill="white" stroke="black" stroke-width="2"/>
<path d="M57.4723 79.5168C56.7738 79.5168 56.0753 79.2278 55.5935 78.6738L53.1367 75.9038C52.968 75.7111 52.7272 75.6388 52.4863 75.6629L48.8251 76.1205C47.8616 76.241 46.9463 75.8074 46.4164 75.0125C45.8864 74.2177 45.8624 73.1819 46.3441 72.363L48.247 69.1594C48.3674 68.9426 48.3915 68.6777 48.2711 68.4609L46.7054 65.1128C46.2959 64.2457 46.4164 63.234 47.0185 62.4873C47.6207 61.7407 48.5842 61.4034 49.5236 61.5961L53.1367 62.391C53.3775 62.4392 53.6184 62.3669 53.8111 62.1983L56.5088 59.6692C57.2074 59.0188 58.219 58.8261 59.1102 59.1633C60.0015 59.5006 60.6277 60.3195 60.7241 61.2589L61.0854 64.9442C61.1095 65.1851 61.254 65.4019 61.4708 65.5223L64.6985 67.3047C65.5415 67.7624 66.0232 68.6536 65.9991 69.6171C65.951 70.5805 65.3729 71.3995 64.5058 71.7849L61.1095 73.2542C60.8927 73.3505 60.7241 73.5432 60.6759 73.7841L59.9774 77.4212C59.7847 78.3606 59.1102 79.1073 58.1708 79.3723C57.93 79.4927 57.6891 79.5168 57.4723 79.5168ZM52.6067 73.8805C53.3293 73.8805 54.0038 74.1936 54.4855 74.7235L56.9424 77.4935C57.2074 77.8066 57.5687 77.7584 57.6891 77.7103C57.8336 77.6621 58.1468 77.5417 58.219 77.1322L58.9175 73.4951C59.0862 72.6761 59.6161 72.0017 60.3869 71.6645L63.7831 70.1952C64.1685 70.0266 64.2167 69.6893 64.2167 69.5448C64.2167 69.4003 64.1926 69.0631 63.8313 68.8463L60.6036 67.0639C59.881 66.6544 59.3993 65.9318 59.327 65.1128L58.9657 61.4275C58.9175 61.018 58.6285 60.8494 58.484 60.8013C58.3395 60.7531 58.0263 60.6567 57.7132 60.9458L55.0154 63.4749C54.4133 64.0289 53.5702 64.2698 52.7753 64.0771L49.1623 63.2822C48.7528 63.1859 48.5119 63.4267 48.4156 63.5472C48.3192 63.6676 48.1506 63.9567 48.3192 64.318L49.8849 67.666C50.2221 68.4127 50.198 69.2799 49.7645 70.0025L47.8857 73.1819C47.6689 73.5432 47.8375 73.8564 47.9098 73.9768C47.982 74.0972 48.1988 74.3622 48.6083 74.314L52.2695 73.8564C52.39 73.9045 52.5104 73.8805 52.6067 73.8805Z" fill="white"/>
</g>
<path d="M6.22017 75H4.59271V85.3222H6.22017V75Z" fill="black"/>
<path d="M10.8128 79.3096H0V80.9369H10.8128V79.3096Z" fill="black"/>
<path d="M106.13 37H104.5V43.62H106.13V37Z" fill="black"/>
<path d="M108.62 39.5H102V41.13H108.62V39.5Z" fill="black"/>
<path d="M113.054 58.2891C114.84 58.2891 116.287 56.8418 116.287 55.0564C116.287 53.2711 114.84 51.8237 113.054 51.8237C111.269 51.8237 109.822 53.2711 109.822 55.0564C109.822 56.8418 111.269 58.2891 113.054 58.2891Z" fill="white"/>
<path d="M113.058 59.1152C110.828 59.1152 109 57.287 109 55.0576C109 52.8281 110.828 51 113.058 51C115.287 51 117.115 52.8281 117.115 55.0576C117.115 57.287 115.287 59.1152 113.058 59.1152ZM113.058 52.6498C111.72 52.6498 110.65 53.7422 110.65 55.0799C110.65 56.4175 111.742 57.4877 113.058 57.4877C114.395 57.4877 115.488 56.3952 115.488 55.0799C115.465 53.7199 114.395 52.6498 113.058 52.6498Z" fill="black"/>
<rect x="50" y="18" width="10" height="3" rx="1.5" fill="black"/>
<rect x="61" y="18" width="3" height="3" rx="1.5" fill="black"/>
</svg>
