<svg width="118" height="71" viewBox="0 0 118 71" fill="none" xmlns="http://www.w3.org/2000/svg">
<path d="M47.9978 52.8896L41.756 50.1254L38.9249 42.6352L40.2401 39.7372L33.2627 35.2564L19.4861 36.4602L12.2634 31.1992C12.1742 31.1323 12.0405 31.1769 11.9959 31.2661L8.27307 39.648C8.25078 39.6703 8.25078 39.6926 8.25078 39.7149L8.22848 39.7594L4.7286 37.5302C4.7286 37.5302 4.72861 37.5302 4.70632 37.5302L0.938924 46.0236C0.938924 46.0236 0.805176 46.358 0.805176 46.5586L0.849753 49.412C0.872045 50.4598 2.18729 51.6636 3.79233 52.1094L6.11072 52.7336C6.48969 53.6253 7.00241 54.517 7.67117 55.431C8.1839 56.1443 8.78579 56.8131 9.43226 57.4819L8.60746 59.3098L8.56287 59.4213C8.13931 60.1346 8.71892 61.1378 9.94499 61.9403L13.7793 64.4148C15.1837 65.3288 16.967 65.4848 17.7473 64.7937L18.8842 63.7906C21.3586 64.8383 23.9668 65.5517 26.4858 65.8638L27.645 67.4688C28.4699 68.5834 30.2532 69.386 31.6353 69.2522L35.425 68.851C36.1161 68.7841 36.4951 68.6057 36.6957 68.2045L36.7626 68.0707L39.5268 61.8066L41.3102 62.297C42.7592 62.6983 43.9406 62.3193 44.1636 61.4722L47.9978 52.8896C48.0201 52.8896 47.9978 52.8896 47.9978 52.8896Z" fill="#070707"/>
<path d="M31.3429 70.0374C29.7601 70.0374 27.9322 69.1457 27.0182 67.8973L26.0596 66.5821C23.7635 66.27 21.4006 65.6235 19.0599 64.6872L18.3019 65.356C17.2096 66.2923 15.0919 66.1585 13.3531 65.0439L9.51879 62.5695C7.84687 61.4994 7.2004 60.0727 7.86916 58.9581L8.47105 57.5983C7.89145 56.9741 7.42331 56.4168 7.02205 55.8595C6.44245 55.057 5.92973 54.2099 5.52847 53.3627L3.58906 52.8277C1.58275 52.2927 0.0668693 50.7991 0.044577 49.3502L0 46.4967C0 46.1624 0.133741 45.7834 0.178325 45.6496L4.12406 36.755L4.90429 36.5767L5.21638 36.7996L7.86916 38.4715L11.4136 30.4909L11.9041 30.2903C12.1939 30.2234 12.5059 30.268 12.7512 30.4463L19.7286 35.5289L33.483 34.3475L40.8617 39.0957L41.2184 39.6753L40.9954 40.0097L39.814 42.6179L42.4221 49.4839L48.6194 52.1813L48.9315 52.9838L48.7086 53.3405L44.9635 61.7669C44.8743 62.1459 44.5622 62.5472 44.0718 62.837C43.3361 63.2605 42.2661 63.3497 41.1515 63.0376L40.0592 62.7478L37.4733 68.5661C37.0943 69.3686 36.2695 69.5692 35.5784 69.6361L31.7888 70.0374C31.6104 70.0374 31.4766 70.0374 31.3429 70.0374ZM18.7478 62.8147L19.2159 63.0153C21.6681 64.0407 24.2317 64.7541 26.6169 65.0439L26.9736 65.0885L28.3557 66.9833C29.0022 67.875 30.5181 68.5438 31.6104 68.4323L35.4001 68.0311C35.6007 68.0088 35.9574 67.9642 36.002 67.8527L36.0912 67.6744L39.1229 60.8307L41.5751 61.4994C42.3776 61.7223 42.9572 61.6332 43.247 61.4771C43.403 61.388 43.4253 61.2988 43.4253 61.2765L46.9698 53.3405L41.1515 50.7546L38.0752 42.6179L39.2344 40.032L33.0817 36.064L19.2828 37.2677L12.4391 32.2966L8.64939 40.8122L7.80229 40.4109L5.08263 38.6945L1.6942 46.3184C1.67191 46.363 1.64962 46.4967 1.62733 46.5413L1.67192 49.3724C1.67192 49.9075 2.58589 50.9106 4.0126 51.2896L6.70996 52.0252L6.866 52.3819C7.24497 53.2513 7.73541 54.0984 8.3373 54.9232C8.78314 55.5251 9.31816 56.1493 10.0315 56.8849L10.4105 57.2862L9.27357 59.8052C9.13982 60.0059 9.47421 60.6077 10.4105 61.2096L14.2448 63.6841C15.4931 64.4866 16.8306 64.4866 17.2319 64.1522L18.7478 62.8147Z" fill="white"/>
<path d="M45.0747 46.9789L42.7563 46.3547C42.3774 45.463 41.8647 44.5713 41.1959 43.6573C40.5271 42.7434 39.7469 41.874 38.8775 41.0268L40.0144 40.046C40.7946 39.3549 40.3042 38.062 38.8998 37.1703L35.0655 34.6958C33.6611 33.7819 31.8777 33.6258 31.0975 34.3169L29.9606 35.32C27.4861 34.2946 24.8779 33.5589 22.3589 33.2468L21.1997 31.6418C20.3749 30.5049 18.5915 29.7247 17.2094 29.8584L13.4197 30.2597C12.0376 30.4157 11.5694 31.4412 12.3942 32.5558L13.5534 34.1608C11.8146 34.9188 10.5663 36.0557 9.83062 37.4378L7.51222 36.8136C5.90718 36.3678 4.61422 36.8805 4.63651 37.9282L4.68111 40.7816C4.7034 41.8294 6.01865 43.0332 7.62369 43.479L9.94209 44.1032C10.3211 44.9949 10.8338 45.8866 11.5025 46.8006C12.1713 47.7145 12.9515 48.5839 13.8209 49.4311L12.684 50.4119C11.9038 51.103 12.3942 52.3959 13.7986 53.2876L17.6329 55.7621C19.0373 56.676 20.8207 56.8321 21.6009 56.141L22.7379 55.1379C25.2123 56.1856 27.8205 56.899 30.3618 57.2111L31.521 58.8161C32.3458 59.953 34.1292 60.7332 35.5113 60.5995L39.301 60.1982C40.6831 60.0422 41.1513 59.0167 40.3265 57.9021L39.1673 56.2971C40.9061 55.5391 42.1544 54.4022 42.8901 53.0201L45.2085 53.6443C46.8135 54.0901 48.1065 53.5774 48.0842 52.5297L48.0396 49.6763C47.995 48.6062 46.6798 47.4025 45.0747 46.9789Z" fill="#070707"/>
<path d="M35.1563 61.4347C33.5735 61.4347 31.7456 60.5431 30.8316 59.317L29.873 58.0017C27.5769 57.6896 25.2362 57.0432 22.8732 56.1069L22.1153 56.7757C21.023 57.7119 18.9052 57.5782 17.1664 56.4636L13.3321 53.9891C12.2175 53.2758 11.5487 52.3172 11.4819 51.3809C11.4373 50.7567 11.6602 50.1994 12.1283 49.7982L12.5965 49.3746C11.9277 48.6836 11.3258 47.9702 10.8131 47.2792C10.2335 46.4766 9.72078 45.6295 9.31952 44.7824L7.38008 44.2474C5.37377 43.7124 3.85789 42.2188 3.83559 40.7698L3.79102 37.9164C3.79102 37.2922 4.03624 36.7572 4.52667 36.3782C5.26231 35.7986 6.42151 35.6649 7.69217 36.0215L9.40867 36.4897C10.0997 35.4419 11.0806 34.5503 12.2844 33.8592L11.6825 33.0344C11.1252 32.2542 10.9691 31.407 11.2812 30.6937C11.5933 29.9803 12.329 29.5345 13.2875 29.423L17.0772 29.0218C18.7269 28.8434 20.8223 29.7797 21.8255 31.1395L22.7841 32.4548C25.0802 32.7669 27.4209 33.4133 29.7838 34.3496L30.5418 33.6809C31.6341 32.7446 33.7519 32.8783 35.4907 33.993L39.3249 36.4674C40.4396 37.1808 41.1083 38.1393 41.1752 39.0756C41.2198 39.6998 40.9969 40.2571 40.5287 40.6583L40.0606 41.0819C40.7294 41.773 41.3313 42.4863 41.844 43.1774C42.4236 43.9799 42.9363 44.827 43.3376 45.6741L45.277 46.2091C47.2833 46.7441 48.7992 48.2377 48.8215 49.6867L48.866 52.5401C48.866 53.1643 48.6209 53.6993 48.1304 54.0783C47.3948 54.6579 46.2356 54.7916 44.9649 54.435L43.2484 53.9668C42.5573 55.0146 41.5765 55.9063 40.3727 56.5973L40.9746 57.4221C41.5319 58.2024 41.6879 59.0495 41.3758 59.7628C41.0637 60.4762 40.3281 60.922 39.3695 61.0335L35.5798 61.4347C35.4461 61.4347 35.3123 61.4347 35.1563 61.4347ZM22.5611 54.1898L23.0293 54.3904C25.4814 55.4158 28.0451 56.1292 30.4303 56.419L30.787 56.4636L32.1691 58.3584C32.8156 59.2501 34.3092 59.9189 35.4238 59.8074L39.2135 59.4062C39.6371 59.3616 39.8377 59.2278 39.8822 59.0941C39.9268 58.9826 39.9046 58.7374 39.6593 58.3807L37.876 55.9508L38.8122 55.5496C40.3504 54.8808 41.465 53.9 42.1338 52.6293L42.4459 52.0497L45.3885 52.8522C46.2356 53.0751 46.8597 52.986 47.1272 52.7853C47.2164 52.7185 47.2387 52.6293 47.2387 52.5624L47.1941 49.709C47.1941 49.174 46.2579 48.1708 44.8535 47.7919L42.1784 47.0562L42.0223 46.6995C41.6434 45.8301 41.1529 44.983 40.551 44.1582C39.9491 43.3334 39.1912 42.4863 38.3441 41.6392L37.6976 41.015L39.5033 39.4323C39.5702 39.3654 39.6148 39.3208 39.5925 39.1871C39.5702 38.8527 39.2135 38.3176 38.4779 37.8495L34.6436 35.3751C33.4175 34.5725 32.0354 34.5725 31.6564 34.9292L30.1405 36.2668L29.6724 36.0661C27.1756 35.0184 24.6789 34.3496 22.2713 34.0375L21.9147 33.993L20.5325 32.0981C19.8861 31.2064 18.3925 30.5377 17.2779 30.6491L13.4882 31.0504C13.0646 31.095 12.864 31.2287 12.8194 31.3625C12.7748 31.4739 12.7971 31.7191 13.0423 32.0758L14.8034 34.5057L13.8671 34.9069C12.329 35.5757 11.2144 36.5566 10.5456 37.8049L10.2335 38.3845L7.29091 37.582C6.46609 37.3591 5.81962 37.4483 5.55211 37.6489C5.46294 37.7158 5.44064 37.7826 5.44064 37.8718L5.48524 40.7252C5.48524 41.2602 6.4215 42.2634 7.82592 42.6424L10.5233 43.378L10.6793 43.7347C11.0583 44.6041 11.5487 45.4512 12.1506 46.276C12.7525 47.1008 13.5105 47.9479 14.3576 48.795L15.004 49.4192L13.1984 51.002C13.1315 51.0688 13.0869 51.1134 13.1092 51.2472C13.1315 51.5816 13.4882 52.1166 14.2238 52.5847L18.0581 55.0592C19.2842 55.8617 20.6663 55.8617 21.0453 55.5273L22.5611 54.1898Z" fill="white"/>
<path d="M9.11563 43.5183L5.28601 52.136L6.77318 52.7969L10.6028 44.1793L9.11563 43.5183Z" fill="white"/>
<path d="M11.4735 50.9369L7.64282 59.5544L9.13003 60.2155L12.9607 51.5979L11.4735 50.9369Z" fill="white"/>
<path d="M21.5826 55.4791L17.752 64.0967L19.2391 64.7578L23.0697 56.1402L21.5826 55.4791Z" fill="white"/>
<path d="M29.2028 57.0785L25.373 65.696L26.8602 66.357L30.69 57.7394L29.2028 57.0785Z" fill="white"/>
<path d="M34.6215 44.3226C37.3411 48.0454 35.8476 51.4561 31.2554 51.9688C26.6632 52.4815 20.7334 49.8733 18.0137 46.1505C15.2941 42.4277 16.7877 39.017 21.3799 38.5043C25.9721 37.9916 31.9018 40.5997 34.6215 44.3226Z" fill="#070707"/>
<path d="M30.1167 52.8332C25.5022 52.8332 19.996 50.2027 17.3432 46.6136C15.8496 44.5627 15.426 42.4895 16.184 40.773C16.9419 39.0565 18.7476 37.9419 21.2666 37.6744C26.1041 37.1394 32.3905 39.9036 35.2662 43.8271C36.7598 45.878 37.1833 47.9511 36.4254 49.6677C35.6675 51.3842 33.8618 52.4988 31.3427 52.7663C30.9638 52.8109 30.5402 52.8332 30.1167 52.8332ZM22.5596 39.2349C22.1806 39.2349 21.8239 39.2572 21.4673 39.3017C19.5501 39.5024 18.2126 40.2603 17.6999 41.4418C17.1871 42.601 17.5215 44.0946 18.6807 45.655C21.2443 49.1549 26.8843 51.6071 31.1867 51.1612C33.1038 50.9606 34.4414 50.2027 34.9541 49.0212C35.4668 47.862 35.1101 46.3684 33.9732 44.8079C31.6103 41.5756 26.7059 39.2349 22.5596 39.2349Z" fill="white"/>
<path d="M18.2622 45.5827C18.0838 45.605 18.0839 45.605 17.9055 45.6273C17.9947 45.7833 17.9278 45.9616 18.0393 46.1177C20.7589 49.8405 26.6887 52.4487 31.2809 51.936C31.4593 51.9137 31.5485 51.7354 31.7268 51.7131C31.6376 51.557 31.6376 51.557 31.5261 51.4233C28.7842 47.7005 22.8544 45.0922 18.2622 45.5827Z" fill="#070707"/>
<path d="M30.1201 52.8169C25.5056 52.8169 19.9994 50.1864 17.3466 46.5973C17.1682 46.3521 17.1459 46.1069 17.1236 45.9732L16.5217 45.0369L18.1491 44.7694C22.9865 44.2344 29.273 46.9986 32.1487 50.9221C32.2602 51.0558 32.2825 51.1004 32.3271 51.1896L32.9736 52.2373L31.9481 52.4825C31.8143 52.594 31.6137 52.7277 31.3239 52.75C30.9449 52.7946 30.5437 52.8169 30.1201 52.8169ZM19.2414 46.3299C21.7605 49.1833 26.2412 51.1896 30.0755 51.1896C30.1424 51.1896 30.2093 51.1896 30.2762 51.1896C27.7125 48.2916 23.1203 46.2853 19.2414 46.3299Z" fill="white"/>
<path d="M113.968 7.31484L107.258 9.23198L100.125 5.17478L99.2555 2.00928L90.8514 3.05701L80.8198 13.0885L71.6801 13.6904C71.5686 13.6904 71.4794 13.8242 71.524 13.9357L74.0876 23.0086C74.0876 23.0309 74.1099 23.0532 74.1099 23.0978L74.1322 23.1424L69.9189 23.6997L72.5271 32.9064C72.5271 32.9064 72.6386 33.2631 72.7723 33.4191L74.6895 35.6484C75.3805 36.4732 77.2085 36.54 78.769 35.8267L80.9982 34.8012C81.8899 35.2471 82.8708 35.6261 84.0077 35.9159C84.8771 36.1388 85.791 36.2725 86.7273 36.384L87.2846 38.368L87.3069 38.4795C87.4406 39.3266 88.5553 39.7278 90.0488 39.5495L94.6633 38.9699C96.3575 38.747 97.8734 37.7215 98.0295 36.6515L98.2747 35.1133C100.905 34.2885 103.424 33.1516 105.609 31.7249L107.571 32.2153C108.953 32.572 110.892 32.0147 111.873 30.9893L114.593 28.1804C115.083 27.6677 115.284 27.2887 115.172 26.8429L115.15 26.6868L113.233 19.91L114.949 19.1075C116.354 18.461 117.022 17.391 116.643 16.5884L113.968 7.31484C113.991 7.31484 113.991 7.31484 113.968 7.31484Z" fill="#070707"/>
<path d="M89.3102 40.4227C87.7274 40.4227 86.6351 39.754 86.4568 38.6171L86.0332 37.1458C85.1638 37.0343 84.4282 36.9005 83.7371 36.7222C82.7563 36.477 81.7977 36.1426 80.9283 35.7191L79.0558 36.5885C77.1386 37.4801 74.9763 37.3018 74.0177 36.1872L72.1006 33.958C71.8776 33.7128 71.7439 33.3338 71.6993 33.1777L69.002 23.5921L69.4255 22.901H69.8937L73.0592 22.4774L70.607 13.8057L70.8522 13.3153C71.0305 13.0701 71.2981 12.914 71.5879 12.8918L80.4156 12.2899L90.4471 2.28063L99.3863 1.16602L99.9882 1.58957L100.835 4.64361L107.389 8.36642L114.188 6.42699L114.812 6.91742V7.20722L117.376 16.3916C117.554 16.7483 117.577 17.2833 117.376 17.8184C117.086 18.6432 116.306 19.3788 115.236 19.8915L114.166 20.382L115.949 26.713C116.172 27.5824 115.66 28.2734 115.169 28.7862L112.449 31.595C111.246 32.8434 109.016 33.4675 107.367 33.044L105.74 32.6204C103.711 33.8911 101.459 34.9388 98.985 35.7413L98.8289 36.7891C98.606 38.2381 96.8449 39.531 94.7495 39.7985L90.135 40.3781C89.8229 40.4004 89.5554 40.4227 89.3102 40.4227ZM80.9506 33.9134L81.3073 34.0917C82.1767 34.5376 83.1352 34.872 84.1384 35.1395C84.874 35.3178 85.7211 35.4738 86.7466 35.5853L87.3039 35.6522L88.0618 38.3718C88.1064 38.6171 88.7529 38.9069 89.8898 38.7508L94.5043 38.1712C96.0201 37.9706 97.0901 37.1012 97.1793 36.5439L97.5137 34.5153L98.0041 34.3592C100.612 33.5567 103.087 32.4198 105.138 31.0823L105.427 30.8816L107.746 31.4612C108.838 31.7287 110.465 31.2606 111.268 30.4581L113.988 27.6493C114.255 27.3595 114.389 27.1811 114.367 27.0919L114.322 26.869L112.227 19.468L114.567 18.3757C115.347 18.019 115.749 17.5508 115.86 17.2388C115.927 17.0604 115.882 16.9712 115.86 16.949L113.43 8.32184L107.166 10.1052L99.4308 5.71364L98.6506 2.90481L91.205 3.84109L81.1512 13.8949L72.5018 14.4745L75.11 23.7258L74.2184 23.971L70.9191 24.3946L73.2821 32.7096C73.3043 32.7542 73.3489 32.8879 73.3935 32.9325L75.2884 35.1395C75.645 35.563 77.0049 35.7636 78.4093 35.1172L80.9506 33.9134Z" fill="white"/>
<path d="M107.792 4.5644L105.563 5.58984C104.671 5.144 103.691 4.76503 102.576 4.47523C101.461 4.18543 100.258 4.00709 99.0315 3.91792L99.2768 2.37975C99.4551 1.30972 98.2068 0.618662 96.5125 0.819292L91.898 1.39889C90.2038 1.59952 88.688 2.64726 88.5319 3.71729L88.2867 5.25546C85.6562 6.08027 83.1372 7.21718 80.9526 8.64388L78.9909 8.15346C77.6088 7.79678 75.6916 8.35408 74.6885 9.37953L71.9688 12.1884C70.9657 13.2138 71.3001 14.3507 72.6822 14.6851L74.6439 15.1755C73.7745 16.9366 73.5293 18.6531 73.8637 20.2136L71.6345 21.239C70.074 21.9524 69.3829 23.2007 70.0963 24.0256L72.0134 26.2548C72.7045 27.0796 74.5324 27.1465 76.0929 26.4331L78.3221 25.4077C79.2138 25.8535 80.1946 26.2325 81.3315 26.5223C82.4461 26.8121 83.6499 26.9904 84.8537 27.0796L84.6085 28.6178C84.4302 29.6878 85.6785 30.3789 87.3727 30.1782L91.9872 29.5986C93.6814 29.398 95.1973 28.3503 95.3533 27.2802L95.5986 25.7421C98.229 24.9172 100.748 23.7803 102.933 22.3536L104.894 22.8441C106.277 23.2007 108.194 22.6434 109.197 21.618L111.916 18.8092C112.92 17.7837 112.585 16.6468 111.203 16.3124L109.241 15.822C110.111 14.0609 110.356 12.3444 110.022 10.7839L112.251 9.7585C113.811 9.04515 114.502 7.79678 113.789 6.97196L111.872 4.74273C111.181 3.94021 109.353 3.85104 107.792 4.5644Z" fill="#070707"/>
<path d="M86.7469 31.072C85.7215 31.072 84.8521 30.7599 84.3171 30.2026C83.8712 29.7568 83.6929 29.1549 83.7821 28.5307L83.8935 27.8619C82.9127 27.7505 81.9764 27.5944 81.107 27.3715C80.1038 27.1263 79.1675 26.7919 78.2981 26.3684L76.4256 27.2378C74.5085 28.1294 72.3461 27.9511 71.3876 26.8365L69.4704 24.6073C69.0692 24.1391 68.9131 23.5372 69.0469 22.9131C69.2475 21.9768 70.0723 21.1074 71.2984 20.5501L72.9703 19.7698C72.8142 18.4769 73.0149 17.1171 73.5276 15.7572L72.4799 15.4897C71.5213 15.2445 70.8748 14.6872 70.6519 13.9293C70.429 13.1713 70.6965 12.3465 71.3876 11.6332L74.1072 8.82435C75.2887 7.57598 77.5402 6.9518 79.1899 7.37536L80.8172 7.79891C82.8235 6.52825 85.0973 5.48051 87.5717 4.67799L87.7278 3.63026C87.9507 2.18126 89.7118 0.88831 91.8073 0.620803L96.4218 0.0412042C97.7593 -0.114842 98.8962 0.174957 99.565 0.866017C100.011 1.31186 100.189 1.91375 100.1 2.53794L99.9886 3.2067C100.992 3.31817 101.928 3.47421 102.775 3.69713C103.756 3.94235 104.715 4.27673 105.584 4.70029L107.456 3.83089C109.374 2.9392 111.536 3.11754 112.495 4.23215L114.412 6.46137C114.813 6.92951 114.969 7.5314 114.835 8.15559C114.635 9.09186 113.81 9.96126 112.584 10.5186L110.912 11.2988C111.068 12.5917 110.867 13.9516 110.354 15.3114L111.38 15.5789C112.338 15.8241 112.985 16.3814 113.208 17.1394C113.431 17.8973 113.163 18.7221 112.472 19.4355L109.775 22.2443C108.571 23.4927 106.342 24.1168 104.692 23.6933L103.065 23.292C101.059 24.5627 98.7848 25.6104 96.3103 26.4129L96.1543 27.4607C95.9314 28.9097 94.1703 30.2026 92.0748 30.4701L87.4603 31.0497C87.2151 31.0497 86.9699 31.072 86.7469 31.072ZM78.3205 24.5627L78.6771 24.741C79.5465 25.1869 80.5051 25.5212 81.5082 25.7888C82.5337 26.0563 83.6706 26.2346 84.8967 26.3238L85.7884 26.3906L85.4094 28.7982C85.3871 28.9097 85.4094 28.9988 85.4986 29.088C85.7438 29.3332 86.3903 29.5339 87.2597 29.4224L91.8742 28.8428C93.3901 28.6422 94.4601 27.7728 94.5492 27.2155L94.8613 25.1646L95.3518 25.0085C98.0045 24.1837 100.39 23.0914 102.485 21.7316L102.775 21.5309L105.093 22.1105C106.186 22.378 107.813 21.9099 108.616 21.1074L111.313 18.2986C111.581 18.0311 111.714 17.7635 111.647 17.5852C111.603 17.4069 111.335 17.2508 110.979 17.1617L108.036 16.4037L108.482 15.4897C109.262 13.9293 109.485 12.4134 109.195 10.9644L109.062 10.3179L111.893 9.00269C112.717 8.62372 113.141 8.111 113.23 7.77662C113.252 7.64286 113.23 7.55369 113.163 7.48682L111.246 5.25759C110.889 4.83404 109.53 4.63341 108.125 5.27988L105.539 6.48366L105.183 6.30533C104.313 5.85948 103.377 5.5251 102.352 5.25759C101.326 4.99009 100.189 4.81175 98.9631 4.72258L98.0714 4.6557L98.4504 2.24814C98.4727 2.13668 98.4504 2.04751 98.3612 1.98063C98.116 1.73542 97.4695 1.53479 96.6001 1.64625L91.9856 2.22584C90.4697 2.42647 89.3997 3.29587 89.3105 3.85318L88.9985 5.90407L88.508 6.06011C85.8998 6.86263 83.4254 7.99954 81.3745 9.33707L81.0847 9.5377L78.7663 8.9581C77.674 8.6906 76.0466 9.15874 75.2441 9.96126L72.5245 12.7701C72.2569 13.0376 72.1232 13.3051 72.1901 13.4834C72.2347 13.6618 72.5022 13.8178 72.8365 13.907L75.7791 14.6649L75.3333 15.5789C74.5531 17.1394 74.3301 18.6552 74.6199 20.1042L74.7537 20.7507L71.9226 22.066C71.0977 22.4449 70.6742 22.9576 70.585 23.292C70.5627 23.4258 70.585 23.5149 70.6519 23.5818L72.569 25.8111C72.9257 26.2346 74.2855 26.4352 75.69 25.7888L78.3205 24.5627Z" fill="white"/>
<path d="M78.8513 25.1084L77.285 25.5503L79.918 34.8835L81.4842 34.4416L78.8513 25.1084Z" fill="white"/>
<path d="M85.5635 29.438L83.9971 29.8799L86.6303 39.2133L88.1966 38.7714L85.5635 29.438Z" fill="white"/>
<path d="M96.4613 26.3614L94.895 26.8032L97.5281 36.1366L99.0943 35.6947L96.4613 26.3614Z" fill="white"/>
<path d="M103.509 22.5833L101.943 23.0251L104.576 32.3584L106.143 31.9166L103.509 22.5833Z" fill="white"/>
<path d="M97.8489 9.34145C102.419 10.4784 103.489 14.1789 100.212 17.6119C96.9349 21.0449 90.5816 22.8952 85.9893 21.736C81.4194 20.5991 80.3493 16.8986 83.6263 13.4655C86.9033 10.0548 93.2566 8.20454 97.8489 9.34145Z" fill="#070707"/>
<path d="M88.8893 22.8973C87.8193 22.8973 86.7716 22.7858 85.813 22.5406C83.3163 21.9164 81.6444 20.5566 81.1094 18.7063C80.5744 16.8561 81.2654 14.7829 83.0711 12.9103C86.5264 9.299 93.2586 7.33728 98.0738 8.54106C100.57 9.16525 102.242 10.5251 102.777 12.3753C103.312 14.2256 102.621 16.2988 100.816 18.1713C98.0515 21.0693 93.1917 22.8973 88.8893 22.8973ZM94.886 9.83401C91.0294 9.83401 86.6824 11.4613 84.208 14.0473C82.8259 15.4963 82.2686 16.9898 82.6475 18.2605C83.0265 19.5312 84.2749 20.4897 86.192 20.9579C90.5167 22.0279 96.5356 20.2891 99.6342 17.0567C101.016 15.6077 101.574 14.1141 101.195 12.8435C100.838 11.5728 99.5673 10.6142 97.6502 10.1461C96.7808 9.92318 95.8445 9.83401 94.886 9.83401Z" fill="white"/>
<path d="M85.829 21.1704C85.6952 21.3041 85.6952 21.3041 85.5837 21.4602C85.7621 21.5048 85.8067 21.7054 86.0073 21.75C90.5773 22.8869 96.953 21.0366 100.23 17.6259C100.364 17.4921 100.297 17.2915 100.431 17.1577C100.252 17.1132 100.252 17.0909 100.074 17.0463C95.4593 15.8871 89.106 17.7373 85.829 21.1704Z" fill="#070707"/>
<path d="M88.8839 22.8966C87.8139 22.8966 86.7662 22.7852 85.8076 22.5399C85.5179 22.4731 85.3395 22.2947 85.228 22.1833L84.1803 21.8489L85.2503 20.6005C88.7056 16.9892 95.4378 15.0275 100.253 16.2312C100.431 16.2758 100.454 16.2758 100.587 16.3204L101.747 16.6994L101.033 17.658C101.011 17.658 101.055 17.9255 100.81 18.1707C98.046 21.0687 93.1863 22.8966 88.8839 22.8966ZM87.056 21.1355C90.9794 21.7597 95.9952 20.3107 99.0046 17.658C95.0589 17.0338 90.0432 18.4828 87.056 21.1355Z" fill="white"/>
</svg>
