<svg width="703" height="236" viewBox="0 0 703 236" fill="none" xmlns="http://www.w3.org/2000/svg">
<path d="M243.071 65.024C241.465 67.3173 239.344 70.4133 236.707 74.312C234.069 78.2107 231.203 82.5107 228.107 87.212C225.011 91.7987 221.857 96.5573 218.647 101.488C215.436 106.419 212.455 111.005 209.703 115.248H243.415V65.024H243.071ZM198.351 134.168C198.58 132.677 198.752 131.244 198.867 129.868C199.096 128.492 199.211 127.116 199.211 125.74C199.211 124.364 199.096 122.988 198.867 121.612C198.752 120.236 198.58 118.86 198.351 117.484C206.263 105.329 214.06 93.3467 221.743 81.536C229.54 69.6107 237.567 57.5707 245.823 45.416C247.772 45.6453 249.607 45.8747 251.327 46.104C253.161 46.2187 255.053 46.276 257.003 46.276C258.952 46.276 260.787 46.2187 262.507 46.104C264.341 45.8747 266.233 45.6453 268.183 45.416C267.839 48.0533 267.552 51.8947 267.323 56.94C267.093 61.9853 266.921 67.7187 266.807 74.14C266.692 80.4467 266.577 87.212 266.463 94.436C266.463 101.66 266.463 108.827 266.463 115.936L281.599 114.732C281.369 116.452 281.197 118.172 281.083 119.892C280.968 121.612 280.911 123.275 280.911 124.88C280.911 126.485 280.968 128.148 281.083 129.868C281.197 131.588 281.369 133.251 281.599 134.856L266.463 133.824C266.463 138.64 266.52 143.341 266.635 147.928C266.864 152.515 267.323 156.987 268.011 161.344C265.832 161.115 263.653 161 261.475 161C259.296 161 257.117 161 254.939 161C252.76 161 250.581 161 248.403 161C246.224 161 244.045 161.115 241.867 161.344L243.415 134.168H198.351ZM365.821 103.896C365.821 93.3467 365.534 84.7467 364.961 78.096C364.388 71.4453 363.47 66.228 362.209 62.444C361.062 58.66 359.572 56.08 357.737 54.704C355.902 53.2133 353.724 52.468 351.201 52.468C348.678 52.468 346.442 53.2133 344.493 54.704C342.658 56.1947 341.11 58.832 339.849 62.616C338.588 66.4 337.67 71.5027 337.097 77.924C336.524 84.2307 336.237 92.3147 336.237 102.176C336.237 111.579 336.352 119.72 336.581 126.6C336.925 133.365 337.613 138.927 338.645 143.284C339.677 147.641 341.168 150.852 343.117 152.916C345.066 154.98 347.646 156.012 350.857 156.012C353.38 156.012 355.558 155.324 357.393 153.948C359.342 152.572 360.89 149.992 362.037 146.208C363.298 142.309 364.216 136.977 364.789 130.212C365.477 123.447 365.821 114.675 365.821 103.896ZM309.921 103.724C309.921 85.0333 313.59 70.6427 320.929 60.552C328.268 50.4613 338.702 45.416 352.233 45.416C364.732 45.416 374.478 50.06 381.473 59.348C388.582 68.636 392.137 82.568 392.137 101.144C392.137 120.867 388.754 136.175 381.989 147.068C375.224 157.847 364.904 163.236 351.029 163.236C343.92 163.236 337.785 161.917 332.625 159.28C327.465 156.528 323.165 152.572 319.725 147.412C316.4 142.252 313.934 136.003 312.329 128.664C310.724 121.211 309.921 112.897 309.921 103.724ZM461.739 65.024C460.134 67.3173 458.012 70.4133 455.375 74.312C452.738 78.2107 449.871 82.5107 446.775 87.212C443.679 91.7987 440.526 96.5573 437.315 101.488C434.104 106.419 431.123 111.005 428.371 115.248H462.083V65.024H461.739ZM417.019 134.168C417.248 132.677 417.42 131.244 417.535 129.868C417.764 128.492 417.879 127.116 417.879 125.74C417.879 124.364 417.764 122.988 417.535 121.612C417.42 120.236 417.248 118.86 417.019 117.484C424.931 105.329 432.728 93.3467 440.411 81.536C448.208 69.6107 456.235 57.5707 464.491 45.416C466.44 45.6453 468.275 45.8747 469.995 46.104C471.83 46.2187 473.722 46.276 475.671 46.276C477.62 46.276 479.455 46.2187 481.175 46.104C483.01 45.8747 484.902 45.6453 486.851 45.416C486.507 48.0533 486.22 51.8947 485.991 56.94C485.762 61.9853 485.59 67.7187 485.475 74.14C485.36 80.4467 485.246 87.212 485.131 94.436C485.131 101.66 485.131 108.827 485.131 115.936L500.267 114.732C500.038 116.452 499.866 118.172 499.751 119.892C499.636 121.612 499.579 123.275 499.579 124.88C499.579 126.485 499.636 128.148 499.751 129.868C499.866 131.588 500.038 133.251 500.267 134.856L485.131 133.824C485.131 138.64 485.188 143.341 485.303 147.928C485.532 152.515 485.991 156.987 486.679 161.344C484.5 161.115 482.322 161 480.143 161C477.964 161 475.786 161 473.607 161C471.428 161 469.25 161 467.071 161C464.892 161 462.714 161.115 460.535 161.344L462.083 134.168H417.019Z" fill="black"/>
<path d="M34.8598 70.9365C34.1126 74.3277 29.5016 76.1448 24.5919 74.9691C19.6823 73.7934 16.2969 70.0914 17.0649 66.671C17.812 63.2799 22.4231 61.4628 27.3327 62.6385C32.2424 63.8142 35.607 67.5454 34.8598 70.9365Z" fill="white"/>
<path d="M35.2586 73.3703C34.4901 74.4527 33.323 75.3379 31.8402 75.9091C29.6563 76.7726 27.0045 76.9043 24.3486 76.2831C18.7068 74.9368 14.9038 70.4949 15.7869 66.4065C16.224 64.3371 17.7706 62.6645 20.1269 61.7479C22.3109 60.8844 24.9627 60.7528 27.6185 61.374C30.2744 61.9951 32.6131 63.3158 34.227 65.0884C35.969 66.9967 36.6678 69.1731 36.1802 71.2505C36.0029 72.006 35.7155 72.7268 35.2586 73.3703ZM18.9018 65.8122C18.6526 66.1632 18.4629 66.5568 18.3833 66.9851C17.8132 69.6211 20.7996 72.6846 24.8979 73.6763C27.0125 74.1749 29.0994 74.0801 30.7753 73.4265C32.3086 72.8474 33.2972 71.8343 33.5451 70.6001C33.8229 69.3872 33.3482 68.0329 32.2464 66.8033C31.0166 65.4379 29.145 64.4075 27.0305 63.9089C24.9159 63.4104 22.829 63.5051 21.1531 64.1586C20.1667 64.5998 19.3795 65.1394 18.9018 65.8122Z" fill="black"/>
<path d="M39.7626 50.3349C39.7626 50.3349 43.4595 44.5666 56.4736 48.0208C69.4877 51.4751 74.0688 45.5417 74.0688 45.5417L76.4322 34.9262C76.5777 34.2778 75.8599 33.765 75.2957 34.1144C72.2805 35.9438 65.2158 39.2178 57.8523 36.1265C49.4454 32.5997 42.7763 36.776 42.4645 38.1022L35.2676 70.6692L39.7626 50.3349Z" fill="white"/>
<path d="M75.3266 46.1892L75.1596 46.4239C74.9718 46.688 69.909 52.9828 56.185 49.3287C45.4192 46.4604 41.6669 50.1515 41.002 50.9597L36.5857 70.9913L33.9683 70.3604L41.1626 37.7997C41.4118 36.5617 43.1337 35.5352 44.1366 35.0127C45.6708 34.2503 51.2559 31.9129 58.366 34.9128C65.2758 37.8139 72.0245 34.5377 74.5971 33.0127C75.3044 32.5888 76.2244 32.6265 76.9121 33.1178C77.5998 33.6091 77.9355 34.4685 77.7664 35.2769L75.3266 46.1892ZM41.8746 47.0698C44.5848 45.7316 49.2908 44.7572 56.8266 46.778C67.5118 49.6329 71.9629 45.91 72.8636 44.9606L74.8581 35.9426C71.378 37.7927 64.5327 40.3804 57.3719 37.3885C49.9211 34.2337 44.1285 37.7504 43.7563 38.5908L41.8746 47.0698Z" fill="black"/>
<path fill-rule="evenodd" clip-rule="evenodd" d="M5.5 170H8.50589V175.5H14V178.5H8.50589V184H5.5V178.5H0V175.5H5.5V170Z" fill="black"/>
<path d="M596.477 99.447C599.769 99.447 602.438 96.778 602.438 93.4856C602.438 90.1932 599.769 87.5242 596.477 87.5242C593.185 87.5242 590.516 90.1932 590.516 93.4856C590.516 96.778 593.185 99.447 596.477 99.447Z" fill="white"/>
<path d="M596.483 100.965C592.371 100.965 589 97.5939 589 93.4826C589 89.3713 592.371 86 596.483 86C600.594 86 603.965 89.3713 603.965 93.4826C603.965 97.5939 600.594 100.965 596.483 100.965ZM596.483 89.0424C594.016 89.0424 592.042 91.0569 592.042 93.5237C592.042 95.9905 594.057 97.9639 596.483 97.9639C598.949 97.9639 600.964 95.9494 600.964 93.5237C600.923 91.0158 598.949 89.0424 596.483 89.0424Z" fill="black"/>
<path d="M668.3 198.03L656.431 151.716C655.729 148.977 657.379 146.168 660.118 145.465L683.328 139.496C686.067 138.794 688.876 140.444 689.578 143.183L701.447 189.498C702.149 192.237 700.499 195.046 697.76 195.748L674.55 201.717C671.811 202.42 669.002 200.769 668.3 198.03Z" fill="white"/>
<path d="M673.285 203.162C672.161 203.162 671.038 202.846 670.019 202.249C668.545 201.371 667.491 199.966 667.07 198.316L655.201 152.001C654.324 148.56 656.395 145.084 659.836 144.171L683.047 138.201C686.488 137.324 689.964 139.395 690.877 142.836L702.745 189.151C703.623 192.592 701.551 196.104 698.11 196.982L674.9 202.951C674.338 203.091 673.812 203.162 673.285 203.162ZM684.627 140.624C684.311 140.624 683.995 140.659 683.679 140.73L660.469 146.699C658.432 147.226 657.168 149.333 657.695 151.369L669.563 197.684C669.809 198.667 670.441 199.51 671.319 200.037C672.196 200.563 673.25 200.704 674.233 200.458L697.443 194.489C699.48 193.962 700.744 191.855 700.217 189.819L688.349 143.504C687.927 141.783 686.347 140.624 684.627 140.624Z" fill="black"/>
<path d="M691.938 190.653L691.341 188.336L693.834 187.704L694.431 190.021L691.938 190.653ZM689.656 181.664L687.935 175.028L690.428 174.396L692.149 181.032L689.656 181.664ZM686.25 168.391L684.529 161.755L687.022 161.123L688.743 167.759L686.25 168.391ZM682.844 155.083L681.123 148.447L683.616 147.815L685.337 154.451L682.844 155.083Z" fill="black"/>
<path d="M674.983 195.049L674.386 192.731L676.879 192.099L677.476 194.417L674.983 195.049ZM672.701 186.06L670.98 179.423L673.473 178.791L675.194 185.428L672.701 186.06ZM669.295 172.752L667.574 166.115L670.067 165.483L671.788 172.12L669.295 172.752ZM665.889 159.479L664.168 152.842L666.661 152.21L668.382 158.847L665.889 159.479Z" fill="black"/>
<path d="M670.626 36.8866C669.37 36.8866 668.114 36.367 667.248 35.371L662.831 30.3908C662.528 30.0444 662.095 29.9145 661.662 29.9578L655.079 30.7806C653.347 30.9971 651.701 30.2176 650.749 28.7886C649.796 27.3595 649.753 25.4974 650.619 24.025L654.04 18.2654C654.256 17.8756 654.3 17.3993 654.083 17.0095L651.268 10.9901C650.532 9.4311 650.749 7.61228 651.831 6.26981C652.914 4.92735 654.646 4.32108 656.335 4.66752L662.831 6.09659C663.264 6.1832 663.697 6.05329 664.043 5.75015L668.894 1.20311C670.149 0.0338631 671.968 -0.312592 673.571 0.293682C675.173 0.899956 676.299 2.37235 676.472 4.06125L677.122 10.687C677.165 11.12 677.425 11.5098 677.815 11.7263L683.617 14.9309C685.133 15.7537 685.999 17.356 685.956 19.0882C685.869 20.8204 684.83 22.2928 683.271 22.9856L677.165 25.6273C676.775 25.8005 676.472 26.1469 676.385 26.58L675.13 33.1191C674.783 34.808 673.571 36.1505 671.882 36.6268C671.449 36.8433 671.016 36.8866 670.626 36.8866ZM661.878 26.7532C663.177 26.7532 664.39 27.3162 665.256 28.2689L669.673 33.249C670.149 33.812 670.799 33.7253 671.016 33.6387C671.275 33.5521 671.838 33.3356 671.968 32.5994L673.224 26.0603C673.527 24.5879 674.48 23.3754 675.866 22.7691L681.972 20.1275C682.665 19.8244 682.751 19.2181 682.751 18.9583C682.751 18.6984 682.708 18.0921 682.058 17.7024L676.256 14.4978C674.956 13.7616 674.09 12.4625 673.96 10.9901L673.311 4.36439C673.224 3.6282 672.704 3.32505 672.445 3.23844C672.185 3.15183 671.622 2.97862 671.059 3.49828L666.209 8.04533C665.126 9.04135 663.61 9.4744 662.181 9.12796L655.685 7.69889C654.949 7.52567 654.516 7.95871 654.343 8.17524C654.17 8.39177 653.867 8.91144 654.17 9.56102L656.985 15.5805C657.591 16.9229 657.548 18.4819 656.768 19.781L653.39 25.4973C653 26.1469 653.304 26.7099 653.434 26.9264C653.563 27.143 653.953 27.6193 654.689 27.5327L661.272 26.7099C661.488 26.7965 661.705 26.7532 661.878 26.7532Z" fill="black"/>
<path d="M118.626 235.887C117.37 235.887 116.114 235.367 115.248 234.371L110.831 229.391C110.528 229.044 110.095 228.914 109.662 228.958L103.079 229.781C101.347 229.997 99.7013 229.218 98.7486 227.789C97.7958 226.359 97.7525 224.497 98.6187 223.025L102.04 217.265C102.256 216.876 102.3 216.399 102.083 216.01L99.2682 209.99C98.532 208.431 98.7486 206.612 99.8312 205.27C100.914 203.927 102.646 203.321 104.335 203.668L110.831 205.097C111.264 205.183 111.697 205.053 112.043 204.75L116.894 200.203C118.149 199.034 119.968 198.687 121.571 199.294C123.173 199.9 124.299 201.372 124.472 203.061L125.122 209.687C125.165 210.12 125.425 210.51 125.815 210.726L131.617 213.931C133.133 214.754 133.999 216.356 133.956 218.088C133.869 219.82 132.83 221.293 131.271 221.986L125.165 224.627C124.775 224.8 124.472 225.147 124.385 225.58L123.13 232.119C122.783 233.808 121.571 235.15 119.882 235.627C119.449 235.843 119.016 235.887 118.626 235.887ZM109.878 225.753C111.177 225.753 112.39 226.316 113.256 227.269L117.673 232.249C118.149 232.812 118.799 232.725 119.016 232.639C119.275 232.552 119.838 232.336 119.968 231.599L121.224 225.06C121.527 223.588 122.48 222.375 123.866 221.769L129.972 219.128C130.665 218.824 130.751 218.218 130.751 217.958C130.751 217.698 130.708 217.092 130.058 216.702L124.256 213.498C122.956 212.762 122.09 211.462 121.96 209.99L121.311 203.364C121.224 202.628 120.704 202.325 120.445 202.238C120.185 202.152 119.622 201.979 119.059 202.498L114.209 207.045C113.126 208.041 111.61 208.474 110.181 208.128L103.685 206.699C102.949 206.526 102.516 206.959 102.343 207.175C102.17 207.392 101.867 207.911 102.17 208.561L104.985 214.58C105.591 215.923 105.548 217.482 104.768 218.781L101.39 224.497C101 225.147 101.304 225.71 101.434 225.926C101.563 226.143 101.953 226.619 102.689 226.533L109.272 225.71C109.488 225.797 109.705 225.753 109.878 225.753Z" fill="black"/>
</svg>
