<svg width="16" height="16" viewBox="0 0 16 16" fill="none" xmlns="http://www.w3.org/2000/svg">
<path fill-rule="evenodd" clip-rule="evenodd" d="M1.2 1.2V14.8H14.8V1.2H1.2ZM0.6 0C0.268629 0 0 0.26863 0 0.6V15.4C0 15.7314 0.26863 16 0.6 16H15.4C15.7314 16 16 15.7314 16 15.4V0.6C16 0.268629 15.7314 0 15.4 0H0.6Z" fill="black"/>
<path fill-rule="evenodd" clip-rule="evenodd" d="M11.1939 7.50436C11.6014 7.04589 12.2891 6.96858 12.7883 7.32512L15.8494 9.51163L15.1519 10.4881L12.0908 8.3016L8.82756 11.9727C8.40333 12.45 7.67965 12.5114 7.18103 12.1125L5.56792 10.8221L1.44664 15.4013L0.554688 14.5985L4.67597 10.0193C5.10122 9.54679 5.82116 9.4879 6.31755 9.88501L7.93067 11.1755L11.1939 7.50436Z" fill="black"/>
<path fill-rule="evenodd" clip-rule="evenodd" d="M6 5.8C6.44183 5.8 6.8 5.44183 6.8 5C6.8 4.55817 6.44183 4.2 6 4.2C5.55817 4.2 5.2 4.55817 5.2 5C5.2 5.44183 5.55817 5.8 6 5.8ZM6 7C7.10457 7 8 6.10457 8 5C8 3.89543 7.10457 3 6 3C4.89543 3 4 3.89543 4 5C4 6.10457 4.89543 7 6 7Z" fill="black"/>
</svg>
