<svg width="50" height="70" viewBox="0 0 50 70" fill="none" xmlns="http://www.w3.org/2000/svg">
<rect width="50" height="70" rx="8" fill="white"/>
<path d="M42.9725 35H6.91118C6.10162 35 5.63983 34.0882 6.10486 33.4256L18.9183 15.1664C19.3165 14.599 20.1572 14.599 20.5554 15.1664L27.4268 24.9582C27.7991 25.4887 28.5698 25.5304 28.9972 25.0432L32.62 20.9132C33.035 20.4401 33.7787 20.4634 34.1633 20.9616L43.7564 33.3889C44.2638 34.0463 43.8029 35 42.9725 35Z" fill="#C8C8C8"/>
<circle cx="41" cy="12" r="4" fill="#C8C8C8"/>
<rect x="6" y="43" width="38" height="3" rx="1" fill="#C8C8C8"/>
<rect x="6" y="50" width="38" height="3" rx="1" fill="#C8C8C8"/>
<rect x="6" y="57" width="24" height="3" rx="1" fill="#C8C8C8"/>
</svg>
