<svg width="24" height="24" viewBox="0 0 24 24" fill="none" xmlns="http://www.w3.org/2000/svg">
<path d="M23.8049 10.1103C23.8049 9.60568 23.3948 9.19564 22.8902 9.19564C22.3855 9.19564 21.9755 9.60568 21.9755 10.1103V12.4214C21.9755 12.453 21.9784 12.4874 21.9812 12.5189V21.9812H1.83225V1.83225H21.9812V2.00716C21.9784 2.0387 21.9755 2.07024 21.9755 2.10465V4.48743C21.9755 4.99208 22.3855 5.40212 22.8902 5.40212C23.3948 5.40212 23.8049 4.99208 23.8049 4.48743V2.93045H23.8106V1.83225C23.8106 0.822934 22.9877 0 21.9784 0H1.83225C0.822934 0.00286737 0 0.822934 0 1.83225V21.9812C0 22.9905 0.822934 23.8135 1.83225 23.8135H21.9812C22.9905 23.8135 23.8135 22.9905 23.8135 21.9812V11.0967H23.8077V10.1103H23.8049Z" fill="white"/>
<path d="M11.9061 18.5546C12.4107 18.5546 12.8208 18.1445 12.8208 17.6399V12.3697H16.7032C17.2078 12.3697 17.6179 11.9596 17.6179 11.455C17.6179 10.9503 17.2078 10.5403 16.7032 10.5403H12.8236V6.97328C12.8236 6.46863 12.4136 6.05859 11.9089 6.05859C11.4043 6.05859 10.9942 6.46863 10.9942 6.97328V10.5374H7.1061C6.60144 10.5374 6.19141 10.9475 6.19141 11.4521C6.19141 11.9568 6.60144 12.3668 7.1061 12.3668H10.9885V17.637C10.9914 18.1445 11.4014 18.5546 11.9061 18.5546Z" fill="white"/>
<path d="M21.811 7.53275C21.8445 7.67458 21.9055 7.80843 21.9908 7.92666C22.076 8.04488 22.1836 8.14516 22.3076 8.22178C22.4316 8.29839 22.5694 8.34984 22.7133 8.37317C22.8571 8.39651 23.0041 8.39129 23.146 8.3578C23.2878 8.3243 23.4217 8.2632 23.5399 8.17798C23.6581 8.09276 23.7584 7.98509 23.835 7.86112C23.9116 7.73714 23.963 7.59929 23.9863 7.45544C24.0097 7.31158 24.0044 7.16455 23.9709 7.02272C23.9374 6.88088 23.8763 6.74703 23.7911 6.62881C23.7059 6.51058 23.5983 6.4103 23.4743 6.33369C23.3503 6.25707 23.2125 6.20563 23.0686 6.18229C22.9248 6.15895 22.7777 6.16418 22.6359 6.19767C22.4941 6.23116 22.3602 6.29226 22.242 6.37748C22.1238 6.4627 22.0235 6.57037 21.9469 6.69435C21.8703 6.81832 21.8189 6.95617 21.7956 7.10003C21.7722 7.24388 21.7775 7.39092 21.811 7.53275Z" fill="white"/>
</svg>
