<svg width="25" height="21" viewBox="0 0 25 21" fill="none" xmlns="http://www.w3.org/2000/svg">
<path d="M14.7723 18.5559H3.69307C3.61127 18.5652 3.52867 18.5652 3.44687 18.5559C3.36699 18.5379 3.28876 18.5134 3.21297 18.4825C3.14013 18.452 3.07011 18.4152 3.0037 18.3725C2.94149 18.327 2.88189 18.278 2.8252 18.2258C2.77032 18.1678 2.71894 18.1065 2.67132 18.0425C2.62838 17.9765 2.59131 17.907 2.56053 17.8347C2.52076 17.754 2.48782 17.6702 2.46205 17.5841C2.45295 17.5008 2.45295 17.4168 2.46205 17.3335V5.56808C2.46205 5.24389 2.33235 4.93297 2.10149 4.70373C1.87063 4.47449 1.55752 4.3457 1.23103 4.3457C0.904542 4.3457 0.591427 4.47449 0.360565 4.70373C0.129704 4.93297 7.47955e-06 5.24389 7.47955e-06 5.56808V17.3335C-0.000987964 17.8246 0.097388 18.311 0.289298 18.7637C0.38413 18.9767 0.497398 19.1812 0.627828 19.3749C0.896148 19.7718 1.23634 20.1158 1.63111 20.3894C1.82611 20.519 2.03205 20.6314 2.24662 20.7256C2.70529 20.9128 3.19722 21.0063 3.69307 21.0006H14.7723C15.0988 21.0006 15.4119 20.8718 15.6427 20.6426C15.8736 20.4134 16.0033 20.1024 16.0033 19.7783C16.0033 19.4541 15.8736 19.1431 15.6427 18.9139C15.4119 18.6847 15.0988 18.5559 14.7723 18.5559ZM23.3894 4.3457C23.2278 4.3457 23.0677 4.37732 22.9183 4.43875C22.769 4.50018 22.6333 4.59022 22.519 4.70373C22.4046 4.81724 22.314 4.95199 22.2521 5.1003C22.1902 5.2486 22.1584 5.40756 22.1584 5.56808V17.3335C22.1678 17.4147 22.1678 17.4967 22.1584 17.578C22.1403 17.6573 22.1156 17.735 22.0845 17.8102C22.0538 17.8826 22.0167 17.9521 21.9737 18.018C21.9279 18.0798 21.8786 18.139 21.826 18.1953C21.7676 18.2498 21.7059 18.3008 21.6414 18.3481C21.575 18.3907 21.5049 18.4275 21.4321 18.4581C21.3581 18.488 21.282 18.5125 21.2044 18.5314C21.1133 18.5505 21.0204 18.5587 20.9274 18.5559H19.6964C19.3699 18.5559 19.0568 18.6847 18.8259 18.9139C18.595 19.1431 18.4653 19.4541 18.4653 19.7783C18.4653 20.1024 18.595 20.4134 18.8259 20.6426C19.0568 20.8718 19.3699 21.0006 19.6964 21.0006H20.9274C21.422 21.0016 21.9118 20.9039 22.3677 20.7134C22.5822 20.6192 22.7882 20.5067 22.9832 20.3772C23.3829 20.1108 23.7294 19.773 24.0049 19.381C24.1354 19.1874 24.2486 18.9829 24.3435 18.7698C24.532 18.3143 24.6262 17.8259 24.6204 17.3335V5.56808C24.6204 5.24389 24.4907 4.93297 24.2599 4.70373C24.029 4.47449 23.7159 4.3457 23.3894 4.3457Z" fill="white"/>
<path d="M18.4647 9.17615C18.3488 9.0592 18.2112 8.96642 18.0598 8.90312C17.9084 8.83982 17.746 8.80723 17.5821 8.80723C17.4182 8.80723 17.2558 8.83982 17.1044 8.90312C16.9529 8.96642 16.8154 9.0592 16.6995 9.17615L13.5371 12.3648V1.25787C13.5371 0.924261 13.4057 0.604317 13.1717 0.368421C12.9378 0.132525 12.6205 0 12.2896 0C11.9588 0 11.6415 0.132525 11.4075 0.368421C11.1736 0.604317 11.0421 0.924261 11.0421 1.25787V12.3648L7.87975 9.17615C7.64283 8.95891 7.33213 8.84186 7.01198 8.84923C6.69183 8.8566 6.38675 8.98783 6.15991 9.21575C5.93307 9.44367 5.80185 9.75082 5.7934 10.0736C5.78496 10.3964 5.89995 10.7101 6.11455 10.9497L11.4101 16.2894C11.6439 16.5237 11.9601 16.6552 12.2896 16.6552C12.6192 16.6552 12.9354 16.5237 13.1691 16.2894L18.4647 10.9497C18.697 10.7141 18.8275 10.3953 18.8275 10.0629C18.8275 9.73063 18.697 9.41183 18.4647 9.17615Z" fill="white"/>
</svg>
