<svg width="177" height="175" viewBox="0 0 177 175" fill="none" xmlns="http://www.w3.org/2000/svg">
<path d="M46.1867 97.8322L40.1604 142.974C38.6022 142.932 37.1491 142.178 36.2185 140.928L2.06338 95.029C1.13309 93.7864 0.826969 92.1846 1.23351 90.6866L46.1867 97.8322Z" fill="#4B6BF3" stroke="#0D052C" stroke-width="1.5" stroke-linecap="round" stroke-linejoin="round"/>
<path d="M119.11 84.1682L97.6196 80.7329L89.0797 79.3723L74.1516 76.9937L77.8908 49.1639L80.1826 31.8861C81.7403 31.9294 83.1925 32.683 84.1245 33.9319L118.28 79.8114C119.213 81.0581 119.519 82.6657 119.11 84.1682Z" fill="#4B6BF3" stroke="#0D052C" stroke-width="1.5" stroke-linecap="round" stroke-linejoin="round"/>
<g opacity="0.4">
<path d="M46.1867 97.8322L40.1604 142.974C38.6022 142.932 37.1491 142.178 36.2185 140.928L2.06338 95.029C1.13309 93.7864 0.826969 92.1846 1.23351 90.6866L46.1867 97.8322Z" fill="white" stroke="#0D052C" stroke-width="1.5" stroke-linecap="round" stroke-linejoin="round"/>
<path d="M119.11 84.1683L97.6196 80.733L89.0797 79.3723L74.1516 76.9937L77.8908 49.1639L80.1826 31.8861C81.7403 31.9294 83.1925 32.683 84.1245 33.9319L118.28 79.8114C119.213 81.0581 119.519 82.6657 119.11 84.1683Z" fill="white" stroke="#0D052C" stroke-width="1.5" stroke-linecap="round" stroke-linejoin="round"/>
</g>
<path d="M119.11 84.1682C119.071 84.313 119.028 84.4577 118.979 84.5928C118.931 84.7279 118.897 84.8003 118.849 84.9064C118.801 85.0126 118.777 85.0753 118.733 85.1573C118.659 85.3122 118.572 85.4606 118.473 85.6012C118.425 85.6832 118.371 85.7604 118.318 85.8376L118.289 85.8714L118.14 86.0692C118.058 86.1657 117.981 86.2526 117.894 86.3443C117.813 86.4327 117.728 86.5165 117.638 86.5951C117.513 86.7109 117.378 86.8219 117.238 86.9281L43.3402 141.931C42.903 142.262 42.4139 142.518 41.8927 142.689L41.6177 142.771L41.4103 142.819C41.213 142.863 41.0132 142.896 40.812 142.916C40.5982 142.928 40.384 142.928 40.1703 142.916L46.1965 97.7936L48.4352 81.0466C48.7136 78.9392 49.8311 77.0335 51.5344 75.7618C53.2376 74.49 55.3822 73.9599 57.4818 74.2918L74.1614 76.9503L89.0895 79.3289L97.6295 80.6895L119.11 84.1682Z" fill="#4B6BF3" stroke="#0D052C" stroke-width="1.5" stroke-linecap="round" stroke-linejoin="round"/>
<path d="M80.1826 31.8861L77.8908 49.1639L74.1709 77.0082L72.0335 92.9929L71.9321 93.7504C71.6575 95.8585 70.5416 97.7659 68.8385 99.0382C67.1353 100.311 64.9898 100.84 62.8904 100.505L61.9929 100.36L46.206 97.8467L1.23355 90.6721C1.52361 89.5652 2.18434 88.5911 3.10559 87.9123L77.0031 32.909C77.9163 32.2174 79.0375 31.8567 80.1826 31.8861Z" fill="#2247E7" stroke="#0D052C" stroke-width="1.5" stroke-linecap="round" stroke-linejoin="round"/>
<path d="M39.1186 77.4231L46.7178 87.2321" stroke="#0D052C" stroke-width="1.5" stroke-linecap="round" stroke-linejoin="round"/>
<path d="M43.8043 78.0455L48.2094 83.734" stroke="#0D052C" stroke-width="1.5" stroke-linecap="round" stroke-linejoin="round"/>
<path d="M38.9934 82.6967L43.1573 88.0667" stroke="#0D052C" stroke-width="1.5" stroke-linecap="round" stroke-linejoin="round"/>
<path d="M46.7225 77.1191L39.1958 86.8316" stroke="#0D052C" stroke-width="1.5" stroke-linecap="round" stroke-linejoin="round"/>
<path d="M42.2067 77.5244L39.5964 80.8874" stroke="#0D052C" stroke-width="1.5" stroke-linecap="round" stroke-linejoin="round"/>
<path d="M48.0733 80.8005L43.4897 86.7158" stroke="#0D052C" stroke-width="1.5" stroke-linecap="round" stroke-linejoin="round"/>
<path d="M102.879 102.247L78.4846 140.682C77.0928 139.991 76.0924 138.703 75.7682 137.184L63.9956 81.2154C63.6729 79.6917 64.0698 78.1043 65.0715 76.9117L102.879 102.247Z" fill="#D9837C" stroke="#0D052C" stroke-width="1.5" stroke-linecap="round" stroke-linejoin="round"/>
<path d="M174.813 120.427L156.739 108.307L137.006 95.0724L161.395 56.6376C162.794 57.3254 163.798 58.6194 164.117 60.1453L175.889 116.114C176.215 117.64 175.818 119.232 174.813 120.427V120.427Z" fill="#D9837C" stroke="#0D052C" stroke-width="1.5" stroke-linecap="round" stroke-linejoin="round"/>
<g opacity="0.5">
<path d="M102.879 102.247L78.4842 140.682C77.0923 139.991 76.0919 138.703 75.7678 137.184L63.9951 81.2154C63.6725 79.6917 64.0693 78.1043 65.0711 76.9117L102.879 102.247Z" fill="white" stroke="#0D052C" stroke-width="1.5" stroke-linecap="round" stroke-linejoin="round"/>
<path d="M174.813 120.427L156.739 108.307L137.005 95.0724L161.395 56.6376C162.794 57.3254 163.798 58.6194 164.116 60.1453L175.889 116.114C176.214 117.64 175.817 119.232 174.813 120.427V120.427Z" fill="white" stroke="#0D052C" stroke-width="1.5" stroke-linecap="round" stroke-linejoin="round"/>
</g>
<path d="M174.813 120.427L174.789 120.456C174.707 120.548 174.634 120.634 174.552 120.717C174.462 120.811 174.367 120.902 174.268 120.987C174.176 121.074 174.07 121.156 173.969 121.238V121.238C173.873 121.311 173.773 121.378 173.669 121.44C173.596 121.491 173.521 121.537 173.443 121.58C173.363 121.628 173.281 121.672 173.197 121.71C172.807 121.907 172.393 122.051 171.966 122.14L81.8042 141.102C81.452 141.175 81.0929 141.21 80.7331 141.208C80.6173 141.208 80.4919 141.208 80.3761 141.208H80.2506L80.0239 141.179C79.8955 141.162 79.7682 141.138 79.6427 141.106C79.617 141.109 79.5912 141.109 79.5655 141.106L79.3773 141.053L79.1747 140.991C79.0183 140.943 78.8651 140.885 78.7163 140.817L78.5282 140.73H78.4944L102.889 102.295L117.513 112.099C119.129 113.175 121.11 113.551 123.007 113.143C124.905 112.735 126.557 111.577 127.587 109.933L137.02 95.0724L156.753 108.307L174.813 120.427Z" fill="#D9837C" stroke="#0D052C" stroke-width="1.5" stroke-linecap="round" stroke-linejoin="round"/>
<path d="M146.307 58.693L158.09 56.213C159.208 55.9782 160.372 56.1278 161.395 56.6376L152.059 71.3534L127.934 109.335C126.797 111.127 124.984 112.384 122.906 112.821C120.829 113.258 118.663 112.838 116.9 111.655L65.0569 76.9165C65.7863 76.0361 66.7937 75.4303 67.9133 75.1988L138.018 60.4493" fill="#F44336"/>
<path d="M146.307 58.693L158.09 56.213C159.208 55.9782 160.372 56.1278 161.395 56.6376L152.059 71.3534L127.934 109.335C126.797 111.127 124.984 112.384 122.906 112.821C120.829 113.258 118.663 112.838 116.9 111.655L65.0569 76.9165C65.7863 76.0361 66.7937 75.4303 67.9133 75.1988L138.018 60.4493" stroke="#0D052C" stroke-width="1.5" stroke-linecap="round" stroke-linejoin="round"/>
<path d="M110.975 86.3201L114.14 92.0038" stroke="#0D052C" stroke-width="1.5" stroke-linecap="round" stroke-linejoin="round"/>
<path d="M113.335 82.5905L118.705 92.2402" stroke="#0D052C" stroke-width="1.5" stroke-linecap="round" stroke-linejoin="round"/>
<path d="M118.526 83.9511L120.297 87.1307" stroke="#0D052C" stroke-width="1.5" stroke-linecap="round" stroke-linejoin="round"/>
</svg>
