<svg width="25" height="23" viewBox="0 0 25 23" fill="none" xmlns="http://www.w3.org/2000/svg">
<path d="M20.7479 22.1562H15.866C15.617 22.1562 15.3782 22.0573 15.2022 21.8812C15.0262 21.7051 14.9273 21.4664 14.9273 21.2174C14.9273 20.9684 15.0262 20.7297 15.2022 20.5536C15.3782 20.3775 15.617 20.2786 15.866 20.2786H20.7479C20.8723 20.2786 20.9917 20.2291 21.0798 20.1411C21.1678 20.0531 21.2173 19.9337 21.2173 19.8092V14.5283C21.2173 14.2793 21.3162 14.0405 21.4922 13.8644C21.6683 13.6884 21.9071 13.5895 22.1561 13.5895C22.4051 13.5895 22.6439 13.6884 22.8199 13.8644C22.996 14.0405 23.0949 14.2793 23.0949 14.5283V19.8092C23.0949 20.1174 23.0342 20.4226 22.9163 20.7074C22.7983 20.9921 22.6254 21.2508 22.4075 21.4688C22.1895 21.6867 21.9308 21.8596 21.646 21.9776C21.3613 22.0955 21.0561 22.1562 20.7479 22.1562ZM22.1561 7.93306C21.9071 7.93306 21.6683 7.83415 21.4922 7.65808C21.3162 7.48202 21.2173 7.24322 21.2173 6.99423V2.34706C21.2173 2.22256 21.1678 2.10317 21.0798 2.01513C20.9917 1.9271 20.8723 1.87765 20.7479 1.87765H15.866C15.617 1.87761 15.3782 1.77868 15.2022 1.60262C15.0262 1.42656 14.9273 1.18779 14.9273 0.938823C14.9273 0.689857 15.0262 0.451085 15.2022 0.275025C15.3782 0.0989659 15.617 3.77961e-05 15.866 0H20.7479C21.0561 -2.8414e-09 21.3613 0.0607084 21.646 0.178659C21.9308 0.29661 22.1895 0.469493 22.4075 0.687437C22.6254 0.905382 22.7983 1.16412 22.9163 1.44888C23.0342 1.73364 23.0949 2.03884 23.0949 2.34706V6.99423C23.0949 7.24322 22.996 7.48202 22.8199 7.65808C22.6439 7.83415 22.4051 7.93306 22.1561 7.93306V7.93306ZM1.8775 7.93306C1.62851 7.93306 1.38972 7.83415 1.21366 7.65808C1.03759 7.48202 0.938681 7.24322 0.938681 6.99423V2.34706C0.938681 1.72458 1.18596 1.1276 1.62612 0.687437C2.06628 0.247279 2.66326 0 3.28574 0L8.07374 0C8.3227 3.77961e-05 8.56146 0.0989659 8.73749 0.275025C8.91353 0.451085 9.01242 0.689857 9.01242 0.938823C9.01242 1.18779 8.91353 1.42656 8.73749 1.60262C8.56146 1.77868 8.3227 1.87761 8.07374 1.87765H3.28574C3.16124 1.87765 3.04185 1.9271 2.95381 2.01513C2.86578 2.10317 2.81633 2.22256 2.81633 2.34706V6.99423C2.81633 7.11752 2.79204 7.2396 2.74486 7.35351C2.69768 7.46741 2.62853 7.5709 2.54135 7.65808C2.45417 7.74526 2.35068 7.81441 2.23678 7.86159C2.12287 7.90877 2.00079 7.93306 1.8775 7.93306V7.93306ZM8.07374 22.1562H3.28574C2.66326 22.1562 2.06628 21.909 1.62612 21.4688C1.18596 21.0286 0.938681 20.4317 0.938681 19.8092V14.5283C0.938719 14.2793 1.03765 14.0406 1.21371 13.8645C1.38977 13.6885 1.62854 13.5896 1.8775 13.5896C2.12647 13.5896 2.36524 13.6885 2.5413 13.8645C2.71736 14.0406 2.81629 14.2793 2.81633 14.5283V19.8092C2.81633 19.9337 2.86578 20.0531 2.95381 20.1411C3.04185 20.2291 3.16124 20.2786 3.28574 20.2786H8.07374C8.3227 20.2786 8.56146 20.3775 8.73749 20.5536C8.91353 20.7297 9.01242 20.9684 9.01242 21.2174C9.01242 21.4664 8.91353 21.7051 8.73749 21.8812C8.56146 22.0573 8.3227 22.1562 8.07374 22.1562V22.1562ZM23.0949 11.8057H0.938681C0.689714 11.8057 0.450957 11.7067 0.274925 11.5307C0.0988919 11.3546 0 11.1158 0 10.8669C0 10.6179 0.0988919 10.3791 0.274925 10.2031C0.450957 10.027 0.689714 9.92809 0.938681 9.92806H23.0949C23.3439 9.92809 23.5826 10.027 23.7587 10.2031C23.9347 10.3791 24.0336 10.6179 24.0336 10.8669C24.0336 11.1158 23.9347 11.3546 23.7587 11.5307C23.5826 11.7067 23.3439 11.8057 23.0949 11.8057Z" fill="white"/>
</svg>
