<svg width="77" height="102" viewBox="0 0 77 102" fill="none" xmlns="http://www.w3.org/2000/svg">
<path d="M1.73003 88.9149V97.4631H4.6202V88.9149H6.61482V86.9905H4.6202V86.3626C4.6202 85.9304 4.70161 85.6266 4.86444 85.451C5.04083 85.262 5.32578 85.1674 5.71928 85.1674C6.08564 85.1674 6.43843 85.1877 6.77765 85.2282V83.081C6.53341 83.0675 6.28239 83.054 6.02458 83.0405C5.76677 83.0135 5.50896 83 5.25115 83C4.07066 83 3.18868 83.2971 2.60522 83.8913C2.02176 84.4855 1.73003 85.2485 1.73003 86.1803V86.9905H0V88.9149H1.73003Z" fill="white"/>
<path d="M7.75477 90.2113C7.79547 89.5361 7.96508 88.9756 8.2636 88.53C8.56211 88.0843 8.94204 87.7265 9.40338 87.4564C9.86473 87.1863 10.3803 86.9973 10.9502 86.8892C11.5337 86.7677 12.1172 86.7069 12.7006 86.7069C13.2298 86.7069 13.7658 86.7474 14.3085 86.8285C14.8513 86.896 15.3465 87.0378 15.7943 87.2538C16.2421 87.4699 16.6085 87.7738 16.8934 88.1654C17.1783 88.5435 17.3208 89.0499 17.3208 89.6846V95.1336C17.3208 95.6062 17.348 96.0586 17.4022 96.4907C17.4565 96.9229 17.5515 97.247 17.6872 97.4631H14.7563C14.702 97.301 14.6545 97.1389 14.6138 96.9769C14.5867 96.8013 14.5663 96.6258 14.5528 96.4502C14.0914 96.9229 13.5487 97.2537 12.9245 97.4428C12.3003 97.6319 11.6626 97.7264 11.0113 97.7264C10.5092 97.7264 10.0411 97.6656 9.60692 97.5441C9.17271 97.4225 8.79279 97.2335 8.46713 96.9769C8.14148 96.7203 7.88367 96.3962 7.69371 96.0046C7.51731 95.613 7.42911 95.1471 7.42911 94.6069C7.42911 94.0127 7.53088 93.5266 7.73441 93.1484C7.95152 92.7568 8.22289 92.4462 8.54855 92.2167C8.88777 91.9871 9.2677 91.8183 9.68833 91.7102C10.1225 91.5887 10.5567 91.4942 10.9909 91.4267C11.4251 91.3591 11.8526 91.3051 12.2732 91.2646C12.6938 91.2241 13.067 91.1633 13.3926 91.0823C13.7183 91.0013 13.9761 90.8865 14.1661 90.7379C14.356 90.5759 14.4442 90.3463 14.4306 90.0492C14.4306 89.7386 14.3764 89.4955 14.2678 89.32C14.1728 89.1309 14.0372 88.9891 13.8608 88.8946C13.6979 88.7866 13.5012 88.7191 13.2705 88.692C13.0534 88.6515 12.816 88.6313 12.5581 88.6313C11.9883 88.6313 11.5405 88.7528 11.2148 88.9959C10.8892 89.239 10.6992 89.6441 10.6449 90.2113H7.75477ZM14.4306 92.3382C14.3085 92.4462 14.1525 92.534 13.9625 92.6015C13.7861 92.6555 13.5894 92.7028 13.3723 92.7433C13.1687 92.7838 12.9516 92.8176 12.721 92.8446C12.4903 92.8716 12.2596 92.9054 12.029 92.9459C11.8119 92.9864 11.5948 93.0404 11.3777 93.1079C11.1741 93.1755 10.9909 93.27 10.8281 93.3915C10.6789 93.4996 10.5567 93.6413 10.4618 93.8169C10.3668 93.9925 10.3193 94.2153 10.3193 94.4854C10.3193 94.7419 10.3668 94.958 10.4618 95.1336C10.5567 95.3091 10.6856 95.4509 10.8485 95.559C11.0113 95.6535 11.2013 95.721 11.4184 95.7615C11.6355 95.802 11.8593 95.8223 12.09 95.8223C12.6599 95.8223 13.1009 95.7278 13.413 95.5387C13.7251 95.3496 13.9557 95.1268 14.105 94.8702C14.2543 94.6002 14.3425 94.3301 14.3696 94.06C14.4103 93.7899 14.4306 93.5738 14.4306 93.4118V92.3382Z" fill="white"/>
<path d="M19.5641 86.9905V97.4631H22.4543V91.9736C22.4543 90.9067 22.6307 90.1437 22.9835 89.6846C23.3363 89.212 23.9062 88.9756 24.6932 88.9756C25.3852 88.9756 25.8669 89.1917 26.1383 89.6238C26.4096 90.0425 26.5453 90.6839 26.5453 91.5482V97.4631H29.4355V91.0215C29.4355 90.3733 29.3744 89.7859 29.2523 89.2592C29.1438 88.719 28.947 88.2667 28.6621 87.902C28.3771 87.5239 27.9836 87.2336 27.4816 87.031C26.9931 86.815 26.3621 86.7069 25.5887 86.7069C24.9781 86.7069 24.3811 86.8487 23.7976 87.1323C23.2142 87.4024 22.7392 87.8413 22.3729 88.449H22.3118V86.9905H19.5641Z" fill="white"/>
<path d="M36.5342 94.9918C36.0864 94.9918 35.7133 94.8972 35.4147 94.7082C35.1162 94.5191 34.872 94.276 34.682 93.979C34.5056 93.6819 34.3767 93.351 34.2953 92.9864C34.2275 92.6083 34.1935 92.2302 34.1935 91.852C34.1935 91.4604 34.2343 91.089 34.3157 90.7379C34.4106 90.3733 34.5531 90.056 34.7431 89.7859C34.9466 89.5023 35.1909 89.2795 35.4758 89.1174C35.7743 88.9554 36.1271 88.8743 36.5342 88.8743C37.0091 88.8743 37.4026 88.9621 37.7147 89.1377C38.0268 89.3132 38.2778 89.5496 38.4677 89.8467C38.6577 90.1437 38.7934 90.4881 38.8748 90.8797C38.9562 91.2578 38.9969 91.663 38.9969 92.0951C38.9969 92.4732 38.9426 92.8378 38.8341 93.189C38.7391 93.5266 38.5899 93.8304 38.3863 94.1005C38.1828 94.3706 37.925 94.5866 37.6129 94.7487C37.3008 94.9107 36.9412 94.9918 36.5342 94.9918ZM41.7446 96.7946V86.9905H38.9969V88.3882H38.9562C38.6034 87.7805 38.1624 87.3484 37.6333 87.0918C37.1176 86.8352 36.5138 86.7069 35.8218 86.7069C35.0891 86.7069 34.4378 86.8487 33.8679 87.1323C33.3116 87.4159 32.8434 87.8008 32.4635 88.2869C32.0836 88.7596 31.7919 89.3132 31.5883 89.9479C31.3984 90.5691 31.3034 91.2173 31.3034 91.8925C31.3034 92.6083 31.3848 93.2902 31.5476 93.9384C31.724 94.5731 31.9954 95.1336 32.3617 95.6197C32.7281 96.0924 33.1962 96.4705 33.7661 96.7541C34.336 97.0242 35.0145 97.1592 35.8015 97.1592C36.4392 97.1592 37.043 97.0309 37.6129 96.7743C38.1964 96.5042 38.6441 96.0924 38.9562 95.5387H38.9969V96.9161C39.0105 97.6589 38.8273 98.2733 38.4474 98.7595C38.081 99.2456 37.4908 99.4887 36.6767 99.4887C36.161 99.4887 35.7065 99.3807 35.313 99.1646C34.9195 98.962 34.6549 98.5907 34.5192 98.0505H31.6494C31.6901 98.6447 31.8529 99.1511 32.1379 99.5697C32.4364 100.002 32.8027 100.353 33.2369 100.623C33.6847 100.893 34.1732 101.089 34.7024 101.21C35.2451 101.346 35.7743 101.413 36.2899 101.413C37.4976 101.413 38.461 101.251 39.1801 100.927C39.8993 100.603 40.4488 100.204 40.8287 99.7318C41.2087 99.2726 41.4529 98.773 41.5614 98.2328C41.6836 97.6926 41.7446 97.2132 41.7446 96.7946Z" fill="white"/>
<path d="M47.0432 85.37V83H44.153V85.37H47.0432ZM44.153 86.9905V97.4631H47.0432V86.9905H44.153Z" fill="white"/>
<path d="M57.0328 92.2369C57.0328 92.669 56.9853 93.0877 56.8903 93.4928C56.7954 93.8979 56.6461 94.2558 56.4426 94.5664C56.239 94.877 55.9812 95.1268 55.6691 95.3159C55.3706 95.4914 55.0043 95.5792 54.5701 95.5792C54.1494 95.5792 53.7831 95.4914 53.471 95.3159C53.1589 95.1268 52.9011 94.877 52.6976 94.5664C52.494 94.2558 52.3448 93.8979 52.2498 93.4928C52.1548 93.0877 52.1073 92.669 52.1073 92.2369C52.1073 91.7913 52.1548 91.3659 52.2498 90.9608C52.3448 90.5556 52.494 90.1978 52.6976 89.8872C52.9011 89.5766 53.1589 89.3335 53.471 89.1579C53.7831 88.9689 54.1494 88.8743 54.5701 88.8743C55.0043 88.8743 55.3706 88.9689 55.6691 89.1579C55.9812 89.3335 56.239 89.5766 56.4426 89.8872C56.6461 90.1978 56.7954 90.5556 56.8903 90.9608C56.9853 91.3659 57.0328 91.7913 57.0328 92.2369ZM49.3189 83V97.4631H52.0666V96.1261H52.1073C52.4194 96.7068 52.8807 97.1187 53.4913 97.3618C54.1019 97.6048 54.794 97.7264 55.5674 97.7264C56.0966 97.7264 56.619 97.6184 57.1346 97.4023C57.6502 97.1862 58.1115 96.8554 58.5186 96.4097C58.9392 95.9641 59.2785 95.3969 59.5363 94.7082C59.7941 94.006 59.923 93.1755 59.923 92.2167C59.923 91.2578 59.7941 90.4341 59.5363 89.7454C59.2785 89.0432 58.9392 88.4692 58.5186 88.0236C58.1115 87.5779 57.6502 87.2471 57.1346 87.031C56.619 86.815 56.0966 86.7069 55.5674 86.7069C54.9161 86.7069 54.2851 86.8352 53.6745 87.0918C53.0775 87.3349 52.6026 87.7265 52.2498 88.2667H52.2091V83H49.3189Z" fill="white"/>
<path d="M61.8429 83V97.4631H64.733V83H61.8429Z" fill="white"/>
<path d="M74.0917 91.1026H69.3901C69.4037 90.9 69.4444 90.6704 69.5123 90.4138C69.5937 90.1573 69.7226 89.9142 69.899 89.6846C70.0889 89.455 70.3332 89.266 70.6317 89.1174C70.9438 88.9554 71.3305 88.8743 71.7918 88.8743C72.4974 88.8743 73.0198 89.0634 73.359 89.4415C73.7118 89.8196 73.9561 90.3733 74.0917 91.1026ZM69.3901 92.9256H76.9819C77.0362 92.1154 76.9683 91.3389 76.7784 90.5961C76.5884 89.8534 76.2763 89.1917 75.8421 88.611C75.4215 88.0303 74.8787 87.5712 74.2139 87.2336C73.549 86.8825 72.7688 86.7069 71.8732 86.7069C71.0727 86.7069 70.34 86.8487 69.6751 87.1323C69.0238 87.4159 68.4607 87.8075 67.9857 88.3072C67.5108 88.7933 67.1445 89.374 66.8867 90.0492C66.6289 90.7244 66.5 91.4537 66.5 92.2369C66.5 93.0472 66.6221 93.7899 66.8663 94.4651C67.1241 95.1403 67.4837 95.721 67.945 96.2072C68.4064 96.6933 68.9695 97.0714 69.6344 97.3415C70.2992 97.5981 71.0455 97.7264 71.8732 97.7264C73.0673 97.7264 74.085 97.4563 74.9262 96.9161C75.7675 96.376 76.3917 95.4779 76.7987 94.222H74.2546C74.1596 94.5461 73.9018 94.8567 73.4811 95.1538C73.0605 95.4374 72.5585 95.5792 71.975 95.5792C71.1609 95.5792 70.5367 95.3699 70.1025 94.9513C69.6683 94.5326 69.4308 93.8574 69.3901 92.9256Z" fill="white"/>
<rect x="47.6641" width="17.3329" height="17.3329" fill="white"/>
<rect x="13" y="34.666" width="51.9986" height="17.3329" fill="white"/>
<rect x="30.332" y="69.3311" width="51.9986" height="17.3329" transform="rotate(-90 30.332 69.3311)" fill="white"/>
</svg>
